<svg width="512pt" height="512pt" viewBox="0 0 512 512" xmlns="http://www.w3.org/2000/svg"><path fill="#0e6caa" d="M251.37 0h10.12c32.05.85 63.96 7.49 93.51 19.96 50.79 21.17 94.3 59.24 121.94 106.82 21.82 37.11 33.76 79.79 35.06 122.78v14.46c-1.46 34.99-9.54 69.79-24.66 101.43-16.06 33.94-39.64 64.35-68.7 88.13-30.55 25.22-67.06 43.12-105.67 51.93-16.91 3.96-34.23 5.83-51.55 6.49h-10.66c-37.18-1-74.21-9.78-107.57-26.3-45.17-22.05-83.47-57.8-108.59-101.33C12.93 347.21 1.12 304.51 0 261.53v-11.84c.83-23.14 4.35-46.22 11.18-68.37 11.73-38.62 32.81-74.33 60.87-103.33 21.17-21.85 46.25-39.93 73.73-53C178.65 9.21 214.94.79 251.37 0M250 141.94c-10.17 5.15-17.05 15.26-19.88 26.12-4.28 15.87-2.42 32.44-2.86 48.66-8.54-.02-17.08.02-25.62-.02-.14 14.37-.02 28.75-.06 43.12 8.57.14 17.14.04 25.71.05.07 41.59-.07 83.17.08 124.75 17.2.14 34.4.01 51.59.07.1-41.6-.01-83.2.07-124.8 11.52-.06 23.04.1 34.56-.08 1.17-14.39 3.13-28.7 4.36-43.08-12.98-.02-25.95-.02-38.92 0 .07-8.25-.1-16.51.15-24.76.37-3.38.37-7.31 2.99-9.87 2.98-3.23 7.68-3.53 11.79-3.86 7.95-.3 15.92-.05 23.88-.15-.01-14.36.06-28.73-.03-43.1-6.95.03-13.89.02-20.83.02-15.8.03-32.63-.91-46.98 6.93z"/><path fill="#fff" d="M250 141.94c14.35-7.84 31.18-6.9 46.98-6.93 6.94 0 13.88.01 20.83-.02.09 14.37.02 28.74.03 43.1-7.96.1-15.93-.15-23.88.15-4.11.33-8.81.63-11.79 3.86-2.62 2.56-2.62 6.49-2.99 9.87-.25 8.25-.08 16.51-.15 24.76 12.97-.02 25.94-.02 38.92 0-1.23 14.38-3.19 28.69-4.36 43.08-11.52.18-23.04.02-34.56.08-.08 41.6.03 83.2-.07 124.8-17.19-.06-34.39.07-51.59-.07-.15-41.58-.01-83.16-.08-124.75-8.57-.01-17.14.09-25.71-.05.04-14.37-.08-28.75.06-43.12 8.54.04 17.08 0 25.62.02.44-16.22-1.42-32.79 2.86-48.66 2.83-10.86 9.71-20.97 19.88-26.12z"/></svg>