<svg width="512pt" height="512pt" viewBox="0 0 512 512" xmlns="http://www.w3.org/2000/svg"><g fill="#bf1818"><path d="M249.55 0h15.85c25.24 1.42 50.41 5.66 74.28 14.14 58.97 20.12 109.8 62.75 139.93 117.29 11.61 21.03 20.44 43.63 25.81 67.05 3.85 15.77 5.46 31.95 6.58 48.11v18.81c-1.25 19.92-3.84 39.84-9.4 59.07-10.29 37.08-29.03 71.78-54.49 100.65-23.34 26.5-52.23 48.11-84.29 62.95-31.08 14.63-65.16 22.32-99.41 23.93H247.6c-22.41-1.2-44.76-4.54-66.21-11.22-51.33-15.51-97.44-47.7-129.64-90.57-24.99-32.97-41.68-72.16-48.36-112.97C1.55 286.71.87 276.04 0 265.4v-18.8c1.14-16.6 2.83-33.23 6.91-49.4 10.68-45.54 34.17-87.97 67.1-121.21 16.45-16.6 35.16-30.98 55.5-42.49C165.96 12.65 207.62 1.28 249.55 0m104.18 111.67c-3.73 3.08-6.2 7.3-9.07 11.12-16.05-3.87-32.58-6.25-49.11-5.36-13.07 1.21-25.49 8.4-32.93 19.23-10.39 14.29-13.83 32.49-13.07 49.86-37.33 1.04-75.15 10.5-106.58 31.15-10.81-14.3-31.17-20.29-47.94-13.79-18.26 6.31-30.17 26.59-26.86 45.61 1.8 12.93 10.16 24.71 21.76 30.69 1.4.91 3.29 1.34 4.21 2.84-1.15 7.88-2.11 15.89-.95 23.84 2.08 21.29 13.44 40.68 28.38 55.57 17.82 17.43 40.23 29.64 63.77 37.43 36.05 11.97 75.05 13.66 112.38 7.51 32.59-5.86 64.89-18.55 89.51-41.21 5.32-3.62 8.78-9.15 12.94-13.92 15.58-19.1 22.87-45.09 17.88-69.39 6.33-3.63 13.49-6.79 17.56-13.2 12.17-15.38 11.84-39.32-1.13-54.11-7.78-8.98-19.55-14.47-31.46-14.29-13.12-.59-26.06 6.08-34.01 16.37-29.73-19.72-65.41-28.91-100.75-30.97-.59-14.97 2.1-31.37 12.68-42.71 6.6-7.01 16.83-9.08 26.08-7.88 10.92.46 21.71 2.29 32.34 4.76.21 1.37.32 2.76.35 4.15.36 12.85 7.18 25.29 17.75 32.59 7.35 5.3 16.51 7.88 25.55 7.42 20.9.22 39.76-18.21 40.51-39.02 1.02-13.08-4.69-26.37-14.66-34.84-7.48-6.18-17.08-10.04-26.85-9.86-10.33-.41-20.49 3.78-28.28 10.41z"/><path d="M377.29 120.34c5.37-.71 11.13-.27 15.84 2.61 7.63 4.39 12.54 13.25 11.64 22.08-.66 12.63-13.25 23.06-25.79 21.28-11.91-1.21-21.74-12.75-20.62-24.74.66-10.27 8.73-19.53 18.93-21.23zM241.41 205.49c19.96-1.25 40.12.03 59.68 4.3 27.49 5.92 54.34 17.68 74.98 37.13 13.72 13.04 24.11 30.78 24.51 50.09.6 16.23-6.18 31.94-16.32 44.35-13.52 16.49-32.05 28.19-51.59 36.29-30.09 12.39-63.25 16.29-95.57 13.68-29.33-2.58-58.58-10.96-83.42-27.08-16.97-11.1-32.26-26.42-38.97-45.95-5.84-16.31-3.74-34.9 4.63-49.96 9.27-17.12 24.69-30.02 41.3-39.69 24.57-14.07 52.66-21.15 80.77-23.16m-48.1 51.81c-11.07 2.02-19.11 13.7-17.2 24.77 1.31 10.18 10.6 18.76 20.95 18.82 10.1.8 19.79-6.61 22.32-16.29 2.34-8.36-.87-17.92-7.8-23.15-5.05-4.09-11.96-5.44-18.27-4.15m117.08.24c-8.82 2.23-15.8 10.46-16.23 19.6-.7 6.84 2.19 13.83 7.34 18.34 8.62 7.94 23.55 7.1 31.14-1.86 7.74-8.32 7.28-22.53-.82-30.45-5.53-5.47-13.93-7.68-21.43-5.63m-118.17 79.45c-3.88 1.15-7 4.84-6.71 9.01-.24 3.52 2.1 6.83 5.21 8.33 40.53 20.46 90.8 20.38 131.21-.37 6.34-3.19 5.98-13.57-.57-16.32-5.04-2.83-10.11 1.09-14.72 2.92-33.28 14.52-72.75 13.84-105.48-1.91-2.72-1.43-5.86-2.62-8.94-1.66zM86.42 242.01c.26-11.38 10.18-21.42 21.52-21.93 7.62-.67 15.44 2.81 20.04 8.93-9.12 7.95-17.26 17.15-23.39 27.62-1.55 2.56-2.66 5.38-4.54 7.73-8.49-3.78-14.34-13-13.63-22.35zM384.02 229.01c4.58-6.13 12.43-9.59 20.04-8.93 11.34.51 21.24 10.57 21.52 21.93.68 9.35-5.14 18.58-13.63 22.36-1.87-2.37-3.01-5.18-4.54-7.75-6.14-10.46-14.27-19.66-23.39-27.61z"/></g><g fill="#fff"><path d="M353.73 111.67c7.79-6.63 17.95-10.82 28.28-10.41 9.77-.18 19.37 3.68 26.85 9.86 9.97 8.47 15.68 21.76 14.66 34.84-.75 20.81-19.61 39.24-40.51 39.02-9.04.46-18.2-2.12-25.55-7.42-10.57-7.3-17.39-19.74-17.75-32.59a31.97 31.97 0 0 0-.35-4.15c-10.63-2.47-21.42-4.3-32.34-4.76-9.25-1.2-19.48.87-26.08 7.88-10.58 11.34-13.27 27.74-12.68 42.71 35.34 2.06 71.02 11.25 100.75 30.97 7.95-10.29 20.89-16.96 34.01-16.37 11.91-.18 23.68 5.31 31.46 14.29 12.97 14.79 13.3 38.73 1.13 54.11-4.07 6.41-11.23 9.57-17.56 13.2 4.99 24.3-2.3 50.29-17.88 69.39-4.16 4.77-7.62 10.3-12.94 13.92-24.62 22.66-56.92 35.35-89.51 41.21-37.33 6.15-76.33 4.46-112.38-7.51-23.54-7.79-45.95-20-63.77-37.43-14.94-14.89-26.3-34.28-28.38-55.57-1.16-7.95-.2-15.96.95-23.84-.92-1.5-2.81-1.93-4.21-2.84-11.6-5.98-19.96-17.76-21.76-30.69-3.31-19.02 8.6-39.3 26.86-45.61 16.77-6.5 37.13-.51 47.94 13.79 31.43-20.65 69.25-30.11 106.58-31.15-.76-17.37 2.68-35.57 13.07-49.86 7.44-10.83 19.86-18.02 32.93-19.23 16.53-.89 33.06 1.49 49.11 5.36 2.87-3.82 5.34-8.04 9.07-11.12m23.56 8.67c-10.2 1.7-18.27 10.96-18.93 21.23-1.12 11.99 8.71 23.53 20.62 24.74 12.54 1.78 25.13-8.65 25.79-21.28.9-8.83-4.01-17.69-11.64-22.08-4.71-2.88-10.47-3.32-15.84-2.61m-135.88 85.15c-28.11 2.01-56.2 9.09-80.77 23.16-16.61 9.67-32.03 22.57-41.3 39.69-8.37 15.06-10.47 33.65-4.63 49.96 6.71 19.53 22 34.85 38.97 45.95 24.84 16.12 54.09 24.5 83.42 27.08 32.32 2.61 65.48-1.29 95.57-13.68 19.54-8.1 38.07-19.8 51.59-36.29 10.14-12.41 16.92-28.12 16.32-44.35-.4-19.31-10.79-37.05-24.51-50.09-20.64-19.45-47.49-31.21-74.98-37.13-19.56-4.27-39.72-5.55-59.68-4.3M86.42 242.01c-.71 9.35 5.14 18.57 13.63 22.35 1.88-2.35 2.99-5.17 4.54-7.73 6.13-10.47 14.27-19.67 23.39-27.62-4.6-6.12-12.42-9.6-20.04-8.93-11.34.51-21.26 10.55-21.52 21.93m297.6-13c9.12 7.95 17.25 17.15 23.39 27.61 1.53 2.57 2.67 5.38 4.54 7.75 8.49-3.78 14.31-13.01 13.63-22.36-.28-11.36-10.18-21.42-21.52-21.93-7.61-.66-15.46 2.8-20.04 8.93z"/><path d="M193.31 257.3c6.31-1.29 13.22.06 18.27 4.15 6.93 5.23 10.14 14.79 7.8 23.15-2.53 9.68-12.22 17.09-22.32 16.29-10.35-.06-19.64-8.64-20.95-18.82-1.91-11.07 6.13-22.75 17.2-24.77zM310.39 257.54c7.5-2.05 15.9.16 21.43 5.63 8.1 7.92 8.56 22.13.82 30.45-7.59 8.96-22.52 9.8-31.14 1.86-5.15-4.51-8.04-11.5-7.34-18.34.43-9.14 7.41-17.37 16.23-19.6zM192.22 336.99c3.08-.96 6.22.23 8.94 1.66 32.73 15.75 72.2 16.43 105.48 1.91 4.61-1.83 9.68-5.75 14.72-2.92 6.55 2.75 6.91 13.13.57 16.32-40.41 20.75-90.68 20.83-131.21.37-3.11-1.5-5.45-4.81-5.21-8.33-.29-4.17 2.83-7.86 6.71-9.01z"/></g></svg>