<svg width="512pt" height="512pt" viewBox="0 0 512 512" xmlns="http://www.w3.org/2000/svg"><path fill="#11abc2" d="M241.45 0h29.1c62.64 4.39 124.19 31.03 167.71 76.74 44.22 43.21 69.17 103.67 73.74 164.85v28.96c-4.42 64.38-32.74 127.18-80.23 171.22-43.02 42.03-101.81 65.69-161.36 70.23h-28.96c-62.41-4.43-123.67-30.87-167.22-76.23C29.71 392.48 4.59 331.85 0 270.41v-28.82c4.57-61.18 29.52-121.64 73.74-164.85C117.26 31.03 178.81 4.39 241.45 0m68.95 152.5c-35.25 3.46-61.22 41.03-52.44 75.45-48.46-2.87-95.47-25.99-126.17-63.78-.37-.01-1.12-.01-1.5-.01-15.46 27.12-6.24 63.91 18.95 81.53-9.61-.47-18.64-3.67-27.3-7.61.36 17.82 7.83 35.8 21.75 47.28 7.16 7.6 17.83 9.93 26.57 14.41-8.64 2.02-17.6 1.44-26.32.37 7.46 24.56 31.73 42.51 57.33 43.13-25.41 19.96-58.46 28.86-90.54 25.82 60.54 39.12 145.79 36.23 202.25-9.12 44.02-34.88 69.33-91.5 67.34-147.49 11.54-8.66 22.19-19.19 29.88-31.38-10.61 4.55-21.77 8.29-33.39 8.87 11.51-8.03 21.29-19.27 25.3-32.92-11.23 5.76-22.87 10.86-35.22 13.74-5.07 2.24-6.96-3.29-10.16-5.52-12.94-10.09-29.98-15.34-46.33-12.77z"/><path fill="#feffff" d="M310.4 152.5c16.35-2.57 33.39 2.68 46.33 12.77 3.2 2.23 5.09 7.76 10.16 5.52 12.35-2.88 23.99-7.98 35.22-13.74-4.01 13.65-13.79 24.89-25.3 32.92 11.62-.58 22.78-4.32 33.39-8.87-7.69 12.19-18.34 22.72-29.88 31.38 1.99 55.99-23.32 112.61-67.34 147.49-56.46 45.35-141.71 48.24-202.25 9.12 32.08 3.04 65.13-5.86 90.54-25.82-25.6-.62-49.87-18.57-57.33-43.13 8.72 1.07 17.68 1.65 26.32-.37-8.74-4.48-19.41-6.81-26.57-14.41-13.92-11.48-21.39-29.46-21.75-47.28 8.66 3.94 17.69 7.14 27.3 7.61-25.19-17.62-34.41-54.41-18.95-81.53.38 0 1.13 0 1.5.01 30.7 37.79 77.71 60.91 126.17 63.78-8.78-34.42 17.19-71.99 52.44-75.45z"/></svg>