<?xml version="1.0" standalone="no"?>
<!DOCTYPE svg PUBLIC "-//W3C//DTD SVG 20010904//EN"
 "http://www.w3.org/TR/2001/REC-SVG-20010904/DTD/svg10.dtd">
<svg version="1.0" xmlns="http://www.w3.org/2000/svg"
 width="700.000000pt" height="700.000000pt" viewBox="0 0 700.000000 700.000000"
 preserveAspectRatio="xMidYMid meet">
<metadata>
Created by potrace 1.11, written by Peter Selinger 2001-2013
</metadata>
<g transform="translate(0.000000,700.000000) scale(0.100000,-0.100000)"
fill="#000000" stroke="none">
<path d="M3976 6483 c-2 -2 -12 -6 -23 -8 -10 -2 -18 -4 -18 -5 0 -3 -39 -11
-60 -13 -11 -1 -22 -5 -25 -8 -12 -14 -71 -39 -80 -34 -6 4 -13 0 -16 -9 -3
-8 -19 -18 -35 -21 -16 -4 -29 -11 -29 -16 0 -5 -6 -9 -13 -9 -7 0 -35 -14
-61 -30 -26 -17 -51 -28 -57 -25 -5 3 -6 -1 -3 -9 3 -9 2 -16 -3 -16 -5 0 -28
-16 -51 -36 -23 -19 -42 -32 -42 -27 -1 4 -7 -4 -15 -19 -8 -15 -24 -30 -35
-33 -11 -4 -18 -11 -15 -16 6 -8 -9 -13 -28 -10 -5 1 -6 -3 -2 -9 3 -5 1 -10
-5 -10 -6 0 -8 -4 -5 -10 6 -10 -5 -13 -35 -11 -10 0 -11 -1 -2 -5 18 -8 15
-22 -8 -29 -11 -4 -18 -10 -15 -15 5 -8 -23 -25 -37 -22 -4 1 -4 -6 -1 -15 5
-13 2 -15 -12 -9 -11 4 -16 4 -12 0 11 -12 -13 -33 -31 -27 -11 3 -13 2 -5 -4
8 -6 9 -14 3 -23 -6 -8 -10 -11 -10 -6 0 5 -19 -12 -42 -37 -55 -59 -78 -89
-78 -99 0 -4 -7 -8 -16 -8 -8 0 -12 -5 -9 -10 4 -6 -8 -24 -25 -40 -18 -17
-29 -30 -26 -30 4 0 1 -6 -6 -14 -7 -8 -17 -11 -22 -8 -5 3 -6 0 -2 -6 3 -6
-8 -26 -26 -45 -18 -19 -33 -41 -33 -48 0 -8 -6 -13 -13 -11 -8 1 -11 -2 -8
-6 3 -5 -3 -17 -14 -27 -11 -10 -17 -22 -14 -26 3 -5 -2 -9 -11 -9 -9 0 -14
-4 -10 -9 3 -6 -3 -14 -12 -20 -10 -6 -14 -11 -10 -11 4 0 -3 -15 -17 -33 -15
-19 -26 -37 -26 -41 0 -4 -9 -16 -20 -28 -10 -12 -17 -25 -14 -30 3 -4 0 -8
-5 -8 -6 0 -11 -5 -11 -11 0 -7 -8 -18 -17 -26 -10 -8 -12 -11 -4 -7 16 8 11
-2 -24 -51 -12 -16 -25 -38 -28 -48 -4 -11 -12 -15 -19 -11 -9 5 -9 3 1 -9 7
-9 9 -17 4 -17 -5 0 -10 -8 -11 -17 -1 -10 -3 -29 -6 -43 -2 -14 -5 -31 -5
-38 -1 -7 -5 -10 -11 -7 -6 3 -7 -1 -4 -10 4 -8 0 -23 -7 -32 -8 -9 -9 -14 -2
-10 7 5 9 0 6 -13 -3 -11 -8 -18 -12 -16 -4 3 -7 -8 -6 -22 0 -16 -5 -26 -12
-24 -7 1 -13 -2 -13 -8 0 -5 4 -10 9 -10 5 0 8 -8 6 -17 -2 -10 -4 -18 -5 -18
-2 0 -9 -35 -14 -68 -2 -15 -11 -36 -20 -46 -10 -11 -13 -22 -8 -25 9 -5 9
-29 1 -46 -3 -7 -7 -23 -8 -38 0 -7 -6 -10 -13 -6 -7 5 -8 3 -2 -7 11 -19 14
-39 5 -39 -5 0 -8 -10 -8 -22 1 -55 -3 -69 -15 -62 -10 6 -10 4 0 -8 8 -10 9
-18 3 -22 -6 -4 -7 -14 -4 -23 4 -9 2 -14 -3 -11 -5 4 -8 -11 -8 -33 1 -23 -3
-39 -10 -39 -6 0 -4 -5 4 -10 8 -5 10 -10 3 -10 -6 0 -9 -9 -6 -20 3 -12 0
-20 -7 -20 -9 0 -10 -3 -1 -14 9 -11 8 -15 -5 -20 -13 -5 -15 -9 -6 -18 9 -9
7 -17 -6 -32 -9 -11 -11 -16 -4 -12 7 4 12 1 12 -8 0 -9 -4 -16 -9 -16 -4 0
-6 -12 -3 -26 3 -15 1 -24 -4 -21 -5 3 -9 -16 -10 -41 0 -34 -4 -46 -14 -44
-11 3 -11 0 0 -12 10 -13 10 -19 0 -31 -10 -12 -10 -15 0 -15 10 0 10 -3 0
-15 -7 -8 -9 -15 -5 -15 4 0 4 -6 -1 -12 -5 -7 -9 -37 -9 -65 0 -29 -3 -53 -7
-53 -4 0 -7 -8 -7 -17 1 -21 -7 -84 -15 -128 -4 -16 -8 -46 -10 -65 -3 -19 -5
-35 -6 -35 -2 0 -10 -35 -16 -70 -6 -38 -8 -46 -23 -120 -7 -33 -18 -66 -25
-74 -9 -12 -8 -13 2 -7 11 7 12 4 3 -12 -6 -11 -11 -32 -11 -46 0 -14 -5 -26
-12 -26 -6 0 -9 -3 -5 -6 8 -8 -18 -34 -33 -34 -6 0 -8 -5 -4 -12 5 -7 2 -9
-9 -5 -11 4 -14 2 -11 -8 3 -8 -3 -16 -15 -20 -12 -3 -19 -11 -16 -16 4 -5 3
-9 -2 -9 -11 0 -58 -38 -108 -87 -24 -23 -45 -40 -48 -37 -3 3 -10 -4 -17 -15
-6 -12 -18 -21 -26 -21 -8 0 -12 -4 -9 -10 3 -5 3 -10 -2 -10 -4 0 -24 -15
-44 -33 -68 -59 -80 -68 -90 -62 -5 4 -8 1 -7 -7 2 -7 -2 -12 -9 -11 -8 2 -10
-4 -6 -14 4 -11 3 -14 -5 -9 -7 4 -12 2 -12 -5 0 -9 -3 -9 -14 0 -12 10 -13 8
-9 -11 3 -13 3 -20 -2 -16 -4 4 -20 -7 -36 -23 -15 -16 -33 -29 -39 -29 -5 0
-10 -5 -10 -11 0 -6 -7 -8 -16 -5 -8 3 -12 2 -9 -4 6 -10 -17 -40 -30 -40 -4
0 -16 -12 -27 -26 -14 -18 -23 -22 -28 -14 -5 8 -10 2 -14 -15 -5 -20 -12 -26
-26 -22 -11 3 -19 2 -18 -2 2 -17 -3 -31 -12 -31 -5 0 -28 -18 -50 -40 -23
-22 -46 -38 -51 -34 -5 3 -8 2 -7 -3 4 -11 -39 -53 -54 -53 -6 0 -8 -3 -5 -6
7 -8 -93 -90 -105 -87 -4 2 -7 0 -6 -5 4 -11 -35 -52 -50 -52 -7 0 -10 -4 -7
-10 6 -10 -9 -15 -30 -10 -5 1 -7 -2 -3 -6 11 -10 -80 -96 -94 -88 -6 4 -8 3
-5 -3 5 -8 -28 -47 -49 -55 -3 -2 -32 -29 -65 -60 -32 -32 -59 -55 -59 -52 0
3 -7 -1 -15 -10 -8 -8 -15 -19 -15 -25 0 -6 -7 -8 -16 -4 -10 4 -17 -1 -21
-16 -5 -20 -15 -26 -37 -22 -5 1 -3 -6 5 -15 13 -16 12 -17 -9 -12 -12 4 -20
2 -17 -3 7 -10 -83 -105 -96 -102 -5 2 -9 -2 -9 -9 0 -6 -19 -30 -42 -53 -54
-52 -88 -93 -88 -104 0 -4 -11 -20 -25 -35 -13 -14 -21 -26 -18 -26 4 0 2 -5
-5 -12 -18 -18 -14 -35 9 -41 13 -4 18 -10 13 -18 -4 -8 -3 -10 4 -5 13 8 72
-20 72 -34 0 -6 4 -9 8 -7 16 5 101 -46 95 -57 -4 -6 1 -5 10 3 12 10 17 10
17 1 0 -6 6 -10 13 -7 6 2 18 -3 25 -12 8 -9 11 -10 7 -3 -3 6 -1 12 4 12 6 0
11 -4 11 -10 0 -5 3 -9 8 -8 18 4 81 -15 76 -23 -3 -5 2 -6 10 -3 10 4 16 1
16 -7 0 -11 2 -11 8 -2 6 10 17 10 47 1 22 -7 42 -15 45 -18 5 -5 20 -8 63
-13 10 -1 22 -9 27 -17 9 -13 10 -13 10 0 0 13 1 13 10 0 9 -13 10 -13 10 0 0
13 1 13 10 0 5 -8 10 -11 10 -6 0 5 8 2 17 -5 14 -12 16 -12 8 0 -6 11 -5 12
6 5 15 -9 33 -13 64 -16 11 -1 45 -7 75 -15 67 -17 99 -24 123 -26 13 -1 17
-7 13 -22 -4 -18 -4 -18 7 -4 13 17 77 15 77 -2 0 -5 5 -9 11 -9 5 0 7 6 3 13
-6 8 -3 8 9 -1 9 -8 22 -10 28 -6 9 5 10 2 6 -12 -6 -16 -5 -17 5 -4 14 17 48
15 60 -4 6 -8 8 -8 8 1 0 6 8 10 18 8 9 -1 16 -8 14 -16 -2 -10 0 -10 12 0 18
15 173 5 195 -13 12 -8 13 -8 7 2 -10 16 25 13 36 -3 5 -6 8 -5 8 3 0 13 58
14 66 1 2 -3 20 -4 40 -2 33 3 36 2 24 -12 -11 -13 -10 -14 13 -2 25 13 49 12
172 -9 17 -2 42 -5 58 -6 15 0 27 -5 27 -11 0 -5 7 -7 15 -3 8 3 26 1 40 -4
18 -7 25 -6 25 3 0 8 3 8 8 2 4 -6 19 -10 35 -10 15 1 27 -2 27 -5 0 -3 10 -6
23 -7 69 -1 78 -3 71 -15 -6 -10 -4 -10 8 0 12 9 18 10 23 2 5 -8 11 -8 21 1
8 6 14 7 14 2 0 -5 15 -9 33 -8 17 1 43 -5 56 -13 13 -8 21 -9 17 -4 -4 7 15
10 54 9 33 -1 60 -6 60 -12 0 -5 5 -4 12 3 10 10 15 7 26 -10 7 -13 11 -16 8
-7 -4 15 5 16 77 13 45 -2 110 -4 144 -5 39 -1 60 -6 56 -12 -4 -6 -1 -7 8 -1
18 11 109 12 102 1 -3 -5 5 -6 17 -2 32 10 70 13 70 6 0 -9 43 -7 58 3 7 4 12
3 12 -3 0 -7 8 -7 25 -1 20 8 27 6 31 -5 4 -8 10 -15 16 -15 5 0 7 4 4 9 -6 9
89 10 98 0 3 -2 28 -4 55 -3 30 1 51 -2 51 -8 0 -6 6 -5 15 2 9 8 20 9 28 4
20 -14 436 -4 485 11 6 3 12 -1 12 -7 0 -7 4 -7 14 1 10 8 16 9 21 1 3 -6 10
-8 14 -6 4 3 43 7 86 11 43 3 81 8 83 10 3 3 12 -1 20 -8 13 -9 14 -9 8 1 -5
8 0 12 14 12 14 0 19 -4 14 -12 -4 -7 1 -5 12 4 14 13 23 14 38 6 15 -8 17 -8
11 2 -6 10 -4 12 7 7 9 -3 21 0 27 6 6 6 11 7 11 1 0 -5 9 -10 20 -10 11 0 20
4 20 8 0 4 9 5 20 3 11 -2 22 1 26 7 4 6 10 5 15 -3 7 -11 9 -11 9 -1 0 7 5
10 10 7 6 -4 7 -12 4 -18 -4 -7 3 -2 15 11 18 18 26 20 41 12 15 -8 20 -8 20
1 0 6 6 9 14 6 8 -3 17 -3 21 1 4 4 21 8 38 9 18 0 44 3 59 6 15 3 30 1 34 -4
4 -6 11 -6 20 2 7 6 20 9 29 6 8 -4 17 -2 21 4 4 7 10 6 19 -1 9 -7 14 -7 17
-1 1 6 32 13 68 17 36 3 83 8 105 11 22 2 54 5 72 6 17 1 29 5 26 10 -2 4 3 8
11 8 9 1 22 2 29 3 6 1 18 -2 25 -8 9 -6 12 -6 10 4 -2 7 3 15 11 18 9 3 11 0
6 -8 -5 -8 0 -7 16 2 26 16 37 17 56 5 9 -6 11 -3 6 9 -5 13 -3 16 9 11 9 -3
19 -3 22 1 8 7 33 13 68 15 14 1 24 6 21 11 -3 5 0 7 8 4 8 -3 19 1 26 8 7 7
24 11 38 10 13 -2 22 0 20 4 -8 14 27 21 41 9 12 -10 13 -9 8 5 -5 12 -2 15
12 9 12 -4 15 -3 10 6 -4 6 -4 11 1 9 14 -3 96 22 126 38 15 8 27 12 27 7 0
-4 4 -3 8 4 8 13 118 63 139 63 8 0 11 5 7 12 -5 8 -2 9 9 5 10 -4 20 1 27 11
8 15 11 15 20 2 8 -13 10 -12 10 4 0 11 3 16 7 13 3 -4 11 0 18 9 6 9 23 17
38 17 15 1 27 8 27 15 0 7 5 10 10 7 6 -3 10 -1 10 5 0 18 36 60 44 52 4 -3 4
1 1 10 -4 10 1 29 13 45 l20 28 -33 37 c-19 20 -36 34 -39 30 -3 -3 -6 2 -6
11 0 10 -4 17 -10 17 -15 0 -50 33 -50 48 0 7 -4 10 -10 7 -5 -3 -10 1 -10 9
0 9 -7 16 -16 16 -8 0 -13 4 -10 9 3 5 -3 11 -14 14 -11 3 -20 13 -20 22 0 9
-4 14 -9 10 -5 -3 -17 5 -25 17 -9 12 -16 18 -16 13 0 -6 -3 -6 -8 0 -12 18
-198 175 -207 175 -5 0 -39 26 -66 52 -9 9 -20 14 -23 11 -3 -4 -6 -1 -6 5 0
7 -6 12 -12 12 -7 0 -27 13 -44 29 -16 16 -40 32 -52 35 -12 4 -22 11 -22 15
0 4 -14 18 -31 30 -18 13 -28 18 -24 10 5 -7 -6 -2 -24 10 -25 18 -30 26 -19
33 8 5 2 6 -16 2 -21 -5 -27 -4 -22 5 4 7 0 11 -12 11 -19 0 -46 23 -37 31 2
3 -6 6 -18 6 -12 1 -23 7 -25 13 -2 5 -10 10 -18 10 -8 0 -17 7 -20 15 -4 8
-10 12 -15 9 -5 -3 -9 0 -9 5 0 6 -9 11 -21 11 -11 0 -17 5 -14 10 3 6 -1 10
-9 10 -8 0 -21 8 -28 18 -7 9 -22 18 -33 20 -11 2 -26 11 -32 20 -7 9 -13 12
-13 6 -1 -5 -9 1 -19 13 -10 12 -21 19 -25 16 -3 -4 -6 2 -6 13 0 16 -2 17
-10 4 -6 -10 -10 -11 -10 -2 0 6 -7 12 -16 12 -8 0 -12 5 -9 10 3 6 -1 10 -10
10 -8 0 -18 6 -21 14 -3 9 -12 12 -22 9 -12 -5 -14 -2 -9 11 4 10 3 15 -3 11
-6 -3 -10 -1 -10 5 0 6 -4 8 -10 5 -5 -3 -10 1 -10 9 0 9 -6 13 -14 10 -9 -3
-21 5 -31 20 -10 14 -24 26 -32 26 -8 0 -11 5 -8 10 3 5 1 10 -6 10 -6 0 -29
18 -50 40 -22 22 -41 40 -44 40 -2 0 -15 10 -28 23 -51 47 -73 64 -95 76 -12
7 -20 17 -16 23 4 6 3 8 -4 4 -6 -3 -18 1 -26 10 -9 8 -16 13 -16 10 0 -6 -28
16 -56 42 -17 17 -18 36 -1 26 6 -4 3 2 -7 14 -11 12 -16 22 -11 22 4 0 2 7
-5 15 -7 8 -8 15 -3 15 5 0 9 9 9 19 0 11 -4 17 -8 15 -7 -5 -13 43 -9 75 2 7
-3 10 -9 6 -13 -8 -9 17 5 27 6 5 5 8 -4 8 -7 0 -11 6 -7 15 3 8 0 15 -6 15
-7 0 -7 4 1 14 7 9 8 17 2 20 -5 3 -8 14 -7 24 2 9 -2 20 -8 24 -7 5 -6 8 4 8
13 0 13 2 1 9 -8 6 -14 28 -15 57 -1 27 -4 54 -7 59 -4 6 -5 18 -4 28 2 9 -2
17 -8 17 -7 0 -5 5 3 10 8 5 10 10 3 10 -6 0 -10 11 -8 25 1 14 -2 28 -7 31
-6 4 -5 10 3 15 8 5 9 9 4 9 -10 0 -16 26 -18 78 -1 12 -4 22 -8 22 -4 0 -8 8
-8 18 1 18 -9 97 -11 97 -2 0 -10 35 -14 65 -2 14 -5 25 -6 25 -1 0 -6 28 -13
80 -2 12 -6 26 -10 32 -4 6 -2 15 3 18 8 5 7 12 -3 23 -7 10 -13 33 -13 54 1
20 -2 34 -6 31 -5 -2 -9 8 -10 24 -2 43 -5 57 -12 74 -4 9 -8 27 -10 41 -1 13
-5 28 -8 33 -3 6 -9 24 -13 40 -5 17 -10 37 -12 45 -8 28 -3 64 10 72 9 6 9 8
-2 8 -8 0 -12 2 -9 5 10 10 78 -29 78 -44 0 -14 1 -14 10 -1 8 12 10 12 11 -5
0 -12 3 -15 6 -7 4 10 9 9 20 -5 8 -10 12 -12 8 -6 -4 9 -1 11 10 7 12 -5 13
-9 4 -20 -10 -12 -8 -13 6 -8 14 6 16 4 10 -6 -5 -9 -4 -11 4 -6 6 4 9 12 6
17 -3 5 1 6 9 3 9 -3 13 -11 10 -16 -4 -6 2 -5 14 1 18 9 23 8 33 -10 8 -15
14 -18 22 -10 7 7 14 5 24 -7 10 -13 13 -13 11 -2 -3 15 20 21 37 10 17 -12
55 -19 49 -9 -3 5 2 9 10 9 8 0 18 -4 21 -10 3 -5 11 -10 16 -10 6 0 7 5 4 10
-4 7 3 9 19 6 16 -3 26 0 26 7 0 7 4 6 10 -3 5 -8 10 -10 10 -4 0 6 12 12 28
12 36 2 55 6 69 15 6 4 14 3 18 -3 3 -5 11 -10 16 -10 6 0 7 5 4 10 -3 6 1 10
9 10 9 0 16 -6 16 -12 0 -9 4 -8 10 2 5 8 10 10 10 4 0 -7 7 -15 16 -18 8 -3
12 -2 9 4 -9 15 3 12 24 -7 11 -9 18 -20 15 -25 -3 -5 -2 -8 3 -7 17 3 36 -1
31 -7 -4 -3 1 -14 10 -24 52 -56 62 -69 62 -79 0 -6 6 -11 14 -11 8 0 18 -9
21 -20 3 -11 13 -20 21 -20 16 0 19 -16 4 -25 -6 -4 -8 -11 -5 -16 4 -5 1 -9
-6 -9 -7 0 -10 -3 -6 -6 3 -3 -1 -23 -8 -45 -8 -21 -12 -39 -8 -39 3 0 1 -6
-4 -12 -6 -8 -8 -91 -6 -198 3 -180 3 -246 1 -259 0 -3 1 -8 2 -11 1 -3 3 -23
4 -45 1 -23 6 -46 10 -53 4 -7 5 -15 2 -20 -2 -4 -1 -28 4 -52 8 -41 15 -84
24 -135 2 -11 9 -42 16 -70 6 -27 13 -59 16 -70 2 -11 10 -40 19 -65 34 -105
54 -166 58 -185 5 -20 -2 164 -9 220 -7 60 -16 360 -11 355 3 -3 8 -41 12 -85
4 -44 9 -83 12 -87 2 -4 6 -24 9 -45 3 -21 7 -50 9 -65 12 -85 90 -280 119
-300 6 -4 8 -8 4 -8 -4 0 6 -21 22 -47 17 -26 30 -53 30 -59 0 -7 4 -15 9 -19
6 -3 8 19 4 57 -6 74 -8 659 -1 738 2 30 0 63 -4 72 -5 10 -4 19 2 23 6 4 7
12 3 18 -4 7 -9 39 -10 72 -2 53 -10 140 -13 140 -1 0 -12 75 -13 98 -1 9 -5
17 -9 17 -4 0 -8 7 -8 15 0 19 -51 124 -79 164 -12 17 -20 31 -17 31 3 0 -6
12 -19 26 -14 15 -25 33 -25 41 0 8 -4 12 -9 9 -13 -8 -31 18 -37 51 -2 15 -7
39 -9 53 -3 14 -8 39 -11 55 -2 17 -7 38 -10 47 -3 9 -7 25 -9 35 -10 47 -37
150 -42 163 -4 8 -7 17 -7 20 -11 47 -31 100 -38 100 -5 0 -7 4 -4 8 3 5 -8
33 -23 63 -34 67 -30 60 -37 87 -4 12 -11 22 -17 22 -6 0 -8 3 -4 6 6 6 -32
83 -57 113 -9 12 -8 13 4 7 8 -4 5 1 -7 12 -13 11 -23 28 -23 37 0 9 -4 13
-10 10 -5 -3 -10 -2 -10 4 0 6 -25 48 -55 95 -30 46 -55 89 -55 95 0 6 -4 11
-10 11 -5 0 -12 11 -16 25 -3 14 -10 25 -15 25 -5 0 -9 4 -9 10 0 8 -35 66
-57 95 -5 6 -14 22 -20 38 -7 15 -17 27 -23 27 -6 0 -9 4 -6 9 6 9 -51 104
-65 109 -5 2 -7 7 -4 12 3 5 0 15 -7 22 -12 13 -27 36 -53 83 -19 36 -68 110
-75 115 -4 3 -19 24 -34 48 -14 23 -31 42 -37 42 -5 0 -8 4 -5 9 3 5 -1 11 -9
14 -7 3 -22 21 -31 38 -9 18 -22 39 -29 46 -7 7 -24 29 -36 50 -48 78 -171
203 -199 203 -6 0 -10 5 -10 10 0 6 -9 10 -21 10 -11 0 -17 5 -14 10 3 6 -3
10 -14 10 -12 0 -21 5 -21 11 0 5 -4 8 -9 4 -5 -3 -12 -1 -16 5 -4 6 -11 8
-16 5 -5 -4 -9 -3 -9 2 0 10 -47 33 -54 26z"/>
<path d="M2530 4879 c0 -5 5 -7 10 -4 6 3 10 8 10 11 0 2 -4 4 -10 4 -5 0 -10
-5 -10 -11z"/>
<path d="M4650 4390 c0 -5 5 -10 11 -10 5 0 7 5 4 10 -3 6 -8 10 -11 10 -2 0
-4 -4 -4 -10z"/>
<path d="M4686 4358 c3 -5 10 -6 15 -3 13 9 11 12 -6 12 -8 0 -12 -4 -9 -9z"/>
<path d="M2270 3441 c0 -6 4 -13 10 -16 6 -3 7 1 4 9 -7 18 -14 21 -14 7z"/>
<path d="M795 2000 c-3 -5 -1 -10 4 -10 6 0 11 5 11 10 0 6 -2 10 -4 10 -3 0
-8 -4 -11 -10z"/>
<path d="M507 1459 c7 -7 15 -10 18 -7 3 3 -2 9 -12 12 -14 6 -15 5 -6 -5z"/>
<path d="M773 1345 c0 -8 4 -12 9 -9 5 3 6 10 3 15 -9 13 -12 11 -12 -6z"/>
<path d="M1280 1220 c-9 -6 -10 -10 -3 -10 6 0 15 5 18 10 8 12 4 12 -15 0z"/>
<path d="M1353 1205 c0 -8 4 -12 9 -9 5 3 6 10 3 15 -9 13 -12 11 -12 -6z"/>
<path d="M5439 1113 c-13 -16 -12 -17 4 -4 16 13 21 21 13 21 -2 0 -10 -8 -17
-17z"/>
<path d="M4855 1080 c-3 -5 -1 -10 4 -10 6 0 11 5 11 10 0 6 -2 10 -4 10 -3 0
-8 -4 -11 -10z"/>
<path d="M4773 1065 c0 -8 4 -12 9 -9 5 3 6 10 3 15 -9 13 -12 11 -12 -6z"/>
<path d="M2555 1049 c-4 -6 -5 -12 -2 -15 2 -3 7 2 10 11 7 17 1 20 -8 4z"/>
<path d="M4030 1000 c0 -5 5 -10 11 -10 5 0 7 5 4 10 -3 6 -8 10 -11 10 -2 0
-4 -4 -4 -10z"/>
<path d="M1747 3 c964 -2 2542 -2 3505 0 964 1 176 2 -1752 2 -1928 0 -2716
-1 -1753 -2z"/>
</g>
</svg>
