<?xml version="1.0" standalone="no"?>
<!DOCTYPE svg PUBLIC "-//W3C//DTD SVG 20010904//EN"
 "http://www.w3.org/TR/2001/REC-SVG-20010904/DTD/svg10.dtd">
<svg version="1.0" xmlns="http://www.w3.org/2000/svg"
 width="1173.000000pt" height="1173.000000pt" viewBox="0 0 1173.000000 1173.000000"
 preserveAspectRatio="xMidYMid meet">
<metadata>
Created by potrace 1.11, written by Peter Selinger 2001-2013
</metadata>
<g transform="translate(0.000000,1173.000000) scale(0.100000,-0.100000)"
fill="#000000" stroke="none">
<path d="M6650 10840 c0 -3 -10 -7 -22 -8 -54 -4 -73 -10 -70 -22 2 -11 0 -11
-11 -1 -12 9 -18 9 -30 -3 -8 -8 -17 -12 -21 -9 -3 3 -12 1 -20 -6 -11 -9 -15
-9 -19 1 -4 9 -6 7 -6 -4 -1 -11 -8 -16 -21 -13 -11 2 -19 1 -16 -3 2 -4 -7
-12 -20 -19 -13 -6 -21 -7 -18 -1 3 5 -3 4 -14 -3 -12 -7 -18 -18 -14 -24 3
-5 -1 -4 -10 3 -13 10 -18 10 -24 1 -5 -8 -3 -9 6 -4 9 6 11 4 6 -4 -5 -7 -14
-10 -22 -7 -8 3 -14 1 -14 -4 0 -6 -8 -10 -17 -10 -10 0 -27 -7 -37 -15 -10
-8 -23 -12 -29 -8 -6 4 -7 1 -2 -7 6 -10 4 -12 -9 -7 -14 6 -17 3 -12 -9 5
-14 4 -15 -8 -5 -11 10 -17 8 -25 -6 -6 -10 -11 -14 -11 -9 0 5 -7 3 -15 -4
-8 -7 -15 -9 -15 -4 0 5 -7 -2 -16 -14 -8 -12 -19 -20 -24 -17 -5 3 -12 0 -15
-6 -4 -5 -13 -8 -21 -5 -9 3 -11 0 -7 -11 4 -9 2 -14 -3 -11 -11 7 -35 -17
-26 -26 3 -4 0 -4 -9 -1 -9 3 -24 -5 -38 -21 -15 -17 -29 -24 -42 -21 -16 4
-18 3 -9 -8 13 -16 -3 -30 -22 -19 -7 4 -8 3 -4 -4 4 -7 2 -12 -3 -12 -6 0
-11 -8 -11 -17 0 -15 -2 -16 -10 -3 -6 10 -10 11 -10 3 0 -7 -6 -13 -14 -13
-7 0 -20 -8 -27 -17 -13 -16 -12 -17 4 -4 9 7 17 9 17 3 0 -12 -29 -24 -41
-16 -5 3 -9 2 -8 -3 4 -21 -2 -33 -17 -33 -9 0 -12 -5 -8 -12 5 -8 2 -9 -9 -5
-10 4 -16 2 -14 -6 1 -7 -4 -11 -12 -9 -12 3 -12 0 -2 -11 9 -12 8 -15 -6 -13
-10 0 -18 -4 -18 -10 0 -15 -31 -44 -39 -37 -3 4 -6 -2 -6 -13 0 -16 -2 -17
-10 -4 -8 12 -10 11 -10 -6 0 -20 -29 -56 -31 -38 0 5 -4 -1 -10 -14 -7 -18
-14 -22 -31 -17 -15 4 -18 3 -11 -2 10 -7 10 -13 -3 -29 -8 -10 -13 -12 -9 -4
4 8 -1 6 -9 -4 -9 -11 -16 -24 -16 -29 0 -5 -8 -3 -17 4 -10 7 -15 9 -11 5 4
-5 2 -16 -5 -24 -10 -13 -9 -14 2 -7 10 5 12 4 7 -4 -4 -6 -12 -9 -17 -6 -5 4
-9 1 -9 -5 0 -6 -5 -8 -12 -4 -6 4 -8 3 -4 -4 9 -16 -13 -26 -29 -12 -10 8
-15 8 -21 -1 -4 -7 -3 -9 3 -6 6 4 16 0 23 -8 10 -12 10 -15 0 -15 -7 0 -23
-11 -36 -25 -24 -26 -40 -33 -28 -12 4 7 3 9 -2 4 -5 -5 -10 -13 -10 -18 -1
-5 -2 -13 -3 -18 0 -5 -10 -11 -21 -14 -11 -3 -20 -12 -20 -21 0 -9 -4 -17
-10 -17 -5 -1 -14 -2 -19 -3 -5 0 -13 -5 -18 -10 -5 -5 -3 -6 5 -2 6 4 12 2
12 -5 0 -6 -8 -9 -20 -6 -14 3 -18 1 -13 -6 9 -15 14 -41 6 -33 -3 3 -12 -2
-19 -12 -12 -15 -13 -15 -9 7 2 13 1 21 -2 17 -4 -4 -8 -14 -9 -22 -5 -34 -14
-46 -30 -40 -14 5 -15 4 -4 -9 12 -15 3 -21 -24 -16 -5 1 -3 -6 5 -15 8 -10 9
-15 2 -11 -7 4 -14 -1 -18 -13 -3 -11 -11 -20 -16 -20 -6 0 -7 5 -3 12 4 6 3
8 -4 4 -6 -3 -9 -15 -7 -25 2 -11 -3 -22 -11 -25 -9 -3 -12 -11 -8 -17 4 -7 3
-10 -2 -7 -11 7 -35 -17 -27 -26 4 -3 -1 -6 -11 -6 -9 0 -15 -4 -11 -9 3 -5
-1 -16 -9 -24 -8 -8 -12 -18 -8 -23 4 -5 -2 -2 -12 6 -13 10 -17 10 -12 3 4
-8 2 -13 -6 -13 -9 0 -9 -3 2 -10 13 -8 12 -10 -3 -10 -11 0 -15 -4 -11 -12 5
-8 2 -9 -11 -4 -15 5 -16 4 -5 -9 9 -11 9 -15 1 -15 -7 0 -9 -5 -6 -10 4 -6 3
-10 -2 -9 -4 1 -15 1 -23 0 -13 -1 -13 -2 0 -11 13 -8 12 -10 -3 -10 -10 0
-15 -4 -12 -10 3 -5 1 -10 -6 -10 -7 0 -9 -3 -6 -6 3 -4 -5 -15 -18 -26 -14
-11 -25 -24 -25 -29 0 -6 -7 -17 -15 -26 -8 -8 -13 -19 -9 -24 3 -5 0 -8 -7
-7 -7 2 -13 -1 -14 -7 0 -5 -10 -20 -23 -33 -12 -12 -20 -27 -17 -32 4 -6 1
-10 -5 -10 -6 0 -15 -11 -20 -25 -6 -16 -15 -23 -25 -19 -8 3 -12 11 -8 18 3
6 2 7 -2 3 -15 -13 -14 -36 1 -30 8 3 14 1 14 -5 0 -5 -7 -12 -15 -16 -8 -3
-15 -12 -15 -19 0 -8 -11 -27 -25 -43 -14 -16 -25 -36 -25 -44 0 -13 -1 -13
-11 0 -9 12 -10 11 -6 -7 3 -13 1 -23 -3 -23 -5 0 -19 -20 -31 -45 -12 -25
-27 -45 -31 -45 -5 0 -6 -5 -3 -10 3 -6 0 -13 -9 -16 -9 -3 -12 -12 -9 -21 4
-10 2 -14 -5 -9 -6 3 -13 2 -17 -4 -3 -5 -1 -10 5 -10 6 0 9 -4 5 -10 -3 -5
-13 -7 -23 -4 -13 5 -14 4 -3 -4 11 -8 10 -13 -5 -30 -10 -12 -22 -18 -28 -15
-6 4 -5 -1 3 -10 11 -14 11 -18 -3 -23 -10 -4 -15 -13 -11 -21 4 -11 1 -13
-10 -9 -10 4 -14 2 -9 -5 9 -15 -17 -60 -30 -52 -6 4 -5 0 2 -9 11 -14 10 -18
-5 -27 -10 -6 -13 -11 -5 -11 10 0 10 -5 1 -22 -7 -13 -12 -24 -11 -25 1 -2 2
-14 2 -28 0 -17 -6 -25 -17 -26 -11 0 -13 -3 -5 -6 6 -2 12 -11 12 -19 0 -9
-4 -13 -9 -10 -5 3 -9 0 -8 -7 1 -48 -4 -67 -20 -68 -11 0 -13 -3 -5 -6 6 -2
12 -11 12 -19 0 -9 -4 -13 -8 -10 -4 2 -8 -7 -9 -22 -1 -48 -3 -53 -14 -46 -8
4 -8 0 0 -15 10 -17 9 -21 -4 -21 -8 0 -15 -5 -15 -11 0 -5 5 -7 10 -4 6 3 10
1 10 -5 0 -6 -7 -13 -15 -16 -8 -4 -15 -10 -15 -16 0 -5 4 -7 8 -4 5 3 9 -1 9
-9 0 -8 -4 -12 -9 -8 -6 3 -7 -9 -5 -26 4 -21 2 -29 -6 -24 -6 4 -8 0 -4 -11
4 -10 -2 -25 -15 -38 -17 -17 -18 -20 -4 -15 12 5 16 3 13 -5 -2 -7 -10 -12
-17 -10 -10 2 -11 0 -2 -10 15 -19 4 -58 -17 -59 -12 0 -11 -2 4 -9 11 -5 14
-9 7 -9 -7 -1 -10 -6 -6 -13 5 -8 2 -9 -9 -5 -9 3 -19 1 -23 -5 -4 -6 -3 -8 2
-5 6 3 16 2 24 -4 12 -7 11 -9 -5 -9 -11 0 -15 -4 -10 -8 13 -9 18 -32 7 -32
-4 0 -8 -8 -9 -17 -4 -52 -15 -98 -26 -105 -9 -6 -9 -8 0 -8 8 0 9 -9 2 -32
-6 -18 -12 -46 -14 -63 -3 -16 -7 -43 -9 -60 -3 -16 -7 -46 -10 -65 -6 -38
-11 -65 -27 -147 -6 -29 -11 -66 -11 -83 -1 -17 -5 -33 -9 -36 -4 -2 -6 -13
-4 -24 2 -11 0 -20 -5 -20 -5 0 -7 -7 -4 -15 4 -8 3 -23 -1 -32 -4 -10 -9 -37
-11 -60 -2 -24 -8 -51 -13 -61 -7 -13 -7 -22 1 -30 7 -7 8 -12 2 -12 -5 0 -10
-8 -11 -18 -2 -31 -8 -47 -18 -54 -6 -5 -5 -8 3 -8 20 0 14 -20 -10 -30 -17
-6 -18 -9 -6 -9 12 -1 15 -7 12 -23 -3 -13 -8 -34 -11 -48 -3 -14 -6 -38 -8
-55 -1 -16 -4 -30 -5 -30 -1 0 -3 -11 -4 -25 0 -14 -5 -31 -10 -39 -5 -8 -4
-16 5 -22 8 -5 9 -9 4 -9 -6 0 -12 -16 -13 -37 -2 -20 -6 -41 -10 -47 -11 -19
-11 -36 1 -29 7 4 4 -6 -7 -21 -10 -16 -13 -25 -6 -21 9 6 10 1 4 -16 -4 -13
-8 -35 -10 -49 -1 -14 -3 -27 -4 -30 -1 -3 -2 -13 -1 -22 1 -10 -1 -18 -6 -18
-4 0 -8 -15 -9 -32 -1 -33 -10 -114 -18 -153 -6 -34 -19 -109 -22 -130 -1 -11
-3 -20 -4 -20 -3 0 -11 -44 -13 -75 -1 -14 -6 -31 -10 -37 -5 -7 -6 -17 -2
-22 3 -5 1 -12 -4 -16 -5 -3 -8 -14 -6 -25 2 -11 0 -20 -4 -20 -5 0 -7 -11 -6
-25 2 -14 -1 -25 -5 -25 -5 0 -7 -9 -5 -20 2 -11 0 -20 -4 -20 -4 0 -8 -12 -8
-27 -1 -27 -5 -51 -19 -118 -4 -16 -13 -36 -22 -43 -14 -11 -14 -12 0 -12 20
0 12 -39 -9 -47 -11 -4 -12 -8 -3 -13 16 -10 -5 -79 -26 -87 -8 -3 -11 -10 -8
-17 3 -6 -4 0 -16 14 -21 25 -21 25 -10 1 12 -23 2 -40 -23 -41 -5 0 -6 -4 -2
-9 3 -5 1 -12 -5 -16 -5 -3 -10 -1 -10 5 0 6 -5 8 -10 5 -6 -4 -8 -11 -5 -16
4 -5 -1 -9 -10 -9 -9 0 -13 -5 -10 -11 4 -6 -2 -13 -14 -16 -11 -3 -19 -8 -17
-12 2 -3 -2 -12 -10 -19 -11 -10 -14 -10 -14 0 0 9 -3 9 -9 -2 -6 -8 -7 -18
-5 -22 3 -4 -1 -8 -10 -8 -8 0 -24 -12 -35 -27 -16 -22 -20 -23 -16 -8 3 11
-1 8 -8 -8 -7 -15 -16 -24 -20 -21 -4 4 -7 2 -7 -5 0 -7 -4 -9 -10 -6 -5 3
-10 -1 -10 -10 0 -11 -5 -15 -15 -11 -8 3 -14 2 -14 -2 3 -17 -1 -35 -7 -30
-3 4 -22 -11 -42 -31 -20 -21 -45 -41 -55 -45 -10 -3 -15 -10 -12 -16 3 -5 -1
-10 -9 -10 -9 0 -16 -5 -16 -11 0 -5 -4 -8 -9 -5 -5 3 -12 -1 -15 -10 -3 -9
-11 -12 -18 -8 -10 6 -10 4 0 -8 11 -14 11 -16 0 -14 -7 1 -18 5 -25 9 -7 5
-9 1 -6 -13 3 -11 1 -20 -4 -20 -15 0 -53 -36 -46 -44 3 -3 -1 -6 -10 -6 -9 0
-34 -18 -57 -40 -22 -21 -40 -37 -40 -34 0 3 -11 -6 -24 -20 -13 -15 -28 -26
-34 -26 -5 0 -13 -7 -16 -16 -3 -9 -13 -14 -21 -11 -9 4 -12 1 -8 -9 3 -9 0
-14 -8 -12 -8 2 -13 -3 -11 -9 1 -7 -5 -13 -13 -13 -8 0 -15 -7 -15 -16 0 -13
-3 -14 -15 -4 -8 7 -12 17 -8 23 3 6 1 7 -6 3 -9 -6 -9 -11 0 -22 9 -11 9 -14
0 -14 -7 0 -9 -4 -6 -10 6 -9 -8 -15 -29 -11 -5 1 -6 -6 -2 -15 6 -15 4 -15
-11 -3 -10 7 -15 9 -11 5 10 -11 -11 -38 -23 -30 -5 3 -6 -3 -3 -13 5 -16 3
-15 -12 2 -12 15 -15 16 -11 4 5 -16 -11 -34 -110 -119 -15 -13 -32 -25 -38
-25 -5 -1 -9 -7 -7 -14 1 -7 -2 -10 -8 -6 -5 3 -10 1 -10 -5 0 -7 -7 -9 -16
-6 -15 6 -15 4 -3 -11 9 -11 10 -14 2 -9 -8 4 -13 2 -13 -6 0 -9 -3 -9 -10 2
-9 13 -10 13 -10 0 0 -19 -36 -51 -59 -53 -12 -1 -17 -7 -13 -19 3 -13 -1 -16
-18 -13 -18 4 -20 2 -9 -11 10 -12 9 -13 -6 -8 -13 5 -16 4 -11 -4 4 -7 2 -12
-4 -12 -6 0 -22 -11 -35 -25 -16 -18 -25 -22 -28 -13 -4 8 -6 7 -6 -4 -1 -10
-6 -18 -12 -18 -5 0 -7 -6 -3 -12 5 -8 0 -7 -11 2 -13 10 -16 11 -11 2 8 -13
-31 -60 -46 -55 -4 2 -10 -6 -13 -17 -4 -11 -11 -18 -16 -15 -5 4 -12 -1 -15
-9 -3 -9 -10 -13 -15 -10 -5 3 -9 -2 -9 -11 0 -12 -5 -15 -16 -11 -14 5 -15 4
-4 -9 11 -13 10 -14 -2 -10 -9 4 -18 -1 -22 -10 -3 -9 -11 -13 -16 -10 -6 4
-9 2 -8 -3 4 -14 -75 -83 -89 -78 -8 3 -10 -1 -6 -11 5 -12 3 -14 -7 -8 -10 6
-12 4 -7 -9 4 -10 3 -15 -3 -11 -6 3 -10 1 -10 -5 0 -7 -7 -10 -15 -6 -8 3
-14 2 -14 -2 3 -20 -2 -32 -12 -27 -6 4 -13 -2 -16 -14 -5 -18 -21 -26 -46
-22 -4 0 -6 -2 -6 -6 4 -23 -3 -35 -15 -30 -10 4 -13 1 -10 -7 3 -8 -4 -16
-16 -19 -12 -3 -19 -10 -16 -15 3 -6 -1 -13 -10 -16 -22 -9 -26 -8 -18 6 4 7
3 8 -4 4 -6 -4 -8 -14 -5 -23 4 -11 3 -14 -5 -9 -7 4 -12 1 -12 -8 0 -9 -6
-15 -13 -14 -6 2 -11 -3 -9 -9 1 -7 -3 -13 -9 -13 -6 0 -17 -7 -26 -15 -8 -8
-19 -13 -24 -10 -5 4 -6 -2 -2 -12 3 -10 3 -15 -2 -11 -4 4 -19 -5 -33 -20
-14 -15 -30 -26 -34 -24 -4 1 -8 -3 -8 -9 0 -5 -6 -7 -12 -3 -9 5 -8 2 1 -9
12 -15 12 -17 -4 -10 -14 5 -17 3 -12 -10 3 -9 3 -16 -1 -14 -13 4 -71 -50
-64 -59 4 -5 -2 -2 -12 6 -11 8 -17 10 -13 3 4 -6 -1 -18 -13 -26 -11 -7 -17
-18 -12 -23 4 -5 -4 0 -18 11 -17 14 -21 15 -12 3 11 -14 10 -20 -7 -37 -12
-12 -25 -21 -30 -21 -6 0 -13 -5 -17 -12 -5 -7 -2 -9 7 -4 8 4 5 1 -5 -8 -10
-8 -23 -13 -27 -10 -5 3 -9 -1 -9 -8 0 -7 -12 -24 -27 -38 -15 -14 -23 -19
-19 -13 5 9 2 11 -9 7 -12 -5 -13 -9 -4 -20 10 -12 9 -13 -4 -8 -11 4 -20 -2
-28 -20 -7 -14 -16 -23 -20 -20 -5 3 -9 0 -9 -5 0 -6 -8 -11 -17 -12 -12 0
-13 -2 -5 -6 9 -3 4 -12 -16 -27 -16 -11 -31 -25 -33 -31 -2 -5 -7 -9 -11 -8
-4 2 -10 -6 -13 -17 -4 -11 -11 -18 -16 -15 -5 4 -9 1 -9 -5 0 -6 -4 -9 -9 -6
-5 3 -8 -2 -7 -12 1 -11 -5 -16 -16 -14 -9 1 -20 -3 -24 -9 -5 -8 -3 -9 5 -4
10 5 9 2 0 -13 -7 -12 -15 -20 -18 -19 -4 1 -7 -1 -8 -5 -7 -19 -45 -48 -55
-42 -6 4 -8 3 -4 -4 7 -12 -38 -62 -56 -62 -6 0 -9 -3 -5 -6 8 -8 -16 -33 -25
-27 -5 2 -8 -1 -8 -7 0 -7 -12 -24 -27 -39 -36 -34 -65 -71 -57 -71 4 0 -4 -9
-17 -21 -13 -11 -17 -18 -9 -14 8 4 6 -1 -5 -10 -11 -9 -19 -21 -17 -26 1 -5
-2 -9 -8 -9 -5 0 -10 -5 -10 -10 0 -11 -9 -24 -42 -60 -28 -31 -15 -61 37 -86
19 -9 35 -21 35 -28 0 -6 5 -4 10 4 8 12 10 10 11 -10 0 -14 3 -19 6 -12 2 6
9 12 14 12 6 0 7 -4 4 -10 -3 -5 -1 -10 5 -10 6 0 8 -5 4 -12 -6 -10 -5 -10 8
-1 17 14 29 8 22 -11 -3 -7 2 -13 10 -13 8 0 13 4 10 9 -3 4 0 8 5 8 11 0 15
-15 12 -34 -1 -5 6 -3 15 5 16 12 17 12 12 -2 -5 -13 -2 -16 13 -12 10 3 19 0
19 -6 0 -6 7 -11 15 -11 8 0 15 -4 15 -10 0 -5 7 -7 15 -4 9 4 15 0 15 -10 0
-9 5 -16 11 -16 5 0 7 5 3 11 -4 8 0 8 15 0 11 -7 21 -16 21 -22 0 -6 5 -7 10
-4 6 4 7 12 4 18 -4 7 3 2 16 -11 12 -13 28 -21 36 -18 8 3 14 1 14 -5 0 -6 6
-9 13 -6 6 2 18 -3 25 -12 8 -9 11 -11 7 -4 -7 16 36 8 46 -8 4 -6 11 -9 17
-5 6 3 14 2 17 -4 5 -8 11 -7 21 1 12 9 13 9 9 -3 -4 -11 2 -14 25 -12 16 1
28 -2 25 -6 -3 -5 3 -9 12 -9 64 -3 73 -5 68 -21 -3 -9 0 -8 10 4 9 12 15 15
15 7 0 -7 6 -11 15 -8 8 4 17 2 20 -4 4 -5 10 -7 15 -4 5 3 12 0 15 -6 4 -5
13 -8 21 -5 7 3 16 0 20 -6 4 -6 3 -8 -4 -4 -6 3 -13 2 -16 -3 -6 -10 19 -9
29 1 4 3 18 0 32 -7 13 -7 35 -12 49 -10 14 1 21 -2 17 -8 -4 -6 2 -8 15 -5
15 4 25 0 32 -10 6 -11 9 -12 10 -4 0 7 5 10 10 7 6 -4 7 -11 4 -17 -4 -6 2
-6 15 1 11 7 21 8 21 3 0 -5 11 -8 25 -7 14 2 23 0 20 -5 -3 -4 2 -11 11 -14
8 -3 12 -2 9 3 -3 5 -1 12 5 16 5 3 10 -2 10 -12 0 -15 2 -16 10 -3 7 11 10
11 10 2 0 -7 5 -10 10 -7 6 3 10 1 10 -6 0 -7 7 -4 15 7 13 16 14 16 9 2 -7
-21 6 -23 25 -5 11 10 13 9 7 0 -5 -9 3 -13 28 -13 20 0 39 0 42 1 12 1 22
-24 19 -43 -2 -10 0 -18 6 -18 5 0 8 10 5 23 -4 21 -1 22 30 19 23 -3 34 -9
34 -20 0 -13 3 -12 16 4 11 13 14 14 11 3 -3 -9 1 -16 9 -16 7 0 10 5 7 11 -4
6 1 5 10 -3 9 -7 24 -11 32 -7 8 3 15 1 15 -3 0 -5 -5 -11 -12 -13 -8 -3 -6
-7 5 -11 10 -4 16 -2 14 6 -1 7 5 10 13 8 8 -2 21 -4 28 -4 6 0 12 -4 12 -9 0
-4 5 -8 11 -8 5 0 8 4 5 8 -3 5 1 9 9 9 15 0 28 -24 20 -37 -3 -5 -1 -12 5
-15 6 -4 10 -3 9 2 -1 4 -1 16 0 27 1 15 4 16 16 6 12 -10 15 -10 15 1 0 11 2
11 9 -1 6 -8 7 -18 5 -22 -10 -15 9 -8 23 10 8 9 12 12 9 5 -4 -6 -2 -14 4
-18 5 -3 10 0 10 7 0 9 3 9 8 2 11 -16 45 -27 36 -11 -5 8 -2 7 9 -2 14 -11
20 -11 34 0 9 8 14 9 10 3 -4 -7 0 -15 9 -18 9 -3 12 -11 8 -18 -6 -10 -5 -11
8 -1 8 7 19 9 23 5 5 -4 5 -1 1 6 -4 7 -1 12 8 12 9 0 16 -8 17 -17 0 -15 2
-15 9 2 6 13 9 15 9 5 1 -13 2 -13 11 0 5 8 10 10 10 5 0 -6 9 -16 21 -23 12
-8 18 -9 15 -4 -3 6 1 12 9 16 8 3 15 0 15 -7 0 -8 4 -6 10 3 5 8 10 11 10 5
0 -6 25 -10 58 -9 31 0 65 -3 76 -9 13 -6 16 -6 12 2 -4 6 -2 11 3 11 6 0 11
-6 11 -12 0 -9 4 -8 10 2 9 13 10 13 10 0 0 -13 1 -13 10 0 5 8 10 10 10 4 0
-7 7 -15 16 -18 10 -4 13 -2 8 6 -5 7 -2 9 8 5 9 -3 21 0 28 6 10 9 12 8 7 -6
-6 -15 -4 -16 15 -6 17 9 20 9 16 -3 -4 -9 1 -14 13 -14 11 0 15 4 9 11 -5 6
2 10 20 10 16 1 28 -2 28 -5 -2 -19 6 -19 34 1 24 18 30 19 25 7 -5 -13 -1
-16 21 -12 15 3 28 7 31 10 8 8 31 -18 24 -29 -3 -6 -1 -7 6 -3 6 4 9 11 6 16
-8 14 23 5 42 -12 20 -17 43 -14 43 6 0 7 6 13 14 13 8 0 12 -5 10 -12 -5 -12
54 -13 74 -1 8 5 10 2 6 -9 -5 -11 -2 -14 10 -9 9 3 13 11 10 18 -3 6 2 2 10
-8 9 -11 16 -16 16 -12 0 5 7 3 15 -4 13 -11 14 -10 8 6 -6 16 -5 17 9 6 11
-9 18 -10 23 -2 3 6 11 8 16 4 5 -3 7 -9 5 -13 -3 -4 4 -8 15 -8 10 -1 19 3
19 8 0 6 -5 7 -12 3 -7 -5 -8 -3 -3 6 6 10 13 7 27 -11 11 -13 17 -18 13 -11
-4 8 1 11 17 8 13 -3 27 -5 31 -5 5 -1 5 -7 2 -13 -4 -7 1 -4 9 6 16 20 16 20
17 0 0 -10 3 -13 6 -6 2 6 10 9 15 5 6 -3 27 -7 47 -9 20 -1 36 -3 36 -4 0 -1
15 -3 34 -4 19 -2 37 -8 39 -14 2 -7 8 -12 13 -12 6 0 8 4 5 8 -3 5 1 9 9 9 8
0 15 -4 15 -9 0 -4 7 -8 16 -8 8 0 12 5 9 10 -9 15 4 12 21 -5 18 -17 34 -20
34 -4 0 5 5 7 10 4 6 -4 8 -10 6 -14 -3 -3 4 -7 14 -7 10 0 16 4 14 8 -3 4 0
8 5 8 6 0 11 -4 11 -9 0 -5 14 -7 32 -4 22 3 36 0 44 -11 11 -15 12 -15 19 1
6 17 7 17 21 -1 10 -14 14 -16 14 -5 0 12 2 12 10 -1 7 -11 10 -11 10 -2 0 7
5 10 10 7 6 -4 7 -12 4 -18 -4 -7 -4 -9 1 -5 4 4 15 2 23 -5 10 -8 13 -8 9 -1
-8 14 15 25 31 15 6 -3 29 -6 51 -6 23 0 41 -2 41 -5 0 -10 49 -10 55 1 4 6
11 6 18 1 20 -15 70 -25 62 -11 -5 8 -2 8 11 1 11 -6 22 -10 27 -11 4 -1 8 -1
10 -2 22 -7 37 -5 37 4 0 7 5 5 10 -3 5 -8 10 -11 10 -6 0 5 7 3 15 -4 13 -11
14 -10 9 5 -6 14 -4 16 7 9 8 -4 19 -9 24 -11 6 -1 21 -4 33 -7 19 -4 23 -2
18 12 -5 15 -4 15 6 2 8 -9 25 -14 42 -12 21 3 26 0 21 -10 -3 -7 1 -4 9 6 9
11 16 15 16 10 0 -6 20 -9 47 -8 32 2 53 -2 64 -12 15 -14 18 -14 26 1 8 14
12 13 39 -7 16 -12 23 -15 16 -6 -9 11 -10 18 -2 23 5 3 10 1 10 -5 0 -6 5 -8
12 -4 17 10 48 13 43 3 -3 -4 13 -9 35 -11 23 -2 40 1 40 7 0 5 5 3 10 -5 8
-12 10 -12 10 -1 0 11 5 10 20 -4 16 -15 20 -15 15 -3 -5 12 -1 14 19 11 14
-3 24 -9 21 -12 -2 -4 2 -8 10 -8 8 0 12 4 9 9 -3 4 0 8 5 8 6 0 11 -6 11 -12
0 -10 3 -9 9 1 7 11 9 11 14 0 4 -10 6 -10 6 -1 1 6 6 12 12 12 5 0 8 -4 5 -9
-7 -11 13 -9 33 3 8 5 16 3 22 -5 7 -12 9 -11 9 1 0 13 1 13 10 0 8 -13 10
-13 10 -1 0 11 4 10 13 -4 11 -14 16 -15 22 -5 6 9 4 11 -5 5 -9 -5 -11 -4 -6
4 6 9 11 9 23 0 11 -10 16 -10 22 0 6 10 10 8 15 -5 6 -16 8 -15 28 2 12 11
18 13 14 6 -4 -7 -1 -12 8 -12 9 0 16 6 16 13 0 9 2 9 9 -1 9 -14 32 -13 43 3
5 6 8 5 8 -2 0 -7 7 -13 15 -13 8 0 15 6 15 13 0 8 4 7 10 -3 9 -13 11 -13 20
0 8 13 10 12 11 -5 0 -11 3 -15 5 -8 3 7 12 9 21 6 12 -5 14 -3 8 8 -7 12 -6
12 7 1 10 -8 19 -9 22 -3 8 12 56 -10 49 -24 -2 -5 2 -2 10 7 13 16 15 16 32
0 11 -10 15 -12 10 -3 -6 11 -4 13 8 8 10 -3 17 -3 17 2 0 4 7 8 15 8 11 0 12
-4 3 -14 -8 -11 -7 -12 6 -7 9 3 16 11 16 18 0 6 5 4 10 -4 7 -11 10 -11 10
-2 0 7 5 10 10 7 6 -4 7 -12 3 -18 -3 -7 3 -4 14 6 16 14 23 15 29 6 4 -8 3
-10 -4 -5 -7 4 -12 2 -12 -3 0 -13 17 -15 24 -3 7 12 36 8 65 -7 14 -8 21 -9
17 -2 -5 7 1 11 14 11 14 0 19 -4 14 -12 -5 -9 -2 -9 9 1 14 11 17 11 17 0 0
-11 2 -11 10 1 8 12 10 12 10 -5 0 -17 2 -17 10 -5 8 12 13 13 29 3 15 -9 22
-10 27 -1 5 7 3 8 -6 3 -8 -5 -11 -4 -7 3 7 11 25 11 42 0 6 -3 25 -5 43 -4
18 1 36 -2 38 -6 3 -5 12 -4 20 3 11 9 14 8 14 -7 0 -11 4 -15 8 -9 8 12 91
13 110 1 8 -4 12 -1 12 10 0 16 1 16 16 -2 8 -10 13 -14 10 -8 -3 7 7 10 27 9
18 -2 38 3 46 9 11 8 13 8 7 -2 -4 -7 -1 -12 8 -12 9 0 16 6 16 13 0 8 4 7 10
-3 8 -12 11 -13 19 -1 6 9 11 10 15 2 4 -6 12 -11 17 -11 6 0 8 4 5 9 -8 12
27 8 36 -4 5 -6 8 -5 8 3 0 16 27 16 33 0 3 -7 6 -4 6 6 1 15 4 17 13 8 6 -6
17 -8 27 -3 9 5 36 7 61 5 24 -1 51 3 59 9 12 10 13 9 7 -2 -6 -9 -5 -12 5 -9
8 3 23 -2 34 -11 18 -15 19 -15 7 0 -10 14 -10 18 3 23 8 3 15 1 15 -5 0 -6 7
-6 18 -1 27 13 47 8 46 -11 -1 -9 3 -14 8 -11 5 3 7 12 4 20 -6 17 10 19 20 2
5 -7 11 -5 21 7 13 18 13 18 13 -1 0 -16 2 -17 10 -4 6 10 10 11 10 3 0 -7 5
-13 11 -13 5 0 8 4 5 9 -7 10 13 9 31 -2 6 -4 14 -3 18 3 3 5 11 10 16 10 6 0
7 -5 3 -12 -5 -7 -3 -8 7 -2 24 14 51 16 43 2 -6 -10 -4 -11 7 -1 17 17 32 17
24 1 -4 -7 0 -5 8 5 12 15 16 15 26 3 16 -19 42 -10 34 11 -5 12 -3 14 8 8 18
-12 49 -14 43 -3 -3 4 0 8 5 8 6 0 11 -6 11 -12 0 -9 4 -8 10 2 9 13 10 13 10
0 0 -12 2 -12 9 -1 5 7 31 14 62 16 30 1 55 4 57 5 2 3 41 3 45 0 1 -1 13 -3
27 -6 18 -3 21 -2 10 5 -8 5 -18 7 -24 4 -5 -3 -6 -1 -2 5 7 12 37 5 48 -12 5
-7 8 -5 8 5 0 12 8 15 27 13 15 -1 33 2 40 8 14 11 18 -2 6 -18 -5 -5 0 -1 10
9 10 12 17 14 17 7 0 -8 4 -9 13 -3 16 12 59 14 52 3 -3 -6 1 -7 9 -4 9 3 13
11 10 16 -4 6 -1 8 7 6 8 -3 13 -12 11 -19 -3 -10 1 -9 15 2 10 9 24 14 30 12
7 -3 16 3 19 12 5 12 9 13 14 5 5 -8 13 -9 21 -4 17 10 69 13 63 3 -2 -4 0
-11 6 -14 6 -4 10 -3 9 2 -1 4 -1 15 0 23 1 13 2 13 11 0 6 -10 10 -11 10 -3
0 8 11 11 30 9 21 -2 30 1 30 11 0 12 4 11 18 -4 9 -10 13 -12 7 -4 -8 11 -6
13 5 9 8 -3 23 -1 33 4 12 6 17 5 17 -6 0 -20 17 -29 26 -15 5 8 3 9 -6 4 -8
-5 -11 -3 -8 5 3 9 28 15 73 17 38 3 76 10 85 16 13 10 13 10 2 -5 -10 -12
-10 -18 -1 -24 8 -4 9 -3 5 4 -7 12 2 16 42 14 12 -1 20 2 18 7 -3 4 1 8 9 8
8 0 15 -5 15 -11 0 -5 7 -1 16 10 8 10 13 13 9 6 -3 -6 -1 -12 4 -12 6 0 11 4
11 9 0 5 9 7 21 4 12 -4 25 0 30 8 6 10 9 10 9 2 0 -7 7 -13 16 -13 8 0 13 4
10 9 -7 10 20 9 30 -2 4 -4 12 -7 18 -7 6 0 4 5 -4 11 -12 8 -7 9 18 6 18 -2
32 1 32 7 0 6 5 4 10 -4 8 -12 10 -12 10 5 0 17 2 17 10 5 6 -9 13 -11 18 -5
9 12 44 16 36 4 -3 -5 0 -9 5 -9 6 0 11 5 11 11 0 5 5 7 10 4 6 -3 10 -1 10 6
0 8 5 7 17 -2 14 -12 16 -12 8 0 -6 11 -4 13 8 8 10 -4 17 -1 17 5 0 7 7 3 15
-8 13 -16 14 -16 9 -1 -5 13 -2 16 12 10 12 -4 15 -3 10 5 -5 8 -2 10 9 6 8
-4 22 -1 29 5 11 10 17 8 26 -6 10 -16 11 -16 6 0 -4 14 1 17 34 17 21 0 42 5
46 12 5 7 3 8 -6 3 -9 -6 -11 -4 -5 5 6 10 11 10 20 -3 13 -18 30 -24 20 -7
-5 8 6 11 40 10 3 0 18 6 33 13 15 8 33 12 40 10 7 -3 20 1 29 9 12 9 15 9 9
1 -4 -7 -3 -13 3 -13 5 0 11 5 13 12 3 7 15 13 29 13 32 2 60 15 53 26 -3 5 2
6 10 3 9 -3 13 -10 10 -16 -3 -5 3 -4 14 3 12 7 18 18 14 24 -3 5 2 4 11 -4
13 -11 17 -11 17 -1 0 8 3 10 7 7 3 -4 13 -1 21 6 13 10 14 9 7 -2 -5 -9 5 -5
22 7 17 12 35 22 40 22 4 0 1 -5 -7 -10 -9 -6 -10 -10 -3 -10 6 0 15 5 18 10
9 15 27 12 19 -2 -4 -8 -3 -10 2 -5 5 5 9 12 9 15 1 20 17 32 30 22 9 -8 14
-6 19 7 6 15 8 15 16 3 8 -12 10 -12 15 2 4 9 13 14 21 11 8 -3 14 1 14 8 0
11 2 11 10 -1 8 -12 10 -12 15 2 4 10 15 15 26 13 10 -2 19 0 19 6 0 5 10 9
23 9 13 0 29 6 36 13 11 10 12 9 6 -1 -6 -11 -3 -12 14 -3 11 7 21 14 21 17 0
3 -5 2 -12 -2 -6 -4 -8 -3 -5 3 4 6 19 8 33 5 23 -4 26 -2 20 13 -5 15 -4 16
9 5 14 -12 19 -7 16 15 -1 6 6 1 14 -9 15 -19 15 -19 16 5 0 13 3 19 6 12 3
-10 7 -10 18 0 7 7 10 17 7 22 -2 6 1 4 9 -2 16 -15 33 -17 24 -3 -3 6 1 10
10 10 10 0 13 5 9 13 -6 9 -4 9 8 -1 13 -10 18 -10 24 -1 4 8 3 9 -4 5 -8 -5
-10 -1 -5 10 4 12 8 14 11 6 3 -10 7 -10 20 0 13 11 14 11 7 -2 -7 -12 -6 -13
6 -3 10 8 19 9 27 3 9 -7 9 -7 2 2 -14 17 -12 31 3 25 7 -3 24 3 37 13 15 11
29 15 35 10 6 -5 17 -4 25 2 12 8 11 8 -5 3 -15 -4 -17 -3 -9 5 6 6 21 12 33
13 14 1 20 6 16 16 -4 11 -3 12 10 1 12 -10 16 -9 21 4 4 12 13 15 28 10 19
-6 20 -5 6 11 -14 17 -14 17 9 6 15 -8 21 -9 17 -2 -4 6 0 11 11 11 15 0 16 2
3 10 -8 5 -10 10 -4 10 6 0 14 -3 18 -7 12 -13 33 -11 33 3 0 11 -3 11 -16 1
-14 -11 -14 -10 -2 6 11 13 17 15 28 6 11 -10 12 -9 7 5 -5 12 -2 15 10 10 9
-3 13 -11 9 -17 -3 -6 -1 -7 6 -3 6 4 9 11 7 15 -8 13 63 73 76 65 9 -6 9 -3
-1 9 -8 11 -9 17 -3 17 6 0 9 7 6 15 -4 9 0 15 10 15 9 0 15 3 14 8 -3 14 14
42 23 36 5 -3 6 2 3 10 -3 9 -1 16 5 16 6 0 10 3 9 8 -1 4 4 19 10 33 13 31 9
65 -7 61 -6 -1 -11 5 -11 13 0 8 -7 15 -16 15 -8 0 -12 5 -9 10 3 6 -1 10 -9
10 -8 0 -18 9 -21 20 -4 11 -11 18 -16 15 -5 -4 -9 1 -9 9 0 10 -9 16 -22 17
-13 0 -18 3 -11 6 10 3 10 7 0 18 -7 7 -15 11 -19 8 -5 -2 -8 2 -8 10 0 8 -9
17 -21 20 -12 3 -18 10 -15 15 3 5 -4 12 -15 15 -15 4 -20 11 -15 22 3 9 2 14
-2 11 -15 -9 -54 25 -47 41 5 14 3 14 -12 2 -10 -7 -15 -10 -11 -5 4 5 0 15
-8 23 -8 8 -11 20 -7 26 4 7 -2 5 -13 -3 -10 -8 -16 -11 -12 -6 7 8 -14 36
-27 36 -3 0 -16 10 -29 22 -13 13 -42 39 -64 60 -22 20 -42 42 -45 50 -4 10
-6 10 -6 0 -1 -9 -8 -6 -22 7 -12 11 -18 24 -15 30 5 7 1 8 -10 4 -12 -4 -15
-3 -10 5 4 7 -3 14 -19 18 -13 3 -22 10 -19 15 3 5 -1 9 -8 9 -8 0 -21 8 -30
18 -18 19 -34 31 -64 49 -10 6 -18 16 -16 23 1 6 -2 9 -7 6 -12 -8 -72 49 -63
59 4 4 -3 3 -15 -4 -19 -10 -21 -8 -18 16 2 24 1 25 -10 10 -11 -15 -13 -16
-19 -2 -3 8 0 15 6 15 6 0 8 3 5 6 -4 4 -14 1 -24 -7 -11 -9 -14 -10 -9 -1 4
7 1 12 -8 12 -9 0 -21 9 -28 20 -7 11 -18 20 -25 20 -7 0 -13 5 -13 10 0 6 -7
10 -16 10 -12 0 -15 6 -11 23 6 21 6 21 -8 3 -14 -18 -15 -18 -15 -2 0 9 -4
14 -10 11 -5 -3 -10 -1 -10 5 0 6 -5 8 -12 4 -6 -4 -8 -3 -5 3 4 5 -5 16 -18
23 -13 7 -22 18 -18 23 3 6 1 7 -5 4 -14 -9 -43 3 -36 14 3 5 -4 9 -16 9 -12
0 -19 4 -16 9 3 5 -1 12 -10 15 -10 4 -13 2 -8 -6 5 -7 2 -8 -7 -3 -28 16 -58
48 -53 56 3 5 1 9 -5 9 -5 0 -12 -6 -14 -12 -4 -10 -6 -10 -6 0 -1 6 -8 12
-16 12 -8 0 -15 9 -15 19 0 11 -5 23 -12 27 -8 5 -9 2 -5 -9 9 -23 -6 -21 -28
3 -10 11 -21 17 -25 15 -4 -3 -10 2 -14 10 -3 8 -11 15 -17 15 -7 0 -18 8 -26
18 -8 9 -11 11 -7 3 5 -9 3 -12 -5 -7 -6 4 -9 12 -6 17 6 8 -8 13 -27 10 -5 0
-8 3 -8 9 0 6 -6 9 -12 8 -8 -2 -12 5 -10 16 3 17 1 18 -11 7 -11 -9 -17 -9
-22 -1 -4 6 1 18 11 26 11 9 13 13 6 9 -7 -4 -20 -1 -29 7 -9 7 -14 8 -10 2 4
-7 0 -14 -8 -18 -9 -3 -15 0 -15 9 0 7 -5 17 -12 21 -7 5 -8 3 -3 -5 6 -10 2
-10 -16 0 -13 7 -27 12 -31 11 -4 -1 -4 6 -1 15 4 11 3 14 -5 9 -7 -4 -12 -2
-12 3 0 6 -3 10 -7 10 -25 -4 -35 2 -29 18 4 10 4 14 0 10 -4 -4 -14 -1 -23 6
-14 11 -15 10 -1 -8 15 -20 15 -20 -8 -1 -12 11 -20 26 -18 33 3 7 1 13 -4 13
-6 0 -10 -8 -10 -17 0 -15 -2 -16 -9 -3 -6 8 -7 19 -3 25 3 5 -1 5 -9 -2 -11
-9 -18 -8 -33 3 -11 8 -16 14 -10 14 5 0 -6 8 -23 16 -19 10 -30 21 -26 28 4
6 -2 4 -12 -4 -10 -8 -16 -10 -13 -5 4 6 3 17 -3 25 -6 11 -9 12 -9 2 0 -7
-11 -2 -26 13 -14 14 -30 22 -36 19 -7 -5 -9 -1 -5 9 4 11 2 14 -9 10 -7 -3
-14 0 -14 6 0 6 -9 11 -19 11 -10 0 -21 7 -25 15 -3 8 -9 14 -14 13 -5 -2 -19
8 -33 22 -13 15 -17 17 -9 5 9 -12 2 -8 -17 9 -17 15 -36 25 -42 21 -7 -3 -11
-3 -10 2 4 15 -13 43 -22 37 -5 -3 -9 0 -9 5 0 6 -7 11 -16 11 -8 0 -12 5 -9
11 4 6 0 9 -11 7 -14 -2 -19 3 -18 19 0 19 -2 20 -19 11 -14 -7 -17 -7 -13 1
4 6 2 11 -4 11 -6 0 -8 5 -4 12 5 8 2 9 -10 5 -9 -4 -14 -3 -11 2 3 5 1 12 -5
16 -5 3 -10 0 -11 -7 0 -7 -4 -3 -9 10 -5 12 -17 22 -25 22 -9 0 -13 5 -10 10
3 6 2 10 -3 10 -4 0 -19 10 -32 23 -14 12 -29 21 -35 19 -5 -2 -7 -1 -3 3 8 9
-16 35 -32 35 -6 0 -8 5 -5 10 3 6 -1 10 -10 10 -9 0 -13 4 -10 10 3 6 -1 10
-9 10 -9 0 -16 5 -16 11 0 5 -4 8 -9 5 -11 -7 -23 22 -16 35 4 5 0 6 -8 3 -8
-3 -21 2 -30 10 -8 8 -18 12 -21 8 -4 -3 -4 1 0 11 5 13 1 17 -16 17 -11 0
-18 4 -15 10 3 6 -1 10 -10 10 -9 0 -13 5 -10 10 3 6 -3 10 -14 10 -12 0 -21
7 -21 15 0 8 -7 15 -15 15 -9 0 -18 7 -21 15 -4 8 -10 12 -15 9 -5 -3 -9 -1
-9 5 0 6 -11 13 -25 17 -13 3 -27 15 -30 25 -4 10 -15 19 -26 19 -16 0 -19 5
-14 23 5 17 4 19 -4 7 -10 -13 -12 -13 -21 0 -5 8 -10 11 -10 6 0 -5 -6 -3
-13 3 -8 6 -17 8 -21 4 -4 -4 -4 0 0 10 3 9 2 17 -3 17 -22 0 -45 28 -53 65
-7 32 -6 41 8 51 16 11 15 12 -3 11 -14 -1 -20 5 -21 21 -1 12 -4 25 -7 29 -4
3 1 12 11 20 12 9 13 13 3 11 -8 -2 -16 6 -18 17 -3 15 -2 16 5 7 7 -11 10
-11 15 3 4 9 3 14 -1 11 -17 -10 -34 11 -24 30 7 14 6 25 -4 38 -7 10 -11 23
-7 29 3 5 -1 13 -8 18 -12 7 -12 9 0 9 9 0 10 4 4 13 -6 6 -10 19 -10 27 -1 8
-3 27 -6 42 -4 19 -1 31 11 39 16 10 16 10 0 5 -17 -5 -24 10 -19 38 1 4 -4
14 -10 22 -8 10 -8 14 0 14 7 0 8 8 2 23 -5 12 -9 25 -10 30 0 4 -1 8 -2 10 0
1 -2 10 -4 20 -3 16 -1 16 13 5 16 -12 16 -11 1 7 -9 11 -19 38 -23 60 -3 22
-8 55 -12 73 -5 24 -3 32 7 32 11 0 11 2 1 8 -7 5 -15 21 -18 37 -3 16 -7 32
-10 37 -3 4 1 8 8 8 8 0 9 3 3 8 -12 8 -16 25 -21 72 -1 19 -3 35 -4 35 -2 0
-8 36 -13 78 -3 15 -7 30 -10 33 -3 3 -2 17 4 31 6 16 6 22 -1 18 -6 -3 -11 4
-11 17 -1 13 -3 32 -5 43 -2 11 -6 38 -10 60 -3 22 -11 46 -18 54 -9 12 -8 13
3 6 11 -6 12 -5 5 6 -9 14 -11 22 -18 74 -3 17 -5 30 -6 30 -1 0 -3 17 -6 38
-2 20 -9 47 -15 58 -9 17 -8 20 2 14 8 -6 10 -4 3 6 -5 8 -10 25 -12 39 -2 13
-9 28 -15 32 -9 6 -9 8 1 8 9 0 10 5 3 18 -7 13 -6 23 2 32 9 10 9 11 0 6 -6
-3 -14 -2 -18 4 -3 5 -1 10 6 10 8 0 8 4 -1 15 -7 8 -9 15 -5 15 4 0 1 8 -6
17 -12 15 -12 16 1 8 12 -7 13 -6 3 6 -10 12 -10 18 0 28 9 10 9 12 -2 9 -7
-2 -16 3 -19 11 -3 9 0 11 9 6 11 -6 12 -5 2 6 -7 7 -13 17 -13 22 0 4 6 5 13
2 6 -4 5 -1 -3 7 -8 7 -16 23 -17 36 -5 58 -8 72 -16 72 -5 0 -3 8 4 17 10 11
10 14 2 9 -9 -5 -13 1 -15 21 -1 36 -3 44 -11 68 -8 25 -17 70 -24 113 -3 17
-9 32 -13 32 -5 0 -7 8 -5 18 1 9 -4 28 -12 41 -9 13 -10 20 -3 16 7 -5 7 3
-3 21 -8 16 -13 37 -12 47 2 9 -2 17 -8 17 -5 0 -7 3 -4 7 4 3 3 11 -3 18 -6
7 -4 21 5 38 8 15 10 25 5 22 -4 -3 -7 3 -5 12 2 10 4 23 4 29 1 12 31 15 31
2 0 -4 7 -8 16 -8 9 0 12 -5 8 -12 -6 -9 -3 -9 9 0 14 12 16 11 12 -5 -2 -12
2 -20 10 -20 8 0 11 5 8 11 -7 12 28 -13 38 -27 3 -5 10 -9 15 -10 5 -1 8 -6
6 -11 -2 -5 5 -6 14 -2 10 4 22 -1 31 -11 8 -10 12 -13 9 -8 -2 6 4 11 14 11
10 0 18 -5 17 -11 -1 -5 3 -9 10 -8 8 2 11 -8 8 -28 -2 -17 -1 -28 3 -24 4 3
7 14 7 23 0 10 6 16 15 13 8 -2 20 -4 26 -5 22 -3 45 -29 40 -43 -4 -8 -1 -11
5 -8 6 4 8 13 5 21 -3 8 -1 14 3 14 5 0 11 -5 13 -10 2 -6 22 -11 45 -13 22
-1 39 -5 37 -9 -3 -4 6 -7 18 -6 40 2 49 -2 42 -14 -6 -10 -4 -10 7 0 19 17
29 15 29 -8 0 -11 4 -20 9 -20 5 0 7 10 4 23 -3 13 -1 18 4 11 11 -15 41 -25
47 -16 2 4 17 7 33 6 15 -1 34 -3 41 -3 8 -1 10 -6 6 -13 -4 -7 4 -3 18 10 13
12 27 22 31 22 4 0 7 -10 8 -22 1 -22 1 -22 9 2 4 14 8 19 9 13 1 -7 6 -13 12
-13 5 0 8 4 5 9 -3 5 1 11 9 14 10 4 12 1 9 -11 -4 -12 1 -10 15 7 12 13 21
18 21 12 0 -7 5 -9 12 -5 7 4 8 3 4 -4 -4 -7 -2 -12 3 -12 6 0 11 4 11 9 0 5
7 12 16 15 15 6 15 4 3 -11 -13 -17 -13 -17 7 -1 21 18 49 25 40 10 -3 -5 1
-9 8 -9 8 0 12 6 9 13 -2 6 1 15 7 19 6 3 10 3 9 -2 -4 -22 3 -25 17 -7 8 10
13 13 9 7 -8 -16 7 -17 23 -1 9 9 12 9 13 -2 1 -8 1 -19 0 -23 -1 -5 3 -6 8
-2 6 3 7 13 4 23 -3 9 -3 14 2 10 4 -4 17 -2 29 4 19 10 20 10 7 -5 -13 -16
-2 -25 13 -10 11 12 56 14 57 3 1 -5 2 -14 3 -19 0 -5 4 -13 8 -16 4 -4 5 5 2
21 -3 20 -1 25 5 15 5 -7 14 -10 20 -7 6 4 15 -3 20 -16 6 -13 10 -20 10 -16
1 4 10 0 20 -9 11 -9 18 -20 15 -25 -3 -4 3 -5 12 -1 12 4 15 3 10 -5 -4 -7
-2 -12 4 -12 6 0 8 -5 4 -12 -5 -8 -2 -9 10 -5 9 4 15 3 12 -1 -3 -5 13 -28
34 -52 21 -24 36 -49 33 -54 -3 -6 -3 -8 2 -4 8 8 45 -28 45 -44 0 -4 6 -8 13
-8 8 0 19 -11 26 -24 7 -13 26 -34 42 -45 31 -23 32 -47 5 -96 -5 -11 -11 -23
-12 -27 -1 -5 -3 -10 -4 -13 -1 -3 -4 -9 -5 -15 -1 -5 -4 -13 -5 -17 -4 -15
-7 -28 -8 -46 -1 -12 -6 -15 -14 -11 -10 6 -10 5 -1 -8 7 -8 10 -18 6 -22 -7
-7 -10 -33 -18 -161 -2 -44 -5 -82 -6 -85 -1 -3 -1 -8 -1 -12 3 -15 15 -400
16 -473 0 -44 5 -83 11 -87 6 -5 5 -8 -3 -8 -8 0 -10 -5 -6 -12 4 -6 8 -32 10
-57 2 -25 5 -64 9 -86 3 -22 8 -60 11 -85 3 -25 7 -56 10 -70 2 -14 7 -41 10
-60 7 -39 29 -152 38 -190 4 -14 9 -38 11 -54 3 -16 10 -37 16 -47 5 -11 8
-19 5 -19 -5 0 32 -137 53 -195 14 -42 41 -127 46 -148 2 -9 7 -22 10 -27 3
-5 8 -20 11 -32 3 -13 7 -30 9 -38 2 -8 4 -23 4 -32 1 -10 5 -18 10 -18 5 0 7
15 5 33 -3 33 -14 185 -18 273 -2 29 -6 57 -10 63 -4 6 -2 11 4 11 6 0 8 5 3
12 -7 13 -9 23 -17 138 -3 36 -6 65 -6 65 -6 0 -14 257 -11 338 1 46 17 42 20
-5 1 -18 4 -46 6 -63 12 -82 16 -113 20 -140 2 -16 6 -41 9 -55 4 -14 9 -41
11 -60 12 -88 16 -116 22 -130 3 -8 7 -28 10 -45 3 -16 9 -35 14 -41 5 -6 6
-14 2 -17 -3 -4 -2 -7 3 -7 5 0 11 -9 12 -20 4 -44 6 -50 15 -50 6 0 7 -3 4
-6 -3 -4 -2 -15 4 -26 6 -11 12 -27 14 -36 9 -47 132 -276 158 -293 5 -3 8 -8
6 -10 -5 -9 13 -49 22 -49 6 0 7 -5 4 -10 -3 -6 -1 -10 5 -10 6 0 9 -4 6 -9
-4 -5 -2 -11 4 -13 5 -1 11 -13 13 -25 2 -12 7 -26 11 -30 7 -7 2 140 -9 227
-16 135 -22 640 -9 830 14 227 9 572 -11 750 -3 25 -7 65 -10 90 -2 25 -4 45
-5 45 -1 0 -4 16 -7 35 -11 80 -75 247 -134 345 -16 28 -35 60 -41 73 -6 12
-15 22 -20 22 -5 0 -6 5 -3 10 3 6 1 10 -5 10 -6 0 -9 4 -6 9 4 5 3 11 -1 13
-5 2 -19 16 -33 32 -14 16 -18 25 -10 21 13 -8 13 -6 1 8 -7 9 -17 14 -22 11
-5 -3 -9 2 -9 10 0 9 -4 16 -10 16 -5 0 -10 7 -10 15 0 8 -6 12 -14 9 -8 -3
-16 -1 -19 4 -13 20 -16 67 -5 79 9 11 8 13 -3 11 -9 -2 -14 6 -14 25 1 15 -3
27 -8 27 -4 0 -7 8 -6 18 1 9 -1 25 -6 35 -4 10 -5 20 -2 24 4 3 0 21 -8 39
-8 19 -12 34 -10 34 2 0 0 14 -5 32 -5 17 -12 49 -16 72 -3 22 -9 45 -12 51
-4 5 -7 17 -7 25 -1 8 -7 33 -14 54 -8 21 -13 49 -13 62 0 13 -4 24 -9 24 -5
0 -9 10 -9 23 0 13 -5 28 -12 35 -7 7 -8 12 -4 12 5 0 2 8 -5 17 -12 14 -12
16 0 8 11 -6 11 -2 -2 21 -16 30 -27 57 -34 84 -2 8 -5 20 -6 25 -2 6 -8 20
-15 31 -6 12 -8 24 -5 28 3 3 1 6 -6 6 -9 0 -12 9 -9 25 3 13 1 22 -3 19 -5
-3 -14 8 -20 23 -7 15 -23 54 -37 85 -14 31 -24 60 -23 64 2 4 -1 10 -6 13
-14 10 -72 129 -66 135 3 3 -2 8 -11 12 -9 3 -16 15 -16 26 0 11 -7 26 -15 35
-8 8 -12 19 -9 25 4 7 2 8 -4 4 -7 -4 -12 -1 -12 8 0 9 -5 16 -11 16 -5 0 -8
4 -5 9 3 5 -1 11 -9 15 -8 3 -15 12 -15 20 0 8 -5 16 -10 18 -6 2 -12 13 -12
25 -2 14 -7 19 -17 15 -8 -3 -12 -1 -9 4 3 5 -2 21 -11 35 -20 32 -77 119 -92
140 -7 10 -11 20 -10 24 1 3 -7 15 -18 24 -12 10 -21 26 -21 35 0 9 -4 16 -9
16 -5 0 -17 18 -27 40 -10 22 -22 40 -27 40 -4 0 -6 4 -3 9 3 5 -1 12 -10 15
-9 4 -14 9 -11 12 3 4 -1 13 -9 21 -8 8 -12 18 -9 23 3 4 -2 11 -11 14 -8 3
-12 10 -9 16 3 5 2 10 -3 10 -4 0 -19 20 -31 45 -12 25 -27 45 -32 45 -5 0 -9
6 -9 14 0 8 -7 22 -16 30 -8 9 -13 16 -9 16 3 0 -3 10 -15 22 -11 12 -20 28
-20 35 0 8 -9 23 -20 35 -11 12 -20 30 -20 40 0 11 -4 17 -8 14 -5 -3 -14 11
-21 30 -7 18 -17 34 -22 34 -5 0 -9 9 -9 20 0 11 -4 20 -8 20 -5 0 -19 20 -32
45 -13 25 -28 45 -33 45 -6 0 -8 3 -4 6 6 6 -39 85 -55 95 -5 3 -10 10 -10 15
-1 17 -21 54 -30 54 -4 0 -8 7 -8 15 0 8 -5 15 -11 15 -5 0 -8 4 -5 9 3 5 -1
12 -10 15 -8 3 -13 10 -9 15 3 5 -6 21 -20 35 -14 14 -25 30 -25 36 0 5 -4 10
-8 10 -12 0 -42 56 -34 64 4 4 1 6 -6 4 -8 -2 -19 6 -25 17 -7 11 -20 27 -29
36 -10 9 -18 20 -18 25 0 5 -13 20 -30 34 -16 14 -30 28 -30 32 0 10 -63 102
-72 106 -5 2 -8 10 -8 17 0 7 -3 15 -7 17 -10 4 -48 58 -56 81 -3 9 -11 17
-18 17 -6 0 -9 7 -5 15 3 9 0 15 -9 15 -7 0 -17 9 -20 20 -3 11 -11 20 -16 20
-5 0 -9 7 -9 15 0 8 -7 15 -15 15 -8 0 -15 4 -15 10 0 5 -11 20 -24 33 -14 14
-22 28 -18 33 4 4 1 4 -6 0 -7 -4 -15 -1 -18 8 -3 8 -14 18 -25 21 -10 4 -19
12 -19 19 0 8 -13 19 -30 26 -16 7 -30 16 -30 21 0 5 -10 9 -21 9 -17 0 -19 3
-10 14 10 12 8 13 -8 9 -13 -3 -21 -1 -21 6 0 7 -4 9 -10 6 -5 -3 -10 2 -11
12 0 11 -3 13 -6 5 -3 -9 -10 -7 -24 9 -10 12 -19 19 -19 14 0 -4 -7 -1 -17 6
-9 8 -17 13 -17 11 -1 -2 -9 0 -18 3 -10 4 -16 10 -13 14 2 4 -2 8 -10 8 -8 0
-12 -4 -9 -9 4 -5 -3 -4 -14 3 -12 7 -18 17 -16 21 3 4 -2 8 -11 8 -10 0 -14
-5 -10 -12 4 -7 0 -5 -8 4 -8 10 -17 15 -20 11 -4 -3 -7 -2 -7 4 0 6 -13 13
-30 15 -16 3 -30 2 -30 -2z m-4057 -8855 c-3 -9 -8 -14 -10 -11 -3 3 -2 9 2
15 9 16 15 13 8 -4z m747 -59 c0 -11 -19 -15 -25 -6 -3 5 1 10 9 10 9 0 16 -2
16 -4z"/>
<path d="M4256 8133 c-6 -14 -5 -15 5 -6 7 7 10 15 7 18 -3 3 -9 -2 -12 -12z"/>
<path d="M4260 8110 c-9 -6 -10 -10 -3 -10 6 0 15 5 18 10 8 12 4 12 -15 0z"/>
<path d="M7410 7435 c0 -7 30 -13 34 -7 3 4 -4 9 -15 9 -10 1 -19 0 -19 -2z"/>
<path d="M7479 7438 c-5 -18 -6 -38 -1 -34 7 8 12 36 6 36 -2 0 -4 -1 -5 -2z"/>
<path d="M7546 7394 c-4 -11 -1 -12 13 -5 10 6 20 9 22 8 2 -1 3 0 1 2 -7 11
-31 8 -36 -5z"/>
<path d="M7593 7335 c0 -8 4 -12 9 -9 5 3 6 10 3 15 -9 13 -12 11 -12 -6z"/>
<path d="M7723 7332 c10 -10 14 -22 10 -27 -5 -4 -2 -5 5 -1 11 6 10 12 -4 27
-9 10 -19 19 -22 19 -3 0 2 -8 11 -18z"/>
<path d="M7630 7330 c0 -5 5 -10 11 -10 5 0 7 5 4 10 -3 6 -8 10 -11 10 -2 0
-4 -4 -4 -10z"/>
<path d="M7835 7310 c-3 -6 1 -7 9 -4 18 7 21 14 7 14 -6 0 -13 -4 -16 -10z"/>
<path d="M7878 7313 c7 -3 16 -2 19 1 4 3 -2 6 -13 5 -11 0 -14 -3 -6 -6z"/>
<path d="M7796 7288 c3 -5 10 -6 15 -3 13 9 11 12 -6 12 -8 0 -12 -4 -9 -9z"/>
<path d="M7873 7285 c0 -8 4 -12 9 -9 5 3 6 10 3 15 -9 13 -12 11 -12 -6z"/>
<path d="M3816 5712 c-3 -5 1 -9 9 -9 8 0 12 4 9 9 -3 4 -7 8 -9 8 -2 0 -6 -4
-9 -8z"/>
<path d="M3755 5511 c-3 -5 -2 -12 3 -15 5 -3 9 1 9 9 0 17 -3 19 -12 6z"/>
<path d="M3790 5510 c0 -5 5 -10 11 -10 5 0 7 5 4 10 -3 6 -8 10 -11 10 -2 0
-4 -4 -4 -10z"/>
<path d="M3759 5448 c-7 -23 -5 -39 4 -45 7 -3 9 -3 5 2 -4 4 0 14 10 22 16
12 16 13 -2 6 -13 -4 -17 -3 -12 5 4 7 5 12 2 12 -3 0 -6 -1 -7 -2z"/>
<path d="M3660 5416 c0 -2 8 -10 18 -17 15 -13 16 -12 3 4 -13 16 -21 21 -21
13z"/>
<path d="M3693 5363 c0 -9 4 -10 12 -3 7 5 15 7 18 3 4 -3 7 -1 7 5 0 6 -8 10
-18 9 -10 0 -19 -7 -19 -14z"/>
<path d="M7701 5044 c0 -11 3 -14 6 -6 3 7 2 16 -1 19 -3 4 -6 -2 -5 -13z"/>
<path d="M3356 5038 c3 -5 10 -6 15 -3 13 9 11 12 -6 12 -8 0 -12 -4 -9 -9z"/>
<path d="M2996 4772 c-3 -5 1 -9 9 -9 8 0 12 4 9 9 -3 4 -7 8 -9 8 -2 0 -6 -4
-9 -8z"/>
<path d="M2935 4721 c-3 -5 -2 -12 3 -15 5 -3 9 1 9 9 0 17 -3 19 -12 6z"/>
<path d="M2840 4650 c-9 -6 -10 -10 -3 -10 6 0 15 5 18 10 8 12 4 12 -15 0z"/>
<path d="M2733 4535 c0 -8 4 -12 9 -9 5 3 6 10 3 15 -9 13 -12 11 -12 -6z"/>
<path d="M2674 4512 c4 -3 14 -7 22 -8 9 -1 13 0 10 4 -4 3 -14 7 -22 8 -9 1
-13 0 -10 -4z"/>
<path d="M2526 4372 c-3 -5 1 -9 9 -9 8 0 12 4 9 9 -3 4 -7 8 -9 8 -2 0 -6 -4
-9 -8z"/>
<path d="M2436 4317 c3 -10 9 -15 12 -12 3 3 0 11 -7 18 -10 9 -11 8 -5 -6z"/>
<path d="M9235 3910 c3 -5 8 -10 11 -10 2 0 4 5 4 10 0 6 -5 10 -11 10 -5 0
-7 -4 -4 -10z"/>
<path d="M9325 3830 c3 -5 8 -10 11 -10 2 0 4 5 4 10 0 6 -5 10 -11 10 -5 0
-7 -4 -4 -10z"/>
<path d="M9388 3793 c7 -3 16 -2 19 1 4 3 -2 6 -13 5 -11 0 -14 -3 -6 -6z"/>
<path d="M9475 3761 c-3 -5 -2 -12 3 -15 5 -3 9 1 9 9 0 17 -3 19 -12 6z"/>
<path d="M9440 3756 c0 -2 7 -9 15 -16 13 -11 14 -10 9 4 -5 14 -24 23 -24 12z"/>
<path d="M1494 3468 c-4 -7 -4 -10 1 -6 4 4 15 2 24 -5 14 -11 14 -10 2 6 -16
20 -18 21 -27 5z"/>
<path d="M1455 3430 c3 -5 8 -10 11 -10 2 0 4 5 4 10 0 6 -5 10 -11 10 -5 0
-7 -4 -4 -10z"/>
<path d="M1330 3310 c0 -5 5 -10 11 -10 5 0 7 5 4 10 -3 6 -8 10 -11 10 -2 0
-4 -4 -4 -10z"/>
<path d="M10236 3163 c-6 -14 -5 -15 5 -6 7 7 10 15 7 18 -3 3 -9 -2 -12 -12z"/>
<path d="M10316 3112 c-3 -5 1 -9 9 -9 8 0 12 4 9 9 -3 4 -7 8 -9 8 -2 0 -6
-4 -9 -8z"/>
<path d="M10387 3009 c7 -7 15 -10 18 -7 3 3 -2 9 -12 12 -14 6 -15 5 -6 -5z"/>
<path d="M10633 2535 c0 -8 4 -12 9 -9 5 3 6 10 3 15 -9 13 -12 11 -12 -6z"/>
<path d="M10518 2473 c7 -3 16 -2 19 1 4 3 -2 6 -13 5 -11 0 -14 -3 -6 -6z"/>
<path d="M10256 2312 c-3 -5 1 -9 9 -9 8 0 12 4 9 9 -3 4 -7 8 -9 8 -2 0 -6
-4 -9 -8z"/>
<path d="M1216 2257 c3 -10 9 -15 12 -12 3 3 0 11 -7 18 -10 9 -11 8 -5 -6z"/>
<path d="M1315 2230 c3 -5 8 -10 11 -10 2 0 4 5 4 10 0 6 -5 10 -11 10 -5 0
-7 -4 -4 -10z"/>
<path d="M1226 2208 c3 -5 10 -6 15 -3 13 9 11 12 -6 12 -8 0 -12 -4 -9 -9z"/>
<path d="M1670 2160 c0 -5 5 -10 11 -10 5 0 7 5 4 10 -3 6 -8 10 -11 10 -2 0
-4 -4 -4 -10z"/>
<path d="M1879 2083 c-13 -16 -12 -17 4 -4 16 13 21 21 13 21 -2 0 -10 -8 -17
-17z"/>
<path d="M1935 2081 c-3 -5 -2 -12 3 -15 5 -3 9 1 9 9 0 17 -3 19 -12 6z"/>
<path d="M2110 2036 c0 -2 7 -7 16 -10 8 -3 12 -2 9 4 -6 10 -25 14 -25 6z"/>
<path d="M2156 2028 c3 -5 10 -6 15 -3 13 9 11 12 -6 12 -8 0 -12 -4 -9 -9z"/>
<path d="M2193 2023 c0 -9 4 -10 14 -2 7 6 13 12 13 14 0 1 -6 2 -13 2 -8 0
-14 -6 -14 -14z"/>
<path d="M2273 2015 c0 -8 4 -12 9 -9 5 3 6 10 3 15 -9 13 -12 11 -12 -6z"/>
<path d="M2135 1990 c-3 -5 -1 -10 4 -10 6 0 11 5 11 10 0 6 -2 10 -4 10 -3 0
-8 -4 -11 -10z"/>
<path d="M9235 1970 c-3 -5 -1 -10 4 -10 6 0 11 5 11 10 0 6 -2 10 -4 10 -3 0
-8 -4 -11 -10z"/>
<path d="M2495 1961 c-3 -5 -2 -12 3 -15 5 -3 9 1 9 9 0 17 -3 19 -12 6z"/>
<path d="M2450 1956 c0 -2 7 -7 16 -10 8 -3 12 -2 9 4 -6 10 -25 14 -25 6z"/>
<path d="M3220 1930 c-9 -6 -10 -10 -3 -10 6 0 15 5 18 10 8 12 4 12 -15 0z"/>
<path d="M3085 1910 c-3 -6 1 -7 9 -4 18 7 21 14 7 14 -6 0 -13 -4 -16 -10z"/>
<path d="M3173 1913 c4 -3 1 -13 -6 -22 -11 -14 -10 -14 5 -2 16 12 16 31 1
31 -4 0 -3 -3 0 -7z"/>
<path d="M3656 1873 c-6 -14 -5 -15 5 -6 7 7 10 15 7 18 -3 3 -9 -2 -12 -12z"/>
<path d="M3574 1866 c1 -8 5 -18 8 -22 4 -3 5 1 4 10 -1 8 -5 18 -8 22 -4 3
-5 -1 -4 -10z"/>
<path d="M3776 1857 c3 -10 9 -15 12 -12 3 3 0 11 -7 18 -10 9 -11 8 -5 -6z"/>
<path d="M8495 1819 c-4 -6 -5 -12 -2 -15 2 -3 7 2 10 11 7 17 1 20 -8 4z"/>
<path d="M8035 1791 c-3 -5 -2 -12 3 -15 5 -3 9 1 9 9 0 17 -3 19 -12 6z"/>
<path d="M8155 1789 c-3 -4 2 -6 10 -5 21 3 28 13 10 13 -9 0 -18 -4 -20 -8z"/>
<path d="M4350 1769 c0 -5 5 -7 10 -4 6 3 10 8 10 11 0 2 -4 4 -10 4 -5 0 -10
-5 -10 -11z"/>
<path d="M4506 1752 c-3 -5 1 -9 9 -9 8 0 12 4 9 9 -3 4 -7 8 -9 8 -2 0 -6 -4
-9 -8z"/>
<path d="M4546 1748 c3 -5 10 -6 15 -3 13 9 11 12 -6 12 -8 0 -12 -4 -9 -9z"/>
<path d="M4850 1741 c0 -7 -5 -9 -12 -5 -7 5 -8 3 -3 -5 5 -9 10 -10 18 -2 6
6 8 14 4 18 -4 3 -7 1 -7 -6z"/>
<path d="M4590 1736 c0 -2 7 -7 16 -10 8 -3 12 -2 9 4 -6 10 -25 14 -25 6z"/>
<path d="M4775 1730 c3 -5 8 -10 11 -10 2 0 4 5 4 10 0 6 -5 10 -11 10 -5 0
-7 -4 -4 -10z"/>
<path d="M8039 1723 c-13 -16 -12 -17 4 -4 16 13 21 21 13 21 -2 0 -10 -8 -17
-17z"/>
<path d="M5776 1717 c3 -10 9 -15 12 -12 3 3 0 11 -7 18 -10 9 -11 8 -5 -6z"/>
<path d="M5055 1710 c3 -5 8 -10 11 -10 2 0 4 5 4 10 0 6 -5 10 -11 10 -5 0
-7 -4 -4 -10z"/>
<path d="M7673 1705 c0 -8 4 -12 9 -9 5 3 6 10 3 15 -9 13 -12 11 -12 -6z"/>
<path d="M6250 1691 c0 -6 4 -13 10 -16 6 -3 7 1 4 9 -7 18 -14 21 -14 7z"/>
<path d="M6840 1690 c-9 -6 -10 -10 -3 -10 6 0 15 5 18 10 8 12 4 12 -15 0z"/>
<path d="M4875 1661 c-3 -5 -2 -12 3 -15 5 -3 9 1 9 9 0 17 -3 19 -12 6z"/>
<path d="M5156 1652 c-3 -5 1 -9 9 -9 8 0 12 4 9 9 -3 4 -7 8 -9 8 -2 0 -6 -4
-9 -8z"/>
<path d="M7415 1650 c-3 -5 -1 -10 4 -10 6 0 11 5 11 10 0 6 -2 10 -4 10 -3 0
-8 -4 -11 -10z"/>
<path d="M7590 1656 c0 -2 7 -7 16 -10 8 -3 12 -2 9 4 -6 10 -25 14 -25 6z"/>
<path d="M7515 1639 c-4 -6 -5 -12 -2 -15 2 -3 7 2 10 11 7 17 1 20 -8 4z"/>
</g>
</svg>
