<svg xmlns="http://www.w3.org/2000/svg" version="1" viewBox="0 0 1173 1173"><path d="M665 89c0 .3-1 .7-2.2.8-5.4.4-7.3 1-7 2.2.2 1.1 0 1.1-1.1.1-1.2-.9-1.8-.9-3 .3-.8.8-1.7 1.2-2.1.9-.3-.3-1.2-.1-2 .6-1.1.9-1.5.9-1.9-.1-.4-.9-.6-.7-.6.4-.1 1.1-.8 1.6-2.1 1.3-1.1-.2-1.9-.1-1.6.3.2.4-.7 1.2-2 1.9-1.3.6-2.1.7-1.8.1.3-.5-.3-.4-1.4.3-1.2.7-1.8 1.8-1.4 2.4.3.5-.1.4-1-.3-1.3-1-1.8-1-2.4-.1-.5.8-.3.9.6.4.9-.6 1.1-.4.6.4-.5.7-1.4 1-2.2.7-.8-.3-1.4-.1-1.4.4 0 .6-.8 1-1.7 1-1 0-2.7.7-3.7 1.5s-2.3 1.2-2.9.8c-.6-.4-.7-.1-.2.7.6 1 .4 1.2-.9.7-1.4-.6-1.7-.3-1.2.9.5 1.4.4 1.5-.8.5-1.1-1-1.7-.8-2.5.6-.6 1-1.1 1.4-1.1.9 0-.5-.7-.3-1.5.4s-1.5.9-1.5.4-.7.2-1.6 1.4c-.8 1.2-1.9 2-2.4 1.7-.5-.3-1.2 0-1.5.6-.4.5-1.3.8-2.1.5-.9-.3-1.1 0-.7 1.1.4.9.2 1.4-.3 1.1-1.1-.7-3.5 1.7-2.6 2.6.3.4 0 .4-.9.1-.9-.3-2.4.5-3.8 2.1-1.5 1.7-2.9 2.4-4.2 2.1-1.6-.4-1.8-.3-.9.8 1.3 1.6-.3 3-2.2 1.9-.7-.4-.8-.3-.4.4s.2 1.2-.3 1.2c-.6 0-1.1.8-1.1 1.7 0 1.5-.2 1.6-1 .3-.6-1-1-1.1-1-.3 0 .7-.6 1.3-1.4 1.3-.7 0-2 .8-2.7 1.7-1.3 1.6-1.2 1.7.4.4.9-.7 1.7-.9 1.7-.3 0 1.2-2.9 2.4-4.1 1.6-.5-.3-.9-.2-.8.3.4 2.1-.2 3.3-1.7 3.3-.9 0-1.2.5-.8 1.2.5.8.2.9-.9.5-1-.4-1.6-.2-1.4.6.1.7-.4 1.1-1.2.9-1.2-.3-1.2 0-.2 1.1.9 1.2.8 1.5-.6 1.3-1 0-1.8.4-1.8 1 0 1.5-3.1 4.4-3.9 3.7-.3-.4-.6.2-.6 1.3 0 1.6-.2 1.7-1 .4-.8-1.2-1-1.1-1 .6 0 2-2.9 5.6-3.1 3.8 0-.5-.4.1-1 1.4-.7 1.8-1.4 2.2-3.1 1.7-1.5-.4-1.8-.3-1.1.2 1 .7 1 1.3-.3 2.9-.8 1-1.3 1.2-.9.4.4-.8-.1-.6-.9.4-.9 1.1-1.6 2.4-1.6 2.9s-.8.3-1.7-.4c-1-.7-1.5-.9-1.1-.5.4.5.2 1.6-.5 2.4-1 1.3-.9 1.4.2.7 1-.5 1.2-.4.7.4-.4.6-1.2.9-1.7.6-.5-.4-.9-.1-.9.5s-.5.8-1.2.4c-.6-.4-.8-.3-.4.4.9 1.6-1.3 2.6-2.9 1.2-1-.8-1.5-.8-2.1.1-.4.7-.3.9.3.6.6-.4 1.6 0 2.3.8 1 1.2 1 1.5 0 1.5-.7 0-2.3 1.1-3.6 2.5-2.4 2.6-4 3.3-2.8 1.2.4-.7.3-.9-.2-.4s-1 1.3-1 1.8c-.1.5-.2 1.3-.3 1.8 0 .5-1 1.1-2.1 1.4-1.1.3-2 1.2-2 2.1 0 .9-.4 1.7-1 1.7-.5.1-1.4.2-1.9.3-.5 0-1.3.5-1.8 1s-.3.6.5.2c.6-.4 1.2-.2 1.2.5 0 .6-.8.9-2 .6-1.4-.3-1.8-.1-1.3.6.9 1.5 1.4 4.1.6 3.3-.3-.3-1.2.2-1.9 1.2-1.2 1.5-1.3 1.5-.9-.7.2-1.3.1-2.1-.2-1.7-.4.4-.8 1.4-.9 2.2-.5 3.4-1.4 4.6-3 4-1.4-.5-1.5-.4-.4.9 1.2 1.5.3 2.1-2.4 1.6-.5-.1-.3.6.5 1.5.8 1 .9 1.5.2 1.1-.7-.4-1.4.1-1.8 1.3-.3 1.1-1.1 2-1.6 2-.6 0-.7-.5-.3-1.2.4-.6.3-.8-.4-.4-.6.3-.9 1.5-.7 2.5.2 1.1-.3 2.2-1.1 2.5-.9.3-1.2 1.1-.8 1.7.4.7.3 1-.2.7-1.1-.7-3.5 1.7-2.7 2.6.4.3-.1.6-1.1.6-.9 0-1.5.4-1.1.9.3.5-.1 1.6-.9 2.4-.8.8-1.2 1.8-.8 2.3.4.5-.2.2-1.2-.6-1.3-1-1.7-1-1.2-.3.4.8.2 1.3-.6 1.3-.9 0-.9.3.2 1 1.3.8 1.2 1-.3 1-1.1 0-1.5.4-1.1 1.2.5.8.2.9-1.1.4-1.5-.5-1.6-.4-.5.9.9 1.1.9 1.5.1 1.5-.7 0-.9.5-.6 1 .4.6.3 1-.2.9-.4-.1-1.5-.1-2.3 0-1.3.1-1.3.2 0 1.1 1.3.8 1.2 1-.3 1-1 0-1.5.4-1.2 1 .3.5.1 1-.6 1s-.9.3-.6.6c.3.4-.5 1.5-1.8 2.6-1.4 1.1-2.5 2.4-2.5 2.9 0 .6-.7 1.7-1.5 2.6-.8.8-1.3 1.9-.9 2.4.3.5 0 .8-.7.7-.7-.2-1.3.1-1.4.7 0 .5-1 2-2.3 3.3-1.2 1.2-2 2.7-1.7 3.2.4.6.1 1-.5 1s-1.5 1.1-2 2.5c-.6 1.6-1.5 2.3-2.5 1.9-.8-.3-1.2-1.1-.8-1.8.3-.6.2-.7-.2-.3-1.5 1.3-1.4 3.6.1 3 .8-.3 1.4-.1 1.4.5 0 .5-.7 1.2-1.5 1.6-.8.3-1.5 1.2-1.5 1.9 0 .8-1.1 2.7-2.5 4.3-1.4 1.6-2.5 3.6-2.5 4.4 0 1.3-.1 1.3-1.1 0-.9-1.2-1-1.1-.6.7.3 1.3.1 2.3-.3 2.3-.5 0-1.9 2-3.1 4.5-1.2 2.5-2.7 4.5-3.1 4.5-.5 0-.6.5-.3 1 .3.6 0 1.3-.9 1.6-.9.3-1.2 1.2-.9 2.1.4 1 .2 1.4-.5.9-.6-.3-1.3-.2-1.7.4-.3.5-.1 1 .5 1s.9.4.5 1c-.3.5-1.3.7-2.3.4-1.3-.5-1.4-.4-.3.4 1.1.8 1 1.3-.5 3-1 1.2-2.2 1.8-2.8 1.5-.6-.4-.5.1.3 1 1.1 1.4 1.1 1.8-.3 2.3-1 .4-1.5 1.3-1.1 2.1.4 1.1.1 1.3-1 .9-1-.4-1.4-.2-.9.5.9 1.5-1.7 6-3 5.2-.6-.4-.5 0 .2.9 1.1 1.4 1 1.8-.5 2.7-1 .6-1.3 1.1-.5 1.1 1 0 1 .5.1 2.2-.7 1.3-1.2 2.4-1.1 2.5.1.2.2 1.4.2 2.8 0 1.7-.6 2.5-1.7 2.6-1.1 0-1.3.3-.5.6.6.2 1.2 1.1 1.2 1.9 0 .9-.4 1.3-.9 1-.5-.3-.9 0-.8.7.1 4.8-.4 6.7-2 6.8-1.1 0-1.3.3-.5.6.6.2 1.2 1.1 1.2 1.9 0 .9-.4 1.3-.8 1-.4-.2-.8.7-.9 2.2-.1 4.8-.3 5.3-1.4 4.6-.8-.4-.8 0 0 1.5 1 1.7.9 2.1-.4 2.1-.8 0-1.5.5-1.5 1.1 0 .5.5.7 1 .4.6-.3 1-.1 1 .5s-.7 1.3-1.5 1.6c-.8.4-1.5 1-1.5 1.6 0 .5.4.7.8.4.5-.3.9.1.9.9s-.4 1.2-.9.8c-.6-.3-.7.9-.5 2.6.4 2.1.2 2.9-.6 2.4-.6-.4-.8 0-.4 1.1.4 1-.2 2.5-1.5 3.8-1.7 1.7-1.8 2-.4 1.5 1.2-.5 1.6-.3 1.3.5-.2.7-1 1.2-1.7 1-1-.2-1.1 0-.2 1 1.5 1.9.4 5.8-1.7 5.9-1.2 0-1.1.2.4.9 1.1.5 1.4.9.7.9-.7.1-1 .6-.6 1.3.5.8.2.9-.9.5-.9-.3-1.9-.1-2.3.5-.4.6-.3.8.2.5.6-.3 1.6-.2 2.4.4 1.2.7 1.1.9-.5.9-1.1 0-1.5.4-1 .8 1.3.9 1.8 3.2.7 3.2-.4 0-.8.8-.9 1.7-.4 5.2-1.5 9.8-2.6 10.5-.9.6-.9.8 0 .8.8 0 .9.9.2 3.2-.6 1.8-1.2 4.6-1.4 6.3-.3 1.6-.7 4.3-.9 6-.3 1.6-.7 4.6-1 6.5-.6 3.8-1.1 6.5-2.7 14.7-.6 2.9-1.1 6.6-1.1 8.3-.1 1.7-.5 3.3-.9 3.6-.4.2-.6 1.3-.4 2.4.2 1.1 0 2-.5 2s-.7.7-.4 1.5c.4.8.3 2.3-.1 3.2-.4 1-.9 3.7-1.1 6-.2 2.4-.8 5.1-1.3 6.1-.7 1.3-.7 2.2.1 3 .7.7.8 1.2.2 1.2-.5 0-1 .8-1.1 1.8-.2 3.1-.8 4.7-1.8 5.4-.6.5-.5.8.3.8 2 0 1.4 2-1 3-1.7.6-1.8.9-.6.9 1.2.1 1.5.7 1.2 2.3-.3 1.3-.8 3.4-1.1 4.8-.3 1.4-.6 3.8-.8 5.5-.1 1.6-.4 3-.5 3-.1 0-.3 1.1-.4 2.5 0 1.4-.5 3.1-1 3.9-.5.8-.4 1.6.5 2.2.8.5.9.9.4.9-.6 0-1.2 1.6-1.3 3.7-.2 2-.6 4.1-1 4.7-1.1 1.9-1.1 3.6.1 2.9.7-.4.4.6-.7 2.1-1 1.6-1.3 2.5-.6 2.1.9-.6 1-.1.4 1.6-.4 1.3-.8 3.5-1 4.9-.1 1.4-.3 2.7-.4 3-.1.3-.2 1.3-.1 2.2.1 1-.1 1.8-.6 1.8-.4 0-.8 1.5-.9 3.2-.1 3.3-1 11.4-1.8 15.3-.6 3.4-1.9 10.9-2.2 13-.1 1.1-.3 2-.4 2-.3 0-1.1 4.4-1.3 7.5-.1 1.4-.6 3.1-1 3.7-.5.7-.6 1.7-.2 2.2.3.5.1 1.2-.4 1.6-.5.3-.8 1.4-.6 2.5.2 1.1 0 2-.4 2-.5 0-.7 1.1-.6 2.5.2 1.4-.1 2.5-.5 2.5-.5 0-.7.9-.5 2 .2 1.1 0 2-.4 2s-.8 1.2-.8 2.7c-.1 2.7-.5 5.1-1.9 11.8-.4 1.6-1.3 3.6-2.2 4.3-1.4 1.1-1.4 1.2 0 1.2 2 0 1.2 3.9-.9 4.7-1.1.4-1.2.8-.3 1.3 1.6 1-.5 7.9-2.6 8.7-.8.3-1.1 1-.8 1.7.3.6-.4 0-1.6-1.4-2.1-2.5-2.1-2.5-1-.1 1.2 2.3.2 4-2.3 4.1-.5 0-.6.4-.2.9.3.5.1 1.2-.5 1.6-.5.3-1 .1-1-.5s-.5-.8-1-.5c-.6.4-.8 1.1-.5 1.6.4.5-.1.9-1 .9s-1.3.5-1 1.1c.4.6-.2 1.3-1.4 1.6-1.1.3-1.9.8-1.7 1.2.2.3-.2 1.2-1 1.9-1.1 1-1.4 1-1.4 0 0-.9-.3-.9-.9.2-.6.8-.7 1.8-.5 2.2.3.4-.1.8-1 .8-.8 0-2.4 1.2-3.5 2.7-1.6 2.2-2 2.3-1.6.8.3-1.1-.1-.8-.8.8-.7 1.5-1.6 2.4-2 2.1-.4-.4-.7-.2-.7.5s-.4.9-1 .6c-.5-.3-1 .1-1 1 0 1.1-.5 1.5-1.5 1.1-.8-.3-1.4-.2-1.4.2.3 1.7-.1 3.5-.7 3-.3-.4-2.2 1.1-4.2 3.1-2 2.1-4.5 4.1-5.5 4.5-1 .3-1.5 1-1.2 1.6.3.5-.1 1-.9 1-.9 0-1.6.5-1.6 1.1 0 .5-.4.8-.9.5-.5-.3-1.2.1-1.5 1-.3.9-1.1 1.2-1.8.8-1-.6-1-.4 0 .8 1.1 1.4 1.1 1.6 0 1.4-.7-.1-1.8-.5-2.5-.9-.7-.5-.9-.1-.6 1.3.3 1.1.1 2-.4 2-1.5 0-5.3 3.6-4.6 4.4.3.3-.1.6-1 .6s-3.4 1.8-5.7 4c-2.2 2.1-4 3.7-4 3.4 0-.3-1.1.6-2.4 2-1.3 1.5-2.8 2.6-3.4 2.6-.5 0-1.3.7-1.6 1.6-.3.9-1.3 1.4-2.1 1.1-.9-.4-1.2-.1-.8.9.3.9 0 1.4-.8 1.2-.8-.2-1.3.3-1.1.9.1.7-.5 1.3-1.3 1.3s-1.5.7-1.5 1.6c0 1.3-.3 1.4-1.5.4-.8-.7-1.2-1.7-.8-2.3.3-.6.1-.7-.6-.3-.9.6-.9 1.1 0 2.2s.9 1.4 0 1.4c-.7 0-.9.4-.6 1 .6.9-.8 1.5-2.9 1.1-.5-.1-.6.6-.2 1.5.6 1.5.4 1.5-1.1.3-1-.7-1.5-.9-1.1-.5 1 1.1-1.1 3.8-2.3 3-.5-.3-.6.3-.3 1.3.5 1.6.3 1.5-1.2-.2-1.2-1.5-1.5-1.6-1.1-.4.5 1.6-1.1 3.4-11 11.9-1.5 1.3-3.2 2.5-3.8 2.5-.5.1-.9.7-.7 1.4.1.7-.2 1-.8.6-.5-.3-1-.1-1 .5 0 .7-.7.9-1.6.6-1.5-.6-1.5-.4-.3 1.1.9 1.1 1 1.4.2.9-.8-.4-1.3-.2-1.3.6 0 .9-.3.9-1-.2-.9-1.3-1-1.3-1 0 0 1.9-3.6 5.1-5.9 5.3-1.2.1-1.7.7-1.3 1.9.3 1.3-.1 1.6-1.8 1.3-1.8-.4-2-.2-.9 1.1 1 1.2.9 1.3-.6.8-1.3-.5-1.6-.4-1.1.4.4.7.2 1.2-.4 1.2-.6 0-2.2 1.1-3.5 2.5-1.6 1.8-2.5 2.2-2.8 1.3-.4-.8-.6-.7-.6.4-.1 1-.6 1.8-1.2 1.8-.5 0-.7.6-.3 1.2.5.8 0 .7-1.1-.2-1.3-1-1.6-1.1-1.1-.2.8 1.3-3.1 6-4.6 5.5-.4-.2-1 .6-1.3 1.7-.4 1.1-1.1 1.8-1.6 1.5-.5-.4-1.2.1-1.5.9-.3.9-1 1.3-1.5 1-.5-.3-.9.2-.9 1.1 0 1.2-.5 1.5-1.6 1.1-1.4-.5-1.5-.4-.4.9s1 1.4-.2 1c-.9-.4-1.8.1-2.2 1-.3.9-1.1 1.3-1.6 1-.6-.4-.9-.2-.8.3.4 1.4-7.5 8.3-8.9 7.8-.8-.3-1 .1-.6 1.1.5 1.2.3 1.4-.7.8-1-.6-1.2-.4-.7.9.4 1 .3 1.5-.3 1.1-.6-.3-1-.1-1 .5 0 .7-.7 1-1.5.6-.8-.3-1.4-.2-1.4.2.3 2-.2 3.2-1.2 2.7-.6-.4-1.3.2-1.6 1.4-.5 1.8-2.1 2.6-4.6 2.2-.4 0-.6.2-.6.6.4 2.3-.3 3.5-1.5 3-1-.4-1.3-.1-1 .7.3.8-.4 1.6-1.6 1.9-1.2.3-1.9 1-1.6 1.5.3.6-.1 1.3-1 1.6-2.2.9-2.6.8-1.8-.6.4-.7.3-.8-.4-.4-.6.4-.8 1.4-.5 2.3.4 1.1.3 1.4-.5.9-.7-.4-1.2-.1-1.2.8s-.6 1.5-1.3 1.4c-.6-.2-1.1.3-.9.9.1.7-.3 1.3-.9 1.3-.6 0-1.7.7-2.6 1.5-.8.8-1.9 1.3-2.4 1-.5-.4-.6.2-.2 1.2.3 1 .3 1.5-.2 1.1-.4-.4-1.9.5-3.3 2s-3 2.6-3.4 2.4c-.4-.1-.8.3-.8.9 0 .5-.6.7-1.2.3-.9-.5-.8-.2.1.9 1.2 1.5 1.2 1.7-.4 1-1.4-.5-1.7-.3-1.2 1 .3.9.3 1.6-.1 1.4-1.3-.4-7.1 5-6.4 5.9.4.5-.2.2-1.2-.6-1.1-.8-1.7-1-1.3-.3.4.6-.1 1.8-1.3 2.6-1.1.7-1.7 1.8-1.2 2.3.4.5-.4 0-1.8-1.1-1.7-1.4-2.1-1.5-1.2-.3 1.1 1.4 1 2-.7 3.7-1.2 1.2-2.5 2.1-3 2.1-.6 0-1.3.5-1.7 1.2-.5.7-.2.9.7.4.8-.4.5-.1-.5.8-1 .8-2.3 1.3-2.7 1-.5-.3-.9.1-.9.8 0 .7-1.2 2.4-2.7 3.8-1.5 1.4-2.3 1.9-1.9 1.3.5-.9.2-1.1-.9-.7-1.2.5-1.3.9-.4 2 1 1.2.9 1.3-.4.8-1.1-.4-2 .2-2.8 2-.7 1.4-1.6 2.3-2 2-.5-.3-.9 0-.9.5 0 .6-.8 1.1-1.7 1.2-1.2 0-1.3.2-.5.6.9.3.4 1.2-1.6 2.7-1.6 1.1-3.1 2.5-3.3 3.1-.2.5-.7.9-1.1.8-.4-.2-1 .6-1.3 1.7-.4 1.1-1.1 1.8-1.6 1.5-.5-.4-.9-.1-.9.5s-.4.9-.9.6c-.5-.3-.8.2-.7 1.2.1 1.1-.5 1.6-1.6 1.4-.9-.1-2 .3-2.4.9-.5.8-.3.9.5.4 1-.5.9-.2 0 1.3-.7 1.2-1.5 2-1.8 1.9-.4-.1-.7.1-.8.5-.7 1.9-4.5 4.8-5.5 4.2-.6-.4-.8-.3-.4.4.7 1.2-3.8 6.2-5.6 6.2-.6 0-.9.3-.5.6.8.8-1.6 3.3-2.5 2.7-.5-.2-.8.1-.8.7 0 .7-1.2 2.4-2.7 3.9-3.6 3.4-6.5 7.1-5.7 7.1.4 0-.4.9-1.7 2.1-1.3 1.1-1.7 1.8-.9 1.4.8-.4.6.1-.5 1s-1.9 2.1-1.7 2.6c.1.5-.2.9-.8.9-.5 0-1 .5-1 1 0 1.1-.9 2.4-4.2 6-2.8 3.1-1.5 6.1 3.7 8.6 1.9.9 3.5 2.1 3.5 2.8 0 .6.5.4 1-.4.8-1.2 1-1 1.1 1 0 1.4.3 1.9.6 1.2.2-.6.9-1.2 1.4-1.2.6 0 .7.4.4 1-.3.5-.1 1 .5 1s.8.5.4 1.2c-.6 1-.5 1 .8.1 1.7-1.4 2.9-.8 2.2 1.1-.3.7.2 1.3 1 1.3s1.3-.4 1-.9c-.3-.4 0-.8.5-.8 1.1 0 1.5 1.5 1.2 3.4-.1.5.6.3 1.5-.5 1.6-1.2 1.7-1.2 1.2.2-.5 1.3-.2 1.6 1.3 1.2 1-.3 1.9 0 1.9.6s.7 1.1 1.5 1.1 1.5.4 1.5 1c0 .5.7.7 1.5.4.9-.4 1.5 0 1.5 1 0 .9.5 1.6 1.1 1.6.5 0 .7-.5.3-1.1-.4-.8 0-.8 1.5 0 1.1.7 2.1 1.6 2.1 2.2 0 .6.5.7 1 .4.6-.4.7-1.2.4-1.8-.4-.7.3-.2 1.6 1.1 1.2 1.3 2.8 2.1 3.6 1.8.8-.3 1.4-.1 1.4.5s.6.9 1.3.6c.6-.2 1.8.3 2.5 1.2.8.9 1.1 1.1.7.4-.7-1.6 3.6-.8 4.6.8.4.6 1.1.9 1.7.5.6-.3 1.4-.2 1.7.4.5.8 1.1.7 2.1-.1 1.2-.9 1.3-.9.9.3-.4 1.1.2 1.4 2.5 1.2 1.6-.1 2.8.2 2.5.6-.3.5.3.9 1.2.9 6.4.3 7.3.5 6.8 2.1-.3.9 0 .8 1-.4.9-1.2 1.5-1.5 1.5-.7 0 .7.6 1.1 1.5.8.8-.4 1.7-.2 2 .4.4.5 1 .7 1.5.4.5-.3 1.2 0 1.5.6.4.5 1.3.8 2.1.5.7-.3 1.6 0 2 .6.4.6.3.8-.4.4-.6-.3-1.3-.2-1.6.3-.6 1 1.9.9 2.9-.1.4-.3 1.8 0 3.2.7 1.3.7 3.5 1.2 4.9 1 1.4-.1 2.1.2 1.7.8-.4.6.2.8 1.5.5 1.5-.4 2.5 0 3.2 1 .6 1.1.9 1.2 1 .4 0-.7.5-1 1-.7.6.4.7 1.1.4 1.7-.4.6.2.6 1.5-.1 1.1-.7 2.1-.8 2.1-.3s1.1.8 2.5.7c1.4-.2 2.3 0 2 .5-.3.4.2 1.1 1.1 1.4.8.3 1.2.2.9-.3-.3-.5-.1-1.2.5-1.6.5-.3 1 .2 1 1.2 0 1.5.2 1.6 1 .3.7-1.1 1-1.1 1-.2 0 .7.5 1 1 .7.6-.3 1-.1 1 .6s.7.4 1.5-.7c1.3-1.6 1.4-1.6.9-.2-.7 2.1.6 2.3 2.5.5 1.1-1 1.3-.9.7 0-.5.9.3 1.3 2.8 1.3 2 0 3.9 0 4.2-.1 1.2-.1 2.2 2.4 1.9 4.3-.2 1 0 1.8.6 1.8.5 0 .8-1 .5-2.3-.4-2.1-.1-2.2 3-1.9 2.3.3 3.4.9 3.4 2 0 1.3.3 1.2 1.6-.4 1.1-1.3 1.4-1.4 1.1-.3-.3.9.1 1.6.9 1.6.7 0 1-.5.7-1.1-.4-.6.1-.5 1 .3.9.7 2.4 1.1 3.2.7.8-.3 1.5-.1 1.5.3 0 .5-.5 1.1-1.2 1.3-.8.3-.6.7.5 1.1 1 .4 1.6.2 1.4-.6-.1-.7.5-1 1.3-.8.8.2 2.1.4 2.8.4.6 0 1.2.4 1.2.9 0 .4.5.8 1.1.8.5 0 .8-.4.5-.8-.3-.5.1-.9.9-.9 1.5 0 2.8 2.4 2 3.7-.3.5-.1 1.2.5 1.5.6.4 1 .3.9-.2-.1-.4-.1-1.6 0-2.7.1-1.5.4-1.6 1.6-.6 1.2 1 1.5 1 1.5-.1s.2-1.1.9.1c.6.8.7 1.8.5 2.2-1 1.5.9.8 2.3-1 .8-.9 1.2-1.2.9-.5-.4.6-.2 1.4.4 1.8.5.3 1 0 1-.7 0-.9.3-.9.8-.2 1.1 1.6 4.5 2.7 3.6 1.1-.5-.8-.2-.7.9.2 1.4 1.1 2 1.1 3.4 0 .9-.8 1.4-.9 1-.3-.4.7 0 1.5.9 1.8.9.3 1.2 1.1.8 1.8-.6 1-.5 1.1.8.1.8-.7 1.9-.9 2.3-.5.5.4.5.1.1-.6s-.1-1.2.8-1.2 1.6.8 1.7 1.7c0 1.5.2 1.5.9-.2.6-1.3.9-1.5.9-.5.1 1.3.2 1.3 1.1 0 .5-.8 1-1 1-.5 0 .6.9 1.6 2.1 2.3 1.2.8 1.8.9 1.5.4-.3-.6.1-1.2.9-1.6.8-.3 1.5 0 1.5.7 0 .8.4.6 1-.3.5-.8 1-1.1 1-.5 0 .6 2.5 1 5.8.9 3.1 0 6.5.3 7.6.9 1.3.6 1.6.6 1.2-.2-.4-.6-.2-1.1.3-1.1.6 0 1.1.6 1.1 1.2 0 .9.4.8 1-.2.9-1.3 1-1.3 1 0s.1 1.3 1 0c.5-.8 1-1 1-.4 0 .7.7 1.5 1.6 1.8 1 .4 1.3.2.8-.6-.5-.7-.2-.9.8-.5.9.3 2.1 0 2.8-.6 1-.9 1.2-.8.7.6-.6 1.5-.4 1.6 1.5.6 1.7-.9 2-.9 1.6.3-.4.9.1 1.4 1.3 1.4 1.1 0 1.5-.4.9-1.1-.5-.6.2-1 2-1 1.6-.1 2.8.2 2.8.5-.2 1.9.6 1.9 3.4-.1 2.4-1.8 3-1.9 2.5-.7-.5 1.3-.1 1.6 2.1 1.2 1.5-.3 2.8-.7 3.1-1 .8-.8 3.1 1.8 2.4 2.9-.3.6-.1.7.6.3.6-.4.9-1.1.6-1.6-.8-1.4 2.3-.5 4.2 1.2 2 1.7 4.3 1.4 4.3-.6 0-.7.6-1.3 1.4-1.3.8 0 1.2.5 1 1.2-.5 1.2 5.4 1.3 7.4.1.8-.5 1-.2.6.9-.5 1.1-.2 1.4 1 .9.9-.3 1.3-1.1 1-1.8-.3-.6.2-.2 1 .8.9 1.1 1.6 1.6 1.6 1.2 0-.5.7-.3 1.5.4 1.3 1.1 1.4 1 .8-.6-.6-1.6-.5-1.7.9-.6 1.1.9 1.8 1 2.3.2.3-.6 1.1-.8 1.6-.4.5.3.7.9.5 1.3-.3.4.4.8 1.5.8 1 .1 1.9-.3 1.9-.8 0-.6-.5-.7-1.2-.3-.7.5-.8.3-.3-.6.6-1 1.3-.7 2.7 1.1 1.1 1.3 1.7 1.8 1.3 1.1-.4-.8.1-1.1 1.7-.8 1.3.3 2.7.5 3.1.5.5.1.5.7.2 1.3-.4.7.1.4.9-.6 1.6-2 1.6-2 1.7 0 0 1 .3 1.3.6.6.2-.6 1-.9 1.5-.5.6.3 2.7.7 4.7.9 2 .1 3.6.3 3.6.4 0 .1 1.5.3 3.4.4 1.9.2 3.7.8 3.9 1.4.2.7.8 1.2 1.3 1.2.6 0 .8-.4.5-.8-.3-.5.1-.9.9-.9s1.5.4 1.5.9c0 .4.7.8 1.6.8.8 0 1.2-.5.9-1-.9-1.5.4-1.2 2.1.5 1.8 1.7 3.4 2 3.4.4 0-.5.5-.7 1-.4.6.4.8 1 .6 1.4-.3.3.4.7 1.4.7 1 0 1.6-.4 1.4-.8-.3-.4 0-.8.5-.8.6 0 1.1.4 1.1.9s1.4.7 3.2.4c2.2-.3 3.6 0 4.4 1.1 1.1 1.5 1.2 1.5 1.9-.1.6-1.7.7-1.7 2.1.1 1 1.4 1.4 1.6 1.4.5 0-1.2.2-1.2 1 .1.7 1.1 1 1.1 1 .2 0-.7.5-1 1-.7.6.4.7 1.2.4 1.8-.4.7-.4.9.1.5.4-.4 1.5-.2 2.3.5 1 .8 1.3.8.9.1-.8-1.4 1.5-2.5 3.1-1.5.6.3 2.9.6 5.1.6 2.3 0 4.1.2 4.1.5 0 1 4.9 1 5.5-.1.4-.6 1.1-.6 1.8-.1 2 1.5 7 2.5 6.2 1.1-.5-.8-.2-.8 1.1-.1 1.1.6 2.2 1 2.7 1.1.4.1.8.1 1 .2 2.2.7 3.7.5 3.7-.4 0-.7.5-.5 1 .3s1 1.1 1 .6c0-.5.7-.3 1.5.4 1.3 1.1 1.4 1 .9-.5-.6-1.4-.4-1.6.7-.9.8.4 1.9.9 2.4 1.1.6.1 2.1.4 3.3.7 1.9.4 2.3.2 1.8-1.2-.5-1.5-.4-1.5.6-.2.8.9 2.5 1.4 4.2 1.2 2.1-.3 2.6 0 2.1 1-.3.7.1.4.9-.6.9-1.1 1.6-1.5 1.6-1 0 .6 2 .9 4.7.8 3.2-.2 5.3.2 6.4 1.2 1.5 1.4 1.8 1.4 2.6-.1.8-1.4 1.2-1.3 3.9.7 1.6 1.2 2.3 1.5 1.6.6-.9-1.1-1-1.8-.2-2.3.5-.3 1-.1 1 .5s.5.8 1.2.4c1.7-1 4.8-1.3 4.3-.3-.3.4 1.3.9 3.5 1.1 2.3.2 4-.1 4-.7 0-.5.5-.3 1 .5.8 1.2 1 1.2 1 .1 0-1.1.5-1 2 .4 1.6 1.5 2 1.5 1.5.3s-.1-1.4 1.9-1.1c1.4.3 2.4.9 2.1 1.2-.2.4.2.8 1 .8s1.2-.4.9-.9c-.3-.4 0-.8.5-.8.6 0 1.1.6 1.1 1.2 0 1 .3.9.9-.1.7-1.1.9-1.1 1.4 0 .4 1 .6 1 .6.1.1-.6.6-1.2 1.2-1.2.5 0 .8.4.5.9-.7 1.1 1.3.9 3.3-.3.8-.5 1.6-.3 2.2.5.7 1.2.9 1.1.9-.1 0-1.3.1-1.3 1 0 .8 1.3 1 1.3 1 .1 0-1.1.4-1 1.3.4 1.1 1.4 1.6 1.5 2.2.5.6-.9.4-1.1-.5-.5-.9.5-1.1.4-.6-.4.6-.9 1.1-.9 2.3 0 1.1 1 1.6 1 2.2 0 .6-1 1-.8 1.5.5.6 1.6.8 1.5 2.8-.2 1.2-1.1 1.8-1.3 1.4-.6-.4.7-.1 1.2.8 1.2s1.6-.6 1.6-1.3c0-.9.2-.9.9.1.9 1.4 3.2 1.3 4.3-.3.5-.6.8-.5.8.2s.7 1.3 1.5 1.3 1.5-.6 1.5-1.3c0-.8.4-.7 1 .3.9 1.3 1.1 1.3 2 0 .8-1.3 1-1.2 1.1.5 0 1.1.3 1.5.5.8.3-.7 1.2-.9 2.1-.6 1.2.5 1.4.3.8-.8-.7-1.2-.6-1.2.7-.1 1 .8 1.9.9 2.2.3.8-1.2 5.6 1 4.9 2.4-.2.5.2.2 1-.7 1.3-1.6 1.5-1.6 3.2 0 1.1 1 1.5 1.2 1 .3-.6-1.1-.4-1.3.8-.8 1 .3 1.7.3 1.7-.2 0-.4.7-.8 1.5-.8 1.1 0 1.2.4.3 1.4-.8 1.1-.7 1.2.6.7.9-.3 1.6-1.1 1.6-1.8 0-.6.5-.4 1 .4.7 1.1 1 1.1 1 .2 0-.7.5-1 1-.7.6.4.7 1.2.3 1.8-.3.7.3.4 1.4-.6 1.6-1.4 2.3-1.5 2.9-.6.4.8.3 1-.4.5-.7-.4-1.2-.2-1.2.3 0 1.3 1.7 1.5 2.4.3s3.6-.8 6.5.7c1.4.8 2.1.9 1.7.2-.5-.7.1-1.1 1.4-1.1 1.4 0 1.9.4 1.4 1.2-.5.9-.2.9.9-.1 1.4-1.1 1.7-1.1 1.7 0s.2 1.1 1-.1c.8-1.2 1-1.2 1 .5s.2 1.7 1 .5 1.3-1.3 2.9-.3c1.5.9 2.2 1 2.7.1.5-.7.3-.8-.6-.3-.8.5-1.1.4-.7-.3.7-1.1 2.5-1.1 4.2 0 .6.3 2.5.5 4.3.4 1.8-.1 3.6.2 3.8.6.3.5 1.2.4 2-.3 1.1-.9 1.4-.8 1.4.7 0 1.1.4 1.5.8.9.8-1.2 9.1-1.3 11-.1.8.4 1.2.1 1.2-1 0-1.6.1-1.6 1.6.2.8 1 1.3 1.4 1 .8-.3-.7.7-1 2.7-.9 1.8.2 3.8-.3 4.6-.9 1.1-.8 1.3-.8.7.2-.4.7-.1 1.2.8 1.2s1.6-.6 1.6-1.3c0-.8.4-.7 1 .3.8 1.2 1.1 1.3 1.9.1.6-.9 1.1-1 1.5-.2.4.6 1.2 1.1 1.7 1.1.6 0 .8-.4.5-.9-.8-1.2 2.7-.8 3.6.4.5.6.8.5.8-.3 0-1.6 2.7-1.6 3.3 0 .3.7.6.4.6-.6.1-1.5.4-1.7 1.3-.8.6.6 1.7.8 2.7.3.9-.5 3.6-.7 6.1-.5 2.4.1 5.1-.3 5.9-.9 1.2-1 1.3-.9.7.2-.6.9-.5 1.2.5.9.8-.3 2.3.2 3.4 1.1 1.8 1.5 1.9 1.5.7 0-1-1.4-1-1.8.3-2.3.8-.3 1.5-.1 1.5.5s.7.6 1.8.1c2.7-1.3 4.7-.8 4.6 1.1-.1.9.3 1.4.8 1.1.5-.3.7-1.2.4-2-.6-1.7 1-1.9 2-.2.5.7 1.1.5 2.1-.7 1.3-1.8 1.3-1.8 1.3.1 0 1.6.2 1.7 1 .4.6-1 1-1.1 1-.3 0 .7.5 1.3 1.1 1.3.5 0 .8-.4.5-.9-.7-1 1.3-.9 3.1.2.6.4 1.4.3 1.8-.3.3-.5 1.1-1 1.6-1 .6 0 .7.5.3 1.2-.5.7-.3.8.7.2 2.4-1.4 5.1-1.6 4.3-.2-.6 1-.4 1.1.7.1 1.7-1.7 3.2-1.7 2.4-.1-.4.7 0 .5.8-.5 1.2-1.5 1.6-1.5 2.6-.3 1.6 1.9 4.2 1 3.4-1.1-.5-1.2-.3-1.4.8-.8 1.8 1.2 4.9 1.4 4.3.3-.3-.4 0-.8.5-.8.6 0 1.1.6 1.1 1.2 0 .9.4.8 1-.2.9-1.3 1-1.3 1 0 0 1.2.2 1.2.9.1.5-.7 3.1-1.4 6.2-1.6 3-.1 5.5-.4 5.7-.5.2-.3 4.1-.3 4.5 0 .1.1 1.3.3 2.7.6 1.8.3 2.1.2 1-.5-.8-.5-1.8-.7-2.4-.4-.5.3-.6.1-.2-.5.7-1.2 3.7-.5 4.8 1.2.5.7.8.5.8-.5 0-1.2.8-1.5 2.7-1.3 1.5.1 3.3-.2 4-.8 1.4-1.1 1.8.2.6 1.8-.5.5 0 .1 1-.9 1-1.2 1.7-1.4 1.7-.7 0 .8.4.9 1.3.3 1.6-1.2 5.9-1.4 5.2-.3-.3.6.1.7.9.4.9-.3 1.3-1.1 1-1.6-.4-.6-.1-.8.7-.6.8.3 1.3 1.2 1.1 1.9-.3 1 .1.9 1.5-.2 1-.9 2.4-1.4 3-1.2.7.3 1.6-.3 1.9-1.2.5-1.2.9-1.3 1.4-.5.5.8 1.3.9 2.1.4 1.7-1 6.9-1.3 6.3-.3-.2.4 0 1.1.6 1.4.6.4 1 .3.9-.2-.1-.4-.1-1.5 0-2.3.1-1.3.2-1.3 1.1 0 .6 1 1 1.1 1 .3s1.1-1.1 3-.9c2.1.2 3-.1 3-1.1 0-1.2.4-1.1 1.8.4.9 1 1.3 1.2.7.4-.8-1.1-.6-1.3.5-.9.8.3 2.3.1 3.3-.4 1.2-.6 1.7-.5 1.7.6 0 2 1.7 2.9 2.6 1.5.5-.8.3-.9-.6-.4-.8.5-1.1.3-.8-.5.3-.9 2.8-1.5 7.3-1.7 3.8-.3 7.6-1 8.5-1.6 1.3-1 1.3-1 .2.5-1 1.2-1 1.8-.1 2.4.8.4.9.3.5-.4-.7-1.2.2-1.6 4.2-1.4 1.2.1 2-.2 1.8-.7-.3-.4.1-.8.9-.8s1.5.5 1.5 1.1c0 .5.7.1 1.6-1 .8-1 1.3-1.3.9-.6-.3.6-.1 1.2.4 1.2.6 0 1.1-.4 1.1-.9s.9-.7 2.1-.4c1.2.4 2.5 0 3-.8.6-1 .9-1 .9-.2 0 .7.7 1.3 1.6 1.3.8 0 1.3-.4 1-.9-.7-1 2-.9 3 .2.4.4 1.2.7 1.8.7.6 0 .4-.5-.4-1.1-1.2-.8-.7-.9 1.8-.6 1.8.2 3.2-.1 3.2-.7s.5-.4 1 .4c.8 1.2 1 1.2 1-.5s.2-1.7 1-.5c.6.9 1.3 1.1 1.8.5.9-1.2 4.4-1.6 3.6-.4-.3.5 0 .9.5.9.6 0 1.1-.5 1.1-1.1 0-.5.5-.7 1-.4.6.3 1 .1 1-.6 0-.8.5-.7 1.7.2 1.4 1.2 1.6 1.2.8 0-.6-1.1-.4-1.3.8-.8 1 .4 1.7.1 1.7-.5 0-.7.7-.3 1.5.8 1.3 1.6 1.4 1.6.9.1-.5-1.3-.2-1.6 1.2-1 1.2.4 1.5.3 1-.5s-.2-1 .9-.6c.8.4 2.2.1 2.9-.5 1.1-1 1.7-.8 2.6.6 1 1.6 1.1 1.6.6 0-.4-1.4.1-1.7 3.4-1.7 2.1 0 4.2-.5 4.6-1.2.5-.7.3-.8-.6-.3-.9.6-1.1.4-.5-.5.6-1 1.1-1 2 .3 1.3 1.8 3 2.4 2 .7-.5-.8.6-1.1 4-1 .3 0 1.8-.6 3.3-1.3 1.5-.8 3.3-1.2 4-1 .7.3 2-.1 2.9-.9 1.2-.9 1.5-.9.9-.1-.4.7-.3 1.3.3 1.3.5 0 1.1-.5 1.3-1.2.3-.7 1.5-1.3 2.9-1.3 3.2-.2 6-1.5 5.3-2.6-.3-.5.2-.6 1-.3.9.3 1.3 1 1 1.6-.3.5.3.4 1.4-.3 1.2-.7 1.8-1.8 1.4-2.4-.3-.5.2-.4 1.1.4 1.3 1.1 1.7 1.1 1.7.1 0-.8.3-1 .7-.7.3.4 1.3.1 2.1-.6 1.3-1 1.4-.9.7.2-.5.9.5.5 2.2-.7 1.7-1.2 3.5-2.2 4-2.2.4 0 .1.5-.7 1-.9.6-1 1-.3 1 .6 0 1.5-.5 1.8-1 .9-1.5 2.7-1.2 1.9.2-.4.8-.3 1 .2.5s.9-1.2.9-1.5c.1-2 1.7-3.2 3-2.2.9.8 1.4.6 1.9-.7.6-1.5.8-1.5 1.6-.3s1 1.2 1.5-.2c.4-.9 1.3-1.4 2.1-1.1.8.3 1.4-.1 1.4-.8 0-1.1.2-1.1 1 .1.8 1.2 1 1.2 1.5-.2.4-1 1.5-1.5 2.6-1.3 1 .2 1.9 0 1.9-.6 0-.5 1-.9 2.3-.9 1.3 0 2.9-.6 3.6-1.3 1.1-1 1.2-.9.6.1-.6 1.1-.3 1.2 1.4.3 1.1-.7 2.1-1.4 2.1-1.7 0-.3-.5-.2-1.2.2-.6.4-.8.3-.5-.3.4-.6 1.9-.8 3.3-.5 2.3.4 2.6.2 2-1.3-.5-1.5-.4-1.6.9-.5 1.4 1.2 1.9.7 1.6-1.5-.1-.6.6-.1 1.4.9 1.5 1.9 1.5 1.9 1.6-.5 0-1.3.3-1.9.6-1.2.3 1 .7 1 1.8 0 .7-.7 1-1.7.7-2.2-.2-.6.1-.4.9.2 1.6 1.5 3.3 1.7 2.4.3-.3-.6.1-1 1-1 1 0 1.3-.5.9-1.3-.6-.9-.4-.9.8.1 1.3 1 1.8 1 2.4.1.4-.8.3-.9-.4-.5-.8.5-1 .1-.5-1 .4-1.2.8-1.4 1.1-.6.3 1 .7 1 2 0 1.3-1.1 1.4-1.1.7.2-.7 1.2-.6 1.3.6.3 1-.8 1.9-.9 2.7-.3.9.7.9.7.2-.2-1.4-1.7-1.2-3.1.3-2.5.7.3 2.4-.3 3.7-1.3 1.5-1.1 2.9-1.5 3.5-1 .6.5 1.7.4 2.5-.2 1.2-.8 1.1-.8-.5-.3-1.5.4-1.7.3-.9-.5.6-.6 2.1-1.2 3.3-1.3 1.4-.1 2-.6 1.6-1.6-.4-1.1-.3-1.2 1-.1 1.2 1 1.6.9 2.1-.4.4-1.2 1.3-1.5 2.8-1 1.9.6 2 .5.6-1.1-1.4-1.7-1.4-1.7.9-.6 1.5.8 2.1.9 1.7.2-.4-.6 0-1.1 1.1-1.1 1.5 0 1.6-.2.3-1-.8-.5-1-1-.4-1s1.4.3 1.8.7c1.2 1.3 3.3 1.1 3.3-.3 0-1.1-.3-1.1-1.6-.1-1.4 1.1-1.4 1-.2-.6 1.1-1.3 1.7-1.5 2.8-.6 1.1 1 1.2.9.7-.5-.5-1.2-.2-1.5 1-1 .9.3 1.3 1.1.9 1.7-.3.6-.1.7.6.3.6-.4.9-1.1.7-1.5-.8-1.3 6.3-7.3 7.6-6.5.9.6.9.3-.1-.9-.8-1.1-.9-1.7-.3-1.7.6 0 .9-.7.6-1.5-.4-.9 0-1.5 1-1.5.9 0 1.5-.3 1.4-.8-.3-1.4 1.4-4.2 2.3-3.6.5.3.6-.2.3-1-.3-.9-.1-1.6.5-1.6s1-.3.9-.8c-.1-.4.4-1.9 1-3.3 1.3-3.1.9-6.5-.7-6.1-.6.1-1.1-.5-1.1-1.3s-.7-1.5-1.6-1.5c-.8 0-1.2-.5-.9-1 .3-.6-.1-1-.9-1s-1.8-.9-2.1-2c-.4-1.1-1.1-1.8-1.6-1.5-.5.4-.9-.1-.9-.9 0-1-.9-1.6-2.2-1.7-1.3 0-1.8-.3-1.1-.6 1-.3 1-.7 0-1.8-.7-.7-1.5-1.1-1.9-.8-.5.2-.8-.2-.8-1s-.9-1.7-2.1-2c-1.2-.3-1.8-1-1.5-1.5.3-.5-.4-1.2-1.5-1.5-1.5-.4-2-1.1-1.5-2.2.3-.9.2-1.4-.2-1.1-1.5.9-5.4-2.5-4.7-4.1.5-1.4.3-1.4-1.2-.2-1 .7-1.5 1-1.1.5.4-.5 0-1.5-.8-2.3-.8-.8-1.1-2-.7-2.6.4-.7-.2-.5-1.3.3-1 .8-1.6 1.1-1.2.6.7-.8-1.4-3.6-2.7-3.6-.3 0-1.6-1-2.9-2.2-1.3-1.3-4.2-3.9-6.4-6-2.2-2-4.2-4.2-4.5-5-.4-1-.6-1-.6 0-.1.9-.8.6-2.2-.7-1.2-1.1-1.8-2.4-1.5-3 .5-.7.1-.8-1-.4-1.2.4-1.5.3-1-.5.4-.7-.3-1.4-1.9-1.8-1.3-.3-2.2-1-1.9-1.5.3-.5-.1-.9-.8-.9-.8 0-2.1-.8-3-1.8-1.8-1.9-3.4-3.1-6.4-4.9-1-.6-1.8-1.6-1.6-2.3.1-.6-.2-.9-.7-.6-1.2.8-7.2-4.9-6.3-5.9.4-.4-.3-.3-1.5.4-1.9 1-2.1.8-1.8-1.6.2-2.4.1-2.5-1-1s-1.3 1.6-1.9.2c-.3-.8 0-1.5.6-1.5s.8-.3.5-.6c-.4-.4-1.4-.1-2.4.7-1.1.9-1.4 1-.9.1.4-.7.1-1.2-.8-1.2s-2.1-.9-2.8-2c-.7-1.1-1.8-2-2.5-2s-1.3-.5-1.3-1c0-.6-.7-1-1.6-1-1.2 0-1.5-.6-1.1-2.3.6-2.1.6-2.1-.8-.3s-1.5 1.8-1.5.2c0-.9-.4-1.4-1-1.1-.5.3-1 .1-1-.5s-.5-.8-1.2-.4c-.6.4-.8.3-.5-.3.4-.5-.5-1.6-1.8-2.3-1.3-.7-2.2-1.8-1.8-2.3.3-.6.1-.7-.5-.4-1.4.9-4.3-.3-3.6-1.4.3-.5-.4-.9-1.6-.9-1.2 0-1.9-.4-1.6-.9.3-.5-.1-1.2-1-1.5-1-.4-1.3-.2-.8.6.5.7.2.8-.7.3-2.8-1.6-5.8-4.8-5.3-5.6.3-.5.1-.9-.5-.9-.5 0-1.2.6-1.4 1.2-.4 1-.6 1-.6 0-.1-.6-.8-1.2-1.6-1.2s-1.5-.9-1.5-1.9c0-1.1-.5-2.3-1.2-2.7-.8-.5-.9-.2-.5.9.9 2.3-.6 2.1-2.8-.3-1-1.1-2.1-1.7-2.5-1.5-.4.3-1-.2-1.4-1-.3-.8-1.1-1.5-1.7-1.5-.7 0-1.8-.8-2.6-1.8-.8-.9-1.1-1.1-.7-.3.5.9.3 1.2-.5.7-.6-.4-.9-1.2-.6-1.7.6-.8-.8-1.3-2.7-1-.5 0-.8-.3-.8-.9 0-.6-.6-.9-1.2-.8-.8.2-1.2-.5-1-1.6.3-1.7.1-1.8-1.1-.7-1.1.9-1.7.9-2.2.1-.4-.6.1-1.8 1.1-2.6 1.1-.9 1.3-1.3.6-.9-.7.4-2 .1-2.9-.7-.9-.7-1.4-.8-1-.2.4.7 0 1.4-.8 1.8-.9.3-1.5 0-1.5-.9 0-.7-.5-1.7-1.2-2.1-.7-.5-.8-.3-.3.5.6 1 .2 1-1.6 0-1.3-.7-2.7-1.2-3.1-1.1-.4.1-.4-.6-.1-1.5.4-1.1.3-1.4-.5-.9-.7.4-1.2.2-1.2-.3 0-.6-.3-1-.7-1-2.5.4-3.5-.2-2.9-1.8.4-1 .4-1.4 0-1-.4.4-1.4.1-2.3-.6-1.4-1.1-1.5-1-.1.8 1.5 2 1.5 2-.8.1-1.2-1.1-2-2.6-1.8-3.3.3-.7.1-1.3-.4-1.3-.6 0-1 .8-1 1.7 0 1.5-.2 1.6-.9.3-.6-.8-.7-1.9-.3-2.5.3-.5-.1-.5-.9.2-1.1.9-1.8.8-3.3-.3-1.1-.8-1.6-1.4-1-1.4.5 0-.6-.8-2.3-1.6-1.9-1-3-2.1-2.6-2.8.4-.6-.2-.4-1.2.4s-1.6 1-1.3.5c.4-.6.3-1.7-.3-2.5-.6-1.1-.9-1.2-.9-.2 0 .7-1.1.2-2.6-1.3-1.4-1.4-3-2.2-3.6-1.9-.7.5-.9.1-.5-.9.4-1.1.2-1.4-.9-1-.7.3-1.4 0-1.4-.6s-.9-1.1-1.9-1.1c-1 0-2.1-.7-2.5-1.5-.3-.8-.9-1.4-1.4-1.3-.5.2-1.9-.8-3.3-2.2-1.3-1.5-1.7-1.7-.9-.5.9 1.2.2.8-1.7-.9-1.7-1.5-3.6-2.5-4.2-2.1-.7.3-1.1.3-1-.2.4-1.5-1.3-4.3-2.2-3.7-.5.3-.9 0-.9-.5 0-.6-.7-1.1-1.6-1.1-.8 0-1.2-.5-.9-1.1.4-.6 0-.9-1.1-.7-1.4.2-1.9-.3-1.8-1.9 0-1.9-.2-2-1.9-1.1-1.4.7-1.7.7-1.3-.1.4-.6.2-1.1-.4-1.1-.6 0-.8-.5-.4-1.2.5-.8.2-.9-1-.5-.9.4-1.4.3-1.1-.2.3-.5.1-1.2-.5-1.6-.5-.3-1 0-1.1.7 0 .7-.4.3-.9-1-.5-1.2-1.7-2.2-2.5-2.2-.9 0-1.3-.5-1-1 .3-.6.2-1-.3-1-.4 0-1.9-1-3.2-2.3-1.4-1.2-2.9-2.1-3.5-1.9-.5.2-.7.1-.3-.3.8-.9-1.6-3.5-3.2-3.5-.6 0-.8-.5-.5-1 .3-.6-.1-1-1-1s-1.3-.4-1-1c.3-.6-.1-1-.9-1-.9 0-1.6-.5-1.6-1.1 0-.5-.4-.8-.9-.5-1.1.7-2.3-2.2-1.6-3.5.4-.5 0-.6-.8-.3s-2.1-.2-3-1c-.8-.8-1.8-1.2-2.1-.8-.4.3-.4-.1 0-1.1.5-1.3.1-1.7-1.6-1.7-1.1 0-1.8-.4-1.5-1 .3-.6-.1-1-1-1s-1.3-.5-1-1c.3-.6-.3-1-1.4-1-1.2 0-2.1-.7-2.1-1.5s-.7-1.5-1.5-1.5c-.9 0-1.8-.7-2.1-1.5-.4-.8-1-1.2-1.5-.9-.5.3-.9.1-.9-.5s-1.1-1.3-2.5-1.7c-1.3-.3-2.7-1.5-3-2.5-.4-1-1.5-1.9-2.6-1.9-1.6 0-1.9-.5-1.4-2.3.5-1.7.4-1.9-.4-.7-1 1.3-1.2 1.3-2.1 0-.5-.8-1-1.1-1-.6 0 .5-.6.3-1.3-.3-.8-.6-1.7-.8-2.1-.4-.4.4-.4 0 0-1 .3-.9.2-1.7-.3-1.7-2.2 0-4.5-2.8-5.3-6.5-.7-3.2-.6-4.1.8-5.1 1.6-1.1 1.5-1.2-.3-1.1-1.4.1-2-.5-2.1-2.1-.1-1.2-.4-2.5-.7-2.9-.4-.3.1-1.2 1.1-2 1.2-.9 1.3-1.3.3-1.1-.8.2-1.6-.6-1.8-1.7-.3-1.5-.2-1.6.5-.7.7 1.1 1 1.1 1.5-.3.4-.9.3-1.4-.1-1.1-1.7 1-3.4-1.1-2.4-3 .7-1.4.6-2.5-.4-3.8-.7-1-1.1-2.3-.7-2.9.3-.5-.1-1.3-.8-1.8-1.2-.7-1.2-.9 0-.9.9 0 1-.4.4-1.3-.6-.6-1-1.9-1-2.7-.1-.8-.3-2.7-.6-4.2-.4-1.9-.1-3.1 1.1-3.9 1.6-1 1.6-1 0-.5-1.7.5-2.4-1-1.9-3.8.1-.4-.4-1.4-1-2.2-.8-1-.8-1.4 0-1.4.7 0 .8-.8.2-2.3-.5-1.2-.9-2.5-1-3 0-.4-.1-.8-.2-1 0-.1-.2-1-.4-2-.3-1.6-.1-1.6 1.3-.5 1.6 1.2 1.6 1.1.1-.7-.9-1.1-1.9-3.8-2.3-6-.3-2.2-.8-5.5-1.2-7.3-.5-2.4-.3-3.2.7-3.2 1.1 0 1.1-.2.1-.8-.7-.5-1.5-2.1-1.8-3.7-.3-1.6-.7-3.2-1-3.7-.3-.4.1-.8.8-.8.8 0 .9-.3.3-.8-1.2-.8-1.6-2.5-2.1-7.2-.1-1.9-.3-3.5-.4-3.5-.2 0-.8-3.6-1.3-7.8-.3-1.5-.7-3-1-3.3-.3-.3-.2-1.7.4-3.1.6-1.6.6-2.2-.1-1.8-.6.3-1.1-.4-1.1-1.7-.1-1.3-.3-3.2-.5-4.3-.2-1.1-.6-3.8-1-6-.3-2.2-1.1-4.6-1.8-5.4-.9-1.2-.8-1.3.3-.6 1.1.6 1.2.5.5-.6-.9-1.4-1.1-2.2-1.8-7.4-.3-1.7-.5-3-.6-3-.1 0-.3-1.7-.6-3.8-.2-2-.9-4.7-1.5-5.8-.9-1.7-.8-2 .2-1.4.8.6 1 .4.3-.6-.5-.8-1-2.5-1.2-3.9-.2-1.3-.9-2.8-1.5-3.2-.9-.6-.9-.8.1-.8.9 0 1-.5.3-1.8s-.6-2.3.2-3.2c.9-1 .9-1.1 0-.6-.6.3-1.4.2-1.8-.4-.3-.5-.1-1 .6-1 .8 0 .8-.4-.1-1.5-.7-.8-.9-1.5-.5-1.5s.1-.8-.6-1.7c-1.2-1.5-1.2-1.6.1-.8 1.2.7 1.3.6.3-.6s-1-1.8 0-2.8c.9-1 .9-1.2-.2-.9-.7.2-1.6-.3-1.9-1.1-.3-.9 0-1.1.9-.6 1.1.6 1.2.5.2-.6-.7-.7-1.3-1.7-1.3-2.2 0-.4.6-.5 1.3-.2.6.4.5.1-.3-.7-.8-.7-1.6-2.3-1.7-3.6-.5-5.8-.8-7.2-1.6-7.2-.5 0-.3-.8.4-1.7 1-1.1 1-1.4.2-.9-.9.5-1.3-.1-1.5-2.1-.1-3.6-.3-4.4-1.1-6.8-.8-2.5-1.7-7-2.4-11.3-.3-1.7-.9-3.2-1.3-3.2-.5 0-.7-.8-.5-1.8.1-.9-.4-2.8-1.2-4.1-.9-1.3-1-2-.3-1.6.7.5.7-.3-.3-2.1-.8-1.6-1.3-3.7-1.2-4.7.2-.9-.2-1.7-.8-1.7-.5 0-.7-.3-.4-.7.4-.3.3-1.1-.3-1.8s-.4-2.1.5-3.8c.8-1.5 1-2.5.5-2.2-.4.3-.7-.3-.5-1.2.2-1 .4-2.3.4-2.9.1-1.2 3.1-1.5 3.1-.2 0 .4.7.8 1.6.8.9 0 1.2.5.8 1.2-.6.9-.3.9.9 0 1.4-1.2 1.6-1.1 1.2.5-.2 1.2.2 2 1 2s1.1-.5.8-1.1c-.7-1.2 2.8 1.3 3.8 2.7.3.5 1 .9 1.5 1 .5.1.8.6.6 1.1-.2.5.5.6 1.4.2 1-.4 2.2.1 3.1 1.1.8 1 1.2 1.3.9.8-.2-.6.4-1.1 1.4-1.1 1 0 1.8.5 1.7 1.1-.1.5.3.9 1 .8.8-.2 1.1.8.8 2.8-.2 1.7-.1 2.8.3 2.4.4-.3.7-1.4.7-2.3 0-1 .6-1.6 1.5-1.3.8.2 2 .4 2.6.5 2.2.3 4.5 2.9 4 4.3-.4.8-.1 1.1.5.8.6-.4.8-1.3.5-2.1-.3-.8-.1-1.4.3-1.4.5 0 1.1.5 1.3 1 .2.6 2.2 1.1 4.5 1.3 2.2.1 3.9.5 3.7.9-.3.4.6.7 1.8.6 4-.2 4.9.2 4.2 1.4-.6 1-.4 1 .7 0 1.9-1.7 2.9-1.5 2.9.8 0 1.1.4 2 .9 2s.7-1 .4-2.3c-.3-1.3-.1-1.8.4-1.1 1.1 1.5 4.1 2.5 4.7 1.6.2-.4 1.7-.7 3.3-.6 1.5.1 3.4.3 4.1.3.8.1 1 .6.6 1.3-.4.7.4.3 1.8-1 1.3-1.2 2.7-2.2 3.1-2.2.4 0 .7 1 .8 2.2.1 2.2.1 2.2.9-.2.4-1.4.8-1.9.9-1.3.1.7.6 1.3 1.2 1.3.5 0 .8-.4.5-.9-.3-.5.1-1.1.9-1.4 1-.4 1.2-.1.9 1.1-.4 1.2.1 1 1.5-.7 1.2-1.3 2.1-1.8 2.1-1.2 0 .7.5.9 1.2.5s.8-.3.4.4-.2 1.2.3 1.2c.6 0 1.1-.4 1.1-.9s.7-1.2 1.6-1.5c1.5-.6 1.5-.4.3 1.1-1.3 1.7-1.3 1.7.7.1 2.1-1.8 4.9-2.5 4-1-.3.5.1.9.8.9.8 0 1.2-.6.9-1.3-.2-.6.1-1.5.7-1.9.6-.3 1-.3.9.2-.4 2.2.3 2.5 1.7.7.8-1 1.3-1.3.9-.7-.8 1.6.7 1.7 2.3.1.9-.9 1.2-.9 1.3.2.1.8.1 1.9 0 2.3-.1.5.3.6.8.2.6-.3.7-1.3.4-2.3-.3-.9-.3-1.4.2-1 .4.4 1.7.2 2.9-.4 1.9-1 2-1 .7.5-1.3 1.6-.2 2.5 1.3 1 1.1-1.2 5.6-1.4 5.7-.3.1.5.2 1.4.3 1.9 0 .5.4 1.3.8 1.6.4.4.5-.5.2-2.1-.3-2-.1-2.5.5-1.5.5.7 1.4 1 2 .7.6-.4 1.5.3 2 1.6.6 1.3 1 2 1 1.6.1-.4 1 0 2 .9 1.1.9 1.8 2 1.5 2.5-.3.4.3.5 1.2.1 1.2-.4 1.5-.3 1 .5-.4.7-.2 1.2.4 1.2.6 0 .8.5.4 1.2-.5.8-.2.9 1 .5.9-.4 1.5-.3 1.2.1-.3.5 1.3 2.8 3.4 5.2 2.1 2.4 3.6 4.9 3.3 5.4-.3.6-.3.8.2.4.8-.8 4.5 2.8 4.5 4.4 0 .4.6.8 1.3.8.8 0 1.9 1.1 2.6 2.4.7 1.3 2.6 3.4 4.2 4.5 3.1 2.3 3.2 4.7.5 9.6-.5 1.1-1.1 2.3-1.2 2.7-.1.5-.3 1-.4 1.3-.1.3-.4.9-.5 1.5-.1.5-.4 1.3-.5 1.7-.4 1.5-.7 2.8-.8 4.6-.1 1.2-.6 1.5-1.4 1.1-1-.6-1-.5-.1.8.7.8 1 1.8.6 2.2-.7.7-1 3.3-1.8 16.1-.2 4.4-.5 8.2-.6 8.5-.1.3-.1.8-.1 1.2.3 1.5 1.5 40 1.6 47.3 0 4.4.5 8.3 1.1 8.7.6.5.5.8-.3.8s-1 .5-.6 1.2c.4.6.8 3.2 1 5.7.2 2.5.5 6.4.9 8.6.3 2.2.8 6 1.1 8.5.3 2.5.7 5.6 1 7 .2 1.4.7 4.1 1 6 .7 3.9 2.9 15.2 3.8 19 .4 1.4.9 3.8 1.1 5.4.3 1.6 1 3.7 1.6 4.7.5 1.1.8 1.9.5 1.9-.5 0 3.2 13.7 5.3 19.5 1.4 4.2 4.1 12.7 4.6 14.8.2.9.7 2.2 1 2.7.3.5.8 2 1.1 3.2.3 1.3.7 3 .9 3.8.2.8.4 2.3.4 3.2.1 1 .5 1.8 1 1.8s.7-1.5.5-3.3c-.3-3.3-1.4-18.5-1.8-27.3-.2-2.9-.6-5.7-1-6.3-.4-.6-.2-1.1.4-1.1.6 0 .8-.5.3-1.2-.7-1.3-.9-2.3-1.7-13.8-.3-3.6-.6-6.5-.6-6.5-.6 0-1.4-25.7-1.1-33.8.1-4.6 1.7-4.2 2 .5.1 1.8.4 4.6.6 6.3 1.2 8.2 1.6 11.3 2 14 .2 1.6.6 4.1.9 5.5.4 1.4.9 4.1 1.1 6 1.2 8.8 1.6 11.6 2.2 13 .3.8.7 2.8 1 4.5.3 1.6.9 3.5 1.4 4.1.5.6.6 1.4.2 1.7-.3.4-.2.7.3.7s1.1.9 1.2 2c.4 4.4.6 5 1.5 5 .6 0 .7.3.4.6-.3.4-.2 1.5.4 2.6.6 1.1 1.2 2.7 1.4 3.6.9 4.7 13.2 27.6 15.8 29.3.5.3.8.8.6 1-.5.9 1.3 4.9 2.2 4.9.6 0 .7.5.4 1-.3.6-.1 1 .5 1s.9.4.6.9c-.4.5-.2 1.1.4 1.3.5.1 1.1 1.3 1.3 2.5.2 1.2.7 2.6 1.1 3 .7.7.2-14-.9-22.7-1.6-13.5-2.2-64-.9-83 1.4-22.7.9-57.2-1.1-75-.3-2.5-.7-6.5-1-9-.2-2.5-.4-4.5-.5-4.5-.1 0-.4-1.6-.7-3.5-1.1-8-7.5-24.7-13.4-34.5-1.6-2.8-3.5-6-4.1-7.3-.6-1.2-1.5-2.2-2-2.2s-.6-.5-.3-1c.3-.6.1-1-.5-1s-.9-.4-.6-.9c.4-.5.3-1.1-.1-1.3-.5-.2-1.9-1.6-3.3-3.2s-1.8-2.5-1-2.1c1.3.8 1.3.6.1-.8-.7-.9-1.7-1.4-2.2-1.1-.5.3-.9-.2-.9-1 0-.9-.4-1.6-1-1.6-.5 0-1-.7-1-1.5s-.6-1.2-1.4-.9c-.8.3-1.6.1-1.9-.4-1.3-2-1.6-6.7-.5-7.9.9-1.1.8-1.3-.3-1.1-.9.2-1.4-.6-1.4-2.5.1-1.5-.3-2.7-.8-2.7-.4 0-.7-.8-.6-1.8.1-.9-.1-2.5-.6-3.5-.4-1-.5-2-.2-2.4.4-.3 0-2.1-.8-3.9-.8-1.9-1.2-3.4-1-3.4.2 0 0-1.4-.5-3.2-.5-1.7-1.2-4.9-1.6-7.2-.3-2.2-.9-4.5-1.2-5.1-.4-.5-.7-1.7-.7-2.5-.1-.8-.7-3.3-1.4-5.4-.8-2.1-1.3-4.9-1.3-6.2 0-1.3-.4-2.4-.9-2.4s-.9-1-.9-2.3c0-1.3-.5-2.8-1.2-3.5-.7-.7-.8-1.2-.4-1.2.5 0 .2-.8-.5-1.7-1.2-1.4-1.2-1.6 0-.8 1.1.6 1.1.2-.2-2.1-1.6-3-2.7-5.7-3.4-8.4-.2-.8-.5-2-.6-2.5-.2-.6-.8-2-1.5-3.1-.6-1.2-.8-2.4-.5-2.8.3-.3.1-.6-.6-.6-.9 0-1.2-.9-.9-2.5.3-1.3.1-2.2-.3-1.9-.5.3-1.4-.8-2-2.3-.7-1.5-2.3-5.4-3.7-8.5-1.4-3.1-2.4-6-2.3-6.4.2-.4-.1-1-.6-1.3-1.4-1-7.2-12.9-6.6-13.5.3-.3-.2-.8-1.1-1.2-.9-.3-1.6-1.5-1.6-2.6s-.7-2.6-1.5-3.5c-.8-.8-1.2-1.9-.9-2.5.4-.7.2-.8-.4-.4-.7.4-1.2.1-1.2-.8s-.5-1.6-1.1-1.6c-.5 0-.8-.4-.5-.9.3-.5-.1-1.1-.9-1.5-.8-.3-1.5-1.2-1.5-2s-.5-1.6-1-1.8c-.6-.2-1.2-1.3-1.2-2.5-.2-1.4-.7-1.9-1.7-1.5-.8.3-1.2.1-.9-.4.3-.5-.2-2.1-1.1-3.5-2-3.2-7.7-11.9-9.2-14-.7-1-1.1-2-1-2.4.1-.3-.7-1.5-1.8-2.4-1.2-1-2.1-2.6-2.1-3.5 0-.9-.4-1.6-.9-1.6s-1.7-1.8-2.7-4c-1-2.2-2.2-4-2.7-4-.4 0-.6-.4-.3-.9s-.1-1.2-1-1.5c-.9-.4-1.4-.9-1.1-1.2.3-.4-.1-1.3-.9-2.1s-1.2-1.8-.9-2.3c.3-.4-.2-1.1-1.1-1.4-.8-.3-1.2-1-.9-1.6.3-.5.2-1-.3-1-.4 0-1.9-2-3.1-4.5-1.2-2.5-2.7-4.5-3.2-4.5s-.9-.6-.9-1.4c0-.8-.7-2.2-1.6-3-.8-.9-1.3-1.6-.9-1.6.3 0-.3-1-1.5-2.2-1.1-1.2-2-2.8-2-3.5 0-.8-.9-2.3-2-3.5-1.1-1.2-2-3-2-4 0-1.1-.4-1.7-.8-1.4-.5.3-1.4-1.1-2.1-3-.7-1.8-1.7-3.4-2.2-3.4-.5 0-.9-.9-.9-2s-.4-2-.8-2c-.5 0-1.9-2-3.2-4.5-1.3-2.5-2.8-4.5-3.3-4.5-.6 0-.8-.3-.4-.6.6-.6-3.9-8.5-5.5-9.5-.5-.3-1-1-1-1.5-.1-1.7-2.1-5.4-3-5.4-.4 0-.8-.7-.8-1.5s-.5-1.5-1.1-1.5c-.5 0-.8-.4-.5-.9.3-.5-.1-1.2-1-1.5-.8-.3-1.3-1-.9-1.5.3-.5-.6-2.1-2-3.5s-2.5-3-2.5-3.6c0-.5-.4-1-.8-1-1.2 0-4.2-5.6-3.4-6.4.4-.4.1-.6-.6-.4-.8.2-1.9-.6-2.5-1.7-.7-1.1-2-2.7-2.9-3.6-1-.9-1.8-2-1.8-2.5s-1.3-2-3-3.4c-1.6-1.4-3-2.8-3-3.2 0-1-6.3-10.2-7.2-10.6-.5-.2-.8-1-.8-1.7s-.3-1.5-.7-1.7c-1-.4-4.8-5.8-5.6-8.1-.3-.9-1.1-1.7-1.8-1.7-.6 0-.9-.7-.5-1.5.3-.9 0-1.5-.9-1.5-.7 0-1.7-.9-2-2-.3-1.1-1.1-2-1.6-2s-.9-.7-.9-1.5-.7-1.5-1.5-1.5-1.5-.4-1.5-1c0-.5-1.1-2-2.4-3.3-1.4-1.4-2.2-2.8-1.8-3.3.4-.4.1-.4-.6 0s-1.5.1-1.8-.8c-.3-.8-1.4-1.8-2.5-2.1-1-.4-1.9-1.2-1.9-1.9 0-.8-1.3-1.9-3-2.6-1.6-.7-3-1.6-3-2.1s-1-.9-2.1-.9c-1.7 0-1.9-.3-1-1.4 1-1.2.8-1.3-.8-.9-1.3.3-2.1.1-2.1-.6s-.4-.9-1-.6c-.5.3-1-.2-1.1-1.2 0-1.1-.3-1.3-.6-.5-.3.9-1 .7-2.4-.9-1-1.2-1.9-1.9-1.9-1.4 0 .4-.7.1-1.7-.6-.9-.8-1.7-1.3-1.7-1.1-.1.2-.9 0-1.8-.3-1-.4-1.6-1-1.3-1.4.2-.4-.2-.8-1-.8s-1.2.4-.9.9c.4.5-.3.4-1.4-.3-1.2-.7-1.8-1.7-1.6-2.1.3-.4-.2-.8-1.1-.8-1 0-1.4.5-1 1.2.4.7 0 .5-.8-.4-.8-1-1.7-1.5-2-1.1-.4.3-.7.2-.7-.4 0-.6-1.3-1.3-3-1.5-1.6-.3-3-.2-3 .2zM259.3 974.5c-.3.9-.8 1.4-1 1.1-.3-.3-.2-.9.2-1.5.9-1.6 1.5-1.3.8.4zm74.7 5.9c0 1.1-1.9 1.5-2.5.6-.3-.5.1-1 .9-1 .9 0 1.6.2 1.6.4z"/><path d="M425.6 359.7c-.6 1.4-.5 1.5.5.6.7-.7 1-1.5.7-1.8-.3-.3-.9.2-1.2 1.2zM426 362c-.9.6-1 1-.3 1 .6 0 1.5-.5 1.8-1 .8-1.2.4-1.2-1.5 0zM741 429.5c0 .7 3 1.3 3.4.7.3-.4-.4-.9-1.5-.9-1-.1-1.9 0-1.9.2zM747.9 429.2c-.5 1.8-.6 3.8-.1 3.4.7-.8 1.2-3.6.6-3.6-.2 0-.4.1-.5.2zM754.6 433.6c-.4 1.1-.1 1.2 1.3.5 1-.6 2-.9 2.2-.8.2.1.3 0 .1-.2-.7-1.1-3.1-.8-3.6.5zM759.3 439.5c0 .8.4 1.2.9.9.5-.3.6-1 .3-1.5-.9-1.3-1.2-1.1-1.2.6zM772.3 439.8c1 1 1.4 2.2 1 2.7-.5.4-.2.5.5.1 1.1-.6 1-1.2-.4-2.7-.9-1-1.9-1.9-2.2-1.9-.3 0 .2.8 1.1 1.8zM763 440c0 .5.5 1 1.1 1 .5 0 .7-.5.4-1-.3-.6-.8-1-1.1-1-.2 0-.4.4-.4 1zM783.5 442c-.3.6.1.7.9.4 1.8-.7 2.1-1.4.7-1.4-.6 0-1.3.4-1.6 1zM787.8 441.7c.7.3 1.6.2 1.9-.1.4-.3-.2-.6-1.3-.5-1.1 0-1.4.3-.6.6zM779.6 444.2c.3.5 1 .6 1.5.3 1.3-.9 1.1-1.2-.6-1.2-.8 0-1.2.4-.9.9zM787.3 444.5c0 .8.4 1.2.9.9.5-.3.6-1 .3-1.5-.9-1.3-1.2-1.1-1.2.6zM381.6 601.8c-.3.5.1.9.9.9s1.2-.4.9-.9c-.3-.4-.7-.8-.9-.8-.2 0-.6.4-.9.8zM375.5 621.9c-.3.5-.2 1.2.3 1.5.5.3.9-.1.9-.9 0-1.7-.3-1.9-1.2-.6zM379 622c0 .5.5 1 1.1 1 .5 0 .7-.5.4-1-.3-.6-.8-1-1.1-1-.2 0-.4.4-.4 1zM375.9 628.2c-.7 2.3-.5 3.9.4 4.5.7.3.9.3.5-.2-.4-.4 0-1.4 1-2.2 1.6-1.2 1.6-1.3-.2-.6-1.3.4-1.7.3-1.2-.5.4-.7.5-1.2.2-1.2s-.6.1-.7.2zM366 631.4c0 .2.8 1 1.8 1.7 1.5 1.3 1.6 1.2.3-.4s-2.1-2.1-2.1-1.3zM369.3 636.7c0 .9.4 1 1.2.3.7-.5 1.5-.7 1.8-.3.4.3.7.1.7-.5s-.8-1-1.8-.9c-1 0-1.9.7-1.9 1.4zM770.1 668.6c0 1.1.3 1.4.6.6.3-.7.2-1.6-.1-1.9-.3-.4-.6.2-.5 1.3zM335.6 669.2c.3.5 1 .6 1.5.3 1.3-.9 1.1-1.2-.6-1.2-.8 0-1.2.4-.9.9zM299.6 695.8c-.3.5.1.9.9.9s1.2-.4.9-.9c-.3-.4-.7-.8-.9-.8-.2 0-.6.4-.9.8zM293.5 700.9c-.3.5-.2 1.2.3 1.5.5.3.9-.1.9-.9 0-1.7-.3-1.9-1.2-.6zM284 708c-.9.6-1 1-.3 1 .6 0 1.5-.5 1.8-1 .8-1.2.4-1.2-1.5 0zM273.3 719.5c0 .8.4 1.2.9.9.5-.3.6-1 .3-1.5-.9-1.3-1.2-1.1-1.2.6zM267.4 721.8c.4.3 1.4.7 2.2.8.9.1 1.3 0 1-.4-.4-.3-1.4-.7-2.2-.8-.9-.1-1.3 0-1 .4zM252.6 735.8c-.3.5.1.9.9.9s1.2-.4.9-.9c-.3-.4-.7-.8-.9-.8-.2 0-.6.4-.9.8zM243.6 741.3c.3 1 .9 1.5 1.2 1.2.3-.3 0-1.1-.7-1.8-1-.9-1.1-.8-.5.6zM923.5 782c.3.5.8 1 1.1 1 .2 0 .4-.5.4-1 0-.6-.5-1-1.1-1-.5 0-.7.4-.4 1zM932.5 790c.3.5.8 1 1.1 1 .2 0 .4-.5.4-1 0-.6-.5-1-1.1-1-.5 0-.7.4-.4 1zM938.8 793.7c.7.3 1.6.2 1.9-.1.4-.3-.2-.6-1.3-.5-1.1 0-1.4.3-.6.6zM947.5 796.9c-.3.5-.2 1.2.3 1.5.5.3.9-.1.9-.9 0-1.7-.3-1.9-1.2-.6zM944 797.4c0 .2.7.9 1.5 1.6 1.3 1.1 1.4 1 .9-.4-.5-1.4-2.4-2.3-2.4-1.2zM149.4 826.2c-.4.7-.4 1 .1.6.4-.4 1.5-.2 2.4.5 1.4 1.1 1.4 1 .2-.6-1.6-2-1.8-2.1-2.7-.5zM145.5 830c.3.5.8 1 1.1 1 .2 0 .4-.5.4-1 0-.6-.5-1-1.1-1-.5 0-.7.4-.4 1zM133 842c0 .5.5 1 1.1 1 .5 0 .7-.5.4-1-.3-.6-.8-1-1.1-1-.2 0-.4.4-.4 1zM1023.6 856.7c-.6 1.4-.5 1.5.5.6.7-.7 1-1.5.7-1.8-.3-.3-.9.2-1.2 1.2zM1031.6 861.8c-.3.5.1.9.9.9s1.2-.4.9-.9c-.3-.4-.7-.8-.9-.8-.2 0-.6.4-.9.8zM1038.7 872.1c.7.7 1.5 1 1.8.7.3-.3-.2-.9-1.2-1.2-1.4-.6-1.5-.5-.6.5zM1063.3 919.5c0 .8.4 1.2.9.9.5-.3.6-1 .3-1.5-.9-1.3-1.2-1.1-1.2.6zM1051.8 925.7c.7.3 1.6.2 1.9-.1.4-.3-.2-.6-1.3-.5-1.1 0-1.4.3-.6.6zM1025.6 941.8c-.3.5.1.9.9.9s1.2-.4.9-.9c-.3-.4-.7-.8-.9-.8-.2 0-.6.4-.9.8zM121.6 947.3c.3 1 .9 1.5 1.2 1.2.3-.3 0-1.1-.7-1.8-1-.9-1.1-.8-.5.6zM131.5 950c.3.5.8 1 1.1 1 .2 0 .4-.5.4-1 0-.6-.5-1-1.1-1-.5 0-.7.4-.4 1zM122.6 952.2c.3.5 1 .6 1.5.3 1.3-.9 1.1-1.2-.6-1.2-.8 0-1.2.4-.9.9zM167 957c0 .5.5 1 1.1 1 .5 0 .7-.5.4-1-.3-.6-.8-1-1.1-1-.2 0-.4.4-.4 1zM187.9 964.7c-1.3 1.6-1.2 1.7.4.4 1.6-1.3 2.1-2.1 1.3-2.1-.2 0-1 .8-1.7 1.7zM193.5 964.9c-.3.5-.2 1.2.3 1.5.5.3.9-.1.9-.9 0-1.7-.3-1.9-1.2-.6zM211 969.4c0 .2.7.7 1.6 1 .8.3 1.2.2.9-.4-.6-1-2.5-1.4-2.5-.6zM215.6 970.2c.3.5 1 .6 1.5.3 1.3-.9 1.1-1.2-.6-1.2-.8 0-1.2.4-.9.9zM219.3 970.7c0 .9.4 1 1.4.2.7-.6 1.3-1.2 1.3-1.4 0-.1-.6-.2-1.3-.2-.8 0-1.4.6-1.4 1.4zM227.3 971.5c0 .8.4 1.2.9.9.5-.3.6-1 .3-1.5-.9-1.3-1.2-1.1-1.2.6zM213.5 974c-.3.5-.1 1 .4 1 .6 0 1.1-.5 1.1-1 0-.6-.2-1-.4-1-.3 0-.8.4-1.1 1zM923.5 976c-.3.5-.1 1 .4 1 .6 0 1.1-.5 1.1-1 0-.6-.2-1-.4-1-.3 0-.8.4-1.1 1zM249.5 976.9c-.3.5-.2 1.2.3 1.5.5.3.9-.1.9-.9 0-1.7-.3-1.9-1.2-.6zM245 977.4c0 .2.7.7 1.6 1 .8.3 1.2.2.9-.4-.6-1-2.5-1.4-2.5-.6zM322 980c-.9.6-1 1-.3 1 .6 0 1.5-.5 1.8-1 .8-1.2.4-1.2-1.5 0zM308.5 982c-.3.6.1.7.9.4 1.8-.7 2.1-1.4.7-1.4-.6 0-1.3.4-1.6 1zM317.3 981.7c.4.3.1 1.3-.6 2.2-1.1 1.4-1 1.4.5.2 1.6-1.2 1.6-3.1.1-3.1-.4 0-.3.3 0 .7zM365.6 985.7c-.6 1.4-.5 1.5.5.6.7-.7 1-1.5.7-1.8-.3-.3-.9.2-1.2 1.2zM357.4 986.4c.1.8.5 1.8.8 2.2.4.3.5-.1.4-1-.1-.8-.5-1.8-.8-2.2-.4-.3-.5.1-.4 1zM377.6 987.3c.3 1 .9 1.5 1.2 1.2.3-.3 0-1.1-.7-1.8-1-.9-1.1-.8-.5.6zM849.5 991.1c-.4.6-.5 1.2-.2 1.5.2.3.7-.2 1-1.1.7-1.7.1-2-.8-.4zM803.5 993.9c-.3.5-.2 1.2.3 1.5.5.3.9-.1.9-.9 0-1.7-.3-1.9-1.2-.6zM815.5 994.1c-.3.4.2.6 1 .5 2.1-.3 2.8-1.3 1-1.3-.9 0-1.8.4-2 .8zM435 996.1c0 .5.5.7 1 .4.6-.3 1-.8 1-1.1 0-.2-.4-.4-1-.4-.5 0-1 .5-1 1.1zM450.6 997.8c-.3.5.1.9.9.9s1.2-.4.9-.9c-.3-.4-.7-.8-.9-.8-.2 0-.6.4-.9.8zM454.6 998.2c.3.5 1 .6 1.5.3 1.3-.9 1.1-1.2-.6-1.2-.8 0-1.2.4-.9.9zM485 998.9c0 .7-.5.9-1.2.5-.7-.5-.8-.3-.3.5.5.9 1 1 1.8.2.6-.6.8-1.4.4-1.8-.4-.3-.7-.1-.7.6zM459 999.4c0 .2.7.7 1.6 1 .8.3 1.2.2.9-.4-.6-1-2.5-1.4-2.5-.6zM477.5 1000c.3.5.8 1 1.1 1 .2 0 .4-.5.4-1 0-.6-.5-1-1.1-1-.5 0-.7.4-.4 1zM803.9 1000.7c-1.3 1.6-1.2 1.7.4.4 1.6-1.3 2.1-2.1 1.3-2.1-.2 0-1 .8-1.7 1.7zM577.6 1001.3c.3 1 .9 1.5 1.2 1.2.3-.3 0-1.1-.7-1.8-1-.9-1.1-.8-.5.6zM505.5 1002c.3.5.8 1 1.1 1 .2 0 .4-.5.4-1 0-.6-.5-1-1.1-1-.5 0-.7.4-.4 1zM767.3 1002.5c0 .8.4 1.2.9.9.5-.3.6-1 .3-1.5-.9-1.3-1.2-1.1-1.2.6zM625 1003.9c0 .6.4 1.3 1 1.6.6.3.7-.1.4-.9-.7-1.8-1.4-2.1-1.4-.7zM684 1004c-.9.6-1 1-.3 1 .6 0 1.5-.5 1.8-1 .8-1.2.4-1.2-1.5 0zM487.5 1006.9c-.3.5-.2 1.2.3 1.5.5.3.9-.1.9-.9 0-1.7-.3-1.9-1.2-.6zM515.6 1007.8c-.3.5.1.9.9.9s1.2-.4.9-.9c-.3-.4-.7-.8-.9-.8-.2 0-.6.4-.9.8zM741.5 1008c-.3.5-.1 1 .4 1 .6 0 1.1-.5 1.1-1 0-.6-.2-1-.4-1-.3 0-.8.4-1.1 1zM759 1007.4c0 .2.7.7 1.6 1 .8.3 1.2.2.9-.4-.6-1-2.5-1.4-2.5-.6zM751.5 1009.1c-.4.6-.5 1.2-.2 1.5.2.3.7-.2 1-1.1.7-1.7.1-2-.8-.4z"/></svg>