<svg id="shading" xmlns="http://www.w3.org/2000/svg" viewBox="0 0 1014.62 1570.47"><defs><style>.cls-1{fill:#f7dec6;}.cls-2{fill:#524e63;}.cls-3{fill:#af8a62;}.cls-4{fill:#f5b85d;}.cls-5{fill:#cbaa99;}.cls-6{fill:#c24448;}.cls-7{fill:#a15845;}.cls-8{fill:#664e58;}.cls-9{fill:#78343f;}.cls-10{fill:#eeeb76;}.cls-11{fill:#fbd173;}.cls-12{fill:#604d61;}.cls-13{fill:#6a4b57;}.cls-14,.cls-37{fill:#583f43;}.cls-15{fill:#3d394a;}.cls-16{fill:#bd7c3c;}.cls-17{fill:#3f3536;}.cls-18{fill:#dad9e3;}.cls-19{fill:#f7cf6d;}.cls-20{fill:#fefbfd;}.cls-21{fill:#3e3137;}.cls-22{fill:#e8a797;}.cls-23{fill:#818297;}.cls-24{fill:#5d3a36;}.cls-25{fill:#865752;}.cls-26{fill:#382b2d;}.cls-27,.cls-36{fill:#5e4d5d;}.cls-28{fill:#e37980;}.cls-29{fill:#c5b5b5;}.cls-30{fill:#e36e4d;}.cls-31{fill:#fece86;}.cls-32{fill:#bc764f;}.cls-33{fill:#dc9346;}.cls-34{fill:#524e64;}.cls-35{fill:none;}.cls-35,.cls-36,.cls-37{stroke:#000;stroke-miterlimit:10;}</style></defs><title>Hangumin_SVG</title><g id="_Gruppe_" data-name="&lt;Gruppe&gt;"><path class="cls-1" d="M1040.5,533.33c6.89-1.65,12.74,7.1,1.33,11.17-14.61,5.22-29,5.26-42.62,9.42h0a23.33,23.33,0,0,1-2.06-8.93,15.6,15.6,0,0,1,.31-3.1h0C1011.1,541.68,1024.21,537.23,1040.5,533.33Z" transform="translate(-34.16 -187.7)"/><path class="cls-1" d="M1038.33,562.33c4.36.2,5.92,9.22-4.33,10.67-12.65,1.79-24.73-.85-37-.33a27.43,27.43,0,0,1-.47-4.78,14.93,14.93,0,0,1,1.78-7.4h0C1008.43,561.6,1026.1,561.78,1038.33,562.33Z" transform="translate(-34.16 -187.7)"/><path class="cls-1" d="M1030,508.67c6.9-1.46,11.44,1.87,5,7-10.21,8.13-28.45,15-39.31,19.6h0A25.52,25.52,0,0,1,990.94,523C1003.59,517.43,1016.11,511.59,1030,508.67Z" transform="translate(-34.16 -187.7)"/><path class="cls-1" d="M1013,587c5.45,2.29.81,8.12-8.33,6-5.17-1.2-10.25-3-15.66-4.18a16.11,16.11,0,0,1,5-8.62C1000.39,582.58,1008.54,585.12,1013,587Z" transform="translate(-34.16 -187.7)"/><path class="cls-2" d="M969.93,525.67h14.74c2.1-.88,4.18-1.79,6.27-2.7a25.52,25.52,0,0,0,4.75,12.29h0c-7.91,3.37-11.9,5.56-6,6.23a60.26,60.26,0,0,0,7.79.37h0a15.6,15.6,0,0,0-.31,3.1,23.33,23.33,0,0,0,2.06,8.93h0a59.89,59.89,0,0,0-6.21,2.24c-5.28,2.24-1.91,3.52,5.32,4.32h0a14.93,14.93,0,0,0-1.78,7.4,27.43,27.43,0,0,0,.47,4.78,56.67,56.67,0,0,0-9.93,1.25c-5.09,1.13-.2,3.61,6.94,6.28a16.11,16.11,0,0,0-5,8.62,58.88,58.88,0,0,0-6.68-1.15c-11,2-20.4-.5-31.33-2.67a40.48,40.48,0,0,0-8.45-.71h0c-4.89-4.66-9.44-12.33-9.44-30.46,0-6.15.53-12.31,1-18a10.46,10.46,0,0,0,3.19-1.87c7.68-7,15.17-21.83,21-25l.28-.15c1.91,6.58,6.34,12.94,13.12,14.24-.7.87-1.39,1.73-2.06,2.58Z" transform="translate(-34.16 -187.7)"/><path class="cls-1" d="M981,490c6.13-7.32,9-5.67,9,.33,0,12.21-10.23,22.93-18.27,32.76-6.78-1.3-11.21-7.66-13.12-14.24A83,83,0,0,0,981,490Z" transform="translate(-34.16 -187.7)"/><path class="cls-2" d="M942.55,584.28h0c-3.76,0-7.48.41-11.22.71,0,.16,0,.33,0,.49a54.61,54.61,0,0,0-6.75-.42,57.89,57.89,0,0,0-6.57.38,63.21,63.21,0,0,1-6-14.09c.2-12,1.5-23.92,7.06-34.32.92-.31,1.46-.54,1.46-.54l-1.17,2.5c6.29-1.08,11.34-1.75,14.81-3.13-.5,5.64-1,11.8-1,18C933.11,572,937.66,579.62,942.55,584.28Z" transform="translate(-34.16 -187.7)"/><path class="cls-3" d="M931.31,585.49c-1,23.93-.52,50-9.31,55.18-6.09-18.13-9-30.85-9.92-54.3,2-.39,3.94-.71,5.91-.92a57.89,57.89,0,0,1,6.57-.38A54.61,54.61,0,0,1,931.31,585.49Z" transform="translate(-34.16 -187.7)"/><path class="cls-4" d="M913.81,538.36A32.33,32.33,0,0,0,919,537c-5.56,10.4-6.86,22.35-7.06,34.32q0,1.89,0,3.78c0,3.78.08,7.54.13,11.23.87,23.45,3.83,36.17,9.92,54.3-13.41-2.35-26.21-5.55-39.14-8.32-10.72-14.84-14.27-36-14.27-54.59,0-16,1.8-21.32,5.37-34.46C887.89,541.84,902,540.3,913.81,538.36Z" transform="translate(-34.16 -187.7)"/><path class="cls-5" d="M918,585.45c-2,.21-3.94.53-5.91.92-.05-3.69-.13-7.45-.13-11.23q0-1.89,0-3.78A63.21,63.21,0,0,0,918,585.45Z" transform="translate(-34.16 -187.7)"/><path class="cls-6" d="M784.78,597.9c-8.2,8.66-14.63,16.37-25.78,24.43,0,0-15.67,8-22.33,11.34-4.09,2.05-29,6.23-47.7,9.15,20-11.05,45-32.51,73.81-57.28,0,0,.05,0,.08-.06,27-19.91,49.28-36.05,53.52-34.23,11.81-3.38,34.52-5.55,57.58-8-3.57,13.14-5.37,18.45-5.37,34.46,0,18.58,3.55,39.75,14.27,54.59-20.25-4.35-40.83-7.66-64.53-5a80.07,80.07,0,0,1-17.66,2.36,63,63,0,0,1-15.24-1.64c-3.58-3.44-7.33-7.71-7.33-10.06,0-3.91,26.21-26.1,32.56-28.7a11.12,11.12,0,0,0-5.63-1.44C797.91,587.85,789.92,593.49,784.78,597.9Z" transform="translate(-34.16 -187.7)"/><path class="cls-7" d="M756,1132c-12.84,4.87-29.5,4.47-49,0-34.25-7.85-64.23-14.81-95.33-9-8,1.49-23.24,9-25.51,8.62-2.11-.36-5.16-4.12-5.16-4.12,8.52-7.5,14.38-14.16,18.86-22.25a121.32,121.32,0,0,1,31.23-3.76c29.9,0,60.09,8.34,90.24,8.34a133.64,133.64,0,0,0,21.37-1.62v0h0c-.94-3.32-1.79-6.64-2.55-10,27.63,12.88,54.45,33.89,86.52,34.66.15,1.54,6.94,9.1,10.6,9.1,1.42,0,2.14-1.27,2.14-2.6,0-5.1-7.68-24.43-8.45-27.77-34-161.26-30.29-481.46-30.29-481.46v-.44a80.07,80.07,0,0,0,17.66-2.36C816,658.78,816,687.56,817.67,709c10.11,127,18.66,318.67,27.66,367,5.34,28.65,12.24,55.64,19.67,82.33C825.51,1163.05,789.49,1153,756,1132Z" transform="translate(-34.16 -187.7)"/><path class="cls-8" d="M740.15,1098.2c.76,3.37,1.61,6.69,2.55,10a133.64,133.64,0,0,1-21.37,1.62c-30.15,0-60.34-8.34-90.24-8.34a121.32,121.32,0,0,0-31.23,3.76,76.42,76.42,0,0,0,4.47-9.67,33.44,33.44,0,0,1,4.62-7.87h0c16.62-22.08,64-52.76,64-101.37,0-41.68-22.3-85.33-44.61-110.49,2.78-.86,3.63-2.53,3.63-5.63,0-2.76-9.26-44.81-17.29-44.81-1.88,0-3.9.24-5,.24h-.05C604.33,817.34,595,781,595,781c0-5.13,1.66-11.62,4-19.19,6.11-20,16.75-47.5,13.36-77.48,5.7,2.78,23.27-13.41,36.48-30.18a110,110,0,0,0,10.86-2.48,82.86,82.86,0,0,0,16.08-6.82h0c3.58-.54,8.17-1.24,13.21-2,18.65-2.92,43.61-7.1,47.7-9.15,6.66-3.34,22.33-11.34,22.33-11.34,8.34-1.14,15.6,3.22,26.43,5.72a63,63,0,0,0,15.24,1.64v.44S797,950.33,831,1111.59c.77,3.34,8.45,22.67,8.45,27.77,0,1.33-.72,2.6-2.14,2.6-3.66,0-10.45-7.56-10.6-9.1C794.6,1132.09,767.78,1111.08,740.15,1098.2Z" transform="translate(-34.16 -187.7)"/><path class="cls-4" d="M816.38,551.25c-4.24-1.82-26.47,14.32-53.52,34.23,0,0-.05,0-.08.06-28.87,21.25-63.21,46.77-87,59.31h0a82.86,82.86,0,0,1-16.08,6.82,110,110,0,0,1-10.86,2.48c-28.26,4.94-51.36-2.84-61.42-10.44,23.28,5.69,44.86-4.31,65.34-19.31,23.76-10,51.77-32.64,89-62h0l1.53.1a50.71,50.71,0,0,1,4.25-4.5C752.93,552.93,804.43,539.61,816.38,551.25Z" transform="translate(-34.16 -187.7)"/><path class="cls-9" d="M805,587.85a11.12,11.12,0,0,1,5.63,1.44c-6.35,2.6-32.56,24.79-32.56,28.7,0,2.35,3.75,6.62,7.33,10.06-10.83-2.5-18.09-6.86-26.43-5.72,11.15-8.06,17.58-15.77,25.78-24.43C789.92,593.49,797.91,587.85,805,587.85Z" transform="translate(-34.16 -187.7)"/><path class="cls-10" d="M744.53,338.58c10.28,22.76,14,56.27,4.05,96.34-.92,3.7-18.52-28.86-21.91-48.59-5.17,4.29-2.72,31.09-5,27.67-12.62-18.89-11-43.4-7.89-63.57,6.72,6,13.51,12.23,21.61,15.87C740.53,355.47,742.92,348.63,744.53,338.58Z" transform="translate(-34.16 -187.7)"/><path class="cls-9" d="M675.76,644.85c23.81-12.54,58.15-38.06,87-59.31C734,610.31,709,631.77,689,642.82,683.93,643.61,679.34,644.31,675.76,644.85Z" transform="translate(-34.16 -187.7)"/><path class="cls-11" d="M296.65,443.8c.3-.2.6-.4.89-.61a66.55,66.55,0,0,0,9.39-7.52c.35.5.69,1,1,1.5l0,.06.15-.09c77.14-14.25,158.48-26,199.85-25.36,91.64,20.55,206,56.67,237,65.88h0c.87,1.08,1.65,2.15,2.34,3.2.2.3-.25.68-1.24,1.14h0C698,468.3,660.9,457.36,623.68,447.11c-35.73-9.84-71.57-19-117.35-29.38-29.48,1.19-61.64,3.89-92.2,7.35-44.69,5.05-86,11.71-110.52,17.63-2.57.63-5.14,1.14-7.72,1.62Z" transform="translate(-34.16 -187.7)"/><path class="cls-12" d="M746.09,482.81h0c-10.28,4.72-79.5,16.82-114.76,18.85-.29-1-.58-2-.85-3-5.28-18.78-8.23-35.12-6.8-51C660.9,458,698,469,746.09,482.81Z" transform="translate(-34.16 -187.7)"/><path class="cls-4" d="M744.53,338.58c-1.61,10.05-4,16.89-9.14,27.72-8.1-3.64-14.89-9.88-21.61-15.87,2.36-15.48,5.58-28.39,3.85-34.25h0a17.89,17.89,0,0,0,5.66-4.4C731.53,317.15,739,326.3,744.53,338.58Z" transform="translate(-34.16 -187.7)"/><path class="cls-13" d="M741.72,562.4h0c-37.22,29.35-65.23,51.94-89,62,27.67-20.26,53.35-49.64,78.57-61.78A66.8,66.8,0,0,1,741.72,562.4Z" transform="translate(-34.16 -187.7)"/><path class="cls-14" d="M721.5,310.67q.9.52,1.8,1.11a17.89,17.89,0,0,1-5.66,4.4h0a5.31,5.31,0,0,0-.3-.85c-26.58-16.45-44.6-14.93-64.66-9a15.71,15.71,0,0,1-10.67-.66c-6.75,17.89-4.38,38.43,2,59.33h-5.25L637,361l-5.67.25L612.25,355l-2.5,4.75L581.84,355l-4.59-6h-8.72l-24-3.75-3,5L521,347.75l-3.24-6h-31l-6,7.5-25.75,1L449.25,346,446,347.5l-8,1.5-14.75,1.25-3.5,6.5L407.67,360l16.14-39.4c3.48,10.4,9.3,17.54,23.69,17.54,16.08,0,52.84-12.14,52.84-44.62,0-14.07-8.31-24.5-22.78-24.5-5.22,0-12.76,1.83-19.42,3.92,40.06-33.19,123.46-90.48,136.53-84.27C636.06,208.33,693.31,257.54,721.5,310.67Zm-87.13,1.53a14.18,14.18,0,0,0,.39-3.3c0-5-2.6-10.34-6.72-15.47h0a4.43,4.43,0,0,0,.44-1.86c0-1.73-1.8-2.45-4.43-2.57-10.49-10.5-26.44-19-37.36-19-17.06,0-29.5,10.26-29.5,27.53,0,20.29,16.39,38.78,38.71,38.78A55.31,55.31,0,0,0,618,331.25C625.58,327.9,632.37,320.59,634.37,312.2Z" transform="translate(-34.16 -187.7)"/><path class="cls-15" d="M711.25,569.5a43.74,43.74,0,0,1,20-6.88c-25.22,12.14-50.9,41.52-78.57,61.78-20.3,8.6-37.5,8-54.7-5.27,2.73-8.51,4.49-18.48,6-30.63,12.33-19.83,30.67,2.83,47.5-6a42,42,0,0,1,23.83-5.5c.44-.24.87-.47,1.3-.68C689.2,569.86,700.36,569.1,711.25,569.5Z" transform="translate(-34.16 -187.7)"/><path class="cls-14" d="M650.33,405.58c-6.16,10.25,72.72,45,94.65,72.08-31-9.21-145.34-45.33-237-65.88-41.37-.62-122.71,11.11-199.85,25.36,8-4.94,51.42-30.88,82.18-37.43,3.36-1.22,4.84-3.61,6.34-4.13l23.83-4.38,2.54,5.7,30-2.72,1.75-5.46,21.82-2.49,7.56-.86,6.12,6.08,32.85,1.34,3.35-3.32,24,1.48,3,6.94,35.5,3.72,2.25-5.45,26.5,4.21,2.75,6.2,16.29,2.73,4.46.74,2.75-4.46Z" transform="translate(-34.16 -187.7)"/><path class="cls-6" d="M448,890a294.09,294.09,0,0,1,52.69-5.27c.12,2,.29,3.25.64,3.6,8.25,8.25,91.5,4.06,96.17-8.66a13.92,13.92,0,0,0,.71-3.88c4.61.27,12.53.92,19.48.92,5.12,0,8.51-.19,10.7-.87C650.7,901,673,944.65,673,986.33c0,48.61-47.43,79.29-64,101.37h0a33.44,33.44,0,0,0-4.62,7.87,76.42,76.42,0,0,1-4.47,9.67c-4.48,8.09-10.34,14.75-18.86,22.25-2.37,2.64-4.79,5.32-7.23,8a173,173,0,0,0,11.56-29.64l-38-15.83s3-36.17,3-43.83c-13-1.34-44.16-9.34-44.16-9.34L502.5,998c-6.67,0-41.5-14.17-41.5-14.17l9.38-14.33a48.76,48.76,0,0,0,21.39,13.61c24.89-15.73,54.19-24.3,77.07-43.26-12.6,1.08-56.43,13-74.41,13-14.93,0-16-18-22-28.91-3.12,9.13-5,19.12-7.12,28.58A98.9,98.9,0,0,1,448,937l16.83-16.83s-32.1-28.48-31.16-31.17c.57-1.64,12.72-1.42,12.72-1.42C446.93,888.38,447.47,889.18,448,890Z" transform="translate(-34.16 -187.7)"/><path class="cls-6" d="M648,400.33c3.94.81,5.23,2.45,2.33,5.42H644l-2.75,4.5-4.46-.75.46-2.75,5.75-5Z" transform="translate(-34.16 -187.7)"/><path class="cls-6" d="M648,396.25v4.08l-5,1.42L627.33,373l-25.08,18.25h-6l-26.25-35L537.25,383.5l-5.25.25-27-34.5h-4.25l-23.16,32.38-1.34,1.87-8.78.25-1.33-1.39L442,357l-15,34.25h-6.5l-3.06-4.71L405.2,367.73l1-2.9c-5.93-4.35,1.32-4.73,1.5-4.83l3,5.16L421,383l14.7-29.4L438,349l8-1.5,7,8,18,20.29L495.06,346l3.44-4.25H508l3.32,3.94L534,372.62l30.84-21.1,3.69-2.52h8.72l4.59,6,3.85,5L600,378.75l26.58-14.85,4.75-2.65,2.16,5.82L643,392.75Z" transform="translate(-34.16 -187.7)"/><path class="cls-4" d="M648,394.33v1.92l-5-3.5-9.51-25.68,4.18,1.93v2.25l6-.25C644.25,379.64,645.08,388,648,394.33Z" transform="translate(-34.16 -187.7)"/><path class="cls-6" d="M644,365c1.94,2.28,2.23,4.33-.33,6l-6,.25V369l-4.18-1.93-2.16-5.82L637,361l1.75,4Z" transform="translate(-34.16 -187.7)"/><polygon class="cls-4" points="593.17 185.3 608.84 214.05 603.09 219.05 589.16 216.3 586.34 208.55 568.09 203.55 593.17 185.3"/><path class="cls-8" d="M631.33,501.67s9.23,19.77,7.17,21.83c-.79.79-17.5-17.5-17.5-17.5a40,40,0,0,1-6.67,7.33c0,.76-.07,1.52-.1,2.27q-.08-3.79-.07-7.59c0-4.76.07-9.51.11-14.26,5.39,1.59,10.78,3.23,16.21,4.92C630.75,499.66,631,500.66,631.33,501.67Z" transform="translate(-34.16 -187.7)"/><polygon class="cls-6" points="603.09 219.05 602.63 221.8 586.34 219.05 583.59 212.8 557.09 208.55 554.84 214.05 519.34 210.3 516.34 203.3 492.29 201.8 488.94 205.15 456.09 203.8 449.97 197.67 442.41 198.54 442.09 195.8 443.43 193.93 456.59 194.66 459.59 198.84 486.83 200.74 490.34 194.66 497.84 196.05 503.09 195.8 521.09 199.1 524.09 204.8 551.59 208.55 554.09 202.18 562.09 203.55 568.09 203.55 586.34 208.55 589.16 216.3 603.09 219.05"/><path class="cls-6" d="M634.76,308.9a14.18,14.18,0,0,1-.39,3.3c-2,8.39-8.79,15.7-16.37,19.05a55.31,55.31,0,0,1-22.11,5.09c-22.32,0-38.71-18.49-38.71-38.78,0-17.27,12.44-27.53,29.5-27.53,10.92,0,26.87,8.47,37.36,19l-.87,0a34,34,0,0,0-3.86.26c-7.82-7.55-19.35-13.09-27.37-13.09a23.17,23.17,0,0,0-4,.37,8.54,8.54,0,0,0-4.4-1.76c-1.69,0-3,1.74-3,3.61a4.82,4.82,0,0,0,0,.65c-6.6,3.39-11.75,9.52-11.75,16.84a21.84,21.84,0,0,0,4.66,12.85c-3.14,1.92-4.17,3.17-4.17,5.11,0,1.62,1.58,2.84,5.27,2.84a24,24,0,0,0,6.28-.92,46.87,46.87,0,0,0,15.41,6.76,23,23,0,0,0,5.62.63A35.19,35.19,0,0,0,619,318.57c5.14-3,8.88-7.48,8.88-13.2a17.56,17.56,0,0,0-2.43-8.44,11.63,11.63,0,0,0,2.63-3.5h0C632.16,298.56,634.76,303.93,634.76,308.9Z" transform="translate(-34.16 -187.7)"/><path class="cls-9" d="M611.39,667.72A64.38,64.38,0,0,1,584,648.43h0c.46-2.07.89-4.22,1.3-6.43a24.93,24.93,0,0,0,2.06,1.71c10.06,7.6,33.16,15.38,61.42,10.44-13.21,16.77-30.78,33-36.48,30.18Z" transform="translate(-34.16 -187.7)"/><polygon class="cls-6" points="597.17 173.55 592.42 176.2 581.09 173.55 577.34 177.3 551.53 172.34 547.68 167.3 575.59 172.05 578.09 167.3 597.17 173.55"/><path class="cls-8" d="M632,870.21c0,3.1-.85,4.77-3.63,5.63-2.19.68-5.58.87-10.7.87-7,0-14.87-.65-19.48-.92.65-12-7.91-36.37-13.4-49a184.57,184.57,0,0,1,22.43-1.16h2.48c1.11,0,3.13-.24,5-.24C622.76,825.4,632,867.45,632,870.21Z" transform="translate(-34.16 -187.7)"/><path class="cls-16" d="M598,619.13c17.2,13.31,34.4,13.87,54.7,5.27-20.48,15-42.06,25-65.34,19.31a24.93,24.93,0,0,1-2.06-1.71l1.12-1.29A61.81,61.81,0,0,0,598,619.13Z" transform="translate(-34.16 -187.7)"/><path class="cls-4" d="M628.47,291.57a4.43,4.43,0,0,1-.44,1.86,11.63,11.63,0,0,1-2.63,3.5c-3.77,3.66-10,7.06-13.13,8.7,2.46,1.67,8,5.86,8,9.14a3.09,3.09,0,0,1-1.95,2.74,7.09,7.09,0,0,1-1.1.49c-4.21-2.58-8.79-9.09-13.92-9.09-7.61,0-14.92,4.78-22.49,6.83a24,24,0,0,1-6.28.92c-3.69,0-5.27-1.22-5.27-2.84,0-1.94,1-3.19,4.17-5.11,3.61-2.21,10-5.3,20.78-11.32-9.13-9.76-13.25-14.74-13.69-18.37a4.82,4.82,0,0,1,0-.65c0-1.87,1.3-3.61,3-3.61a8.54,8.54,0,0,1,4.4,1.76c5.85,3.94,13.1,13.33,15.73,16.12a118.89,118.89,0,0,1,15.68-3.4,34,34,0,0,1,3.86-.26l.87,0C626.67,289.12,628.47,289.84,628.47,291.57Z" transform="translate(-34.16 -187.7)"/><path class="cls-6" d="M625.4,296.93a17.56,17.56,0,0,1,2.43,8.44c0,5.72-3.74,10.18-8.88,13.2l-.6-1.06a3.09,3.09,0,0,0,1.95-2.74c0-3.28-5.57-7.47-8-9.14C615.37,304,621.63,300.59,625.4,296.93Z" transform="translate(-34.16 -187.7)"/><polygon class="cls-4" points="592.42 176.2 565.84 191.05 551.53 172.34 577.34 177.3 581.09 173.55 592.42 176.2"/><path class="cls-17" d="M494.12,449.67l-14.94,24.25-1,1.61c-1.57.11-3.16.24-4.75.39-.12-1.28-.24-2.54-.37-3.77C472,460.69,471,451,474,443.67l-19.57,28.86L450,449.69l-19.75,33c-2.44.53-4.89,1.1-7.37,1.71q-9.57,2.33-19.55,5.29l-.14.06c-12.7,5.61-20.53,6.56-33.69,6.1a221.69,221.69,0,0,0,20.9-25.64h0a220.08,220.08,0,0,0,23.72-44.77c30.56-3.49,62.72-6.22,92.2-7.42,45.78,10.44,81.62,19.71,117.35,29.63-1.43,15.92,1.52,32.26,6.8,51-5.43-1.69-10.82-3.33-16.21-4.92-9.73-2.87-19.41-5.55-29.14-7.93l-.19-.17c-11-9.94-20.6-17.24-28.27-31-.15,7.12-.37,13.74-.79,20-.11,1.67-.23,3.31-.38,4.93q-4.59-.79-9.21-1.46c-.08-.31-.15-.61-.23-.9a177.24,177.24,0,0,0-10.39-29.9,106.24,106.24,0,0,0-12,28.29c-1.31-.11-2.63-.2-3.95-.28q-11.07-.7-22.53-.6a249.41,249.41,0,0,1-2.85-25.41Z" transform="translate(-34.16 -187.7)"/><path class="cls-6" d="M618.35,317.51l.6,1.06a35.19,35.19,0,0,1-17.08,4.56,23,23,0,0,1-5.62-.63,46.87,46.87,0,0,1-15.41-6.76c7.57-2.05,14.88-6.83,22.49-6.83,5.13,0,9.71,6.51,13.92,9.09A7.09,7.09,0,0,0,618.35,317.51Z" transform="translate(-34.16 -187.7)"/><path class="cls-8" d="M603.52,559.72c-.16.21-.34.41-.52.61l.48,13.59c-9.34,10.42-20.05,19.88-32.18,26.82l.7-1.07-4.33,2.66c.81-2.25,1.59-4.47,2.33-6.64h0c2.81-8.21,5.16-15.92,7.1-23.35,7.43-28.44,9-52.88,8.22-86.34l-.2-.18c9.73,2.38,19.41,5.06,29.14,7.93,0,4.75-.11,9.5-.11,14.26q0,3.8.07,7.59C613.34,534.11,611.12,550.73,603.52,559.72Z" transform="translate(-34.16 -187.7)"/><path class="cls-6" d="M243.64,435h0q-.19-3.39-.2-6.78c0-11.44,1.4-13.4,1.4-17.66,0-.3,0-.61,0-.91-4.28,4.22-6.92,31.4-7.38,41.42-15-7.35-30.05-15.12-45.07-22.88,8-62.95,16.78-88,41.77-91.25,15.52,21.17,30.6,43.44,45.56,66,12.17,35.72,13.47,30,17,41.4l-.76.53c-1.67,1.15-3.34,2.3-5,3.49,5,1.44,14.21,3.68,24.71,6.09,2.61,22.07,33.74,88.29,45.71,108.35,12.58,32,30.62,63,51,72.86,2.09,6.51,4.27,11.91,10.69,13.75,5.63,13.69,12.7,24.8,21.13,33.46,1.46-4.15,1.8-9.39,1.35-16.15,8,5.45,16.76,11.33,33.93,14.18,4.05,5.93,7.46,11.93,11,15.51.14,3.66.38,8.16.72,13.15a76.78,76.78,0,0,0-8-3.69,1.2,1.2,0,0,0-.48,1c0,1.62,3.89,6,9.05,10.47.08,1,.17,2,.26,3h0c-5.57,5.09-10.19,10.28-12.17,13.69a5.17,5.17,0,0,0,.57,0c2.3,0,7-2.33,12.36-5.66.66,6.55,1.45,13.12,2.35,19.09-5.1-3-9.1-5.1-9.18-5.1-1.92,0-3.24,1-3.24,2.71,0,2.63,4.6,6.24,10.12,9.62-4.88,4.7-8.52,9.07-8.52,11.16,0,.62.38,1,1.29,1,4,0,8.47-5.3,11.42-7.67l.18-.14a43.94,43.94,0,0,0,3.18,10.26c2.68-1.69,3.6-4.88,3.79-8.42h0c4.19,2.08,7.32,3.46,7.35,3.47a13.14,13.14,0,0,0,4,.91c1,0,1.37-.36,1.37-.93,0-2.36-5.71-6.76-12.22-11,1.26-.93,2.52-1.85,3.8-2.76,3.91-2.8,9.61-6.86,9.61-11.71,0-.82-.27-1.46-1.1-1.46-2.14,0-7.64,3.53-13.54,8.15,0-.81,0-1.7,0-2.67,0-5.55.13-11.09.33-16.63h0c3.78,2.29,7.28,3.83,9.72,3.83a4,4,0,0,0,2.81-1c-1.35-3.08-5.17-6.68-9.85-10.14,7.61-5.78,13.82-11.41,13.82-13.14,0-.67-.43-1.19-1.47-1.47h0c-3.83.13-9,2.59-14.27,6.12.3-5.45.64-10.89,1-16.35a80.64,80.64,0,0,0,7.75-11.76c12.15-.72,24-2.79,33.94-6.16h0c-.17,8.19.16,17,.89,26.84,23.67-19.35,31.45-33.87,36-54.57h0a64.38,64.38,0,0,0,27.35,19.29l.94,16.61c3.39,30-7.25,57.5-13.36,77.48-11.18-8.77-8.71-27.36-15.38-38.95a31.43,31.43,0,0,0-.22,3.9c0,4.78.83,9.79,1.08,14.6L595,781s9.33,36.34,14.67,44.64h-2.43a184.57,184.57,0,0,0-22.43,1.16c-2-4.51-3.52-7.53-4.14-8-7.08-4.92-89.86,3.48-93.17,8-.53.73.23,2.93,1.66,6.63-27.68.73-53.44,4.64-69.48,12l6-46.13c5.79,7.61,10.6,16,15.93,24C436.87,810.81,432.4,798,427,785.85l-23-70.18V702.39a119.11,119.11,0,0,0,1.83-23.2c0-2.66,0-5.33-.07-8a16.09,16.09,0,0,0,.64-4.29,12.29,12.29,0,0,0-.08-1.47c-3.7,3.71-4.43,9.79-5.14,14.78-2.69-5.52-20.41-29.63-30.79-40h0c-8.08-14-16.47-28.19-23.74-39.93-5.34-8.6-10.07-15.88-13.64-20.73-14.42-15.58-41-42.7-52.67-72.5l-.25.08c-3.83-8-7.94-16.61-8.1-25.58h-.05a33.46,33.46,0,0,0-1,8.38,49.81,49.81,0,0,0,4,18.57c-5.16,1-10.43.74-13.58-2.77-9.83-11-11-31.59-14.33-50l-.93-.45c-.46-6.47-2.45-12.9-2.45-19.31C243.62,435.59,243.62,435.28,243.64,435Z" transform="translate(-34.16 -187.7)"/><path class="cls-6" d="M619.31,289.24a118.89,118.89,0,0,0-15.68,3.4c-2.63-2.79-9.88-12.18-15.73-16.12a23.17,23.17,0,0,1,4-.37C600,276.15,611.49,281.69,619.31,289.24Z" transform="translate(-34.16 -187.7)"/><path class="cls-8" d="M555.91,629.53q1-2.56,2.18-5.13a174.75,174.75,0,0,1,13.21-23.66c12.13-6.94,22.84-16.4,32.18-26.82L604,588.5c-1.48,12.15-3.24,22.12-6,30.63a61.81,61.81,0,0,1-11.58,21.58L585.33,642c-.41,2.21-.84,4.36-1.3,6.43-4.58,20.7-12.36,35.22-36,54.57-.73-9.8-1.06-18.65-.89-26.84a147.28,147.28,0,0,1,2.41-24.79A116.66,116.66,0,0,1,555.91,629.53Z" transform="translate(-34.16 -187.7)"/><path class="cls-18" d="M598.21,875.79a13.92,13.92,0,0,1-.71,3.88c-4.67,12.72-87.92,16.91-96.17,8.66-.35-.35-.52-1.63-.64-3.6-.35-5.42-.43-16.08-3.36-27.12a211,211,0,0,0-8.17-24.15c-1.43-3.7-2.19-5.9-1.66-6.63,3.31-4.52,86.09-12.92,93.17-8,.62.43,2.18,3.45,4.14,8C590.3,839.42,598.86,863.76,598.21,875.79Zm-17.87-.88c0-18.53-10.14-46.63-13.67-47h0c-8.37.39-39.6,1.58-40,1.58H525c-2.68,0-10.07-.14-10.07,2.49,0,3.59,2.67,1,7.44,19.88-4.31.35-8.61,1.35-8.61,4.27,0,2.2,3.34,4,6.21,4,.83,0,2.5-.15,4.18-.28,1.09,7.66.05,19.54,2.07,23.73C535,883.37,544.84,882,552,882c3.35,0,6.69.28,10,.28C569.79,882.23,580.34,882.17,580.34,874.91Z" transform="translate(-34.16 -187.7)"/><polygon class="cls-4" points="535.84 168.55 562.09 203.55 554.09 202.18 551.59 208.55 524.09 204.8 521.09 199.1 503.09 195.8 535.84 168.55"/><path class="cls-9" d="M599,761.81c-2.31,7.57-4,14.06-4,19.19l-10.55-39.64c-.25-4.81-1.08-9.82-1.08-14.6a31.43,31.43,0,0,1,.22-3.9C590.26,734.45,587.79,753,599,761.81Z" transform="translate(-34.16 -187.7)"/><path class="cls-1" d="M442,497.28c2.62,2.86,4.39,6.42,6.45,9.69.09-.28.17-.55.25-.82C451.11,518.84,460.61,543,472,543c7,0,14.21-7.74,14.21-19.32a34.64,34.64,0,0,0-1-7.81c-.14-3.88-.31-7.75-.38-11.63-8.65-8.25-15.57-12.93-24-12.93C455.46,491.32,449.47,493.21,442,497.28Zm39.83-22q7.77-.48,15.32-.55A194.52,194.52,0,0,0,504,501.33l26,13.34h.22l.95,26.84c7.43,8.71,13.1,14.58,21.75,17.42C561,554.17,570.06,545,575.83,536V502.67c-3.07-6.95-12.66-8.48-22.57-6.56a154.22,154.22,0,0,0,2.24-16.52c10,1.72,19.83,3.83,29.63,6.23l.2.18c.74,33.46-.79,57.9-8.22,86.34-5,10.54-17.71,19.36-31.48,26.58-9.17,4.8-18.81,8.9-27,12.33l-5.2,2.19c-2.84,1.2-5.41,2.3-7.58,3.31q-3.21-1.41-6.32-3-2.6-1.32-5.11-2.77a147.26,147.26,0,0,1-16.34-10.81c-16.69-12.57-28.75-26.49-32.58-32.17-3.65-5.43-13.63-51.22-13.63-51.22-.38-4.93-1.73-20.46-4.45-29.43l2.81-4.68a332.18,332.18,0,0,1,43.19-6.75c.2,2.09.39,4.22.56,6.41l4.19-6.8Zm46.49,96.65c0-.69,0-1.38,0-2.08-2.64-.23-5.2-.35-7.7-.35a74.2,74.2,0,0,0-27.26,5.17,20.71,20.71,0,0,0,1.5,4.9h0a23.7,23.7,0,0,0,5.51,7.69c3.51,3.27,7.91,5.35,12.3,5.35,6.35,0,13.2-4.71,15.13-14.75h0A31.1,31.1,0,0,0,528.35,571.94Z" transform="translate(-34.16 -187.7)"/><path class="cls-4" d="M547.33,1090l38,15.83a173,173,0,0,1-11.56,29.64c-2.51,2.75-5,5.47-7.52,8.1L578.33,1110l-26.61-12.33c9.66,7,12.28,29.5,11.26,49.32-4,4.09-7.77,7.88-11.26,11.1,0,0-2.33-25.3-6.72-40.86-6.56-23.23-51.15-63-82.81-104-29.83-38.62-41-131.6-58.75-171.16,3,2.2,6,4.63,9.17,7.31,3.94,3.37,8,7.13,12,11.3h0c2.33,9.15,4.84,20.19,7.88,24a14.46,14.46,0,0,0,8.87-4.19q2.53,3.43,5,7.1s-12.15-.22-12.72,1.42c-.94,2.69,31.16,31.17,31.16,31.17L448,937a98.9,98.9,0,0,0,17.32,15.56,39.59,39.59,0,0,0,12.26,5.94l-7.2,11L461,983.83S495.83,998,502.5,998l3.67,38.83s31.17,8,44.16,9.34C550.33,1053.83,547.33,1090,547.33,1090Zm-4.66-7.83,2.33-33-36.33-7.34C522.18,1054.44,530.68,1065.34,542.67,1082.17Zm-43-50.34-2.67-30.5c-7.37-1.05-20-5.63-32.5-10.5C466.28,996.46,485.93,1016.27,499.67,1031.83ZM459,978l10.17-16.67-21.09-16.66Zm-14.67-45,13.17-13.33-22-21.17Z" transform="translate(-34.16 -187.7)"/><path class="cls-5" d="M555.88,474.66c.42-6.25.64-12.87.79-20,7.67,13.74,17.24,21,28.27,31l.19.17c-9.8-2.4-19.65-4.51-29.63-6.23C555.65,478,555.77,476.33,555.88,474.66Z" transform="translate(-34.16 -187.7)"/><path class="cls-6" d="M580.55,279c.44,3.63,4.56,8.61,13.69,18.37-10.79,6-17.17,9.11-20.78,11.32a21.84,21.84,0,0,1-4.66-12.85C568.8,288.54,574,282.41,580.55,279Z" transform="translate(-34.16 -187.7)"/><path class="cls-6" d="M578.33,1110l-12.08,33.57c-1.09,1.15-2.18,2.3-3.27,3.42,1-19.82-1.6-42.34-11.26-49.32Z" transform="translate(-34.16 -187.7)"/><path class="cls-19" d="M575.83,520.21V536c-5.77,9-14.83,18.17-22.91,22.92-8.65-2.84-14.32-8.71-21.75-17.42l-.95-26.84L530,508.5c4.28-5.31,12.08-9.55,20.11-11.67q.46,2.69.91,5.51c-6.25,1.27-12.49,4-16,8.16v29.17s10.67,10.5,16.67,13.83c8.73-6.41,14.46-12.26,19.66-19.67a52.27,52.27,0,0,0,1.95-13.62Z" transform="translate(-34.16 -187.7)"/><path class="cls-19" d="M575.83,502.67v17.54h-2.55A32.85,32.85,0,0,0,570,505.33c-1.82-3.62-9.87-4.65-18.1-3.16h0c.52-2,1-4,1.37-6.06C563.17,494.19,572.76,495.72,575.83,502.67Z" transform="translate(-34.16 -187.7)"/><path class="cls-8" d="M566.67,827.87c3.53.41,13.67,28.51,13.67,47,0,7.26-10.55,7.32-18.31,7.32-3.35,0-6.69-.28-10-.28-7.15,0-17,1.42-25.75,1.61-2-4.19-1-16.07-2.07-23.73,1-.08,2-.14,2.83-.16,3.78-.09,19.14,0,19.75-4.76h0c-.83-2.29-9.73-3.26-17.79-3.26-1.68,0-4.12,0-6.56.18C517.62,833,515,835.54,515,832c0-2.63,7.39-2.49,10.07-2.49h1.64c.41,0,31.64-1.19,40-1.58Z" transform="translate(-34.16 -187.7)"/><path class="cls-16" d="M572,599.67l-.7,1.07a174.75,174.75,0,0,0-13.21,23.66c-3.78-3.93-7.08-9.82-7.08-15.2a11.14,11.14,0,0,1,.89-4.52c2.61-6,10.58-7.91,18.1-9-.74,2.17-1.52,4.39-2.33,6.64Z" transform="translate(-34.16 -187.7)"/><path class="cls-6" d="M573.28,520.21a52.27,52.27,0,0,1-1.95,13.62c-5.2,7.41-10.93,13.26-19.66,19.67-6-3.33-16.67-13.83-16.67-13.83V510.5c3.53-4.16,9.77-6.89,16-8.16.1.66.21,1.32.31,2,.2-.72.39-1.44.56-2.16h0c8.23-1.49,16.28-.46,18.1,3.16A32.85,32.85,0,0,1,573.28,520.21Zm-4.76,1.7h0c-.11-1.11-1.66-1.44-3.55-1.44a58.89,58.89,0,0,0-6.74.71c0-1.52.24-3.63.24-5.79,0-3.26-.79-8.63-4.05-8.63-2.46,0-2.59,4-2.59,6.44,0,3.67.49,8,.49,9.64-3.78.6-13.48,1.78-13.48,5.29,0,1.22,1.19,1.66,2.85,1.66a27.08,27.08,0,0,0,10-2.62c-.28,3.32-1.1,7.31-1.1,11,0,2.85.63,7.52,3.46,7.52,3.71,0,4-13.42,4-17.15,0-.23,0-.45,0-.68C561.81,527.13,567.29,526.13,568.52,521.91Z" transform="translate(-34.16 -187.7)"/><path class="cls-20" d="M568.53,521.9h0c-1.23,4.22-6.71,5.22-10.44,5.94,0,.23,0,.45,0,.68,0,3.73-.31,17.15-4,17.15-2.83,0-3.46-4.67-3.46-7.52,0-3.69.82-7.68,1.1-11a27.08,27.08,0,0,1-10,2.62c-1.66,0-2.85-.44-2.85-1.66,0-3.51,9.7-4.69,13.48-5.29,0-1.64-.49-6-.49-9.64,0-2.43.13-6.44,2.59-6.44,3.26,0,4.05,5.37,4.05,8.63,0,2.16-.2,4.27-.24,5.79a58.89,58.89,0,0,1,6.74-.71C566.87,520.46,568.42,520.79,568.53,521.9Z" transform="translate(-34.16 -187.7)"/><polygon class="cls-6" points="534.37 161.3 530.68 163.82 513.84 161.55 509.84 167.3 484.59 163.03 481.59 158.3 477.16 157.99 473.84 154.05 483.59 154.05 486.83 160.05 507.31 162.55 510.34 157.55 534.37 161.3"/><polygon class="cls-4" points="530.68 163.82 499.84 184.92 477.16 157.99 481.59 158.3 484.59 163.03 509.84 167.3 513.84 161.55 530.68 163.82"/><path class="cls-5" d="M549,628.27c-6.88,5.28-15.54,4.44-22.5,7.76h0c-9.72,1.41-19.74,11.25-25.87,11.25-10.23,0-8.4-14.43-30.57-18.77h0a34.53,34.53,0,0,1-10.95-6.45,16.16,16.16,0,0,1-8-3.67,47,47,0,0,0,13.66-16.63c4.35.48,8.61,1,12.92,1.92-.45,3.43-.85,6.87-1.07,10.32,5.86,3.2,11.12,7.27,17.57,9-.05.93-.12,1.86-.23,2.79a26.45,26.45,0,0,0,15.41,5.09,29.38,29.38,0,0,0,9.75-1.75,37,37,0,0,0,.67-7.14c0-.38,0-.75,0-1.13h0c.87.06,1.75.1,2.63.1,7.64,0,24.44-4.26,24.44-12.43a35.86,35.86,0,0,0-.29-4.25h0c1.8,0,3.6.2,5.41.36a11.14,11.14,0,0,0-.89,4.52c0,5.38,3.3,11.27,7.08,15.2q-1.15,2.57-2.18,5.13a26,26,0,0,0-6.94-1.25Z" transform="translate(-34.16 -187.7)"/><path class="cls-8" d="M550.11,496.83c-1.15-6.75-2.39-12.88-3.82-18.7q4.62.66,9.21,1.46a154.22,154.22,0,0,1-2.24,16.52c-.4,2.05-.85,4.07-1.37,6.06-.17.72-.36,1.44-.56,2.16-.1-.67-.21-1.33-.31-2Q550.57,499.52,550.11,496.83Z" transform="translate(-34.16 -187.7)"/><path class="cls-6" d="M545,1117.23c4.39,15.56,6.72,40.86,6.72,40.86-6.56,6.05-12,10.1-15.22,10.41,3.26-8.83,2.51-18.29,0-30.73.29-.49.56-1,.82-1.52-4.14-20-19.68-31.41-73.79-100.73h0c-6.49-10.61-11.12-13.71-15.47-16.74-8.83-6.14-16.53-12-36.17-79.16h0c-2-6.85-4.13-14.33-6.39-22.52-4.56-16.52-9.61-32.71-13.35-49.43-.11-.5-.23-1-.35-1.48h0c-4.59-19-13.95-30.71-24-40.79a11.16,11.16,0,0,1,1.88-.16c4.68,0,17.86,5.09,33.77,16.88,17.71,39.56,28.92,132.54,58.75,171.16C493.85,1054.25,538.44,1094,545,1117.23Z" transform="translate(-34.16 -187.7)"/><path class="cls-1" d="M470,628.51c22.17,4.34,20.34,18.77,30.57,18.77,6.13,0,16.15-9.84,25.87-11.25h0c7-3.32,15.62-2.48,22.5-7.76h0a26,26,0,0,1,6.94,1.25,116.66,116.66,0,0,0-6.39,21.84c-12.06,5.94-22.79,8.24-38,8.24l-3.18,0c-5.76,7.44-9.85,15.29-13.3,15.29s-4.49-8.23-10-17.47c-21.84-4-33.37-12.45-40.92-18.11,1-4.41.82-9.65-.59-16.32a43.49,43.49,0,0,0,7.57-4.59h0a16.16,16.16,0,0,0,8,3.67A34.53,34.53,0,0,0,470,628.51Z" transform="translate(-34.16 -187.7)"/><path class="cls-4" d="M549.52,651.37a147.28,147.28,0,0,0-2.41,24.79h0c-9.9,3.37-21.79,5.44-33.94,6.16a80.64,80.64,0,0,1-7.75,11.76c-2.8,3.34-5.72,5.61-8.63,5.61-2.25,0-4.32-1.26-6.35-3.32-3.52-3.58-6.93-9.58-11-15.51-17.17-2.85-25.93-8.73-33.93-14.18-.41-6.22-1.5-13.73-3-22.85A21.58,21.58,0,0,0,444,639.3c7.55,5.66,19.08,14.13,40.92,18.11,5.55,9.24,6.7,17.47,10,17.47s7.54-7.85,13.3-15.29l3.18,0C526.73,659.61,537.46,657.31,549.52,651.37Z" transform="translate(-34.16 -187.7)"/><path class="cls-18" d="M546.74,854.91h0c-.61,4.75-16,4.67-19.75,4.76-.82,0-1.82.08-2.83.16-1.68.13-3.35.28-4.18.28-2.87,0-6.21-1.81-6.21-4,0-2.92,4.3-3.92,8.61-4.27,2.44-.2,4.88-.18,6.56-.18C537,851.65,545.91,852.62,546.74,854.91Z" transform="translate(-34.16 -187.7)"/><path class="cls-21" d="M546.48,604.32a35.86,35.86,0,0,1,.29,4.25c0,8.17-16.8,12.43-24.44,12.43-.88,0-1.76,0-2.63-.1h0a70.72,70.72,0,0,0-1-9.65c8.17-3.43,17.81-7.53,27-12.33C546,600.61,546.27,602.48,546.48,604.32Z" transform="translate(-34.16 -187.7)"/><path class="cls-1" d="M544.5,477.87l1.79.26c1.43,5.82,2.67,11.95,3.82,18.7-8,2.12-15.83,6.36-20.11,11.67l.22,6.16H530L521.67,484l.12-.59c.6-2.75,1.21-5.33,1.87-7.79C530.7,476.14,537.64,476.91,544.5,477.87Z" transform="translate(-34.16 -187.7)"/><path class="cls-5" d="M535.67,447.33a177.24,177.24,0,0,1,10.39,29.9c-.52.2-1,.42-1.56.64-6.86-1-13.8-1.73-20.84-2.25A106.24,106.24,0,0,1,535.67,447.33Z" transform="translate(-34.16 -187.7)"/><path class="cls-6" d="M545,1049.17l-2.33,33c-12-16.83-20.49-27.73-34-40.34Z" transform="translate(-34.16 -187.7)"/><path class="cls-9" d="M536.52,1137.77c2.49,12.44,3.24,21.9,0,30.73-4.77.47-22.5-12.5-22.5-12.5l-.69.45-.06-.1C520.53,1149.92,530.55,1148.16,536.52,1137.77Z" transform="translate(-34.16 -187.7)"/><path class="cls-5" d="M537.34,1136.25c-.26.53-.53,1-.82,1.52-6,10.39-16,12.15-23.27,18.58l.06.1q-6.69,4.33-13.33,8.67c-1.14-49.44-37.27-82.11-75.59-95.78,1.68-1.86,3.38-3.72,5.13-5.57a200,200,0,0,1,33.47-29c.19.24.37.48.56.71h0C517.66,1104.84,533.2,1116.25,537.34,1136.25Z" transform="translate(-34.16 -187.7)"/><path class="cls-9" d="M494.43,952.89c18,0,61.81-12,74.41-13-22.88,19-52.18,27.53-77.07,43.26a48.76,48.76,0,0,1-21.39-13.61l7.2-11a39.59,39.59,0,0,1-12.26-5.94c2.1-9.46,4-19.45,7.12-28.58C478.43,934.91,479.5,952.89,494.43,952.89Z" transform="translate(-34.16 -187.7)"/><polygon class="cls-4" points="470.84 161.55 497.84 196.05 490.34 194.66 486.83 200.74 459.59 198.84 456.59 194.66 443.43 193.93 466.59 161.55 470.84 161.55"/><path class="cls-8" d="M521.67,484,530,514.67l-26-13.34a194.52,194.52,0,0,1-6.82-26.59q11.47-.12,22.53.6c.62,2.73,1.33,5.43,2.08,8.07Z" transform="translate(-34.16 -187.7)"/><path class="cls-20" d="M528.31,569.86c0,.7,0,1.39,0,2.08a31.1,31.1,0,0,1-.54,5.93h0c-3.9-.16-7.8-.36-11.71-.36a96.27,96.27,0,0,0-10.22.55c-3.58.37-7.1.91-11,1.52h0a20.71,20.71,0,0,1-1.5-4.9,74.2,74.2,0,0,1,27.26-5.17C523.11,569.51,525.67,569.63,528.31,569.86Z" transform="translate(-34.16 -187.7)"/><path class="cls-22" d="M527.8,577.87c-1.93,10-8.78,14.75-15.13,14.75-4.39,0-8.79-2.08-12.3-5.35a23.23,23.23,0,0,1,5.5-9.21,96.27,96.27,0,0,1,10.22-.55C520,577.51,523.9,577.71,527.8,577.87Z" transform="translate(-34.16 -187.7)"/><path class="cls-8" d="M523.66,475.62c-.66,2.46-1.27,5-1.87,7.79-.75-2.64-1.46-5.34-2.08-8.07C521,475.42,522.35,475.51,523.66,475.62Z" transform="translate(-34.16 -187.7)"/><path class="cls-23" d="M519.69,620.9c0,.38,0,.75,0,1.13a37,37,0,0,1-.67,7.14,29.38,29.38,0,0,1-9.75,1.75,26.45,26.45,0,0,1-15.41-5.09c.11-.93.18-1.86.23-2.79.22-4,0-8,.32-12h0q2.52,1.46,5.11,2.77c-.11,2.11-.25,4.21-.25,6.31a33.15,33.15,0,0,0,.23,4.1c4.16.42,8.1,1.26,12.24,1.26.67,0,1.34,0,2-.07-.06-4-.15-7.93-.34-11.91l5.2-2.19A70.72,70.72,0,0,1,519.69,620.9Z" transform="translate(-34.16 -187.7)"/><path class="cls-24" d="M504.45,710.43c5.31-3.53,10.44-6,14.27-6.12h0c1,.28,1.47.8,1.47,1.47,0,1.73-6.21,7.36-13.82,13.14-2.1,1.6-4.31,3.21-6.52,4.76-2.4,1.67-4.81,3.26-7.09,4.68C487.39,731.7,482.7,734,480.4,734a5.17,5.17,0,0,1-.57,0c2-3.41,6.6-8.6,12.17-13.69h0c.52-.47,1.05-.95,1.59-1.42,1.83-1.62,3.74-3.21,5.68-4.71h0C501,712.84,502.73,711.58,504.45,710.43Z" transform="translate(-34.16 -187.7)"/><path class="cls-24" d="M516.92,737.36c.83,0,1.1.64,1.1,1.46,0,4.85-5.7,8.91-9.61,11.71-1.28.91-2.54,1.83-3.8,2.76-2-1.3-4.07-2.59-6.08-3.8,1.61-1.38,3.24-2.72,4.85-4C509.28,740.89,514.78,737.36,516.92,737.36Z" transform="translate(-34.16 -187.7)"/><path class="cls-24" d="M516.83,764.31c0,.57-.4.93-1.37.93a13.14,13.14,0,0,1-4-.91s-3.16-1.39-7.35-3.47c-1.75-.86-3.67-1.85-5.63-2.9l-1.77-1c-1.33-.74-2.66-1.51-3.94-2.29-5.52-3.38-10.12-7-10.12-9.62,0-1.66,1.32-2.71,3.24-2.71.08,0,4.08,2.12,9.18,5.1,1.1.64,2.24,1.32,3.42,2,2,1.21,4.08,2.5,6.08,3.8C511.12,757.55,516.83,762,516.83,764.31Z" transform="translate(-34.16 -187.7)"/><path class="cls-24" d="M516.22,729.07a4,4,0,0,1-2.81,1c-2.44,0-5.94-1.54-9.72-3.83-1.26-.76-2.55-1.6-3.84-2.51,2.21-1.55,4.42-3.16,6.52-4.76C511.05,722.39,514.87,726,516.22,729.07Z" transform="translate(-34.16 -187.7)"/><path class="cls-21" d="M513.45,613.44c.19,4,.28,8,.34,11.91-.68,0-1.35.07-2,.07-4.14,0-8.08-.84-12.24-1.26a33.15,33.15,0,0,1-.23-4.1c0-2.1.14-4.2.25-6.31q3.1,1.59,6.32,3C508,615.74,510.61,614.64,513.45,613.44Z" transform="translate(-34.16 -187.7)"/><path class="cls-25" d="M494.86,579.58c3.91-.61,7.43-1.15,11-1.52a23.23,23.23,0,0,0-5.5,9.21A23.7,23.7,0,0,1,494.86,579.58Z" transform="translate(-34.16 -187.7)"/><path class="cls-20" d="M496.78,699.69c2.91,0,5.83-2.27,8.63-5.61-.32,5.46-.66,10.9-1,16.35-1.72,1.15-3.45,2.41-5.17,3.74h0c-2.77-1.72-5.56-3.3-8.12-4.64h0c-.34-5-.58-9.49-.72-13.15C492.46,698.43,494.53,699.69,496.78,699.69Z" transform="translate(-34.16 -187.7)"/><path class="cls-20" d="M504.15,760.86h0c-.19,3.54-1.11,6.73-3.79,8.42A43.94,43.94,0,0,1,497.18,759l1.34-1.07C500.48,759,502.4,760,504.15,760.86Z" transform="translate(-34.16 -187.7)"/><path class="cls-20" d="M503.69,726.2h0c-.2,5.54-.33,11.08-.33,16.63,0,1,0,1.86,0,2.67-1.61,1.26-3.24,2.6-4.85,4-1.18-.71-2.32-1.39-3.42-2-.9-6-1.69-12.54-2.35-19.09,2.28-1.42,4.69-3,7.09-4.68C501.14,724.6,502.43,725.44,503.69,726.2Z" transform="translate(-34.16 -187.7)"/><path class="cls-8" d="M419.68,845.48c16-7.38,41.8-11.29,69.48-12a211,211,0,0,1,8.17,24.15c2.93,11,3,21.7,3.36,27.12A294.09,294.09,0,0,0,448,890c-.53-.82-1.07-1.62-1.61-2.42q-2.47-3.68-5-7.1a192.67,192.67,0,0,0-16.75-19.77h0c-4.05-4.17-8.07-7.93-12-11.3A50.79,50.79,0,0,1,419.68,845.48Z" transform="translate(-34.16 -187.7)"/><path class="cls-6" d="M497,1001.33l2.67,30.5c-13.74-15.56-33.39-35.37-35.17-41C477,995.7,489.63,1000.28,497,1001.33Z" transform="translate(-34.16 -187.7)"/><polygon class="cls-6" points="464.34 154.05 460.9 158.3 455.59 158.3 449.84 165.9 418.88 167.76 411.84 159.8 415.09 158.3 420.84 162.55 446.59 161.55 452.59 154.05 464.34 154.05"/><path class="cls-24" d="M499.27,714.17c-1.94,1.5-3.85,3.09-5.68,4.71-.63-.52-1.25-1-1.85-1.57-5.16-4.5-9.05-8.85-9.05-10.47a1.2,1.2,0,0,1,.48-1,76.78,76.78,0,0,1,8,3.69h0C493.71,710.87,496.5,712.45,499.27,714.17Z" transform="translate(-34.16 -187.7)"/><path class="cls-5" d="M494.12,449.67l.21-.34a249.41,249.41,0,0,0,2.85,25.41q-7.56.08-15.32.55a21.83,21.83,0,0,0-2.68-1.37Z" transform="translate(-34.16 -187.7)"/><path class="cls-24" d="M497.18,759l-.18.14c-2.95,2.37-7.44,7.67-11.42,7.67-.91,0-1.29-.37-1.29-1,0-2.09,3.64-6.46,8.52-11.16,1.28.78,2.61,1.55,3.94,2.29C496.89,757.68,497,758.37,497.18,759Z" transform="translate(-34.16 -187.7)"/><path class="cls-6" d="M431.43,323.73h0c5.8-1,23-17.23,27.81-21.23a100,100,0,0,1,15.77,20c2.59-1.92,5.06-4,7.77-5.73-2.34-8.45-9.19-14.58-15.55-20.33,1.59-.82,24.13-13.88,24.13-16,0-1.49-2.72-2.5-4.36-2.5-6.83,0-19.11,11.39-24.48,15.6-4.73-5.65-7.62-9.82-11.38-9.82-1.8,0-3.79.95-6.28,3.13a34.65,34.65,0,0,0,3.82,4.48l-1.94,1.34c-4.47,5.05-8.3,10.43-10.15,17l1.71,1.94c-4.46,3.92-8,7.8-8,10.42a2.34,2.34,0,0,0,.44,1.41h0C431,323.6,431.23,323.63,431.43,323.73ZM477.56,269c14.47,0,22.78,10.43,22.78,24.5,0,32.48-36.76,44.62-52.84,44.62-14.39,0-20.21-7.14-23.69-17.54l.52-1.27c2.42-17.61,11.92-32.72,31.34-44.33.8-.68,1.63-1.36,2.47-2.06C464.8,270.85,472.34,269,477.56,269Z" transform="translate(-34.16 -187.7)"/><polygon class="cls-4" points="460.9 158.3 436.84 188.05 418.88 167.76 449.84 165.9 455.59 158.3 460.9 158.3"/><path class="cls-21" d="M477.61,603.68l.48-3.5h0A147.26,147.26,0,0,0,494.44,611h0c-.28,4-.1,8-.32,12-6.45-1.77-11.71-5.84-17.57-9C476.76,610.55,477.16,607.11,477.61,603.68Z" transform="translate(-34.16 -187.7)"/><path class="cls-4" d="M487,278c1.64,0,4.36,1,4.36,2.5,0,2.08-22.54,15.14-24.13,16,6.36,5.75,13.21,11.88,15.55,20.33-2.71,1.76-5.18,3.81-7.77,5.73a100,100,0,0,0-15.77-20c-4.83,4-22,20.27-27.81,21.23h0c-.2-.1-.46-.13-.67-.24h0a2.34,2.34,0,0,1-.44-1.41c0-2.62,3.51-6.5,8-10.42,6.52-5.72,15.08-11.53,17.69-13.66-2.42-2.16-5-4.27-7.31-6.59a34.65,34.65,0,0,1-3.82-4.48c2.49-2.18,4.48-3.13,6.28-3.13,3.76,0,6.65,4.17,11.38,9.82C467.9,289.41,480.18,278,487,278Z" transform="translate(-34.16 -187.7)"/><path class="cls-20" d="M485.23,515.88a34.64,34.64,0,0,1,1,7.81C486.2,535.27,479,543,472,543c-11.38,0-20.88-24.17-23.26-36.86a10.5,10.5,0,0,1,2.45-4.73c2,0,4-.08,6.1-.08,1.45,0,2.8,0,4,.12,0,1,.08,2.06.14,3.11-2,.62-3.62,2-3.62,3.38,0,1.62,2.35,2.89,4.52,3.57.4,9.36,4.75,26.31,11.2,26.31s8.27-14.8,9.13-23.54a32.52,32.52,0,0,0,2.57,2.53Z" transform="translate(-34.16 -187.7)"/><path d="M485.23,515.88l0,.94a32.52,32.52,0,0,1-2.57-2.53c-5.65-6.15-7.38-11.92-21.37-12.83-1.24-.08-2.59-.12-4-.12-2.08,0-4.13.06-6.1.08a10.5,10.5,0,0,0-2.45,4.73c-.08.27-.16.54-.25.82-2.06-3.27-3.83-6.83-6.45-9.69,7.44-4.07,13.43-6,18.8-6,8.45,0,15.37,4.68,24,12.93C484.92,508.13,485.09,512,485.23,515.88Z" transform="translate(-34.16 -187.7)"/><path class="cls-26" d="M482.69,514.29c-.86,8.74-2.81,23.54-9.13,23.54s-10.8-17-11.2-26.31a10.76,10.76,0,0,0,2.88.54,2.66,2.66,0,0,0,1.68-.48,4.09,4.09,0,0,0,1.21-3.14,4,4,0,0,0-4.34-4.25,7.73,7.73,0,0,0-2.33.38c-.06-1.05-.11-2.08-.14-3.11C475.31,502.37,477,508.14,482.69,514.29Zm-9.2,22.43c3,0,5.47-4.62,5.89-9.45a12,12,0,0,1-4.33.78,13.25,13.25,0,0,1-8.51-3C467.2,530.55,469.69,536.72,473.49,536.72Zm-1.29-14.39c1.77,0,3.18-2.59,3.18-4.61,0-2.67-1.52-5.82-3.33-5.82-.74,0-1.52.52-2.27,1.81a5,5,0,0,0-.6,2.52C469.18,518.33,470,522.33,472.2,522.33Z" transform="translate(-34.16 -187.7)"/><path class="cls-8" d="M478.19,475.53l-4.19,6.8c-.17-2.19-.36-4.32-.56-6.41C475,475.77,476.62,475.64,478.19,475.53Z" transform="translate(-34.16 -187.7)"/><path class="cls-6" d="M479.38,527.27c-.42,4.83-2.86,9.45-5.89,9.45-3.8,0-6.29-6.17-6.95-11.7a13.25,13.25,0,0,0,8.51,3A12,12,0,0,0,479.38,527.27Z" transform="translate(-34.16 -187.7)"/><path class="cls-27" d="M408.84,1087.49c4.87-5.84,10-12,15.55-18.15,38.32,13.67,74.45,46.34,75.59,95.78-46.64,30.51-91.13,61.33-129.48,92.38-3.25,63.75-58.75,181.25-62.5,226.5l-47.25-21.5-12.42,4.5s31.17-174,24-203c-15.57-63,75.92-109.75,111.34-148.67l-.37,0C391.58,1108.24,399.75,1098.39,408.84,1087.49Z" transform="translate(-34.16 -187.7)"/><polygon class="cls-6" points="442.09 195.8 442.41 198.54 420.59 201.05 418.84 206.55 388.88 209.3 386.34 203.55 392.84 203.55 415.59 202.63 417.34 196.05 431.98 194.66 433.31 196.05 442.09 195.8"/><path class="cls-28" d="M475.38,517.72c0,2-1.41,4.61-3.18,4.61-2.23,0-3-4-3-6.1a5,5,0,0,1,.6-2.52c.75-1.29,1.53-1.81,2.27-1.81C473.86,511.9,475.38,515.05,475.38,517.72Z" transform="translate(-34.16 -187.7)"/><path class="cls-5" d="M454.43,472.53,474,443.67c-3,7.29-2.05,17-.93,28.48a39.35,39.35,0,0,0-6.75-.53A99.74,99.74,0,0,0,454.43,472.53Z" transform="translate(-34.16 -187.7)"/><path class="cls-5" d="M473.07,472.15c.13,1.23.25,2.49.37,3.77a332.18,332.18,0,0,0-43.19,6.75l19.75-33,4.43,22.84a99.74,99.74,0,0,1,11.89-.91A39.35,39.35,0,0,1,473.07,472.15Z" transform="translate(-34.16 -187.7)"/><polygon class="cls-6" points="435.01 773.63 424.84 790.3 413.92 756.97 435.01 773.63"/><path class="cls-20" d="M463.79,504.19a4,4,0,0,1,4.34,4.25,4.09,4.09,0,0,1-1.21,3.14,2.66,2.66,0,0,1-1.68.48,10.76,10.76,0,0,1-2.88-.54c-2.17-.68-4.52-1.95-4.52-3.57,0-1.42,1.64-2.76,3.62-3.38A7.73,7.73,0,0,1,463.79,504.19Z" transform="translate(-34.16 -187.7)"/><polygon class="cls-4" points="407.84 169.3 431.98 194.66 417.34 196.05 415.59 202.63 392.84 203.55 407.84 169.3"/><path class="cls-16" d="M465.69,599.66c-.32.71-.65,1.41-1,2.1A47,47,0,0,1,451,618.39h0a43.49,43.49,0,0,1-7.57,4.59c-.5-2.38-1.15-4.94-2-7.71-.15-.53-.31-1.06-.48-1.6l3,3.33s-1.54-5.22-3.58-13.47c4-2.81,8-5.53,12.19-8,.8-.48,1.6-.94,2.4-1.39A50.24,50.24,0,0,1,465.69,599.66Z" transform="translate(-34.16 -187.7)"/><path class="cls-9" d="M463.55,1035.51c-.19-.23-.37-.47-.56-.71a200,200,0,0,0-33.47,29c-13.2-18-22.86-37.06-28-58.61,14.43,7.9,30,13.39,46.59,13.61C452.43,1021.8,457.06,1024.9,463.55,1035.51Z" transform="translate(-34.16 -187.7)"/><polygon class="cls-6" points="423.34 731.97 410.17 745.3 401.34 710.8 423.34 731.97"/><path class="cls-15" d="M452.61,595.53h0c-4.18,2.46-8.23,5.18-12.19,8-1.58-6.34-3.45-14.49-5.15-23.41C441.61,584.61,446.85,590,452.61,595.53Z" transform="translate(-34.16 -187.7)"/><path class="cls-6" d="M448.69,291.41c2.32,2.32,4.89,4.43,7.31,6.59-2.61,2.13-11.17,7.94-17.69,13.66l-1.71-1.94c1.85-6.54,5.68-11.92,10.15-17Z" transform="translate(-34.16 -187.7)"/><path class="cls-8" d="M445.52,666.68c.45,6.76.11,12-1.35,16.15-8.43-8.66-15.5-19.77-21.13-33.46-5.45-13.27-9.55-29-12.22-47.22a375.16,375.16,0,0,1-3.62-47q-.17-7.77-.07-16c-.19-.67-.37-1.34-.54-2a38.89,38.89,0,0,0,4.06,5.09c1.75,30.76,10.68,38.81,30.83,73,.82,2.77,1.47,5.33,2,7.71,1.41,6.67,1.58,11.91.59,16.32a21.58,21.58,0,0,1-1.54,4.53C444,653,445.11,660.46,445.52,666.68Z" transform="translate(-34.16 -187.7)"/><path class="cls-8" d="M410.65,542.27a38.89,38.89,0,0,1-4.06-5.09h0c-4.19-15.78-3.69-28.32-3.25-47.5q10-3,19.55-5.29c-.9,5-1.64,9.95-2.27,14.95a90.27,90.27,0,0,1,6.83-12c2.72,9,4.07,24.5,4.45,29.43l.11,1.55c-3.67,16.52-.66,41.23,3.27,61.79,1.7,8.92,3.57,17.07,5.15,23.41,2,8.25,3.58,13.47,3.58,13.47l-3-3.33c.17.54.33,1.07.48,1.6C421.33,581.08,412.4,573,410.65,542.27Z" transform="translate(-34.16 -187.7)"/><path class="cls-29" d="M411.91,939.61c19.64,67.18,27.34,73,36.17,79.16-16.55-.22-32.16-5.71-46.59-13.61-1.48-.81-3-1.65-4.42-2.51-5.94-3.5-11.66-7.38-17.16-11.41.53-4,1.24-9.71,2-16.62C392.72,967.24,406.9,955.05,411.91,939.61Z" transform="translate(-34.16 -187.7)"/><polygon class="cls-6" points="403.84 161.3 401.54 165.9 391.34 168.3 386.59 175.55 376.5 177.46 373.51 172.3 385.59 169.05 389.09 162.55 403.84 161.3"/><path class="cls-6" d="M441.37,880.48a14.46,14.46,0,0,1-8.87,4.19c-3-3.77-5.55-14.81-7.88-24A192.67,192.67,0,0,1,441.37,880.48Z" transform="translate(-34.16 -187.7)"/><path class="cls-9" d="M427,785.85c5.44,12.19,9.91,25,14.69,37.47-5.33-8-10.14-16.36-15.93-24L427.33,787Z" transform="translate(-34.16 -187.7)"/><polygon class="cls-4" points="401.54 165.9 386.84 195.3 376.5 177.46 386.59 175.55 391.34 168.3 401.54 165.9"/><path class="cls-8" d="M430.25,482.67l-2.81,4.68a90.27,90.27,0,0,0-6.83,12c.63-5,1.37-10,2.27-14.95C425.36,483.77,427.81,483.2,430.25,482.67Z" transform="translate(-34.16 -187.7)"/><path class="cls-8" d="M427,785.85l.37,1.15-1.61,12.35-6,46.13a50.79,50.79,0,0,0-7.07,3.92c-3.13-2.68-6.2-5.11-9.17-7.31-15.91-11.79-29.09-16.88-33.77-16.88a11.16,11.16,0,0,0-1.88.16h0c-3.4-3.39-6.87-6.6-10.28-9.82-2.64-2.51-5.24-5-7.72-7.66-3.15-69.56-7.45-168.89-3.15-207.66h0c7.27,11.74,15.66,26,23.74,39.93h0c17.54,30.34,33.61,59.5,33.61,59.5v16Z" transform="translate(-34.16 -187.7)"/><path class="cls-8" d="M397.07,1002.65c1.46.86,2.94,1.7,4.42,2.51,5.17,21.55,14.83,40.66,28,58.61-1.75,1.85-3.45,3.71-5.13,5.57-5.55,6.17-10.68,12.31-15.55,18.15-20.26-1.53-44.81-2.15-62.38-11.68-1.88,5-4.36,9.82-8.14,13.61a71.32,71.32,0,0,1-1.3-14.79c0-15,1.56-16.52,1.56-40.55,0-10-.21-20.12-.21-30.21,0-14.86.46-29.7,2.71-44.31,8.17,6.63,17.4,14.84,27.57,23,3.64,2.92,7.39,5.84,11.26,8.67C385.41,995.27,391.13,999.15,397.07,1002.65Z" transform="translate(-34.16 -187.7)"/><path class="cls-6" d="M417.44,386.54l3.06,4.71-23.83,4.42c-3.38-2.32-3.79-4.69,1-5.34Z" transform="translate(-34.16 -187.7)"/><polygon class="cls-4" points="383.28 198.84 363.51 202.63 371.04 180.03 383.28 198.84"/><path class="cls-16" d="M380.74,529.4c2.36,18.73,5.12,50.1,30.08,72.75,2.67,18.25,6.77,34,12.22,47.22-6.42-1.84-8.6-7.24-10.69-13.75-20.38-9.88-38.42-40.91-51-72.86-11.47-29.15-18.4-59.07-18.4-74.38,0-1.07,0-2.14.05-3.21-1.41-1.87-2.8-3.71-4.16-5.54a7.47,7.47,0,0,1,4.47-1.56c6.49,0,28.77,28.93,34.17,37.25C379.14,517.87,379.91,522.86,380.74,529.4Z" transform="translate(-34.16 -187.7)"/><path class="cls-29" d="M411.91,939.6h0c-5,15.44-19.19,27.63-30,35,3.18-27.5,7.76-73.65,8.46-101.85q.73-3.24,1.41-6.6c.12.49.24,1,.35,1.48,3.74,16.72,8.79,32.91,13.35,49.43C407.78,925.27,409.91,932.75,411.91,939.6Z" transform="translate(-34.16 -187.7)"/><path class="cls-15" d="M407.2,555.13a375.16,375.16,0,0,0,3.62,47c-25-22.65-27.72-54-30.08-72.75,9.08,8.25,16.66,18.52,26.45,25.73Z" transform="translate(-34.16 -187.7)"/><path class="cls-9" d="M405.76,671.17c0,2.69.07,5.36.07,8a119.11,119.11,0,0,1-1.83,23.2v-2.72s-16.07-29.16-33.61-59.5c10.38,10.39,28.1,34.5,30.79,40,.71-5,1.44-11.07,5.14-14.78a12.29,12.29,0,0,1,.08,1.47A16.09,16.09,0,0,1,405.76,671.17Z" transform="translate(-34.16 -187.7)"/><path class="cls-12" d="M414.13,425.42a220.08,220.08,0,0,1-23.72,44.77h0c-1.75-.19-3.48-.38-5.23-.71-3.82-.71-8.76-1.75-15.67-3.22s-27.65-5.91-46.62-10.2l-7.24-1.65c-10.5-2.41-19.72-4.65-24.71-6.09,1.62-1.19,3.29-2.34,5-3.49,2.58-.48,5.15-1,7.72-1.63C328.15,437.23,369.44,430.51,414.13,425.42Z" transform="translate(-34.16 -187.7)"/><path class="cls-20" d="M391.82,866.16h0q-.68,3.36-1.41,6.6A218.27,218.27,0,0,1,379.11,909l-2.36-1c.46-18-3.82-63.5-19.25-92.45,3.41,3.22,6.88,6.43,10.28,9.82h0C377.87,835.45,387.23,847.18,391.82,866.16Z" transform="translate(-34.16 -187.7)"/><path class="cls-20" d="M390.41,872.77c-.7,28.2-5.28,74.35-8.46,101.85a113.52,113.52,0,0,1-13.3,8c-10.17-8.17-19.4-16.38-27.57-23,15.21-10.59,28.2-27.08,38-50.56A218.27,218.27,0,0,0,390.41,872.77Z" transform="translate(-34.16 -187.7)"/><path class="cls-7" d="M408.84,1087.49c-9.09,10.9-17.26,20.75-25.54,27.8-14.63-1.67-29.54-3.47-47.63-6.62,0,0-9.68,29.36-13.34,29.66-11.76,1,4.72-124.18,7-187.58h0a145.19,145.19,0,0,1,11.78,8.81c-2.25,14.61-2.71,29.45-2.71,44.31,0,10.09.21,20.18.21,30.21,0,24-1.56,25.6-1.56,40.55a71.32,71.32,0,0,0,1.3,14.79c3.78-3.79,6.26-8.63,8.14-13.61C364,1085.34,388.58,1086,408.84,1087.49Z" transform="translate(-34.16 -187.7)"/><path class="cls-20" d="M382,974.62c-.8,6.91-1.51,12.64-2,16.62-3.87-2.83-7.62-5.75-11.26-8.67A113.52,113.52,0,0,0,382,974.62Z" transform="translate(-34.16 -187.7)"/><path class="cls-20" d="M376.75,908l2.36,1c-9.83,23.48-22.82,40-38,50.56a145.19,145.19,0,0,0-11.78-8.81h0c0-.36,0-.72,0-1.08l-12.5-12.5c30.47-29.17,31.43-101.9,31.43-130.92.5.55,1,1.1,1.52,1.64,2.48,2.63,5.08,5.15,7.72,7.66C372.93,844.5,377.21,890,376.75,908Z" transform="translate(-34.16 -187.7)"/><path class="cls-7" d="M349.78,807.89c-.52-.54-1-1.09-1.52-1.64h0a71.83,71.83,0,0,1-10.72-15c1.24,1.65,2.4,3.34,3.46,5.08C344.5,681,326.5,594.5,333,579.5c3.57,4.85,8.3,12.13,13.64,20.73h0C342.33,639,346.63,738.33,349.78,807.89Z" transform="translate(-34.16 -187.7)"/><path class="cls-20" d="M241.51,820c2.89-12.32,7.3-28.71,12.16-38.35.1-.21.21-.41.32-.61,14.6-27.84,50.86-20.74,74-.14a72,72,0,0,1,9.56,10.3l0,0a71.83,71.83,0,0,0,10.72,15h0c0,29-1,101.75-31.43,130.92l-5.52-5.52h0q1.11-6.64,1.85-13.29a253.3,253.3,0,0,0,1.64-28.8c0-.74,0-1.48,0-2.22A143.79,143.79,0,0,0,284.67,863c-17.15-10.35-34.46-15.77-50.52-19.43q1.88-3.65,3.85-7.24S239.32,829.34,241.51,820Zm49.15,0c6.55-10.49,20.53-23.82,19.62-24.55-1.46-1.18-26.56,16.78-27,18.2-5.24,16-8.64,26.46-11,40.33C271,861.5,284.11,830.51,290.66,820Z" transform="translate(-34.16 -187.7)"/><path class="cls-9" d="M338.84,479.63c1.36,1.83,2.75,3.67,4.16,5.54,0,1.07-.05,2.14-.05,3.21,0,15.31,6.93,45.23,18.4,74.38-12-20.06-43.1-86.28-45.71-108.35l7.24,1.65A229.38,229.38,0,0,0,338.84,479.63Z" transform="translate(-34.16 -187.7)"/><path class="cls-20" d="M314.79,887.33c0,.74,0,1.48,0,2.22a253.3,253.3,0,0,1-1.64,28.8c-37.89-22.29-74.63-37.35-100-25.08q4.28-12.59,9.41-24.84c22-5.68,35.65-7,62.12-5.43A143.79,143.79,0,0,1,314.79,887.33Z" transform="translate(-34.16 -187.7)"/><path class="cls-4" d="M301.34,1530.71c-35.73-24.41-53.33-3.65-53.33-38.63,0-6.51.53-6,.53-10,0-1.64-.23-4.74-1.88-4.74-7.48,0-11.28,23.45-15.61,37.09-1.22-1.14-6.05-5.84-6.38-9.41-.39-4.09,18-36.33,18-36.33a10.54,10.54,0,0,1,5.66-1.67l12.42-4.5L308,1484c9.83,3.25,11.72,8,6.33,14.33,0,0-1.09,29.62-1.33,35.34-.3,6.87-8.74,8.67-14.7,8.35A35.19,35.19,0,0,1,301.34,1530.71Z" transform="translate(-34.16 -187.7)"/><path class="cls-20" d="M313.16,918.35q-.74,6.64-1.85,13.29l-.64-.64Q306,944.21,301,957.14S222.55,918.35,201.66,933c3.26-13.47,7.05-26.73,11.48-39.73C238.53,881,275.27,896.06,313.16,918.35Z" transform="translate(-34.16 -187.7)"/><path class="cls-29" d="M310.28,795.47c.91.73-13.07,14.06-19.62,24.55S271,861.5,272.25,854c2.36-13.87,5.76-24.38,11-40.33C283.72,812.25,308.82,794.29,310.28,795.47Z" transform="translate(-34.16 -187.7)"/><path class="cls-6" d="M289.67,418c6.39,4.28,12.06,10.56,17.26,18.1a66.93,66.93,0,0,1-9.39,7.58c-1.49-9.24-5-18.26-8.69-26.92Z" transform="translate(-34.16 -187.7)"/><path class="cls-30" d="M215.28,1597a12.83,12.83,0,0,0,1.39,0l14.66-82.33-.28-.26c4.33-13.64,8.13-37.09,15.61-37.09,1.65,0,1.88,3.1,1.88,4.74,0,4-.53,3.51-.53,10,0,35,17.6,14.22,53.33,38.63a35.19,35.19,0,0,0-3,11.31l-.3,0c-28.06,53.31-24.37,138.3-47,192.74a37.33,37.33,0,0,1-26-10.91c-11.83-11.66-11.83-19.33-19.33-27.5s-20.84-17.91-29-27.83c-9.59-11.65-24-96.5-24-144.5,0,0,7.09-5.43,11-4.67,41.11,8.08,28,76.14,51.57,77.65Z" transform="translate(-34.16 -187.7)"/><path class="cls-9" d="M297.54,443.68l-.89.62c-3.49-11.38-4.79-5.68-17-41.4q4.59,6.92,9.16,13.86C292.54,425.42,296.05,434.44,297.54,443.68Z" transform="translate(-34.16 -187.7)"/><path class="cls-20" d="M301,957.14q-12.55,32.93-26.68,63.68c-11.22-17.16-67.65-60.8-79.22-57.07Q198,948.21,201.66,933C222.55,918.35,301,957.14,301,957.14Z" transform="translate(-34.16 -187.7)"/><path class="cls-20" d="M234.15,843.57c16.06,3.66,33.37,9.08,50.52,19.43-26.47-1.56-40.12-.25-62.12,5.43Q227.85,855.8,234.15,843.57Z" transform="translate(-34.16 -187.7)"/><path class="cls-9" d="M272,481.5c.16,9,4.27,17.59,8.1,25.58a42.58,42.58,0,0,1-5.17,1.36,49.81,49.81,0,0,1-4-18.57,33.46,33.46,0,0,1,1-8.38Z" transform="translate(-34.16 -187.7)"/><path class="cls-20" d="M269,1032.31q-6.56,13.73-13.46,26.94a16.55,16.55,0,0,0-9.54,0c-15.8-16.7-39.54-36.14-58.27-46.08,2-16.66,4.42-33.16,7.44-49.42,11.57-3.73,68,39.91,79.22,57.07Q271.68,1026.61,269,1032.31Z" transform="translate(-34.16 -187.7)"/><path class="cls-4" d="M258.67,1075.67c.86,16.17,4.61,47.67-2,54.33a32.06,32.06,0,0,1-24.13,9.74c.06-1.27.13-2.52.22-3.74,21.71-8,22.74-15.67,4.86-26.81-10.18-10.58-33.57-27.91-44.33-35.06-.95-8.7-3.14-36-8-44.6-.93-1.65-2-2.6-3.12-2.6-2.37,0-17.41,16.89-17.41,20.17s2.9.33,2.9,14.49c0,1.79,0,3.59,0,5.39,0,6.53.87,11.3.87,16.52a35.2,35.2,0,0,1-.68,7.07h0c-.66.68-2.61,2.51-3.44,1.42-5.12-6.78-15.92-22.85-15-36.67,1.11-16.53,30.38-44.13,38.34-42,0-.05,0-.11,0-.16,18.73,9.94,42.47,29.38,58.27,46.08,2.16,2.29,4.18,4.53,6,6.68l-.3.57Z" transform="translate(-34.16 -187.7)"/><path class="cls-20" d="M255.5,1059.25q-1.74,3.36-3.53,6.68c-1.83-2.15-3.85-4.39-6-6.68A16.55,16.55,0,0,1,255.5,1059.25Z" transform="translate(-34.16 -187.7)"/><path class="cls-31" d="M251,1734.74c-.22.54-.44,1.06-.67,1.59-6,1-1.21,20.74-10.66,21.34-10.2.64-55.41-34.34-55.34-46.34.1-16.36-2.4-29.3-16.66-26.33-28.5-20.5-28.17-151.09-23.67-159.67,3.13-6,8.48-7.21,8.67-1.33,0,48,14.41,132.85,24,144.5,8.16,9.92,21.5,19.67,29,27.83s7.5,15.84,19.33,27.5A37.33,37.33,0,0,0,251,1734.74Z" transform="translate(-34.16 -187.7)"/><path class="cls-9" d="M243.62,435.91c0,6.41,2,12.84,2.45,19.31q-4.32-2.06-8.64-4.18h0c.46-10,3.1-37.2,7.38-41.42,0,.3,0,.61,0,.91,0,4.26-1.4,6.22-1.4,17.66q0,3.39.2,6.78h0C243.62,435.28,243.62,435.59,243.62,435.91Z" transform="translate(-34.16 -187.7)"/><path class="cls-32" d="M237.62,1109.19c17.88,11.14,16.85,18.81-4.86,26.81a120.12,120.12,0,0,1,2.36-16.64C235.81,1116.07,236.64,1112.73,237.62,1109.19Z" transform="translate(-34.16 -187.7)"/><path class="cls-7" d="M237.62,1109.19c-1,3.54-1.81,6.88-2.5,10.17h0s-42.3-27.45-43.78-29.94c-2.37-4-6.08-59.89-6.08-59.89,4.9,8.57,7.09,35.9,8,44.6C204.05,1081.28,227.44,1098.61,237.62,1109.19Z" transform="translate(-34.16 -187.7)"/><path class="cls-30" d="M164,1136c3.34-15.12,3.82-30.38,4-45.67l-.23.24a35.2,35.2,0,0,0,.68-7.07c0-5.22-.87-10-.87-16.52,0-1.8,0-3.6,0-5.39,0-14.16-2.9-11.32-2.9-14.49s15-20.17,17.41-20.17c1.15,0,2.19,1,3.12,2.6,0,0,3.71,55.89,6.08,59.89,1.48,2.49,43.78,29.94,43.78,29.94h0a120.12,120.12,0,0,0-2.36,16.64c-.09,1.22-.16,2.47-.22,3.74l-.87-.07c-7.72,29.92-16,92.17-25.73,126.2-3.84-10.07-14.24-37.38-19.68-37.38-2.84,0-5.08,5.12-7.55,5.12-9.26,0,0-46-36-83.1v-32.84C151.09,1119.34,157.74,1127,164,1136Z" transform="translate(-34.16 -187.7)"/><path class="cls-4" d="M223,322q5.61,7.35,11.13,14.9c-25,3.28-33.8,28.3-41.77,91.25q-6.93-3.58-13.86-7.15c1.16-22.15,4-44.19,10.5-66,2.48-13.68,6.52-21.85,15-29.67Q221.25,309.29,223,322Z" transform="translate(-34.16 -187.7)"/><path class="cls-1" d="M196,317.33l8,8c-8.48,7.82-12.52,16-15,29.67,0-1.33-4.24-6.71-7.33-9.33-.1,0-.21,0-.31,0a44.32,44.32,0,0,1,14.56-28.81A4.71,4.71,0,0,1,196,317.33Z" transform="translate(-34.16 -187.7)"/><path class="cls-31" d="M205.94,1265.87c-1.07,3.72-2.15,7.1-3.25,10.07-14.48-16.5-11.85-34.62-17.14-34.62-2.19,0-6.94,3-8.47,3.62-12.2-7.62-12.5-50.79-34.41-81.22v-13.21c36,37.09,26.78,83.1,36,83.1,2.47,0,4.71-5.12,7.55-5.12C191.7,1228.49,202.1,1255.8,205.94,1265.87Z" transform="translate(-34.16 -187.7)"/><path class="cls-33" d="M142.67,1240.33v-76.61c21.91,30.43,22.21,73.6,34.41,81.22,1.53-.67,6.28-3.62,8.47-3.62,5.29,0,2.66,18.12,17.14,34.62-3.08,8.29-6.3,13.33-9.69,13.39-12.56.25-25.39,2.11-39.33,3.34a105.19,105.19,0,0,0-11-13.34Z" transform="translate(-34.16 -187.7)"/><path class="cls-34" d="M195.92,316.83a44.32,44.32,0,0,0-14.56,28.81c-5.1-.48-10-5-15-7.45,1.94-11.5,7.62-22.72,16.62-30.07h0C186.33,306.44,194.92,312.58,195.92,316.83Z" transform="translate(-34.16 -187.7)"/><path class="cls-34" d="M99,322.39a14.53,14.53,0,0,0-5.78-9.59c4.17-2.25,8.56-4.32,12.79-5.13,10.34-2,12.67,2.47,22.83,2.25,23-.49,44.38-8.25,53.5-1.25a2.22,2.22,0,0,1,.67-.55c-9,7.35-14.68,18.57-16.62,30.07L166,338c-11.78,5.66-24,5-36.77-3.84a17.19,17.19,0,0,0,.57-4.42,24.5,24.5,0,0,0-2.46-10.12c-5.66-.52-11.4,0-17.11-.78a26,26,0,0,0-3.55-.62c-2.43,0-5.43,2.78-7.6,4.73C99.05,322.76,99,322.57,99,322.39Z" transform="translate(-34.16 -187.7)"/><path class="cls-1" d="M129.8,329.74a17.19,17.19,0,0,1-.57,4.42L129,334a66.88,66.88,0,0,0-20,0c-7,6.28-13.92,7.13-20.75-1.08A1.69,1.69,0,0,1,88,333c1-5.64,6.42-7.67,11-10.64,0,.18.06.37.09.56,2.17-1.95,5.17-4.73,7.6-4.73a26,26,0,0,1,3.55.62c5.71.79,11.45.26,17.11.78A24.5,24.5,0,0,1,129.8,329.74Z" transform="translate(-34.16 -187.7)"/><path class="cls-1" d="M93.21,312.8A14.53,14.53,0,0,1,99,322.39c-4.59,3-10.06,5-11,10.64-8,3.26-52,8.23-53.31-1.7-.66-5.12,36-10,42.33-10.66C80.85,320.26,86.75,316.3,93.21,312.8Z" transform="translate(-34.16 -187.7)"/><path class="cls-35" d="M311.31,931.65l5.52,5.52,12.5,12.5c0,.36,0,.72,0,1.08-2.24,63.4-18.72,188.55-7,187.58,3.66-.3,13.34-29.66,13.34-29.66,18.09,3.15,33,4.95,47.63,6.62l.37,0C348.25,1154.25,256.76,1201,272.33,1264c7.17,29-24,203-24,203a10.54,10.54,0,0,0-5.66,1.67s-18.39,32.24-18,36.33c.33,3.57,5.16,8.27,6.38,9.41l.28.26L216.67,1597a12.83,12.83,0,0,1-1.39,0h0c-23.53-1.51-10.46-69.57-51.57-77.65-3.91-.76-11,4.67-11,4.67-.19-5.88-5.54-4.64-8.67,1.33-4.5,8.58-4.83,139.17,23.67,159.67,14.26-3,16.76,10,16.66,26.33-.07,12,45.14,47,55.34,46.34,9.45-.6,4.66-20.34,10.66-21.34.23-.53.45-1,.67-1.59,22.63-54.44,18.94-139.43,47-192.74l.3,0c6,.32,14.4-1.48,14.7-8.35.24-5.72,1.33-35.34,1.33-35.34,5.39-6.38,3.5-11.08-6.33-14.33,3.75-45.25,59.25-162.75,62.5-226.5,38.35-31,82.84-61.87,129.48-92.38q6.64-4.33,13.33-8.67l.69-.45s17.73,13,22.5,12.5c3.19-.31,8.66-4.36,15.22-10.41,3.49-3.22,7.31-7,11.26-11.1,1.09-1.12,2.18-2.27,3.27-3.42,2.49-2.63,5-5.35,7.52-8.1s4.86-5.33,7.23-8c0,0,3,3.76,5.16,4.12,2.27.39,17.5-7.13,25.51-8.62,31.1-5.81,61.08,1.15,95.33,9,19.5,4.47,36.16,4.87,49,0,33.49,21,69.51,31,109,26.33-7.43-26.69-14.33-53.68-19.67-82.33-9-48.33-17.55-240-27.66-367-1.71-21.44-1.63-50.22.66-81.67,23.7-2.64,44.28.67,64.53,5,12.93,2.77,25.73,6,39.14,8.32,8.79-5.19,8.33-31.25,9.31-55.18,0-.16,0-.33,0-.49,3.74-.3,7.46-.69,11.22-.71A40.48,40.48,0,0,1,951,585c10.93,2.17,20.33,4.67,31.33,2.67a58.88,58.88,0,0,1,6.68,1.15c5.41,1.23,10.49,3,15.66,4.18,9.14,2.12,13.78-3.71,8.33-6-4.46-1.88-12.61-4.42-19-6.8-7.14-2.67-12-5.15-6.94-6.28a56.67,56.67,0,0,1,9.93-1.25c12.26-.52,24.34,2.12,37,.33,10.25-1.45,8.69-10.47,4.33-10.67-12.23-.55-29.9-.73-40-1.85-7.23-.8-10.6-2.08-5.32-4.32a59.89,59.89,0,0,1,6.21-2.24c13.57-4.16,28-4.2,42.62-9.42,11.41-4.07,5.56-12.82-1.33-11.17-16.29,3.9-29.4,8.35-43,8.54a60.26,60.26,0,0,1-7.79-.37c-5.88-.67-1.89-2.86,6-6.23,10.86-4.63,29.1-11.47,39.31-19.6,6.44-5.13,1.9-8.46-5-7-13.89,2.92-26.41,8.76-39.06,14.3-2.09.91-4.17,1.82-6.27,2.7h-15c.67-.85,1.36-1.71,2.06-2.58,8-9.83,18.27-20.55,18.27-32.76,0-6-2.87-7.65-9-.33a83,83,0,0,1-22.39,18.85l-.28.15c-5.83,3.17-13.32,18-21,25a10.46,10.46,0,0,1-3.19,1.87c-3.47,1.38-8.52,2-14.81,3.13l1.17-2.5s-.54.23-1.46.54a32.33,32.33,0,0,1-5.23,1.32C902,540.3,887.89,541.84,874,543.3c-23.06,2.4-45.77,4.57-57.58,8-12-11.64-63.45,1.68-68.88,6.75a50.71,50.71,0,0,0-4.25,4.5l-1.53-.1a66.8,66.8,0,0,0-10.42.22,43.74,43.74,0,0,0-20,6.88c-10.89-.4-22,.36-34.62,6.82-.43.21-.86.44-1.3.68a42,42,0,0,0-23.83,5.5c-16.83,8.83-35.17-13.83-47.5,6l-.52-14.58L603,560.33c.18-.2.36-.4.52-.61,7.6-9,9.82-25.61,10.71-44.12,0-.75.07-1.51.1-2.27A40,40,0,0,0,621,506s16.71,18.29,17.5,17.5c2.06-2.06-7.17-21.83-7.17-21.83,35.26-2,104.48-14.13,114.76-18.85,1-.46,1.44-.85,1.24-1.15-.69-1.06-1.47-2.14-2.34-3.23" transform="translate(-34.16 -187.7)"/><path class="cls-35" d="M167.77,1090.57l.23-.24c-.18,15.29-.66,30.55-4,45.67-6.26-9-12.91-16.66-21.33-18.33v161.66a105.19,105.19,0,0,1,11,13.34c13.94-1.23,26.77-3.09,39.33-3.34,3.39-.06,6.61-5.1,9.69-13.39,1.1-3,2.18-6.35,3.25-10.07,9.74-34,18-96.28,25.73-126.2l.87.07a32.06,32.06,0,0,0,24.13-9.74c6.61-6.66,2.86-38.16,2-54.33l-7-9.17.3-.57q1.78-3.32,3.53-6.68,6.92-13.21,13.46-26.94,2.73-5.7,5.39-11.49Q288.49,990.1,301,957.14,306,944.22,310.67,931l.64.64" transform="translate(-34.16 -187.7)"/><path class="cls-35" d="M337.52,791.22a72,72,0,0,0-9.56-10.3c-23.11-20.6-59.37-27.7-74,.14-.11.2-.22.4-.32.61-4.86,9.64-9.27,26-12.16,38.35-2.19,9.32-3.51,16.31-3.51,16.31q-2,3.6-3.85,7.24-6.32,12.23-11.6,24.86-5.15,12.26-9.41,24.84c-4.43,13-8.22,26.26-11.48,39.73q-3.69,15.21-6.53,30.75c-3,16.26-5.43,32.76-7.44,49.42,0,.05,0,.11,0,.16-8-2.13-37.23,25.47-38.34,42-.92,13.82,9.88,29.89,15,36.67.83,1.09,2.78-.74,3.44-1.42" transform="translate(-34.16 -187.7)"/><path class="cls-35" d="M237.43,451q4.32,2.11,8.64,4.18l.93.45c3.29,18.41,4.5,39,14.33,50,3.15,3.51,8.42,3.75,13.58,2.77a42.58,42.58,0,0,0,5.17-1.36l.25-.08C292,536.8,318.58,563.92,333,579.5c-6.5,15,11.5,101.5,8,216.83-1.06-1.74-2.22-3.43-3.46-5.08" transform="translate(-34.16 -187.7)"/><path class="cls-35" d="M183,308.12a2.22,2.22,0,0,0-.67.55c-9.12-7-30.49.76-53.5,1.25-10.16.22-12.49-4.22-22.83-2.25-4.23.81-8.62,2.88-12.79,5.13-6.46,3.5-12.36,7.46-16.21,7.87-6.33.66-43,5.54-42.33,10.66,1.27,9.93,45.28,5,53.31,1.7a1.69,1.69,0,0,0,.27-.11C95.08,341.13,102,340.28,109,334a66.88,66.88,0,0,1,20,0l.23.16c12.77,8.83,25,9.5,36.77,3.84l.38.19c5,2.47,9.88,7,15,7.45.1,0,.21,0,.31,0,3.09,2.62,7.33,8,7.33,9.33-6.49,21.81-9.34,43.85-10.5,66q6.93,3.56,13.86,7.15c15,7.76,30,15.53,45.07,22.88" transform="translate(-34.16 -187.7)"/><path class="cls-35" d="M745,478.44c-21.93-27.29-100.81-62.35-94.65-72.69,2.9-3,1.61-4.61-2.33-5.42v-6c-2.92-6.3-3.75-14.69-4.33-23.33,2.56-1.67,2.27-3.72.33-6-6.38-20.9-8.75-41.44-2-59.33a15.71,15.71,0,0,0,10.67.66c20.06-5.93,38.08-7.45,64.66,9a5.31,5.31,0,0,1,.3.85c1.73,5.86-1.49,18.77-3.85,34.25-3.09,20.17-4.73,44.68,7.89,63.57,2.28,3.42-.17-23.38,5-27.67,3.39,19.73,21,52.29,21.91,48.59,10-40.07,6.23-73.58-4.05-96.34-5.55-12.28-13-21.43-21.23-26.8q-.9-.58-1.8-1.11c-28.19-53.13-85.44-102.34-126.83-122-13.07-6.21-96.47,51.08-136.53,84.27-.84.7-1.67,1.38-2.47,2.06-19.42,11.61-28.92,26.72-31.34,44.33l-.52,1.27L407.67,360c-.18.1-7.43.48-1.5,4.83l-1,2.9-7.53,22.6c-4.79.65-4.38,3-1,5.34-1.5.52-3,2.93-6.34,4.16-30.76,6.61-74.16,32.77-82.18,37.75l-.15.09,0-.06c-.34-.51-.68-1-1-1.51-5.2-7.54-10.87-13.82-17.26-18.1l-.82-1.24q-4.58-6.94-9.16-13.86c-15-22.56-30-44.83-45.56-66Q228.61,329.36,223,322q-1.75-12.71-19,3.33l-8-8a4.71,4.71,0,0,0-.08-.5c-1-4.25-9.59-10.39-12.9-8.72" transform="translate(-34.16 -187.7)"/><path class="cls-35" d="M205.94,1265.88h0c-3.84-10.07-14.24-37.38-19.68-37.38-2.84,0-5.08,5.12-7.55,5.12-9.26,0,0-46-36-83.1" transform="translate(-34.16 -187.7)"/><path class="cls-35" d="M167.77,1090.58h0a35.2,35.2,0,0,0,.68-7.07c0-5.22-.87-10-.87-16.52,0-1.8,0-3.6,0-5.39,0-14.16-2.9-11.32-2.9-14.49s15-20.17,17.41-20.17c1.15,0,2.19,1,3.12,2.6,4.9,8.57,7.09,35.9,8,44.6,10.76,7.15,34.15,24.48,44.33,35.06-1,3.54-1.81,6.88-2.5,10.17a120.12,120.12,0,0,0-2.36,16.64c-.09,1.22-.16,2.47-.22,3.74" transform="translate(-34.16 -187.7)"/><path class="cls-35" d="M252,1065.93c-1.83-2.15-3.85-4.39-6-6.68-15.8-16.7-39.54-36.14-58.27-46.08" transform="translate(-34.16 -187.7)"/><path class="cls-35" d="M348.26,806.24a71.83,71.83,0,0,1-10.72-15l0,0" transform="translate(-34.16 -187.7)"/><path class="cls-35" d="M367.78,825.37c-3.4-3.39-6.87-6.6-10.28-9.82-2.64-2.51-5.24-5-7.72-7.66-.52-.54-1-1.09-1.52-1.64" transform="translate(-34.16 -187.7)"/><path class="cls-35" d="M391.82,866.16c-4.59-19-13.95-30.71-24-40.79" transform="translate(-34.16 -187.7)"/><path class="cls-35" d="M411.91,939.6c-2-6.85-4.13-14.33-6.39-22.52-4.56-16.52-9.61-32.71-13.35-49.43-.11-.5-.23-1-.35-1.48" transform="translate(-34.16 -187.7)"/><path class="cls-35" d="M463.55,1035.51c-6.49-10.61-11.12-13.71-15.47-16.74-8.83-6.14-16.53-12-36.17-79.16" transform="translate(-34.16 -187.7)"/><path class="cls-35" d="M448.08,1018.77c-16.55-.22-32.16-5.71-46.59-13.61-1.48-.81-3-1.65-4.42-2.51-5.94-3.5-11.66-7.38-17.16-11.41-3.87-2.83-7.62-5.75-11.26-8.67-10.17-8.17-19.4-16.38-27.57-23a145.19,145.19,0,0,0-11.78-8.81" transform="translate(-34.16 -187.7)"/><path class="cls-35" d="M341.08,959.56c-2.25,14.61-2.71,29.45-2.71,44.31,0,10.09.21,20.18.21,30.21,0,24-1.56,25.6-1.56,40.55a71.32,71.32,0,0,0,1.3,14.79c3.78-3.79,6.26-8.63,8.14-13.61,17.57,9.53,42.12,10.15,62.38,11.68h0" transform="translate(-34.16 -187.7)"/><path class="cls-35" d="M429.52,1063.77c-13.2-18-22.86-37.06-28-58.61" transform="translate(-34.16 -187.7)"/><path class="cls-35" d="M513.25,1156.35c7.28-6.43,17.3-8.19,23.27-18.58.29-.49.56-1,.82-1.52-4.14-20-19.68-31.41-73.79-100.73h0c-.19-.23-.37-.47-.56-.71a200,200,0,0,0-33.47,29c-1.75,1.85-3.45,3.71-5.13,5.57-5.55,6.17-10.68,12.31-15.55,18.15-9.09,10.9-17.26,20.75-25.54,27.8" transform="translate(-34.16 -187.7)"/><path class="cls-36" d="M500,1165.12c-1.14-49.44-37.27-82.11-75.59-95.78" transform="translate(-34.16 -187.7)"/><path class="cls-35" d="M551.72,1158.09s-2.33-25.3-6.72-40.86c-6.56-23.23-51.15-63-82.81-104-29.83-38.62-41-131.6-58.75-171.16" transform="translate(-34.16 -187.7)"/><path class="cls-35" d="M424.62,860.7c-4.05-4.17-8.07-7.93-12-11.3-3.13-2.68-6.2-5.11-9.17-7.31-15.91-11.79-29.09-16.88-33.77-16.88a11.16,11.16,0,0,0-1.88.16h0" transform="translate(-34.16 -187.7)"/><path class="cls-35" d="M500.69,884.73A294.09,294.09,0,0,0,448,890c-.53-.82-1.07-1.62-1.61-2.42q-2.47-3.68-5-7.1a192.67,192.67,0,0,0-16.75-19.77" transform="translate(-34.16 -187.7)"/><path class="cls-35" d="M424.62,860.7h0c2.33,9.15,4.84,20.19,7.88,24a14.46,14.46,0,0,0,8.87-4.19" transform="translate(-34.16 -187.7)"/><path class="cls-35" d="M446.39,887.58s-12.15-.22-12.72,1.42c-.94,2.69,31.16,31.17,31.16,31.17L448,937a98.9,98.9,0,0,0,17.32,15.56,39.59,39.59,0,0,0,12.26,5.94l-7.2,11L461,983.83S495.83,998,502.5,998l3.67,38.83s31.17,8,44.16,9.34c0,7.66-3,43.83-3,43.83l38,15.83a173,173,0,0,1-11.56,29.64" transform="translate(-34.16 -187.7)"/><path class="cls-35" d="M566.25,1143.57,578.33,1110l-26.61-12.33c9.66,7,12.28,29.5,11.26,49.32" transform="translate(-34.16 -187.7)"/><path class="cls-35" d="M542.67,1082.17c-12-16.83-20.49-27.73-34-40.34l36.33,7.34Z" transform="translate(-34.16 -187.7)"/><path class="cls-35" d="M499.67,1031.83c-13.74-15.56-33.39-35.37-35.17-41,12.5,4.87,25.13,9.45,32.5,10.5Z" transform="translate(-34.16 -187.7)"/><polygon class="cls-35" points="424.84 790.3 413.92 756.97 435.01 773.63 424.84 790.3"/><polygon class="cls-35" points="410.17 745.3 401.34 710.8 423.34 731.97 410.17 745.3"/><path class="cls-35" d="M370.39,640.17c17.54,30.34,33.61,59.5,33.61,59.5v16l23,70.18.37,1.15-1.61,12.35-6,46.13h0" transform="translate(-34.16 -187.7)"/><path class="cls-35" d="M333,579.5c3.57,4.85,8.3,12.13,13.64,20.73,7.27,11.74,15.66,26,23.74,39.93" transform="translate(-34.16 -187.7)"/><path class="cls-35" d="M412.61,849.4a50.79,50.79,0,0,1,7.07-3.92c16-7.38,41.8-11.29,69.48-12" transform="translate(-34.16 -187.7)"/><path class="cls-35" d="M489.16,833.46c-1.43-3.7-2.19-5.9-1.66-6.63,3.31-4.52,86.09-12.92,93.17-8,.62.43,2.18,3.45,4.14,8,5.49,12.63,14.05,37,13.4,49a13.92,13.92,0,0,1-.71,3.88c-4.67,12.72-87.92,16.91-96.17,8.66-.35-.35-.52-1.63-.64-3.6-.35-5.42-.43-16.08-3.36-27.12A211,211,0,0,0,489.16,833.46Z" transform="translate(-34.16 -187.7)"/><path class="cls-35" d="M522.39,851.83c2.44-.2,4.88-.18,6.56-.18,8.06,0,17,1,17.79,3.26h0c-.61,4.75-16,4.67-19.75,4.76-.82,0-1.82.08-2.83.16-1.68.13-3.35.28-4.18.28-2.87,0-6.21-1.81-6.21-4C513.78,853.18,518.08,852.18,522.39,851.83Z" transform="translate(-34.16 -187.7)"/><path class="cls-35" d="M522.39,851.83C517.62,833,515,835.54,515,832c0-2.63,7.39-2.49,10.07-2.49h1.64c.41,0,31.64-1.19,40-1.58h0c3.53.41,13.67,28.51,13.67,47,0,7.26-10.55,7.32-18.31,7.32-3.35,0-6.69-.28-10-.28-7.15,0-17,1.42-25.75,1.61-2-4.19-1-16.07-2.07-23.73" transform="translate(-34.16 -187.7)"/><path class="cls-35" d="M584.81,826.79a184.57,184.57,0,0,1,22.43-1.16h2.48c1.11,0,3.13-.24,5-.24,8,0,17.29,42.05,17.29,44.81,0,3.1-.85,4.77-3.63,5.63-2.19.68-5.58.87-10.7.87-7,0-14.87-.65-19.48-.92h0" transform="translate(-34.16 -187.7)"/><path class="cls-35" d="M298.3,1542a35.19,35.19,0,0,1,3-11.31c-35.73-24.41-53.33-3.65-53.33-38.63,0-6.51.53-6,.53-10,0-1.64-.23-4.74-1.88-4.74-7.48,0-11.28,23.45-15.61,37.09" transform="translate(-34.16 -187.7)"/><path class="cls-35" d="M251,1734.74h0a37.33,37.33,0,0,1-26-10.91c-11.83-11.66-11.83-19.33-19.33-27.5s-20.84-17.91-29-27.83c-9.59-11.65-24-96.5-24-144.5" transform="translate(-34.16 -187.7)"/><polyline class="cls-35" points="273.84 1296.3 226.59 1274.8 214.17 1279.3"/><path class="cls-35" d="M346.63,600.23c-4.3,38.77,0,138.1,3.15,207.66" transform="translate(-34.16 -187.7)"/><path class="cls-35" d="M609,1087.7c16.62-22.08,64-52.76,64-101.37,0-41.68-22.3-85.33-44.61-110.49" transform="translate(-34.16 -187.7)"/><path class="cls-35" d="M581,1127.5c8.52-7.5,14.38-14.16,18.86-22.25a76.42,76.42,0,0,0,4.47-9.67,33.44,33.44,0,0,1,4.62-7.87" transform="translate(-34.16 -187.7)"/><path class="cls-35" d="M609.67,825.64C604.33,817.34,595,781,595,781c0-5.13,1.66-11.62,4-19.19,6.11-20,16.75-47.5,13.36-77.48,5.7,2.78,23.27-13.41,36.48-30.18" transform="translate(-34.16 -187.7)"/><path class="cls-35" d="M675.76,644.85c3.58-.54,8.17-1.24,13.21-2,18.65-2.92,43.61-7.1,47.7-9.15,6.66-3.34,22.33-11.34,22.33-11.34,8.34-1.14,15.6,3.22,26.43,5.72a63,63,0,0,0,15.24,1.64,80.07,80.07,0,0,0,17.66-2.36" transform="translate(-34.16 -187.7)"/><path class="cls-35" d="M762.78,585.54c-28.87,21.25-63.21,46.77-87,59.31h0a82.86,82.86,0,0,1-16.08,6.82,110,110,0,0,1-10.86,2.48c-28.26,4.94-51.36-2.84-61.42-10.44a24.93,24.93,0,0,1-2.06-1.71" transform="translate(-34.16 -187.7)"/><path class="cls-35" d="M816.38,551.25c-4.24-1.82-26.47,14.32-53.52,34.23" transform="translate(-34.16 -187.7)"/><path class="cls-35" d="M741.72,562.41c-37.22,29.35-65.23,51.94-89,62-20.3,8.6-37.5,8-54.7-5.27" transform="translate(-34.16 -187.7)"/><path class="cls-35" d="M882.86,632.35c-10.72-14.84-14.27-36-14.27-54.59,0-16,1.8-21.32,5.37-34.46" transform="translate(-34.16 -187.7)"/><path class="cls-35" d="M931.31,585.49a54.61,54.61,0,0,0-6.75-.42,57.89,57.89,0,0,0-6.57.38c-2,.21-3.94.53-5.91.92-.05-3.69-.13-7.45-.13-11.23q0-1.89,0-3.78c.2-12,1.5-23.92,7.06-34.32" transform="translate(-34.16 -187.7)"/><path class="cls-35" d="M918,585.45a63.21,63.21,0,0,1-6-14.09" transform="translate(-34.16 -187.7)"/><path class="cls-35" d="M958.61,508.85c1.91,6.58,6.34,12.94,13.12,14.24" transform="translate(-34.16 -187.7)"/><path class="cls-35" d="M995.69,535.26A25.52,25.52,0,0,1,990.94,523" transform="translate(-34.16 -187.7)"/><path class="cls-35" d="M997,572.67a27.43,27.43,0,0,1-.47-4.78,14.93,14.93,0,0,1,1.78-7.4" transform="translate(-34.16 -187.7)"/><path class="cls-35" d="M999.21,553.91a23.33,23.33,0,0,1-2.06-8.93,15.6,15.6,0,0,1,.31-3.1" transform="translate(-34.16 -187.7)"/><path class="cls-35" d="M989,588.82a16.11,16.11,0,0,1,5-8.62" transform="translate(-34.16 -187.7)"/><path class="cls-35" d="M742.7,1108.21c-.94-3.32-1.79-6.64-2.55-10,27.63,12.88,54.45,33.89,86.52,34.66.15,1.54,6.94,9.1,10.6,9.1,1.42,0,2.14-1.27,2.14-2.6,0-5.1-7.68-24.43-8.45-27.77-34-161.26-30.29-481.46-30.29-481.46" transform="translate(-34.16 -187.7)"/><path class="cls-35" d="M742.7,1108.21h0v0Z" transform="translate(-34.16 -187.7)"/><path class="cls-35" d="M599.86,1105.25a121.32,121.32,0,0,1,31.23-3.76c29.9,0,60.09,8.34,90.24,8.34a133.64,133.64,0,0,0,21.37-1.62" transform="translate(-34.16 -187.7)"/><path class="cls-35" d="M181.36,345.64a44.32,44.32,0,0,1,14.56-28.81" transform="translate(-34.16 -187.7)"/><path class="cls-35" d="M93.21,312.8A14.53,14.53,0,0,1,99,322.39c0,.18.06.37.09.56,2.17-1.95,5.17-4.73,7.6-4.73a26,26,0,0,1,3.55.62c5.71.79,11.45.26,17.11.78a24.5,24.5,0,0,1,2.46,10.12,17.19,17.19,0,0,1-.57,4.42" transform="translate(-34.16 -187.7)"/><path class="cls-35" d="M189,355c2.48-13.68,6.52-21.85,15-29.67" transform="translate(-34.16 -187.7)"/><path class="cls-35" d="M234.14,336.9h0c-25,3.28-33.8,28.3-41.77,91.25" transform="translate(-34.16 -187.7)"/><path class="cls-35" d="M631.33,501.67c-.29-1-.58-2-.85-3-5.28-18.78-8.23-35.12-6.8-51" transform="translate(-34.16 -187.7)"/><path class="cls-35" d="M746.09,482C698,468.3,660.9,457.36,623.68,447.11c-35.73-9.84-71.57-19-117.35-29.38-29.48,1.19-61.64,3.89-92.2,7.35-44.69,5.05-86,11.71-110.52,17.63-2.57.63-5.14,1.14-7.72,1.62" transform="translate(-34.16 -187.7)"/><path class="cls-35" d="M307.92,437.18h0l.19,0c77.14-14.25,158.48-26,199.85-25.36,91.64,20.55,206,56.67,237,65.88h0" transform="translate(-34.16 -187.7)"/><path class="cls-35" d="M306.93,436.1a66.93,66.93,0,0,1-9.39,7.58l-.89.62-.76.53c-1.67,1.15-3.34,2.3-5,3.49,5,1.44,14.21,3.68,24.71,6.09l7.24,1.65c19,4.29,39.74,8.74,46.62,10.2s11.85,2.51,15.67,3.22c1.75.33,3.48.52,5.23.71" transform="translate(-34.16 -187.7)"/><path class="cls-35" d="M442,497.25l0,0c2.62,2.86,4.39,6.42,6.45,9.69.09-.28.17-.55.25-.82a10.5,10.5,0,0,1,2.45-4.73c2,0,4-.08,6.1-.08,1.45,0,2.8,0,4,.12,14,.91,15.72,6.68,21.37,12.83a32.52,32.52,0,0,0,2.57,2.53l0-.94c-.14-3.88-.31-7.75-.38-11.63-8.65-8.25-15.57-12.93-24-12.93-5.37,0-11.36,1.89-18.8,6" transform="translate(-34.16 -187.7)"/><path class="cls-35" d="M461.46,504.57a7.73,7.73,0,0,1,2.33-.38,4,4,0,0,1,4.34,4.25,4.09,4.09,0,0,1-1.21,3.14,2.66,2.66,0,0,1-1.68.48,10.76,10.76,0,0,1-2.88-.54c-2.17-.68-4.52-1.95-4.52-3.57C457.84,506.53,459.48,505.19,461.46,504.57Z" transform="translate(-34.16 -187.7)"/><path class="cls-35" d="M461.46,504.57c-.06-1.05-.11-2.08-.14-3.11" transform="translate(-34.16 -187.7)"/><path class="cls-35" d="M462.36,511.52c.4,9.36,4.75,26.31,11.2,26.31s8.27-14.8,9.13-23.54" transform="translate(-34.16 -187.7)"/><path class="cls-35" d="M448.73,506.15C451.11,518.84,460.61,543,472,543c7,0,14.21-7.74,14.21-19.32a34.64,34.64,0,0,0-1-7.81" transform="translate(-34.16 -187.7)"/><path class="cls-35" d="M469.78,513.71c.75-1.29,1.53-1.81,2.27-1.81,1.81,0,3.33,3.15,3.33,5.82,0,2-1.41,4.61-3.18,4.61-2.23,0-3-4-3-6.1A5,5,0,0,1,469.78,513.71Z" transform="translate(-34.16 -187.7)"/><path class="cls-35" d="M466.54,525c.66,5.53,3.15,11.7,6.95,11.7,3,0,5.47-4.62,5.89-9.45a12,12,0,0,1-4.33.78A13.25,13.25,0,0,1,466.54,525Z" transform="translate(-34.16 -187.7)"/><path class="cls-35" d="M553.26,496.11c9.91-1.92,19.5-.39,22.57,6.56V536c-5.77,9-14.83,18.17-22.91,22.92-8.65-2.84-14.32-8.71-21.75-17.42l-.95-26.84L530,508.5c4.28-5.31,12.08-9.55,20.11-11.67h0" transform="translate(-34.16 -187.7)"/><path class="cls-35" d="M551.9,502.17c8.23-1.49,16.28-.46,18.1,3.16a32.85,32.85,0,0,1,3.28,14.88,52.27,52.27,0,0,1-1.95,13.62c-5.2,7.41-10.93,13.26-19.66,19.67-6-3.33-16.67-13.83-16.67-13.83V510.5c3.53-4.16,9.77-6.89,16-8.16" transform="translate(-34.16 -187.7)"/><path class="cls-35" d="M551.71,527.16a27.08,27.08,0,0,1-10,2.62c-1.66,0-2.85-.44-2.85-1.66,0-3.51,9.7-4.69,13.48-5.29,0-1.64-.49-6-.49-9.64,0-2.43.13-6.44,2.59-6.44,3.26,0,4.05,5.37,4.05,8.63,0,2.16-.2,4.27-.24,5.79a58.89,58.89,0,0,1,6.74-.71c1.89,0,3.44.33,3.55,1.44h0c-1.23,4.22-6.71,5.22-10.44,5.94,0,.23,0,.45,0,.68,0,3.73-.31,17.15-4,17.15-2.83,0-3.46-4.67-3.46-7.52C550.61,534.47,551.43,530.48,551.71,527.16Z" transform="translate(-34.16 -187.7)"/><path class="cls-35" d="M494.86,579.58a23.7,23.7,0,0,0,5.51,7.69c3.51,3.27,7.91,5.35,12.3,5.35,6.35,0,13.2-4.71,15.13-14.75" transform="translate(-34.16 -187.7)"/><path class="cls-35" d="M527.81,577.87a31.1,31.1,0,0,0,.54-5.93c0-.69,0-1.38,0-2.08-2.64-.23-5.2-.35-7.7-.35a74.2,74.2,0,0,0-27.26,5.17,20.71,20.71,0,0,0,1.5,4.9" transform="translate(-34.16 -187.7)"/><path class="cls-35" d="M527.81,577.87h0c-3.9-.16-7.8-.36-11.71-.36a96.27,96.27,0,0,0-10.22.55c-3.58.37-7.1.91-11,1.52h0" transform="translate(-34.16 -187.7)"/><path class="cls-35" d="M500.37,587.27a23.23,23.23,0,0,1,5.5-9.21" transform="translate(-34.16 -187.7)"/><path class="cls-35" d="M445.52,666.68c8,5.45,16.76,11.33,33.93,14.18,4.05,5.93,7.46,11.93,11,15.51,2,2.06,4.1,3.32,6.35,3.32,2.91,0,5.83-2.27,8.63-5.61a80.64,80.64,0,0,0,7.75-11.76c12.15-.72,24-2.79,33.94-6.16" transform="translate(-34.16 -187.7)"/><path class="cls-35" d="M444,639.3c7.55,5.66,19.08,14.13,40.92,18.11,5.55,9.24,6.7,17.47,10,17.47s7.54-7.85,13.3-15.29l3.18,0c15.25,0,26-2.3,38-8.24" transform="translate(-34.16 -187.7)"/><path class="cls-35" d="M451,618.39a43.49,43.49,0,0,1-7.57,4.59" transform="translate(-34.16 -187.7)"/><path class="cls-35" d="M440.42,603.53c4-2.81,8-5.53,12.19-8,.8-.48,1.6-.94,2.4-1.39a50.24,50.24,0,0,1,10.68,5.51c-.32.71-.65,1.41-1,2.1A47,47,0,0,1,451,618.39" transform="translate(-34.16 -187.7)"/><path class="cls-35" d="M452.61,595.53c-5.76-5.51-11-10.92-17.34-15.41" transform="translate(-34.16 -187.7)"/><path class="cls-35" d="M431.89,516.78s10,45.79,13.63,51.22c3.83,5.68,15.89,19.6,32.58,32.17A147.26,147.26,0,0,0,494.44,611q2.52,1.46,5.11,2.77,3.1,1.59,6.32,3c2.17-1,4.74-2.11,7.58-3.31l5.2-2.19c8.17-3.43,17.81-7.53,27-12.33,13.77-7.22,26.47-16,31.48-26.58" transform="translate(-34.16 -187.7)"/><path class="cls-35" d="M499.55,613.75c-.11,2.11-.25,4.21-.25,6.31a33.15,33.15,0,0,0,.23,4.1c4.16.42,8.1,1.26,12.24,1.26.67,0,1.34,0,2-.07-.06-4-.15-7.93-.34-11.91h0" transform="translate(-34.16 -187.7)"/><path class="cls-35" d="M518.65,611.25a70.72,70.72,0,0,1,1,9.65c0,.38,0,.75,0,1.13a37,37,0,0,1-.67,7.14,29.38,29.38,0,0,1-9.75,1.75,26.45,26.45,0,0,1-15.41-5.09c.11-.93.18-1.86.23-2.79.22-4,0-8,.32-12" transform="translate(-34.16 -187.7)"/><path class="cls-35" d="M478.09,600.18l-.48,3.5c-.45,3.43-.85,6.87-1.07,10.32,5.86,3.2,11.12,7.27,17.57,9" transform="translate(-34.16 -187.7)"/><path class="cls-35" d="M519.7,620.9c.87.06,1.75.1,2.63.1,7.64,0,24.44-4.26,24.44-12.43a35.86,35.86,0,0,0-.29-4.25c-.21-1.84-.52-3.71-.85-5.4" transform="translate(-34.16 -187.7)"/><path class="cls-35" d="M570,595.69c-7.52,1.08-15.49,3-18.1,9a11.14,11.14,0,0,0-.89,4.52c0,5.38,3.3,11.27,7.08,15.2" transform="translate(-34.16 -187.7)"/><path class="cls-35" d="M551.9,604.68c-1.81-.16-3.61-.31-5.41-.36" transform="translate(-34.16 -187.7)"/><path class="cls-35" d="M477.62,603.68h0c-4.31-.88-8.57-1.44-12.92-1.92" transform="translate(-34.16 -187.7)"/><path class="cls-35" d="M322.88,456.06a229.38,229.38,0,0,0,16,23.57c1.36,1.83,2.75,3.67,4.16,5.54,0,1.07-.05,2.14-.05,3.21,0,15.31,6.93,45.23,18.4,74.38,12.58,32,30.62,63,51,72.86,2.09,6.51,4.27,11.91,10.69,13.75" transform="translate(-34.16 -187.7)"/><path class="cls-35" d="M338.83,479.64h0a7.47,7.47,0,0,1,4.47-1.56c6.49,0,28.77,28.93,34.17,37.25,1.66,2.55,2.43,7.54,3.26,14.08,2.36,18.73,5.12,50.1,30.08,72.75" transform="translate(-34.16 -187.7)"/><path class="cls-35" d="M380.73,529.39h0c9.08,8.25,16.66,18.52,26.45,25.73" transform="translate(-34.16 -187.7)"/><path class="cls-35" d="M490.43,696.37c.14,3.66.38,8.16.72,13.15" transform="translate(-34.16 -187.7)"/><path class="cls-35" d="M491.74,717.31c.08,1,.17,2,.26,3" transform="translate(-34.16 -187.7)"/><path class="cls-35" d="M492.76,728.37c.66,6.55,1.45,13.12,2.35,19.09" transform="translate(-34.16 -187.7)"/><path class="cls-35" d="M496.75,757c.14.7.28,1.39.43,2a43.94,43.94,0,0,0,3.18,10.26c2.68-1.69,3.6-4.88,3.79-8.42" transform="translate(-34.16 -187.7)"/><path class="cls-35" d="M499.28,714.17c1.72-1.33,3.45-2.59,5.17-3.74,5.31-3.53,10.44-6,14.27-6.12h0c1,.28,1.47.8,1.47,1.47,0,1.73-6.21,7.36-13.82,13.14-2.1,1.6-4.31,3.21-6.52,4.76-2.4,1.67-4.81,3.26-7.09,4.68C487.39,731.7,482.7,734,480.4,734a5.17,5.17,0,0,1-.57,0c2-3.41,6.6-8.6,12.17-13.69h0c.52-.47,1.05-.95,1.59-1.42,1.83-1.62,3.74-3.21,5.68-4.71" transform="translate(-34.16 -187.7)"/><path class="cls-35" d="M498.53,749.49c1.61-1.38,3.24-2.72,4.85-4,5.9-4.62,11.4-8.15,13.54-8.15.83,0,1.1.64,1.1,1.46,0,4.85-5.7,8.91-9.61,11.71-1.28.91-2.54,1.83-3.8,2.76" transform="translate(-34.16 -187.7)"/><path class="cls-35" d="M503.38,745.51c0-.81,0-1.7,0-2.67,0-5.55.13-11.09.33-16.63" transform="translate(-34.16 -187.7)"/><path class="cls-35" d="M506.37,718.93c4.68,3.46,8.5,7.06,9.85,10.14a4,4,0,0,1-2.81,1c-2.44,0-5.94-1.54-9.72-3.83-1.26-.76-2.55-1.6-3.84-2.51" transform="translate(-34.16 -187.7)"/><path class="cls-35" d="M493.59,718.88c-.63-.52-1.25-1-1.85-1.57-5.16-4.5-9.05-8.85-9.05-10.47a1.2,1.2,0,0,1,.48-1,76.78,76.78,0,0,1,8,3.69h0c2.56,1.34,5.35,2.92,8.12,4.64h0" transform="translate(-34.16 -187.7)"/><path class="cls-35" d="M504.45,710.44h0c.3-5.45.64-10.89,1-16.35" transform="translate(-34.16 -187.7)"/><path class="cls-35" d="M498.52,758,497.18,759l-.18.14c-2.95,2.37-7.44,7.67-11.42,7.67-.91,0-1.29-.37-1.29-1,0-2.09,3.64-6.46,8.52-11.16" transform="translate(-34.16 -187.7)"/><path class="cls-35" d="M504.61,753.29c6.51,4.26,12.22,8.66,12.22,11,0,.57-.4.93-1.37.93a13.14,13.14,0,0,1-4-.91s-3.16-1.39-7.35-3.47c-1.75-.86-3.67-1.85-5.63-2.9l-1.77-1c-1.33-.74-2.66-1.51-3.94-2.29-5.52-3.38-10.12-7-10.12-9.62,0-1.66,1.32-2.71,3.24-2.71.08,0,4.08,2.12,9.18,5.1,1.1.64,2.24,1.32,3.42,2C500.54,750.7,502.61,752,504.61,753.29Z" transform="translate(-34.16 -187.7)"/><polyline class="cls-35" points="371.04 180.03 383.28 198.84 386.34 203.55 392.84 203.55 407.84 169.3 431.98 194.66 433.31 196.05 442.09 195.8 443.43 193.93 466.59 161.55 470.84 161.55 497.84 196.05 503.09 195.8 535.84 168.55 562.09 203.55 568.09 203.55 593.17 185.3 608.84 214.05 613.84 212.63"/><polyline class="cls-35" points="616.17 218.05 609.84 218.05 607.09 222.55 602.63 221.8 586.34 219.05 583.59 212.8 557.09 208.55 554.84 214.05 519.34 210.3 516.34 203.3 492.29 201.8 488.94 205.15 456.09 203.8 449.97 197.67 442.41 198.54 420.59 201.05 418.84 206.55 388.88 209.3 386.34 203.55 362.51 207.97"/><line class="cls-35" x1="363.51" y1="202.63" x2="383.28" y2="198.84"/><polyline class="cls-35" points="392.84 203.55 415.59 202.63 417.34 196.05 431.98 194.66"/><polyline class="cls-35" points="443.43 193.93 456.59 194.66 459.59 198.84 486.83 200.74 490.34 194.66 497.84 196.05"/><polyline class="cls-35" points="503.09 195.8 521.09 199.1 524.09 204.8 551.59 208.55 554.09 202.18 562.09 203.55"/><polyline class="cls-35" points="568.09 203.55 586.34 208.55 589.16 216.3 603.09 219.05 608.84 214.05"/><polyline class="cls-35" points="609.84 177.3 604.59 177.3 602.84 173.3 597.17 173.55"/><polyline class="cls-35" points="597.17 173.55 578.09 167.3 575.59 172.05 547.68 167.3"/><polyline class="cls-35" points="534.37 161.3 510.34 157.55 507.31 162.55 486.83 160.05 483.59 154.05 473.84 154.05"/><polyline class="cls-35" points="464.34 154.05 452.59 154.05 446.59 161.55 420.84 162.55 415.09 158.3 411.84 159.8"/><polyline class="cls-35" points="403.84 161.3 389.09 162.55 385.59 169.05 373.51 172.3 376.5 177.46 386.84 195.3 401.54 165.9 403.84 161.3 411.84 159.8 418.88 167.76 436.84 188.05 460.9 158.3 464.34 154.05 472.59 154.05 473.84 154.05 477.16 157.99 499.84 184.92 530.68 163.82 534.37 161.3 543.09 161.3 547.68 167.3 551.53 172.34 565.84 191.05 592.42 176.2 597.17 173.55 599.33 179.37 608.84 205.05 613.84 208.55"/><polyline class="cls-35" points="376.5 177.46 386.59 175.55 391.34 168.3 401.54 165.9"/><polyline class="cls-35" points="418.88 167.76 449.84 165.9 455.59 158.3 460.9 158.3"/><polyline class="cls-35" points="477.16 157.99 481.59 158.3 484.59 163.03 509.84 167.3 513.84 161.55 530.68 163.82"/><polyline class="cls-35" points="551.53 172.34 577.34 177.3 581.09 173.55 592.42 176.2"/><polyline class="cls-35" points="599.33 179.37 603.51 181.3 603.51 183.55 609.51 183.3"/><path class="cls-35" d="M717.64,316.18a17.89,17.89,0,0,0,5.66-4.4" transform="translate(-34.16 -187.7)"/><path class="cls-35" d="M713.78,350.43c6.72,6,13.51,12.23,21.61,15.87,5.14-10.83,7.53-17.67,9.14-27.72" transform="translate(-34.16 -187.7)"/><path class="cls-35" d="M628,293.43c4.12,5.13,6.72,10.5,6.72,15.47a14.18,14.18,0,0,1-.39,3.3c-2,8.39-8.79,15.7-16.37,19.05a55.31,55.31,0,0,1-22.11,5.09c-22.32,0-38.71-18.49-38.71-38.78,0-17.27,12.44-27.53,29.5-27.53,10.92,0,26.87,8.47,37.36,19" transform="translate(-34.16 -187.7)"/><path class="cls-35" d="M618.35,317.51a7.09,7.09,0,0,1-1.1.49c-4.21-2.58-8.79-9.09-13.92-9.09-7.61,0-14.92,4.78-22.49,6.83a24,24,0,0,1-6.28.92c-3.69,0-5.27-1.22-5.27-2.84,0-1.94,1-3.19,4.17-5.11,3.61-2.21,10-5.3,20.78-11.32-9.13-9.76-13.25-14.74-13.69-18.37a4.82,4.82,0,0,1,0-.65c0-1.87,1.3-3.61,3-3.61a8.54,8.54,0,0,1,4.4,1.76c5.85,3.94,13.1,13.33,15.73,16.12a118.89,118.89,0,0,1,15.68-3.4,34,34,0,0,1,3.86-.26l.87,0c2.63.12,4.43.84,4.43,2.57a4.43,4.43,0,0,1-.44,1.86,11.63,11.63,0,0,1-2.63,3.5c-3.77,3.66-10,7.06-13.13,8.7,2.46,1.67,8,5.86,8,9.14A3.09,3.09,0,0,1,618.35,317.51Z" transform="translate(-34.16 -187.7)"/><path class="cls-35" d="M573.46,308.71a21.84,21.84,0,0,1-4.66-12.85c0-7.32,5.15-13.45,11.75-16.84" transform="translate(-34.16 -187.7)"/><path class="cls-35" d="M587.9,276.52a23.17,23.17,0,0,1,4-.37c8,0,19.55,5.54,27.37,13.09" transform="translate(-34.16 -187.7)"/><path class="cls-35" d="M625.4,296.93a17.56,17.56,0,0,1,2.43,8.44c0,5.72-3.74,10.18-8.88,13.2a35.19,35.19,0,0,1-17.08,4.56,23,23,0,0,1-5.62-.63,46.87,46.87,0,0,1-15.41-6.76" transform="translate(-34.16 -187.7)"/><path class="cls-35" d="M458.14,272.94c6.66-2.09,14.2-3.92,19.42-3.92,14.47,0,22.78,10.43,22.78,24.5,0,32.48-36.76,44.62-52.84,44.62-14.39,0-20.21-7.14-23.69-17.54" transform="translate(-34.16 -187.7)"/><path class="cls-35" d="M431.43,323.73c-.2-.1-.46-.13-.67-.24h0a2.34,2.34,0,0,1-.44-1.41c0-2.62,3.51-6.5,8-10.42,6.52-5.72,15.08-11.53,17.69-13.66-2.42-2.16-5-4.27-7.31-6.59a34.65,34.65,0,0,1-3.82-4.48c2.49-2.18,4.48-3.13,6.28-3.13,3.76,0,6.65,4.17,11.38,9.82C467.9,289.41,480.18,278,487,278c1.64,0,4.36,1,4.36,2.5,0,2.08-22.54,15.14-24.13,16,6.36,5.75,13.21,11.88,15.55,20.33-2.71,1.76-5.18,3.81-7.77,5.73a100,100,0,0,0-15.77-20c-4.83,4-22,20.27-27.81,21.23h0" transform="translate(-34.16 -187.7)"/><path class="cls-35" d="M431.42,323.73h0" transform="translate(-34.16 -187.7)"/><path class="cls-35" d="M440.75,324.25a64,64,0,0,0,11.34,1.11,37.55,37.55,0,0,0,17.61-4.05" transform="translate(-34.16 -187.7)"/><path class="cls-35" d="M483.75,312.25a44.71,44.71,0,0,0,5.58-19.75" transform="translate(-34.16 -187.7)"/><path class="cls-35" d="M479,279.25c-.61,0-1.21,0-1.82,0a42,42,0,0,0-19.38,4.48" transform="translate(-34.16 -187.7)"/><path class="cls-35" d="M446.75,292.75c-4.47,5.05-8.3,10.43-10.15,17" transform="translate(-34.16 -187.7)"/><path class="cls-35" d="M604,588.5c-1.48,12.15-3.24,22.12-6,30.63a61.81,61.81,0,0,1-11.58,21.58L585.33,642c-.41,2.21-.84,4.36-1.3,6.43-4.58,20.7-12.36,35.22-36,54.57-.73-9.8-1.06-18.65-.89-26.84a147.28,147.28,0,0,1,2.41-24.79,116.66,116.66,0,0,1,6.39-21.84q1-2.56,2.18-5.13a174.75,174.75,0,0,1,13.21-23.66l.7-1.07-4.33,2.66c.81-2.25,1.59-4.47,2.33-6.64h0c2.81-8.21,5.16-15.92,7.1-23.35,7.43-28.44,9-52.88,8.22-86.34l-.2-.18-.19-.17c-11-9.94-20.6-17.24-28.27-31-.15,7.12-.37,13.74-.79,20-.11,1.67-.23,3.31-.38,4.93a154.22,154.22,0,0,1-2.24,16.52c-.4,2.05-.85,4.07-1.37,6.06-.17.72-.36,1.44-.56,2.16-.1-.67-.21-1.33-.31-2q-.45-2.82-.91-5.51c-1.15-6.75-2.39-12.88-3.82-18.7-.08-.31-.15-.61-.23-.9a177.24,177.24,0,0,0-10.39-29.9,106.24,106.24,0,0,0-12,28.29c-.66,2.46-1.27,5-1.87,7.79l-.12.59L530,514.67l-26-13.34a194.52,194.52,0,0,1-6.82-26.59,249.41,249.41,0,0,1-2.85-25.41l-.21.34-14.94,24.25-1,1.61-4.19,6.8c-.17-2.19-.36-4.32-.56-6.41-.12-1.28-.24-2.54-.37-3.77C472,460.69,471,451,474,443.67l-19.57,28.86a99.74,99.74,0,0,1,11.89-.91,39.35,39.35,0,0,1,6.75.53" transform="translate(-34.16 -187.7)"/><path class="cls-35" d="M479.18,473.92a21.83,21.83,0,0,1,2.68,1.37,24.23,24.23,0,0,1,6.69,6" transform="translate(-34.16 -187.7)"/><path class="cls-35" d="M534.33,483.67a61.2,61.2,0,0,1,10.17-5.8c.52-.22,1-.44,1.56-.64" transform="translate(-34.16 -187.7)"/><path class="cls-35" d="M555.88,474.66a52.29,52.29,0,0,1,7.24-.48c.94,0,1.9,0,2.89.06" transform="translate(-34.16 -187.7)"/><path class="cls-35" d="M483,491.33c2.92,4.6,5.77,9.43,7.39,14.67" transform="translate(-34.16 -187.7)"/><path class="cls-35" d="M503,548.67a22.68,22.68,0,0,0,6.87,4.79" transform="translate(-34.16 -187.7)"/><path class="cls-35" d="M526.47,636c7-3.32,15.62-2.48,22.5-7.76.3-.22.58-.45.87-.7" transform="translate(-34.16 -187.7)"/><path class="cls-35" d="M519.25,642.5a16.58,16.58,0,0,1,7.21-6.47" transform="translate(-34.16 -187.7)"/><path class="cls-35" d="M470,628.51a34.53,34.53,0,0,1-10.95-6.45c-.61-.55-1.23-1.15-1.85-1.81" transform="translate(-34.16 -187.7)"/><path class="cls-35" d="M484.75,638.5c-4.38-6.23-9.39-7.84-14.73-10" transform="translate(-34.16 -187.7)"/><path class="cls-35" d="M441.66,823.33c.46,1.21.92,2.41,1.39,3.61" transform="translate(-34.16 -187.7)"/><path class="cls-35" d="M427,785.85c5.44,12.19,9.91,25,14.69,37.47" transform="translate(-34.16 -187.7)"/><path class="cls-35" d="M404,702.39a119.11,119.11,0,0,0,1.83-23.2c0-2.66,0-5.33-.07-8,0-.78,0-1.56,0-2.34" transform="translate(-34.16 -187.7)"/><path class="cls-35" d="M280.08,507.09h0c-3.83-8-7.94-16.61-8.1-25.58" transform="translate(-34.16 -187.7)"/><path class="cls-35" d="M297.54,443.68c-1.49-9.24-5-18.26-8.69-26.92" transform="translate(-34.16 -187.7)"/><path class="cls-35" d="M303.33,464.33c-1.31-4.63-2.77-9.2-4.12-13.82" transform="translate(-34.16 -187.7)"/><path class="cls-35" d="M246.07,455.22c-.46-6.47-2.45-12.9-2.45-19.31,0-.32,0-.63,0-1s0-.77.05-1.15" transform="translate(-34.16 -187.7)"/><path class="cls-35" d="M166.38,338.19c1.94-11.5,7.62-22.72,16.62-30.07h0" transform="translate(-34.16 -187.7)"/><path class="cls-35" d="M127.56,320.09c2.7-1.16,5.7-1,8.32-2.81" transform="translate(-34.16 -187.7)"/><path class="cls-35" d="M99,322.38h0c-4.59,3-10.06,5-11,10.64" transform="translate(-34.16 -187.7)"/><path class="cls-35" d="M406.59,537.18c.17.65.35,1.32.54,2q-.09,8.19.07,16a375.16,375.16,0,0,0,3.62,47c2.67,18.25,6.77,34,12.22,47.22,5.63,13.69,12.7,24.8,21.13,33.46,1.46-4.15,1.8-9.39,1.35-16.15-.41-6.22-1.5-13.73-3-22.85A21.58,21.58,0,0,0,444,639.3c1-4.41.82-9.65-.59-16.32-.5-2.38-1.15-4.94-2-7.71-.15-.53-.31-1.06-.48-1.6l3,3.33s-1.54-5.22-3.58-13.47c-1.58-6.34-3.45-14.49-5.15-23.41-3.93-20.56-6.94-45.27-3.27-61.79l-.11-1.55c-.38-4.93-1.73-20.46-4.45-29.43a90.27,90.27,0,0,0-6.83,12c.63-5,1.37-10,2.27-14.95,2.85-15.82,7.26-31.35,14.41-45.84" transform="translate(-34.16 -187.7)"/><path class="cls-35" d="M414.13,425.42a220.08,220.08,0,0,1-23.72,44.77h0a221.69,221.69,0,0,1-20.9,25.64c13.16.46,21-.49,33.69-6.1l.14-.06c-.44,19.18-.94,31.72,3.25,47.5" transform="translate(-34.16 -187.7)"/><path class="cls-35" d="M403.19,489.73c1.53-14.82,3.93-32.93,8.91-45.88" transform="translate(-34.16 -187.7)"/><path class="cls-35" d="M410.66,542.28h0a38.89,38.89,0,0,1-4.06-5.09h0" transform="translate(-34.16 -187.7)"/><path class="cls-35" d="M410.67,509.67c-.12,6.53-.34,13.19-.34,19.85,0,4.67.11,8.89.32,12.75,1.75,30.76,10.68,38.81,30.83,73" transform="translate(-34.16 -187.7)"/><path class="cls-35" d="M438.33,629.83a65.29,65.29,0,0,1,4.15,14" transform="translate(-34.16 -187.7)"/><path class="cls-35" d="M603.48,573.92c-9.34,10.42-20.05,19.88-32.18,26.82" transform="translate(-34.16 -187.7)"/><path class="cls-35" d="M602,528.83a196.1,196.1,0,0,1,1.59,25.43c0,1.82,0,3.65-.07,5.46v0" transform="translate(-34.16 -187.7)"/><path class="cls-35" d="M613.67,467.67c.5,6.6.63,13.2.63,19.79,0,2.1,0,4.19,0,6.29,0,4.75-.11,9.5-.11,14.26q0,3.8.07,7.59" transform="translate(-34.16 -187.7)"/><path class="cls-35" d="M584.94,485.65a66.3,66.3,0,0,0-.65-8.2" transform="translate(-34.16 -187.7)"/><path class="cls-35" d="M556.62,456.6c-.07-1.44-.15-2.89-.15-4.33V452" transform="translate(-34.16 -187.7)"/><path class="cls-35" d="M521.79,483.41c-.75-2.64-1.46-5.34-2.08-8.07a84.77,84.77,0,0,1-2.35-18.55c0-.38,0-.75,0-1.13" transform="translate(-34.16 -187.7)"/><path class="cls-35" d="M494.12,449.69v0c-.17-2-.3-3.93-.3-5.88,0-.48,0-1,0-1.46" transform="translate(-34.16 -187.7)"/><path class="cls-37" d="M520,399.88c-7-1.92-28.75-2.95-36.92-2.95a247.15,247.15,0,0,0-47.31,4.72" transform="translate(-34.16 -187.7)"/><path class="cls-35" d="M377.33,655.67q-.12,3.68-.12,7.34c0,16.65,1,15.76,1,58.32q0,7.51,0,15c0,21.77.16,43.55,1.77,65.32" transform="translate(-34.16 -187.7)"/><path class="cls-35" d="M303.33,813.67q2.07,6.78,3.76,13.59a257.42,257.42,0,0,1,7.7,60.07c0,.74,0,1.48,0,2.22a253.3,253.3,0,0,1-1.64,28.8q-.74,6.64-1.85,13.29h0" transform="translate(-34.16 -187.7)"/><path class="cls-35" d="M270.88,818.75a92.15,92.15,0,0,0-14-1.28A43.75,43.75,0,0,0,241.51,820" transform="translate(-34.16 -187.7)"/><path class="cls-35" d="M297.62,797.88C291.21,787.9,269.17,781,257,781c-1,0-2,0-3,.09h0" transform="translate(-34.16 -187.7)"/><path class="cls-35" d="M289.38,817.88a46.73,46.73,0,0,1,10-12.12" transform="translate(-34.16 -187.7)"/><path class="cls-35" d="M307.09,827.26c-4.25-1.57-8.53-2.87-12.86-4.21" transform="translate(-34.16 -187.7)"/><path class="cls-35" d="M328,780.91h0c.36,4.5.55,9,.55,13.42,0,20.65-4,40.84-13,59.83" transform="translate(-34.16 -187.7)"/><path class="cls-35" d="M314.79,887.33A143.79,143.79,0,0,0,284.67,863c-17.15-10.35-34.46-15.77-50.52-19.43" transform="translate(-34.16 -187.7)"/><path class="cls-35" d="M284.67,863c-26.47-1.56-40.12-.25-62.12,5.43" transform="translate(-34.16 -187.7)"/><path class="cls-35" d="M313.16,918.35c-37.89-22.29-74.63-37.35-100-25.08" transform="translate(-34.16 -187.7)"/><path class="cls-35" d="M301,957.14S222.55,918.35,201.66,933" transform="translate(-34.16 -187.7)"/><path class="cls-35" d="M288.33,976.67c1.3-2.95-28.66-32.47-45.31-42.26" transform="translate(-34.16 -187.7)"/><path class="cls-35" d="M274.35,1020.83h0c-11.22-17.16-67.65-60.8-79.22-57.07h0" transform="translate(-34.16 -187.7)"/><path class="cls-35" d="M269,1032.31c-15.35-8.35-46.41-22.64-77.63-24" transform="translate(-34.16 -187.7)"/><path class="cls-35" d="M255.5,1059.25a16.55,16.55,0,0,0-9.54,0" transform="translate(-34.16 -187.7)"/><path class="cls-35" d="M348.26,806.24h0c0,29-1,101.75-31.43,130.92" transform="translate(-34.16 -187.7)"/><path class="cls-35" d="M346.76,848c-9.24,12.71-15.77,19.18-28,23.69" transform="translate(-34.16 -187.7)"/><path class="cls-35" d="M391.82,866.16h0q-.68,3.36-1.41,6.6A218.27,218.27,0,0,1,379.11,909c-9.83,23.48-22.82,40-38,50.56" transform="translate(-34.16 -187.7)"/><path class="cls-35" d="M376.75,908c.46-18-3.82-63.5-19.25-92.45" transform="translate(-34.16 -187.7)"/><path class="cls-35" d="M411.91,939.6h0c-5,15.44-19.19,27.63-30,35a113.52,113.52,0,0,1-13.3,8" transform="translate(-34.16 -187.7)"/><line class="cls-35" x1="362.91" y1="814.95" x2="338.77" y2="865.63"/><path class="cls-35" d="M468.33,907c-9.65-6-16.32-9.52-20.33-17" transform="translate(-34.16 -187.7)"/><path class="cls-35" d="M611.33,1040.33c.45,1.08,5.65,29.77-2.38,47.37h0" transform="translate(-34.16 -187.7)"/><line class="cls-35" x1="705.99" y1="910.5" x2="691.84" y2="900.01"/><path class="cls-35" d="M756,1132a45.19,45.19,0,0,1-9.33-10.67" transform="translate(-34.16 -187.7)"/><path class="cls-35" d="M759,622.33c11.15-8.06,17.58-15.77,25.78-24.43l1.55-1.63" transform="translate(-34.16 -187.7)"/><path class="cls-35" d="M676.65,576.3l0,0c-13,10.85-20.15,17.41-33.3,28.36" transform="translate(-34.16 -187.7)"/><path class="cls-35" d="M711.25,569.5s-7.92,2.21-10.4,4.42" transform="translate(-34.16 -187.7)"/><path class="cls-35" d="M586.45,640.71c1.09-8.31,2.86-14.73,3.22-21.28" transform="translate(-34.16 -187.7)"/><path class="cls-35" d="M322,1282.5c7.51-15.22,11.3-21.46,18.26-25.24" transform="translate(-34.16 -187.7)"/><line class="cls-35" x1="267.18" y1="1343.01" x2="272.17" y2="1346.3"/><path class="cls-35" d="M229.33,1637.67c.38-15.67-12.66-27.39-12.66-40.67" transform="translate(-34.16 -187.7)"/><path class="cls-35" d="M215.28,1597h0c-4.28,11.35,1.39,36.68,1.39,36.68" transform="translate(-34.16 -187.7)"/><path class="cls-35" d="M215.28,1597h0c-6.59.23-9.53,6.32-13.4,13.69" transform="translate(-34.16 -187.7)"/><path class="cls-35" d="M142.67,1240.33c7.77-.78,13.21-3.7,22.05-2" transform="translate(-34.16 -187.7)"/><path class="cls-35" d="M164,1136c4.33,14.51,15.33,37.67,15.33,37.67" transform="translate(-34.16 -187.7)"/><path class="cls-35" d="M237.62,1109.19c17.88,11.14,16.85,18.81-4.86,26.81" transform="translate(-34.16 -187.7)"/><path class="cls-35" d="M536.52,1137.77c2.49,12.44,3.24,21.9,0,30.73" transform="translate(-34.16 -187.7)"/><polyline class="cls-35" points="577.17 478.97 577.23 480.02 578.17 496.63"/><polyline class="cls-35" points="549.84 551.97 550.29 553.66 560.84 593.3"/><path class="cls-35" d="M637,679.67c18.33,54.33,49,162.42,49,162.42" transform="translate(-34.16 -187.7)"/><path class="cls-35" d="M696.33,858.67c15.56,36.51,25.62,56.12,45.67,87" transform="translate(-34.16 -187.7)"/><path class="cls-35" d="M675.67,860.67C691.67,917,705,996,717.33,1028.33" transform="translate(-34.16 -187.7)"/><path class="cls-35" d="M912.08,586.37c.87,23.45,3.83,36.17,9.92,54.3" transform="translate(-34.16 -187.7)"/><path class="cls-35" d="M969.93,525.67c-3.21,1.67-5,3.11-5,7.83,0,2.62.51,5.55.51,7.88,0,8.14-5,19.14-14.24,26.06" transform="translate(-34.16 -187.7)"/><path class="cls-35" d="M934.14,535.87c-.5,5.64-1,11.8-1,18,0,18.13,4.55,25.8,9.44,30.46" transform="translate(-34.16 -187.7)"/><line class="cls-35" x1="203.27" y1="263.33" x2="203.27" y2="263.34"/><line class="cls-35" x1="336.23" y1="452.47" x2="336.22" y2="452.46"/><path class="cls-35" d="M441.66,823.33h0" transform="translate(-34.16 -187.7)"/><line class="cls-35" x1="435.86" y1="440.81" x2="435.85" y2="440.81"/><line class="cls-35" x1="492.31" y1="448.33" x2="492.3" y2="448.33"/><line class="cls-35" x1="416.87" y1="430.69" x2="416.86" y2="430.69"/><path class="cls-35" d="M762.86,585.48s-.05,0-.08.06" transform="translate(-34.16 -187.7)"/><polyline class="cls-35" points="420.27 284.83 415.84 261.99 396.09 294.97 393.28 299.65"/></g></svg>