<svg xmlns="http://www.w3.org/2000/svg" id="shading" viewBox="0 0 1014.62 1570.47"><defs><style>.cls-1{fill:#f7dec6}.cls-2{fill:#524e63}.cls-4{fill:#917666}.cls-5{fill:#cbaa99}.cls-6{fill:#367579}.cls-7{fill:#a15845}.cls-8{fill:#664e58}.cls-9{fill:#0A575B}.cls-12{fill:#604d61}.cls-14{fill:#583f43}.cls-15{fill:#3d394a}.cls-16{fill:#bd7c3c}.cls-18{fill:#dad9e3}.cls-19{fill:#f7cf6d}.cls-20{fill:#fefbfd}.cls-21{fill:#3e3137}.cls-24{fill:#5d3a36}.cls-29{fill:#c5b5b5}.cls-30{fill:#5A4B47}.cls-31{fill:#fece86}.cls-34{fill:#524e64}.cls-35{fill:none;stroke:#000;stroke-miterlimit:10}</style></defs><g id="_Gruppe_" data-name="&lt;Gruppe&gt;"><path d="M1040.5 533.33c6.89-1.65 12.74 7.1 1.33 11.17-14.61 5.22-29 5.26-42.62 9.42a23.33 23.33 0 0 1-2.06-8.93 15.6 15.6 0 0 1 .31-3.1c13.64-.21 26.75-4.66 43.04-8.56zm-2.17 29c4.36.2 5.92 9.22-4.33 10.67-12.65 1.79-24.73-.85-37-.33a27.43 27.43 0 0 1-.47-4.78 14.93 14.93 0 0 1 1.78-7.4c10.12 1.11 27.79 1.29 40.02 1.84zm-8.33-53.66c6.9-1.46 11.44 1.87 5 7-10.21 8.13-28.45 15-39.31 19.6a25.52 25.52 0 0 1-4.75-12.27c12.65-5.57 25.17-11.41 39.06-14.33zM1013 587c5.45 2.29.81 8.12-8.33 6-5.17-1.2-10.25-3-15.66-4.18a16.11 16.11 0 0 1 5-8.62c6.38 2.38 14.53 4.92 18.99 6.8z" class="cls-1" transform="translate(-34.16 -187.7)"/><path d="M969.93 525.67h14.74c2.1-.88 4.18-1.79 6.27-2.7a25.52 25.52 0 0 0 4.75 12.29c-7.91 3.37-11.9 5.56-6 6.23a60.26 60.26 0 0 0 7.79.37 15.6 15.6 0 0 0-.31 3.1 23.33 23.33 0 0 0 2.06 8.93 59.89 59.89 0 0 0-6.21 2.24c-5.28 2.24-1.91 3.52 5.32 4.32a14.93 14.93 0 0 0-1.78 7.4 27.43 27.43 0 0 0 .47 4.78 56.67 56.67 0 0 0-9.93 1.25c-5.09 1.13-.2 3.61 6.94 6.28a16.11 16.11 0 0 0-5 8.62 58.88 58.88 0 0 0-6.68-1.15c-11 2-20.4-.5-31.33-2.67a40.48 40.48 0 0 0-8.45-.71c-4.89-4.66-9.44-12.33-9.44-30.46 0-6.15.53-12.31 1-18a10.46 10.46 0 0 0 3.19-1.87c7.68-7 15.17-21.83 21-25l.28-.15c1.91 6.58 6.34 12.94 13.12 14.24-.7.87-1.39 1.73-2.06 2.58z" class="cls-2" transform="translate(-34.16 -187.7)"/><path d="M981 490c6.13-7.32 9-5.67 9 .33 0 12.21-10.23 22.93-18.27 32.76-6.78-1.3-11.21-7.66-13.12-14.24A83 83 0 0 0 981 490z" class="cls-1" transform="translate(-34.16 -187.7)"/><path d="M942.55 584.28c-3.76 0-7.48.41-11.22.71v.49a54.61 54.61 0 0 0-6.75-.42 57.89 57.89 0 0 0-6.57.38 63.21 63.21 0 0 1-6-14.09c.2-12 1.5-23.92 7.06-34.32.92-.31 1.46-.54 1.46-.54l-1.17 2.5c6.29-1.08 11.34-1.75 14.81-3.13-.5 5.64-1 11.8-1 18-.06 18.14 4.49 25.76 9.38 30.42z" class="cls-2" transform="translate(-34.16 -187.7)"/><path fill="#af8a62" d="M931.31 585.49c-1 23.93-.52 50-9.31 55.18-6.09-18.13-9-30.85-9.92-54.3 2-.39 3.94-.71 5.91-.92a57.89 57.89 0 0 1 6.57-.38 54.61 54.61 0 0 1 6.75.42z" transform="translate(-34.16 -187.7)"/><path d="M913.81 538.36A32.33 32.33 0 0 0 919 537c-5.56 10.4-6.86 22.35-7.06 34.32v3.78c0 3.78.08 7.54.13 11.23.87 23.45 3.83 36.17 9.92 54.3-13.41-2.35-26.21-5.55-39.14-8.32-10.72-14.84-14.27-36-14.27-54.59 0-16 1.8-21.32 5.37-34.46 13.94-1.42 28.05-2.96 39.86-4.9z" class="cls-4" transform="translate(-34.16 -187.7)"/><path d="M918 585.45c-2 .21-3.94.53-5.91.92-.05-3.69-.13-7.45-.13-11.23v-3.78a63.21 63.21 0 0 0 6.04 14.09z" class="cls-5" transform="translate(-34.16 -187.7)"/><path d="M784.78 597.9c-8.2 8.66-14.63 16.37-25.78 24.43 0 0-15.67 8-22.33 11.34-4.09 2.05-29 6.23-47.7 9.15 20-11.05 45-32.51 73.81-57.28 0 0 .05 0 .08-.06 27-19.91 49.28-36.05 53.52-34.23 11.81-3.38 34.52-5.55 57.58-8-3.57 13.14-5.37 18.45-5.37 34.46 0 18.58 3.55 39.75 14.27 54.59-20.25-4.35-40.83-7.66-64.53-5a80.07 80.07 0 0 1-17.66 2.36 63 63 0 0 1-15.24-1.64c-3.58-3.44-7.33-7.71-7.33-10.06 0-3.91 26.21-26.1 32.56-28.7a11.12 11.12 0 0 0-5.63-1.44c-7.12.03-15.11 5.67-20.25 10.08z" class="cls-6" transform="translate(-34.16 -187.7)"/><path d="M756 1132c-12.84 4.87-29.5 4.47-49 0-34.25-7.85-64.23-14.81-95.33-9-8 1.49-23.24 9-25.51 8.62-2.11-.36-5.16-4.12-5.16-4.12 8.52-7.5 14.38-14.16 18.86-22.25a121.32 121.32 0 0 1 31.23-3.76c29.9 0 60.09 8.34 90.24 8.34a133.64 133.64 0 0 0 21.37-1.62c-.94-3.32-1.79-6.64-2.55-10 27.63 12.88 54.45 33.89 86.52 34.66.15 1.54 6.94 9.1 10.6 9.1 1.42 0 2.14-1.27 2.14-2.6 0-5.1-7.68-24.43-8.45-27.77-34-161.26-30.29-481.46-30.29-481.46v-.44a80.07 80.07 0 0 0 17.66-2.36c-2.33 31.44-2.33 60.22-.66 81.66 10.11 127 18.66 318.67 27.66 367 5.34 28.65 12.24 55.64 19.67 82.33-39.49 4.72-75.51-5.33-109-26.33z" class="cls-7" transform="translate(-34.16 -187.7)"/><path d="M740.15 1098.2c.76 3.37 1.61 6.69 2.55 10a133.64 133.64 0 0 1-21.37 1.62c-30.15 0-60.34-8.34-90.24-8.34a121.32 121.32 0 0 0-31.23 3.76 76.42 76.42 0 0 0 4.47-9.67 33.44 33.44 0 0 1 4.62-7.87c16.62-22.08 64-52.76 64-101.37 0-41.68-22.3-85.33-44.61-110.49 2.78-.86 3.63-2.53 3.63-5.63 0-2.76-9.26-44.81-17.29-44.81-1.88 0-3.9.24-5 .24h-.05C604.33 817.34 595 781 595 781c0-5.13 1.66-11.62 4-19.19 6.11-20 16.75-47.5 13.36-77.48 5.7 2.78 23.27-13.41 36.48-30.18a110 110 0 0 0 10.86-2.48 82.86 82.86 0 0 0 16.08-6.82c3.58-.54 8.17-1.24 13.21-2 18.65-2.92 43.61-7.1 47.7-9.15 6.66-3.34 22.33-11.34 22.33-11.34 8.34-1.14 15.6 3.22 26.43 5.72a63 63 0 0 0 15.24 1.64v.44S797 950.33 831 1111.59c.77 3.34 8.45 22.67 8.45 27.77 0 1.33-.72 2.6-2.14 2.6-3.66 0-10.45-7.56-10.6-9.1-32.11-.77-58.93-21.78-86.56-34.66z" class="cls-8" transform="translate(-34.16 -187.7)"/><path d="M816.38 551.25c-4.24-1.82-26.47 14.32-53.52 34.23 0 0-.05 0-.08.06-28.87 21.25-63.21 46.77-87 59.31a82.86 82.86 0 0 1-16.08 6.82 110 110 0 0 1-10.86 2.48c-28.26 4.94-51.36-2.84-61.42-10.44 23.28 5.69 44.86-4.31 65.34-19.31 23.76-10 51.77-32.64 89-62l1.53.1a50.71 50.71 0 0 1 4.25-4.5c5.39-5.07 56.89-18.39 68.84-6.75z" class="cls-4" transform="translate(-34.16 -187.7)"/><path d="M805 587.85a11.12 11.12 0 0 1 5.63 1.44c-6.35 2.6-32.56 24.79-32.56 28.7 0 2.35 3.75 6.62 7.33 10.06-10.83-2.5-18.09-6.86-26.43-5.72 11.15-8.06 17.58-15.77 25.78-24.43 5.17-4.41 13.16-10.05 20.25-10.05z" class="cls-9" transform="translate(-34.16 -187.7)"/><path fill="#eeeb76" d="M744.53 338.58c10.28 22.76 14 56.27 4.05 96.34-.92 3.7-18.52-28.86-21.91-48.59-5.17 4.29-2.72 31.09-5 27.67-12.62-18.89-11-43.4-7.89-63.57 6.72 6 13.51 12.23 21.61 15.87 5.14-10.83 7.53-17.67 9.14-27.72z" transform="translate(-34.16 -187.7)"/><path d="M675.76 644.85c23.81-12.54 58.15-38.06 87-59.31C734 610.31 709 631.77 689 642.82c-5.07.79-9.66 1.49-13.24 2.03z" class="cls-9" transform="translate(-34.16 -187.7)"/><path fill="#fbd173" d="M296.65 443.8c.3-.2.6-.4.89-.61a66.55 66.55 0 0 0 9.39-7.52c.35.5.69 1 1 1.5v.06l.15-.09c77.14-14.25 158.48-26 199.85-25.36 91.64 20.55 206 56.67 237 65.88.87 1.08 1.65 2.15 2.34 3.2.2.3-.25.68-1.24 1.14-48.03-13.7-85.13-24.64-122.35-34.89-35.73-9.84-71.57-19-117.35-29.38-29.48 1.19-61.64 3.89-92.2 7.35-44.69 5.05-86 11.71-110.52 17.63-2.57.63-5.14 1.14-7.72 1.62z" transform="translate(-34.16 -187.7)"/><path d="M746.09 482.81c-10.28 4.72-79.5 16.82-114.76 18.85-.29-1-.58-2-.85-3-5.28-18.78-8.23-35.12-6.8-51C660.9 458 698 469 746.09 482.81z" class="cls-12" transform="translate(-34.16 -187.7)"/><path d="M744.53 338.58c-1.61 10.05-4 16.89-9.14 27.72-8.1-3.64-14.89-9.88-21.61-15.87 2.36-15.48 5.58-28.39 3.85-34.25a17.89 17.89 0 0 0 5.66-4.4c8.24 5.37 15.71 14.52 21.24 26.8z" class="cls-4" transform="translate(-34.16 -187.7)"/><path fill="#6a4b57" d="M741.72 562.4c-37.22 29.35-65.23 51.94-89 62 27.67-20.26 53.35-49.64 78.57-61.78a66.8 66.8 0 0 1 10.43-.22z" transform="translate(-34.16 -187.7)"/><path d="M721.5 310.67q.9.52 1.8 1.11a17.89 17.89 0 0 1-5.66 4.4 5.31 5.31 0 0 0-.3-.85c-26.58-16.45-44.6-14.93-64.66-9a15.71 15.71 0 0 1-10.67-.66c-6.75 17.89-4.38 38.43 2 59.33h-5.25l-1.76-4-5.67.25-19.08-6.25-2.5 4.75-27.91-4.75-4.59-6h-8.72l-24-3.75-3 5-20.53-2.5-3.24-6h-31l-6 7.5-25.75 1-5.76-4.25-3.25 1.5-8 1.5-14.75 1.25-3.5 6.5-12.08 3.25 16.14-39.4c3.48 10.4 9.3 17.54 23.69 17.54 16.08 0 52.84-12.14 52.84-44.62 0-14.07-8.31-24.5-22.78-24.5-5.22 0-12.76 1.83-19.42 3.92 40.06-33.19 123.46-90.48 136.53-84.27 41.39 19.66 98.64 68.87 126.83 122zm-87.13 1.53a14.18 14.18 0 0 0 .39-3.3c0-5-2.6-10.34-6.72-15.47a4.43 4.43 0 0 0 .44-1.86c0-1.73-1.8-2.45-4.43-2.57-10.49-10.5-26.44-19-37.36-19-17.06 0-29.5 10.26-29.5 27.53 0 20.29 16.39 38.78 38.71 38.78a55.31 55.31 0 0 0 22.1-5.06c7.58-3.35 14.37-10.66 16.37-19.05z" class="cls-14" transform="translate(-34.16 -187.7)"/><path d="M711.25 569.5a43.74 43.74 0 0 1 20-6.88c-25.22 12.14-50.9 41.52-78.57 61.78-20.3 8.6-37.5 8-54.7-5.27 2.73-8.51 4.49-18.48 6-30.63 12.33-19.83 30.67 2.83 47.5-6a42 42 0 0 1 23.83-5.5c.44-.24.87-.47 1.3-.68 12.59-6.46 23.75-7.22 34.64-6.82z" class="cls-15" transform="translate(-34.16 -187.7)"/><path d="M650.33 405.58c-6.16 10.25 72.72 45 94.65 72.08-31-9.21-145.34-45.33-237-65.88-41.37-.62-122.71 11.11-199.85 25.36 8-4.94 51.42-30.88 82.18-37.43 3.36-1.22 4.84-3.61 6.34-4.13l23.83-4.38 2.54 5.7 30-2.72 1.75-5.46 21.82-2.49 7.56-.86 6.12 6.08 32.85 1.34 3.35-3.32 24 1.48 3 6.94 35.5 3.72 2.25-5.45 26.5 4.21 2.75 6.2 16.29 2.73 4.46.74 2.75-4.46z" class="cls-14" transform="translate(-34.16 -187.7)"/><path d="M448 890a294.09 294.09 0 0 1 52.69-5.27c.12 2 .29 3.25.64 3.6 8.25 8.25 91.5 4.06 96.17-8.66a13.92 13.92 0 0 0 .71-3.88c4.61.27 12.53.92 19.48.92 5.12 0 8.51-.19 10.7-.87C650.7 901 673 944.65 673 986.33c0 48.61-47.43 79.29-64 101.37a33.44 33.44 0 0 0-4.62 7.87 76.42 76.42 0 0 1-4.47 9.67c-4.48 8.09-10.34 14.75-18.86 22.25-2.37 2.64-4.79 5.32-7.23 8a173 173 0 0 0 11.56-29.64l-38-15.83s3-36.17 3-43.83c-13-1.34-44.16-9.34-44.16-9.34L502.5 998c-6.67 0-41.5-14.17-41.5-14.17l9.38-14.33a48.76 48.76 0 0 0 21.39 13.61c24.89-15.73 54.19-24.3 77.07-43.26-12.6 1.08-56.43 13-74.41 13-14.93 0-16-18-22-28.91-3.12 9.13-5 19.12-7.12 28.58A98.9 98.9 0 0 1 448 937l16.83-16.83s-32.1-28.48-31.16-31.17c.57-1.64 12.72-1.42 12.72-1.42.54.8 1.08 1.6 1.61 2.42zm200-489.67c3.94.81 5.23 2.45 2.33 5.42H644l-2.75 4.5-4.46-.75.46-2.75 5.75-5z" class="cls-6" transform="translate(-34.16 -187.7)"/><path d="M648 396.25v4.08l-5 1.42L627.33 373l-25.08 18.25h-6l-26.25-35-32.75 27.25-5.25.25-27-34.5h-4.25l-23.16 32.38-1.34 1.87-8.78.25-1.33-1.39L442 357l-15 34.25h-6.5l-3.06-4.71-12.24-18.81 1-2.9c-5.93-4.35 1.32-4.73 1.5-4.83l3 5.16L421 383l14.7-29.4 2.3-4.6 8-1.5 7 8 18 20.29L495.06 346l3.44-4.25h9.5l3.32 3.94L534 372.62l30.84-21.1 3.69-2.52h8.72l4.59 6 3.85 5L600 378.75l26.58-14.85 4.75-2.65 2.16 5.82 9.51 25.68z" class="cls-6" transform="translate(-34.16 -187.7)"/><path d="M648 394.33v1.92l-5-3.5-9.51-25.68 4.18 1.93v2.25l6-.25c.58 8.64 1.41 17 4.33 23.33z" class="cls-4" transform="translate(-34.16 -187.7)"/><path d="M644 365c1.94 2.28 2.23 4.33-.33 6l-6 .25V369l-4.18-1.93-2.16-5.82L637 361l1.75 4z" class="cls-6" transform="translate(-34.16 -187.7)"/><path d="M593.17 185.3l15.67 28.75-5.75 5-13.93-2.75-2.82-7.75-18.25-5 25.08-18.25z" class="cls-4"/><path d="M631.33 501.67s9.23 19.77 7.17 21.83c-.79.79-17.5-17.5-17.5-17.5a40 40 0 0 1-6.67 7.33c0 .76-.07 1.52-.1 2.27q-.08-3.79-.07-7.59c0-4.76.07-9.51.11-14.26a1137.8 1137.8 0 0 1 16.21 4.92c.27.99.52 1.99.85 3z" class="cls-8" transform="translate(-34.16 -187.7)"/><path d="M603.09 219.05l-.46 2.75-16.29-2.75-2.75-6.25-26.5-4.25-2.25 5.5-35.5-3.75-3-7-24.05-1.5-3.35 3.35-32.85-1.35-6.12-6.13-7.56.87-.32-2.74 1.34-1.87 13.16.73 3 4.18 27.24 1.9 3.51-6.08 7.5 1.39 5.25-.25 18 3.3 3 5.7 27.5 3.75 2.5-6.37 8 1.37h6l18.25 5 2.82 7.75 13.93 2.75z" class="cls-6"/><path d="M634.76 308.9a14.18 14.18 0 0 1-.39 3.3c-2 8.39-8.79 15.7-16.37 19.05a55.31 55.31 0 0 1-22.11 5.09c-22.32 0-38.71-18.49-38.71-38.78 0-17.27 12.44-27.53 29.5-27.53 10.92 0 26.87 8.47 37.36 19h-.87a34 34 0 0 0-3.86.26c-7.82-7.55-19.35-13.09-27.37-13.09a23.17 23.17 0 0 0-4 .37 8.54 8.54 0 0 0-4.4-1.76c-1.69 0-3 1.74-3 3.61a4.82 4.82 0 0 0 0 .65c-6.6 3.39-11.75 9.52-11.75 16.84a21.84 21.84 0 0 0 4.66 12.85c-3.14 1.92-4.17 3.17-4.17 5.11 0 1.62 1.58 2.84 5.27 2.84a24 24 0 0 0 6.28-.92 46.87 46.87 0 0 0 15.41 6.76 23 23 0 0 0 5.62.63 35.19 35.19 0 0 0 17.14-4.61c5.14-3 8.88-7.48 8.88-13.2a17.56 17.56 0 0 0-2.43-8.44 11.63 11.63 0 0 0 2.63-3.5c4.08 5.13 6.68 10.5 6.68 15.47z" class="cls-6" transform="translate(-34.16 -187.7)"/><path d="M611.39 667.72A64.38 64.38 0 0 1 584 648.43c.46-2.07.89-4.22 1.3-6.43a24.93 24.93 0 0 0 2.06 1.71c10.06 7.6 33.16 15.38 61.42 10.44-13.21 16.77-30.78 33-36.48 30.18z" class="cls-9" transform="translate(-34.16 -187.7)"/><path d="M597.17 173.55l-4.75 2.65-11.33-2.65-3.75 3.75-25.81-4.96-3.85-5.04 27.91 4.75 2.5-4.75 19.08 6.25z" class="cls-6"/><path d="M632 870.21c0 3.1-.85 4.77-3.63 5.63-2.19.68-5.58.87-10.7.87-7 0-14.87-.65-19.48-.92.65-12-7.91-36.37-13.4-49a184.57 184.57 0 0 1 22.43-1.16h2.48c1.11 0 3.13-.24 5-.24 8.06.01 17.3 42.06 17.3 44.82z" class="cls-8" transform="translate(-34.16 -187.7)"/><path d="M598 619.13c17.2 13.31 34.4 13.87 54.7 5.27-20.48 15-42.06 25-65.34 19.31a24.93 24.93 0 0 1-2.06-1.71l1.12-1.29A61.81 61.81 0 0 0 598 619.13z" class="cls-16" transform="translate(-34.16 -187.7)"/><path d="M628.47 291.57a4.43 4.43 0 0 1-.44 1.86 11.63 11.63 0 0 1-2.63 3.5c-3.77 3.66-10 7.06-13.13 8.7 2.46 1.67 8 5.86 8 9.14a3.09 3.09 0 0 1-1.95 2.74 7.09 7.09 0 0 1-1.1.49c-4.21-2.58-8.79-9.09-13.92-9.09-7.61 0-14.92 4.78-22.49 6.83a24 24 0 0 1-6.28.92c-3.69 0-5.27-1.22-5.27-2.84 0-1.94 1-3.19 4.17-5.11 3.61-2.21 10-5.3 20.78-11.32-9.13-9.76-13.25-14.74-13.69-18.37a4.82 4.82 0 0 1 0-.65c0-1.87 1.3-3.61 3-3.61a8.54 8.54 0 0 1 4.4 1.76c5.85 3.94 13.1 13.33 15.73 16.12a118.89 118.89 0 0 1 15.68-3.4 34 34 0 0 1 3.86-.26h.87c2.61.14 4.41.86 4.41 2.59z" class="cls-4" transform="translate(-34.16 -187.7)"/><path d="M625.4 296.93a17.56 17.56 0 0 1 2.43 8.44c0 5.72-3.74 10.18-8.88 13.2l-.6-1.06a3.09 3.09 0 0 0 1.95-2.74c0-3.28-5.57-7.47-8-9.14 3.07-1.63 9.33-5.04 13.1-8.7z" class="cls-6" transform="translate(-34.16 -187.7)"/><path d="M592.42 176.2l-26.58 14.85-14.31-18.71 25.81 4.96 3.75-3.75 11.33 2.65z" class="cls-4"/><path fill="#3f3536" d="M494.12 449.67l-14.94 24.25-1 1.61c-1.57.11-3.16.24-4.75.39-.12-1.28-.24-2.54-.37-3.77C472 460.69 471 451 474 443.67l-19.57 28.86-4.43-22.84-19.75 33c-2.44.53-4.89 1.1-7.37 1.71q-9.57 2.33-19.55 5.29l-.14.06c-12.7 5.61-20.53 6.56-33.69 6.1a221.69 221.69 0 0 0 20.9-25.64 220.08 220.08 0 0 0 23.72-44.77c30.56-3.49 62.72-6.22 92.2-7.42 45.78 10.44 81.62 19.71 117.35 29.63-1.43 15.92 1.52 32.26 6.8 51a1137.8 1137.8 0 0 0-16.21-4.92c-9.73-2.87-19.41-5.55-29.14-7.93l-.19-.17c-11-9.94-20.6-17.24-28.27-31-.15 7.12-.37 13.74-.79 20-.11 1.67-.23 3.31-.38 4.93q-4.59-.79-9.21-1.46c-.08-.31-.15-.61-.23-.9a177.24 177.24 0 0 0-10.39-29.9 106.24 106.24 0 0 0-12 28.29c-1.31-.11-2.63-.2-3.95-.28q-11.07-.7-22.53-.6a249.41 249.41 0 0 1-2.85-25.41z" transform="translate(-34.16 -187.7)"/><path d="M618.35 317.51l.6 1.06a35.19 35.19 0 0 1-17.08 4.56 23 23 0 0 1-5.62-.63 46.87 46.87 0 0 1-15.41-6.76c7.57-2.05 14.88-6.83 22.49-6.83 5.13 0 9.71 6.51 13.92 9.09a7.09 7.09 0 0 0 1.1-.49z" class="cls-6" transform="translate(-34.16 -187.7)"/><path d="M603.52 559.72c-.16.21-.34.41-.52.61l.48 13.59c-9.34 10.42-20.05 19.88-32.18 26.82l.7-1.07-4.33 2.66c.81-2.25 1.59-4.47 2.33-6.64 2.81-8.21 5.16-15.92 7.1-23.35 7.43-28.44 9-52.88 8.22-86.34l-.2-.18c9.73 2.38 19.41 5.06 29.14 7.93 0 4.75-.11 9.5-.11 14.26q0 3.8.07 7.59c-.88 18.51-3.1 35.13-10.7 44.12z" class="cls-8" transform="translate(-34.16 -187.7)"/><path d="M243.64 435q-.19-3.39-.2-6.78c0-11.44 1.4-13.4 1.4-17.66v-.91c-4.28 4.22-6.92 31.4-7.38 41.42-15-7.35-30.05-15.12-45.07-22.88 8-62.95 16.78-88 41.77-91.25 15.52 21.17 30.6 43.44 45.56 66 12.17 35.72 13.47 30 17 41.4l-.76.53c-1.67 1.15-3.34 2.3-5 3.49 5 1.44 14.21 3.68 24.71 6.09 2.61 22.07 33.74 88.29 45.71 108.35 12.58 32 30.62 63 51 72.86 2.09 6.51 4.27 11.91 10.69 13.75 5.63 13.69 12.7 24.8 21.13 33.46 1.46-4.15 1.8-9.39 1.35-16.15 8 5.45 16.76 11.33 33.93 14.18 4.05 5.93 7.46 11.93 11 15.51.14 3.66.38 8.16.72 13.15a76.78 76.78 0 0 0-8-3.69 1.2 1.2 0 0 0-.48 1c0 1.62 3.89 6 9.05 10.47.08 1 .17 2 .26 3-5.57 5.09-10.19 10.28-12.17 13.69a5.17 5.17 0 0 0 .57 0c2.3 0 7-2.33 12.36-5.66.66 6.55 1.45 13.12 2.35 19.09-5.1-3-9.1-5.1-9.18-5.1-1.92 0-3.24 1-3.24 2.71 0 2.63 4.6 6.24 10.12 9.62-4.88 4.7-8.52 9.07-8.52 11.16 0 .62.38 1 1.29 1 4 0 8.47-5.3 11.42-7.67l.18-.14a43.94 43.94 0 0 0 3.18 10.26c2.68-1.69 3.6-4.88 3.79-8.42 4.19 2.08 7.32 3.46 7.35 3.47a13.14 13.14 0 0 0 4 .91c1 0 1.37-.36 1.37-.93 0-2.36-5.71-6.76-12.22-11 1.26-.93 2.52-1.85 3.8-2.76 3.91-2.8 9.61-6.86 9.61-11.71 0-.82-.27-1.46-1.1-1.46-2.14 0-7.64 3.53-13.54 8.15v-2.67c0-5.55.13-11.09.33-16.63 3.78 2.29 7.28 3.83 9.72 3.83a4 4 0 0 0 2.81-1c-1.35-3.08-5.17-6.68-9.85-10.14 7.61-5.78 13.82-11.41 13.82-13.14 0-.67-.43-1.19-1.47-1.47-3.83.13-9 2.59-14.27 6.12.3-5.45.64-10.89 1-16.35a80.64 80.64 0 0 0 7.75-11.76c12.15-.72 24-2.79 33.94-6.16-.17 8.19.16 17 .89 26.84 23.67-19.35 31.45-33.87 36-54.57a64.38 64.38 0 0 0 27.35 19.29l.94 16.61c3.39 30-7.25 57.5-13.36 77.48-11.18-8.77-8.71-27.36-15.38-38.95a31.43 31.43 0 0 0-.22 3.9c0 4.78.83 9.79 1.08 14.6L595 781s9.33 36.34 14.67 44.64h-2.43a184.57 184.57 0 0 0-22.43 1.16c-2-4.51-3.52-7.53-4.14-8-7.08-4.92-89.86 3.48-93.17 8-.53.73.23 2.93 1.66 6.63-27.68.73-53.44 4.64-69.48 12l6-46.13c5.79 7.61 10.6 16 15.93 24-4.74-12.49-9.21-25.3-14.61-37.45l-23-70.18v-13.28a119.11 119.11 0 0 0 1.83-23.2c0-2.66 0-5.33-.07-8a16.09 16.09 0 0 0 .64-4.29 12.29 12.29 0 0 0-.08-1.47c-3.7 3.71-4.43 9.79-5.14 14.78-2.69-5.52-20.41-29.63-30.79-40-8.08-14-16.47-28.19-23.74-39.93-5.34-8.6-10.07-15.88-13.64-20.73-14.42-15.58-41-42.7-52.67-72.5l-.25.08c-3.83-8-7.94-16.61-8.1-25.58h-.05a33.46 33.46 0 0 0-1 8.38 49.81 49.81 0 0 0 4 18.57c-5.16 1-10.43.74-13.58-2.77-9.83-11-11-31.59-14.33-50l-.93-.45c-.46-6.47-2.45-12.9-2.45-19.31-.03-.38-.03-.69-.01-.97zm375.67-145.76a118.89 118.89 0 0 0-15.68 3.4c-2.63-2.79-9.88-12.18-15.73-16.12a23.17 23.17 0 0 1 4-.37c8.1 0 19.59 5.54 27.41 13.09z" class="cls-6" transform="translate(-34.16 -187.7)"/><path d="M555.91 629.53q1-2.56 2.18-5.13a174.75 174.75 0 0 1 13.21-23.66c12.13-6.94 22.84-16.4 32.18-26.82l.52 14.58c-1.48 12.15-3.24 22.12-6 30.63a61.81 61.81 0 0 1-11.58 21.58l-1.09 1.29c-.41 2.21-.84 4.36-1.3 6.43-4.58 20.7-12.36 35.22-36 54.57-.73-9.8-1.06-18.65-.89-26.84a147.28 147.28 0 0 1 2.41-24.79 116.66 116.66 0 0 1 6.36-21.84z" class="cls-8" transform="translate(-34.16 -187.7)"/><path d="M598.21 875.79a13.92 13.92 0 0 1-.71 3.88c-4.67 12.72-87.92 16.91-96.17 8.66-.35-.35-.52-1.63-.64-3.6-.35-5.42-.43-16.08-3.36-27.12a211 211 0 0 0-8.17-24.15c-1.43-3.7-2.19-5.9-1.66-6.63 3.31-4.52 86.09-12.92 93.17-8 .62.43 2.18 3.45 4.14 8 5.49 12.59 14.05 36.93 13.4 48.96zm-17.87-.88c0-18.53-10.14-46.63-13.67-47-8.37.39-39.6 1.58-40 1.58H525c-2.68 0-10.07-.14-10.07 2.49 0 3.59 2.67 1 7.44 19.88-4.31.35-8.61 1.35-8.61 4.27 0 2.2 3.34 4 6.21 4 .83 0 2.5-.15 4.18-.28 1.09 7.66.05 19.54 2.07 23.73C535 883.37 544.84 882 552 882c3.35 0 6.69.28 10 .28 7.79-.05 18.34-.11 18.34-7.37z" class="cls-18" transform="translate(-34.16 -187.7)"/><path d="M535.84 168.55l26.25 35-8-1.37-2.5 6.37-27.5-3.75-3-5.7-18-3.3 32.75-27.25z" class="cls-4"/><path d="M599 761.81c-2.31 7.57-4 14.06-4 19.19l-10.55-39.64c-.25-4.81-1.08-9.82-1.08-14.6a31.43 31.43 0 0 1 .22-3.9c6.67 11.59 4.2 30.14 15.41 38.95z" class="cls-9" transform="translate(-34.16 -187.7)"/><path d="M442 497.28c2.62 2.86 4.39 6.42 6.45 9.69.09-.28.17-.55.25-.82C451.11 518.84 460.61 543 472 543c7 0 14.21-7.74 14.21-19.32a34.64 34.64 0 0 0-1-7.81c-.14-3.88-.31-7.75-.38-11.63-8.65-8.25-15.57-12.93-24-12.93-5.37.01-11.36 1.9-18.83 5.97zm39.83-22q7.77-.48 15.32-.55a194.52 194.52 0 0 0 6.85 26.6l26 13.34h.22l.95 26.84c7.43 8.71 13.1 14.58 21.75 17.42C561 554.17 570.06 545 575.83 536v-33.33c-3.07-6.95-12.66-8.48-22.57-6.56a154.22 154.22 0 0 0 2.24-16.52c10 1.72 19.83 3.83 29.63 6.23l.2.18c.74 33.46-.79 57.9-8.22 86.34-5 10.54-17.71 19.36-31.48 26.58-9.17 4.8-18.81 8.9-27 12.33l-5.2 2.19c-2.84 1.2-5.41 2.3-7.58 3.31q-3.21-1.41-6.32-3-2.6-1.32-5.11-2.77a147.26 147.26 0 0 1-16.34-10.81c-16.69-12.57-28.75-26.49-32.58-32.17-3.65-5.43-13.63-51.22-13.63-51.22-.38-4.93-1.73-20.46-4.45-29.43l2.81-4.68a332.18 332.18 0 0 1 43.19-6.75c.2 2.09.39 4.22.56 6.41l4.19-6.8zm46.49 96.65v-2.08c-2.64-.23-5.2-.35-7.7-.35a74.2 74.2 0 0 0-27.26 5.17 20.71 20.71 0 0 0 1.5 4.9 23.7 23.7 0 0 0 5.51 7.69c3.51 3.27 7.91 5.35 12.3 5.35 6.35 0 13.2-4.71 15.13-14.75a31.1 31.1 0 0 0 .55-5.92z" class="cls-1" transform="translate(-34.16 -187.7)"/><path d="M547.33 1090l38 15.83a173 173 0 0 1-11.56 29.64c-2.51 2.75-5 5.47-7.52 8.1l12.08-33.57-26.61-12.33c9.66 7 12.28 29.5 11.26 49.32-4 4.09-7.77 7.88-11.26 11.1 0 0-2.33-25.3-6.72-40.86-6.56-23.23-51.15-63-82.81-104-29.83-38.62-41-131.6-58.75-171.16 3 2.2 6 4.63 9.17 7.31 3.94 3.37 8 7.13 12 11.3 2.33 9.15 4.84 20.19 7.88 24a14.46 14.46 0 0 0 8.87-4.19q2.53 3.43 5 7.1s-12.15-.22-12.72 1.42c-.94 2.69 31.16 31.17 31.16 31.17L448 937a98.9 98.9 0 0 0 17.32 15.56 39.59 39.59 0 0 0 12.26 5.94l-7.2 11-9.38 14.33S495.83 998 502.5 998l3.67 38.83s31.17 8 44.16 9.34c0 7.66-3 43.83-3 43.83zm-4.66-7.83l2.33-33-36.33-7.34c13.51 12.61 22.01 23.51 34 40.34zm-43-50.34l-2.67-30.5c-7.37-1.05-20-5.63-32.5-10.5 1.78 5.63 21.43 25.44 35.17 41zM459 978l10.17-16.67-21.09-16.66zm-14.67-45l13.17-13.33-22-21.17z" class="cls-4" transform="translate(-34.16 -187.7)"/><path d="M555.88 474.66c.42-6.25.64-12.87.79-20 7.67 13.74 17.24 21 28.27 31l.19.17c-9.8-2.4-19.65-4.51-29.63-6.23.15-1.6.27-3.27.38-4.94z" class="cls-5" transform="translate(-34.16 -187.7)"/><path d="M580.55 279c.44 3.63 4.56 8.61 13.69 18.37-10.79 6-17.17 9.11-20.78 11.32a21.84 21.84 0 0 1-4.66-12.85c0-7.3 5.2-13.43 11.75-16.84zm-2.22 831l-12.08 33.57c-1.09 1.15-2.18 2.3-3.27 3.42 1-19.82-1.6-42.34-11.26-49.32z" class="cls-6" transform="translate(-34.16 -187.7)"/><path d="M575.83 520.21V536c-5.77 9-14.83 18.17-22.91 22.92-8.65-2.84-14.32-8.71-21.75-17.42l-.95-26.84-.22-6.16c4.28-5.31 12.08-9.55 20.11-11.67q.46 2.69.91 5.51c-6.25 1.27-12.49 4-16 8.16v29.17s10.67 10.5 16.67 13.83c8.73-6.41 14.46-12.26 19.66-19.67a52.27 52.27 0 0 0 1.95-13.62z" class="cls-19" transform="translate(-34.16 -187.7)"/><path d="M575.83 502.67v17.54h-2.55a32.85 32.85 0 0 0-3.28-14.88c-1.82-3.62-9.87-4.65-18.1-3.16.52-2 1-4 1.37-6.06 9.9-1.92 19.49-.39 22.56 6.56z" class="cls-19" transform="translate(-34.16 -187.7)"/><path d="M566.67 827.87c3.53.41 13.67 28.51 13.67 47 0 7.26-10.55 7.32-18.31 7.32-3.35 0-6.69-.28-10-.28-7.15 0-17 1.42-25.75 1.61-2-4.19-1-16.07-2.07-23.73 1-.08 2-.14 2.83-.16 3.78-.09 19.14 0 19.75-4.76-.83-2.29-9.73-3.26-17.79-3.26-1.68 0-4.12 0-6.56.18C517.62 833 515 835.54 515 832c0-2.63 7.39-2.49 10.07-2.49h1.64c.41 0 31.64-1.19 40-1.58z" class="cls-8" transform="translate(-34.16 -187.7)"/><path d="M572 599.67l-.7 1.07a174.75 174.75 0 0 0-13.21 23.66c-3.78-3.93-7.08-9.82-7.08-15.2a11.14 11.14 0 0 1 .89-4.52c2.61-6 10.58-7.91 18.1-9-.74 2.17-1.52 4.39-2.33 6.64z" class="cls-16" transform="translate(-34.16 -187.7)"/><path d="M573.28 520.21a52.27 52.27 0 0 1-1.95 13.62c-5.2 7.41-10.93 13.26-19.66 19.67-6-3.33-16.67-13.83-16.67-13.83V510.5c3.53-4.16 9.77-6.89 16-8.16.1.66.21 1.32.31 2 .2-.72.39-1.44.56-2.16 8.23-1.49 16.28-.46 18.1 3.16a32.85 32.85 0 0 1 3.31 14.87zm-4.76 1.7c-.11-1.11-1.66-1.44-3.55-1.44a58.89 58.89 0 0 0-6.74.71c0-1.52.24-3.63.24-5.79 0-3.26-.79-8.63-4.05-8.63-2.46 0-2.59 4-2.59 6.44 0 3.67.49 8 .49 9.64-3.78.6-13.48 1.78-13.48 5.29 0 1.22 1.19 1.66 2.85 1.66a27.08 27.08 0 0 0 10-2.62c-.28 3.32-1.1 7.31-1.1 11 0 2.85.63 7.52 3.46 7.52 3.71 0 4-13.42 4-17.15v-.68c3.76-.73 9.24-1.73 10.47-5.95z" class="cls-6" transform="translate(-34.16 -187.7)"/><path d="M568.53 521.9c-1.23 4.22-6.71 5.22-10.44 5.94v.68c0 3.73-.31 17.15-4 17.15-2.83 0-3.46-4.67-3.46-7.52 0-3.69.82-7.68 1.1-11a27.08 27.08 0 0 1-10 2.62c-1.66 0-2.85-.44-2.85-1.66 0-3.51 9.7-4.69 13.48-5.29 0-1.64-.49-6-.49-9.64 0-2.43.13-6.44 2.59-6.44 3.26 0 4.05 5.37 4.05 8.63 0 2.16-.2 4.27-.24 5.79a58.89 58.89 0 0 1 6.74-.71c1.86.01 3.41.34 3.52 1.45z" class="cls-20" transform="translate(-34.16 -187.7)"/><path d="M534.37 161.3l-3.69 2.52-16.84-2.27-4 5.75-25.25-4.27-3-4.73-4.43-.31-3.32-3.94h9.75l3.24 6 20.48 2.5 3.03-5 24.03 3.75z" class="cls-6"/><path d="M530.68 163.82l-30.84 21.1-22.68-26.93 4.43.31 3 4.73 25.25 4.27 4-5.75 16.84 2.27z" class="cls-4"/><path d="M549 628.27c-6.88 5.28-15.54 4.44-22.5 7.76-9.72 1.41-19.74 11.25-25.87 11.25-10.23 0-8.4-14.43-30.57-18.77a34.53 34.53 0 0 1-10.95-6.45 16.16 16.16 0 0 1-8-3.67 47 47 0 0 0 13.66-16.63c4.35.48 8.61 1 12.92 1.92-.45 3.43-.85 6.87-1.07 10.32 5.86 3.2 11.12 7.27 17.57 9-.05.93-.12 1.86-.23 2.79a26.45 26.45 0 0 0 15.41 5.09 29.38 29.38 0 0 0 9.75-1.75 37 37 0 0 0 .67-7.14v-1.13c.87.06 1.75.1 2.63.1 7.64 0 24.44-4.26 24.44-12.43a35.86 35.86 0 0 0-.29-4.25c1.8 0 3.6.2 5.41.36a11.14 11.14 0 0 0-.89 4.52c0 5.38 3.3 11.27 7.08 15.2q-1.15 2.57-2.18 5.13a26 26 0 0 0-6.94-1.25z" class="cls-5" transform="translate(-34.16 -187.7)"/><path d="M550.11 496.83c-1.15-6.75-2.39-12.88-3.82-18.7q4.62.66 9.21 1.46a154.22 154.22 0 0 1-2.24 16.52c-.4 2.05-.85 4.07-1.37 6.06-.17.72-.36 1.44-.56 2.16-.1-.67-.21-1.33-.31-2q-.45-2.81-.91-5.5z" class="cls-8" transform="translate(-34.16 -187.7)"/><path d="M545 1117.23c4.39 15.56 6.72 40.86 6.72 40.86-6.56 6.05-12 10.1-15.22 10.41 3.26-8.83 2.51-18.29 0-30.73.29-.49.56-1 .82-1.52-4.14-20-19.68-31.41-73.79-100.73-6.49-10.61-11.12-13.71-15.47-16.74-8.83-6.14-16.53-12-36.17-79.16-2-6.85-4.13-14.33-6.39-22.52-4.56-16.52-9.61-32.71-13.35-49.43-.11-.5-.23-1-.35-1.48-4.59-19-13.95-30.71-24-40.79a11.16 11.16 0 0 1 1.88-.16c4.68 0 17.86 5.09 33.77 16.88 17.71 39.56 28.92 132.54 58.75 171.16 31.65 40.97 76.24 80.72 82.8 103.95z" class="cls-6" transform="translate(-34.16 -187.7)"/><path d="M470 628.51c22.17 4.34 20.34 18.77 30.57 18.77 6.13 0 16.15-9.84 25.87-11.25 7-3.32 15.62-2.48 22.5-7.76a26 26 0 0 1 6.94 1.25 116.66 116.66 0 0 0-6.39 21.84c-12.06 5.94-22.79 8.24-38 8.24h-3.18c-5.76 7.44-9.85 15.29-13.3 15.29s-4.49-8.23-10-17.47c-21.84-4-33.37-12.45-40.92-18.11 1-4.41.82-9.65-.59-16.32a43.49 43.49 0 0 0 7.57-4.59 16.16 16.16 0 0 0 8 3.67 34.53 34.53 0 0 0 10.93 6.44z" class="cls-1" transform="translate(-34.16 -187.7)"/><path d="M549.52 651.37a147.28 147.28 0 0 0-2.41 24.79c-9.9 3.37-21.79 5.44-33.94 6.16a80.64 80.64 0 0 1-7.75 11.76c-2.8 3.34-5.72 5.61-8.63 5.61-2.25 0-4.32-1.26-6.35-3.32-3.52-3.58-6.93-9.58-11-15.51-17.17-2.85-25.93-8.73-33.93-14.18-.41-6.22-1.5-13.73-3-22.85a21.58 21.58 0 0 0 1.49-4.53c7.55 5.66 19.08 14.13 40.92 18.11 5.55 9.24 6.7 17.47 10 17.47s7.54-7.85 13.3-15.29h3.18c15.33.02 26.06-2.28 38.12-8.22z" class="cls-4" transform="translate(-34.16 -187.7)"/><path d="M546.74 854.91c-.61 4.75-16 4.67-19.75 4.76-.82 0-1.82.08-2.83.16-1.68.13-3.35.28-4.18.28-2.87 0-6.21-1.81-6.21-4 0-2.92 4.3-3.92 8.61-4.27 2.44-.2 4.88-.18 6.56-.18 8.06-.01 16.97.96 17.8 3.25z" class="cls-18" transform="translate(-34.16 -187.7)"/><path d="M546.48 604.32a35.86 35.86 0 0 1 .29 4.25c0 8.17-16.8 12.43-24.44 12.43-.88 0-1.76 0-2.63-.1a70.72 70.72 0 0 0-1-9.65c8.17-3.43 17.81-7.53 27-12.33.3 1.69.57 3.56.78 5.4z" class="cls-21" transform="translate(-34.16 -187.7)"/><path d="M544.5 477.87l1.79.26c1.43 5.82 2.67 11.95 3.82 18.7-8 2.12-15.83 6.36-20.11 11.67l.22 6.16H530L521.67 484l.12-.59c.6-2.75 1.21-5.33 1.87-7.79 7.04.52 13.98 1.29 20.84 2.25z" class="cls-1" transform="translate(-34.16 -187.7)"/><path d="M535.67 447.33a177.24 177.24 0 0 1 10.39 29.9c-.52.2-1 .42-1.56.64-6.86-1-13.8-1.73-20.84-2.25a106.24 106.24 0 0 1 12.01-28.29z" class="cls-5" transform="translate(-34.16 -187.7)"/><path d="M545 1049.17l-2.33 33c-12-16.83-20.49-27.73-34-40.34z" class="cls-6" transform="translate(-34.16 -187.7)"/><path d="M536.52 1137.77c2.49 12.44 3.24 21.9 0 30.73-4.77.47-22.5-12.5-22.5-12.5l-.69.45-.06-.1c7.26-6.43 17.28-8.19 23.25-18.58z" class="cls-9" transform="translate(-34.16 -187.7)"/><path d="M537.34 1136.25c-.26.53-.53 1-.82 1.52-6 10.39-16 12.15-23.27 18.58l.06.1q-6.69 4.33-13.33 8.67c-1.14-49.44-37.27-82.11-75.59-95.78 1.68-1.86 3.38-3.72 5.13-5.57a200 200 0 0 1 33.47-29c.19.24.37.48.56.71 54.11 69.36 69.65 80.77 73.79 100.77z" class="cls-5" transform="translate(-34.16 -187.7)"/><path d="M494.43 952.89c18 0 61.81-12 74.41-13-22.88 19-52.18 27.53-77.07 43.26a48.76 48.76 0 0 1-21.39-13.61l7.2-11a39.59 39.59 0 0 1-12.26-5.94c2.1-9.46 4-19.45 7.12-28.58 5.99 10.89 7.06 28.87 21.99 28.87z" class="cls-9" transform="translate(-34.16 -187.7)"/><path d="M470.84 161.55l27 34.5-7.5-1.39-3.51 6.08-27.24-1.9-3-4.18-13.16-.73 23.16-32.38h4.25z" class="cls-4"/><path d="M521.67 484l8.33 30.67-26-13.34a194.52 194.52 0 0 1-6.82-26.59q11.47-.12 22.53.6c.62 2.73 1.33 5.43 2.08 8.07z" class="cls-8" transform="translate(-34.16 -187.7)"/><path d="M528.31 569.86v2.08a31.1 31.1 0 0 1-.54 5.93c-3.9-.16-7.8-.36-11.71-.36a96.27 96.27 0 0 0-10.22.55c-3.58.37-7.1.91-11 1.52a20.71 20.71 0 0 1-1.5-4.9 74.2 74.2 0 0 1 27.26-5.17c2.51 0 5.07.12 7.71.35z" class="cls-20" transform="translate(-34.16 -187.7)"/><path fill="#e8a797" d="M527.8 577.87c-1.93 10-8.78 14.75-15.13 14.75-4.39 0-8.79-2.08-12.3-5.35a23.23 23.23 0 0 1 5.5-9.21 96.27 96.27 0 0 1 10.22-.55c3.91 0 7.81.2 11.71.36z" transform="translate(-34.16 -187.7)"/><path d="M523.66 475.62c-.66 2.46-1.27 5-1.87 7.79-.75-2.64-1.46-5.34-2.08-8.07 1.29.08 2.64.17 3.95.28z" class="cls-8" transform="translate(-34.16 -187.7)"/><path fill="#818297" d="M519.69 620.9v1.13a37 37 0 0 1-.67 7.14 29.38 29.38 0 0 1-9.75 1.75 26.45 26.45 0 0 1-15.41-5.09c.11-.93.18-1.86.23-2.79.22-4 0-8 .32-12q2.52 1.46 5.11 2.77c-.11 2.11-.25 4.21-.25 6.31a33.15 33.15 0 0 0 .23 4.1c4.16.42 8.1 1.26 12.24 1.26.67 0 1.34 0 2-.07-.06-4-.15-7.93-.34-11.91l5.2-2.19a70.72 70.72 0 0 1 1.09 9.59z" transform="translate(-34.16 -187.7)"/><path d="M504.45 710.43c5.31-3.53 10.44-6 14.27-6.12 1 .28 1.47.8 1.47 1.47 0 1.73-6.21 7.36-13.82 13.14-2.1 1.6-4.31 3.21-6.52 4.76-2.4 1.67-4.81 3.26-7.09 4.68-5.37 3.34-10.06 5.64-12.36 5.64a5.17 5.17 0 0 1-.57 0c2-3.41 6.6-8.6 12.17-13.69.52-.47 1.05-.95 1.59-1.42 1.83-1.62 3.74-3.21 5.68-4.71a92.09 92.09 0 0 1 5.18-3.75zm12.47 26.93c.83 0 1.1.64 1.1 1.46 0 4.85-5.7 8.91-9.61 11.71-1.28.91-2.54 1.83-3.8 2.76-2-1.3-4.07-2.59-6.08-3.8 1.61-1.38 3.24-2.72 4.85-4 5.9-4.6 11.4-8.13 13.54-8.13z" class="cls-24" transform="translate(-34.16 -187.7)"/><path d="M516.83 764.31c0 .57-.4.93-1.37.93a13.14 13.14 0 0 1-4-.91s-3.16-1.39-7.35-3.47c-1.75-.86-3.67-1.85-5.63-2.9l-1.77-1c-1.33-.74-2.66-1.51-3.94-2.29-5.52-3.38-10.12-7-10.12-9.62 0-1.66 1.32-2.71 3.24-2.71.08 0 4.08 2.12 9.18 5.1 1.1.64 2.24 1.32 3.42 2 2 1.21 4.08 2.5 6.08 3.8 6.55 4.31 12.26 8.76 12.26 11.07zm-.61-35.24a4 4 0 0 1-2.81 1c-2.44 0-5.94-1.54-9.72-3.83-1.26-.76-2.55-1.6-3.84-2.51 2.21-1.55 4.42-3.16 6.52-4.76 4.68 3.42 8.5 7.03 9.85 10.1z" class="cls-24" transform="translate(-34.16 -187.7)"/><path d="M513.45 613.44c.19 4 .28 8 .34 11.91-.68 0-1.35.07-2 .07-4.14 0-8.08-.84-12.24-1.26a33.15 33.15 0 0 1-.23-4.1c0-2.1.14-4.2.25-6.31q3.1 1.59 6.32 3c2.11-1.01 4.72-2.11 7.56-3.31z" class="cls-21" transform="translate(-34.16 -187.7)"/><path fill="#865752" d="M494.86 579.58c3.91-.61 7.43-1.15 11-1.52a23.23 23.23 0 0 0-5.5 9.21 23.7 23.7 0 0 1-5.5-7.69z" transform="translate(-34.16 -187.7)"/><path d="M496.78 699.69c2.91 0 5.83-2.27 8.63-5.61-.32 5.46-.66 10.9-1 16.35a93.075 93.075 0 0 0-5.17 3.74c-2.77-1.72-5.56-3.3-8.12-4.64-.34-5-.58-9.49-.72-13.15 2.06 2.05 4.13 3.31 6.38 3.31zm7.37 61.17c-.19 3.54-1.11 6.73-3.79 8.42a43.94 43.94 0 0 1-3.18-10.28l1.34-1.07c1.96 1.07 3.88 2.07 5.63 2.93zm-.46-34.66c-.2 5.54-.33 11.08-.33 16.63v2.67c-1.61 1.26-3.24 2.6-4.85 4-1.18-.71-2.32-1.39-3.42-2-.9-6-1.69-12.54-2.35-19.09 2.28-1.42 4.69-3 7.09-4.68 1.31.87 2.6 1.71 3.86 2.47z" class="cls-20" transform="translate(-34.16 -187.7)"/><path d="M419.68 845.48c16-7.38 41.8-11.29 69.48-12a211 211 0 0 1 8.17 24.15c2.93 11 3 21.7 3.36 27.12A294.09 294.09 0 0 0 448 890c-.53-.82-1.07-1.62-1.61-2.42q-2.47-3.68-5-7.1a192.67 192.67 0 0 0-16.75-19.77c-4.05-4.17-8.07-7.93-12-11.3a50.79 50.79 0 0 1 7.04-3.93z" class="cls-8" transform="translate(-34.16 -187.7)"/><path d="M497 1001.33l2.67 30.5c-13.74-15.56-33.39-35.37-35.17-41 12.5 4.87 25.13 9.45 32.5 10.5z" class="cls-6" transform="translate(-34.16 -187.7)"/><path d="M464.34 154.05l-3.44 4.25h-5.31l-5.75 7.6-30.96 1.86-7.04-7.96 3.25-1.5 5.75 4.25 25.75-1 6-7.5h11.75z" class="cls-6"/><path d="M499.27 714.17c-1.94 1.5-3.85 3.09-5.68 4.71-.63-.52-1.25-1-1.85-1.57-5.16-4.5-9.05-8.85-9.05-10.47a1.2 1.2 0 0 1 .48-1 76.78 76.78 0 0 1 8 3.69c2.54 1.34 5.33 2.92 8.1 4.64z" class="cls-24" transform="translate(-34.16 -187.7)"/><path d="M494.12 449.67l.21-.34a249.41 249.41 0 0 0 2.85 25.41q-7.56.08-15.32.55a21.83 21.83 0 0 0-2.68-1.37z" class="cls-5" transform="translate(-34.16 -187.7)"/><path d="M497.18 759l-.18.14c-2.95 2.37-7.44 7.67-11.42 7.67-.91 0-1.29-.37-1.29-1 0-2.09 3.64-6.46 8.52-11.16 1.28.78 2.61 1.55 3.94 2.29.14.74.25 1.43.43 2.06z" class="cls-24" transform="translate(-34.16 -187.7)"/><path d="M431.43 323.73c5.8-1 23-17.23 27.81-21.23a100 100 0 0 1 15.77 20c2.59-1.92 5.06-4 7.77-5.73-2.34-8.45-9.19-14.58-15.55-20.33 1.59-.82 24.13-13.88 24.13-16 0-1.49-2.72-2.5-4.36-2.5-6.83 0-19.11 11.39-24.48 15.6-4.73-5.65-7.62-9.82-11.38-9.82-1.8 0-3.79.95-6.28 3.13a34.65 34.65 0 0 0 3.82 4.48l-1.94 1.34c-4.47 5.05-8.3 10.43-10.15 17l1.71 1.94c-4.46 3.92-8 7.8-8 10.42a2.34 2.34 0 0 0 .44 1.41c.26.16.49.19.69.29zM477.56 269c14.47 0 22.78 10.43 22.78 24.5 0 32.48-36.76 44.62-52.84 44.62-14.39 0-20.21-7.14-23.69-17.54l.52-1.27c2.42-17.61 11.92-32.72 31.34-44.33.8-.68 1.63-1.36 2.47-2.06 6.66-2.07 14.2-3.92 19.42-3.92z" class="cls-6" transform="translate(-34.16 -187.7)"/><path d="M460.9 158.3l-24.06 29.75-17.96-20.29 30.96-1.86 5.75-7.6h5.31z" class="cls-4"/><path d="M477.61 603.68l.48-3.5A147.26 147.26 0 0 0 494.44 611c-.28 4-.1 8-.32 12-6.45-1.77-11.71-5.84-17.57-9 .21-3.45.61-6.89 1.06-10.32z" class="cls-21" transform="translate(-34.16 -187.7)"/><path d="M487 278c1.64 0 4.36 1 4.36 2.5 0 2.08-22.54 15.14-24.13 16 6.36 5.75 13.21 11.88 15.55 20.33-2.71 1.76-5.18 3.81-7.77 5.73a100 100 0 0 0-15.77-20c-4.83 4-22 20.27-27.81 21.23-.2-.1-.46-.13-.67-.24a2.34 2.34 0 0 1-.44-1.41c0-2.62 3.51-6.5 8-10.42 6.52-5.72 15.08-11.53 17.69-13.66-2.42-2.16-5-4.27-7.31-6.59a34.65 34.65 0 0 1-3.82-4.48c2.49-2.18 4.48-3.13 6.28-3.13 3.76 0 6.65 4.17 11.38 9.82C467.9 289.41 480.18 278 487 278z" class="cls-4" transform="translate(-34.16 -187.7)"/><path d="M485.23 515.88a34.64 34.64 0 0 1 1 7.81C486.2 535.27 479 543 472 543c-11.38 0-20.88-24.17-23.26-36.86a10.5 10.5 0 0 1 2.45-4.73c2 0 4-.08 6.1-.08 1.45 0 2.8 0 4 .12 0 1 .08 2.06.14 3.11-2 .62-3.62 2-3.62 3.38 0 1.62 2.35 2.89 4.52 3.57.4 9.36 4.75 26.31 11.2 26.31s8.27-14.8 9.13-23.54a32.52 32.52 0 0 0 2.57 2.53z" class="cls-20" transform="translate(-34.16 -187.7)"/><path d="M485.23 515.88v.94a32.52 32.52 0 0 1-2.57-2.53c-5.65-6.15-7.38-11.92-21.37-12.83a62.71 62.71 0 0 0-4-.12c-2.08 0-4.13.06-6.1.08a10.5 10.5 0 0 0-2.45 4.73c-.08.27-.16.54-.25.82-2.06-3.27-3.83-6.83-6.45-9.69 7.44-4.07 13.43-6 18.8-6 8.45 0 15.37 4.68 24 12.93.08 3.92.25 7.79.39 11.67z" transform="translate(-34.16 -187.7)"/><path fill="#382b2d" d="M482.69 514.29c-.86 8.74-2.81 23.54-9.13 23.54s-10.8-17-11.2-26.31a10.76 10.76 0 0 0 2.88.54 2.66 2.66 0 0 0 1.68-.48 4.09 4.09 0 0 0 1.21-3.14 4 4 0 0 0-4.34-4.25 7.73 7.73 0 0 0-2.33.38c-.06-1.05-.11-2.08-.14-3.11 13.99.91 15.68 6.68 21.37 12.83zm-9.2 22.43c3 0 5.47-4.62 5.89-9.45a12 12 0 0 1-4.33.78 13.25 13.25 0 0 1-8.51-3c.66 5.5 3.15 11.67 6.95 11.67zm-1.29-14.39c1.77 0 3.18-2.59 3.18-4.61 0-2.67-1.52-5.82-3.33-5.82-.74 0-1.52.52-2.27 1.81a5 5 0 0 0-.6 2.52c0 2.1.82 6.1 3.02 6.1z" transform="translate(-34.16 -187.7)"/><path d="M478.19 475.53l-4.19 6.8c-.17-2.19-.36-4.32-.56-6.41 1.56-.15 3.18-.28 4.75-.39z" class="cls-8" transform="translate(-34.16 -187.7)"/><path d="M479.38 527.27c-.42 4.83-2.86 9.45-5.89 9.45-3.8 0-6.29-6.17-6.95-11.7a13.25 13.25 0 0 0 8.51 3 12 12 0 0 0 4.33-.75z" class="cls-6" transform="translate(-34.16 -187.7)"/><path fill="#5e4d5d" d="M408.84 1087.49c4.87-5.84 10-12 15.55-18.15 38.32 13.67 74.45 46.34 75.59 95.78-46.64 30.51-91.13 61.33-129.48 92.38-3.25 63.75-58.75 181.25-62.5 226.5l-47.25-21.5-12.42 4.5s31.17-174 24-203c-15.57-63 75.92-109.75 111.34-148.67h-.37c8.28-7.09 16.45-16.94 25.54-27.84z" transform="translate(-34.16 -187.7)"/><path d="M442.09 195.8l.32 2.74-21.82 2.51-1.75 5.5-29.96 2.75-2.54-5.75h6.5l22.75-.92 1.75-6.58 14.64-1.39 1.33 1.39 8.78-.25z" class="cls-6"/><path fill="#e37980" d="M475.38 517.72c0 2-1.41 4.61-3.18 4.61-2.23 0-3-4-3-6.1a5 5 0 0 1 .6-2.52c.75-1.29 1.53-1.81 2.27-1.81 1.79 0 3.31 3.15 3.31 5.82z" transform="translate(-34.16 -187.7)"/><path d="M454.43 472.53L474 443.67c-3 7.29-2.05 17-.93 28.48a39.35 39.35 0 0 0-6.75-.53 99.74 99.74 0 0 0-11.89.91z" class="cls-5" transform="translate(-34.16 -187.7)"/><path d="M473.07 472.15c.13 1.23.25 2.49.37 3.77a332.18 332.18 0 0 0-43.19 6.75l19.75-33 4.43 22.84a99.74 99.74 0 0 1 11.89-.91 39.35 39.35 0 0 1 6.75.55z" class="cls-5" transform="translate(-34.16 -187.7)"/><path d="M435.01 773.63l-10.17 16.67-10.92-33.33 21.09 16.66z" class="cls-6"/><path d="M463.79 504.19a4 4 0 0 1 4.34 4.25 4.09 4.09 0 0 1-1.21 3.14 2.66 2.66 0 0 1-1.68.48 10.76 10.76 0 0 1-2.88-.54c-2.17-.68-4.52-1.95-4.52-3.57 0-1.42 1.64-2.76 3.62-3.38a7.73 7.73 0 0 1 2.33-.38z" class="cls-20" transform="translate(-34.16 -187.7)"/><path d="M407.84 169.3l24.14 25.36-14.64 1.39-1.75 6.58-22.75.92 15-34.25z" class="cls-4"/><path d="M465.69 599.66c-.32.71-.65 1.41-1 2.1A47 47 0 0 1 451 618.39a43.49 43.49 0 0 1-7.57 4.59c-.5-2.38-1.15-4.94-2-7.71-.15-.53-.31-1.06-.48-1.6l3 3.33s-1.54-5.22-3.58-13.47c4-2.81 8-5.53 12.19-8 .8-.48 1.6-.94 2.4-1.39a50.24 50.24 0 0 1 10.73 5.52z" class="cls-16" transform="translate(-34.16 -187.7)"/><path d="M463.55 1035.51c-.19-.23-.37-.47-.56-.71a200 200 0 0 0-33.47 29c-13.2-18-22.86-37.06-28-58.61 14.43 7.9 30 13.39 46.59 13.61 4.32 3 8.95 6.1 15.44 16.71z" class="cls-9" transform="translate(-34.16 -187.7)"/><path d="M423.34 731.97l-13.17 13.33-8.83-34.5 22 21.17z" class="cls-6"/><path d="M452.61 595.53c-4.18 2.46-8.23 5.18-12.19 8-1.58-6.34-3.45-14.49-5.15-23.41 6.34 4.49 11.58 9.88 17.34 15.41z" class="cls-15" transform="translate(-34.16 -187.7)"/><path d="M448.69 291.41c2.32 2.32 4.89 4.43 7.31 6.59-2.61 2.13-11.17 7.94-17.69 13.66l-1.71-1.94c1.85-6.54 5.68-11.92 10.15-17z" class="cls-6" transform="translate(-34.16 -187.7)"/><path d="M445.52 666.68c.45 6.76.11 12-1.35 16.15-8.43-8.66-15.5-19.77-21.13-33.46-5.45-13.27-9.55-29-12.22-47.22a375.16 375.16 0 0 1-3.62-47q-.17-7.77-.07-16c-.19-.67-.37-1.34-.54-2a38.89 38.89 0 0 0 4.06 5.09c1.75 30.76 10.68 38.81 30.83 73 .82 2.77 1.47 5.33 2 7.71 1.41 6.67 1.58 11.91.59 16.32a21.58 21.58 0 0 1-1.54 4.53c1.47 9.2 2.58 16.66 2.99 22.88z" class="cls-8" transform="translate(-34.16 -187.7)"/><path d="M410.65 542.27a38.89 38.89 0 0 1-4.06-5.09c-4.19-15.78-3.69-28.32-3.25-47.5q10-3 19.55-5.29c-.9 5-1.64 9.95-2.27 14.95a90.27 90.27 0 0 1 6.83-12c2.72 9 4.07 24.5 4.45 29.43l.11 1.55c-3.67 16.52-.66 41.23 3.27 61.79 1.7 8.92 3.57 17.07 5.15 23.41 2 8.25 3.58 13.47 3.58 13.47l-3-3.33c.17.54.33 1.07.48 1.6-20.16-34.18-29.09-42.26-30.84-72.99z" class="cls-8" transform="translate(-34.16 -187.7)"/><path d="M411.91 939.61c19.64 67.18 27.34 73 36.17 79.16-16.55-.22-32.16-5.71-46.59-13.61-1.48-.81-3-1.65-4.42-2.51-5.94-3.5-11.66-7.38-17.16-11.41.53-4 1.24-9.71 2-16.62 10.81-7.38 24.99-19.57 30-35.01z" class="cls-29" transform="translate(-34.16 -187.7)"/><path d="M403.84 161.3l-2.3 4.6-10.2 2.4-4.75 7.25-10.09 1.91-2.99-5.16 12.08-3.25 3.5-6.5 14.75-1.25z" class="cls-6"/><path d="M441.37 880.48a14.46 14.46 0 0 1-8.87 4.19c-3-3.77-5.55-14.81-7.88-24a192.67 192.67 0 0 1 16.75 19.81z" class="cls-6" transform="translate(-34.16 -187.7)"/><path d="M427 785.85c5.44 12.19 9.91 25 14.69 37.47-5.33-8-10.14-16.36-15.93-24l1.57-12.32z" class="cls-9" transform="translate(-34.16 -187.7)"/><path d="M401.54 165.9l-14.7 29.4-10.34-17.84 10.09-1.91 4.75-7.25 10.2-2.4z" class="cls-4"/><path d="M430.25 482.67l-2.81 4.68a90.27 90.27 0 0 0-6.83 12c.63-5 1.37-10 2.27-14.95 2.48-.63 4.93-1.2 7.37-1.73zM427 785.85l.37 1.15-1.61 12.35-6 46.13a50.79 50.79 0 0 0-7.07 3.92c-3.13-2.68-6.2-5.11-9.17-7.31-15.91-11.79-29.09-16.88-33.77-16.88a11.16 11.16 0 0 0-1.88.16c-3.4-3.39-6.87-6.6-10.28-9.82-2.64-2.51-5.24-5-7.72-7.66-3.15-69.56-7.45-168.89-3.15-207.66 7.27 11.74 15.66 26 23.74 39.93 17.54 30.34 33.61 59.5 33.61 59.5v16zm-29.93 216.8c1.46.86 2.94 1.7 4.42 2.51 5.17 21.55 14.83 40.66 28 58.61-1.75 1.85-3.45 3.71-5.13 5.57-5.55 6.17-10.68 12.31-15.55 18.15-20.26-1.53-44.81-2.15-62.38-11.68-1.88 5-4.36 9.82-8.14 13.61a71.32 71.32 0 0 1-1.3-14.79c0-15 1.56-16.52 1.56-40.55 0-10-.21-20.12-.21-30.21 0-14.86.46-29.7 2.71-44.31 8.17 6.63 17.4 14.84 27.57 23 3.64 2.92 7.39 5.84 11.26 8.67 5.53 4.04 11.25 7.92 17.19 11.42z" class="cls-8" transform="translate(-34.16 -187.7)"/><path d="M417.44 386.54l3.06 4.71-23.83 4.42c-3.38-2.32-3.79-4.69 1-5.34z" class="cls-6" transform="translate(-34.16 -187.7)"/><path d="M383.28 198.84l-19.77 3.79 7.53-22.6 12.24 18.81z" class="cls-4"/><path d="M380.74 529.4c2.36 18.73 5.12 50.1 30.08 72.75 2.67 18.25 6.77 34 12.22 47.22-6.42-1.84-8.6-7.24-10.69-13.75-20.38-9.88-38.42-40.91-51-72.86-11.47-29.15-18.4-59.07-18.4-74.38 0-1.07 0-2.14.05-3.21-1.41-1.87-2.8-3.71-4.16-5.54a7.47 7.47 0 0 1 4.47-1.56c6.49 0 28.77 28.93 34.17 37.25 1.66 2.55 2.43 7.54 3.26 14.08z" class="cls-16" transform="translate(-34.16 -187.7)"/><path d="M411.91 939.6c-5 15.44-19.19 27.63-30 35 3.18-27.5 7.76-73.65 8.46-101.85q.73-3.24 1.41-6.6c.12.49.24 1 .35 1.48 3.74 16.72 8.79 32.91 13.35 49.43 2.3 8.21 4.43 15.69 6.43 22.54z" class="cls-29" transform="translate(-34.16 -187.7)"/><path d="M407.2 555.13a375.16 375.16 0 0 0 3.62 47c-25-22.65-27.72-54-30.08-72.75 9.08 8.25 16.66 18.52 26.45 25.73z" class="cls-15" transform="translate(-34.16 -187.7)"/><path d="M405.76 671.17c0 2.69.07 5.36.07 8a119.11 119.11 0 0 1-1.83 23.2v-2.72s-16.07-29.16-33.61-59.5c10.38 10.39 28.1 34.5 30.79 40 .71-5 1.44-11.07 5.14-14.78a12.29 12.29 0 0 1 .08 1.47 16.09 16.09 0 0 1-.64 4.33z" class="cls-9" transform="translate(-34.16 -187.7)"/><path d="M414.13 425.42a220.08 220.08 0 0 1-23.72 44.77c-1.75-.19-3.48-.38-5.23-.71-3.82-.71-8.76-1.75-15.67-3.22s-27.65-5.91-46.62-10.2l-7.24-1.65c-10.5-2.41-19.72-4.65-24.71-6.09 1.62-1.19 3.29-2.34 5-3.49 2.58-.48 5.15-1 7.72-1.63 24.49-5.97 65.78-12.69 110.47-17.78z" class="cls-12" transform="translate(-34.16 -187.7)"/><path d="M391.82 866.16q-.68 3.36-1.41 6.6a218.27 218.27 0 0 1-11.3 36.24l-2.36-1c.46-18-3.82-63.5-19.25-92.45 3.41 3.22 6.88 6.43 10.28 9.82 10.09 10.08 19.45 21.81 24.04 40.79z" class="cls-20" transform="translate(-34.16 -187.7)"/><path d="M390.41 872.77c-.7 28.2-5.28 74.35-8.46 101.85a113.52 113.52 0 0 1-13.3 8c-10.17-8.17-19.4-16.38-27.57-23 15.21-10.59 28.2-27.08 38-50.56a218.27 218.27 0 0 0 11.33-36.29z" class="cls-20" transform="translate(-34.16 -187.7)"/><path d="M408.84 1087.49c-9.09 10.9-17.26 20.75-25.54 27.8-14.63-1.67-29.54-3.47-47.63-6.62 0 0-9.68 29.36-13.34 29.66-11.76 1 4.72-124.18 7-187.58a145.19 145.19 0 0 1 11.78 8.81c-2.25 14.61-2.71 29.45-2.71 44.31 0 10.09.21 20.18.21 30.21 0 24-1.56 25.6-1.56 40.55a71.32 71.32 0 0 0 1.3 14.79c3.78-3.79 6.26-8.63 8.14-13.61 17.51 9.53 42.09 10.19 62.35 11.68z" class="cls-7" transform="translate(-34.16 -187.7)"/><path d="M382 974.62c-.8 6.91-1.51 12.64-2 16.62-3.87-2.83-7.62-5.75-11.26-8.67a113.52 113.52 0 0 0 13.26-7.95zM376.75 908l2.36 1c-9.83 23.48-22.82 40-38 50.56a145.19 145.19 0 0 0-11.78-8.81v-1.08l-12.5-12.5c30.47-29.17 31.43-101.9 31.43-130.92.5.55 1 1.1 1.52 1.64 2.48 2.63 5.08 5.15 7.72 7.66C372.93 844.5 377.21 890 376.75 908z" class="cls-20" transform="translate(-34.16 -187.7)"/><path d="M349.78 807.89c-.52-.54-1-1.09-1.52-1.64a71.83 71.83 0 0 1-10.72-15c1.24 1.65 2.4 3.34 3.46 5.08 3.5-115.33-14.5-201.83-8-216.83 3.57 4.85 8.3 12.13 13.64 20.73-4.31 38.77-.01 138.1 3.14 207.66z" class="cls-7" transform="translate(-34.16 -187.7)"/><path d="M241.51 820c2.89-12.32 7.3-28.71 12.16-38.35.1-.21.21-.41.32-.61 14.6-27.84 50.86-20.74 74-.14a72 72 0 0 1 9.56 10.3 71.83 71.83 0 0 0 10.72 15c0 29-1 101.75-31.43 130.92l-5.52-5.52q1.11-6.64 1.85-13.29a253.3 253.3 0 0 0 1.64-28.8v-2.22A143.79 143.79 0 0 0 284.67 863c-17.15-10.35-34.46-15.77-50.52-19.43q1.88-3.65 3.85-7.24s1.32-6.99 3.51-16.33zm49.15 0c6.55-10.49 20.53-23.82 19.62-24.55-1.46-1.18-26.56 16.78-27 18.2-5.24 16-8.64 26.46-11 40.33-1.28 7.52 11.83-23.47 18.38-33.98z" class="cls-20" transform="translate(-34.16 -187.7)"/><path d="M338.84 479.63c1.36 1.83 2.75 3.67 4.16 5.54 0 1.07-.05 2.14-.05 3.21 0 15.31 6.93 45.23 18.4 74.38-12-20.06-43.1-86.28-45.71-108.35l7.24 1.65a229.38 229.38 0 0 0 15.96 23.57z" class="cls-9" transform="translate(-34.16 -187.7)"/><path d="M314.79 887.33v2.22a253.3 253.3 0 0 1-1.64 28.8c-37.89-22.29-74.63-37.35-100-25.08q4.28-12.59 9.41-24.84c22-5.68 35.65-7 62.12-5.43a143.79 143.79 0 0 1 30.11 24.33z" class="cls-20" transform="translate(-34.16 -187.7)"/><path d="M301.34 1530.71c-35.73-24.41-53.33-3.65-53.33-38.63 0-6.51.53-6 .53-10 0-1.64-.23-4.74-1.88-4.74-7.48 0-11.28 23.45-15.61 37.09-1.22-1.14-6.05-5.84-6.38-9.41-.39-4.09 18-36.33 18-36.33a10.54 10.54 0 0 1 5.66-1.67l12.42-4.5L308 1484c9.83 3.25 11.72 8 6.33 14.33 0 0-1.09 29.62-1.33 35.34-.3 6.87-8.74 8.67-14.7 8.35a35.19 35.19 0 0 1 3.04-11.31z" class="cls-4" transform="translate(-34.16 -187.7)"/><path d="M313.16 918.35q-.74 6.64-1.85 13.29l-.64-.64Q306 944.21 301 957.14s-78.45-38.79-99.34-24.14c3.26-13.47 7.05-26.73 11.48-39.73 25.39-12.27 62.13 2.79 100.02 25.08z" class="cls-20" transform="translate(-34.16 -187.7)"/><path d="M310.28 795.47c.91.73-13.07 14.06-19.62 24.55S271 861.5 272.25 854c2.36-13.87 5.76-24.38 11-40.33.47-1.42 25.57-19.38 27.03-18.2z" class="cls-29" transform="translate(-34.16 -187.7)"/><path d="M289.67 418c6.39 4.28 12.06 10.56 17.26 18.1a66.93 66.93 0 0 1-9.39 7.58c-1.49-9.24-5-18.26-8.69-26.92z" class="cls-6" transform="translate(-34.16 -187.7)"/><path d="M215.28 1597a12.83 12.83 0 0 0 1.39 0l14.66-82.33-.28-.26c4.33-13.64 8.13-37.09 15.61-37.09 1.65 0 1.88 3.1 1.88 4.74 0 4-.53 3.51-.53 10 0 35 17.6 14.22 53.33 38.63a35.19 35.19 0 0 0-3 11.31h-.3c-28.06 53.31-24.37 138.3-47 192.74a37.33 37.33 0 0 1-26-10.91c-11.83-11.66-11.83-19.33-19.33-27.5s-20.84-17.91-29-27.83c-9.59-11.65-24-96.5-24-144.5 0 0 7.09-5.43 11-4.67 41.11 8.08 28 76.14 51.57 77.65z" class="cls-30" transform="translate(-34.16 -187.7)"/><path d="M297.54 443.68l-.89.62c-3.49-11.38-4.79-5.68-17-41.4q4.59 6.92 9.16 13.86c3.73 8.66 7.24 17.68 8.73 26.92z" class="cls-9" transform="translate(-34.16 -187.7)"/><path d="M301 957.14q-12.55 32.93-26.68 63.68c-11.22-17.16-67.65-60.8-79.22-57.07q2.9-15.54 6.56-30.75c20.89-14.65 99.34 24.14 99.34 24.14zm-66.85-113.57c16.06 3.66 33.37 9.08 50.52 19.43-26.47-1.56-40.12-.25-62.12 5.43q5.3-12.63 11.6-24.86z" class="cls-20" transform="translate(-34.16 -187.7)"/><path d="M272 481.5c.16 9 4.27 17.59 8.1 25.58a42.58 42.58 0 0 1-5.17 1.36 49.81 49.81 0 0 1-4-18.57 33.46 33.46 0 0 1 1-8.38z" class="cls-9" transform="translate(-34.16 -187.7)"/><path d="M269 1032.31q-6.56 13.73-13.46 26.94a16.55 16.55 0 0 0-9.54 0c-15.8-16.7-39.54-36.14-58.27-46.08 2-16.66 4.42-33.16 7.44-49.42 11.57-3.73 68 39.91 79.22 57.07q-2.71 5.79-5.39 11.49z" class="cls-20" transform="translate(-34.16 -187.7)"/><path d="M258.67 1075.67c.86 16.17 4.61 47.67-2 54.33a32.06 32.06 0 0 1-24.13 9.74c.06-1.27.13-2.52.22-3.74 21.71-8 22.74-15.67 4.86-26.81-10.18-10.58-33.57-27.91-44.33-35.06-.95-8.7-3.14-36-8-44.6-.93-1.65-2-2.6-3.12-2.6-2.37 0-17.41 16.89-17.41 20.17s2.9.33 2.9 14.49v5.39c0 6.53.87 11.3.87 16.52a35.2 35.2 0 0 1-.68 7.07c-.66.68-2.61 2.51-3.44 1.42-5.12-6.78-15.92-22.85-15-36.67 1.11-16.53 30.38-44.13 38.34-42v-.16c18.73 9.94 42.47 29.38 58.27 46.08 2.16 2.29 4.18 4.53 6 6.68l-.3.57z" class="cls-4" transform="translate(-34.16 -187.7)"/><path d="M255.5 1059.25q-1.74 3.36-3.53 6.68c-1.83-2.15-3.85-4.39-6-6.68a16.55 16.55 0 0 1 9.53 0z" class="cls-20" transform="translate(-34.16 -187.7)"/><path d="M251 1734.74c-.22.54-.44 1.06-.67 1.59-6 1-1.21 20.74-10.66 21.34-10.2.64-55.41-34.34-55.34-46.34.1-16.36-2.4-29.3-16.66-26.33-28.5-20.5-28.17-151.09-23.67-159.67 3.13-6 8.48-7.21 8.67-1.33 0 48 14.41 132.85 24 144.5 8.16 9.92 21.5 19.67 29 27.83s7.5 15.84 19.33 27.5a37.33 37.33 0 0 0 26 10.91z" class="cls-31" transform="translate(-34.16 -187.7)"/><path d="M243.62 435.91c0 6.41 2 12.84 2.45 19.31q-4.32-2.06-8.64-4.18c.46-10 3.1-37.2 7.38-41.42v.91c0 4.26-1.4 6.22-1.4 17.66q0 3.39.2 6.78c.01.31.01.62.01.94z" class="cls-9" transform="translate(-34.16 -187.7)"/><path fill="#bc764f" d="M237.62 1109.19c17.88 11.14 16.85 18.81-4.86 26.81a120.12 120.12 0 0 1 2.36-16.64c.69-3.29 1.52-6.63 2.5-10.17z" transform="translate(-34.16 -187.7)"/><path d="M237.62 1109.19c-1 3.54-1.81 6.88-2.5 10.17s-42.3-27.45-43.78-29.94c-2.37-4-6.08-59.89-6.08-59.89 4.9 8.57 7.09 35.9 8 44.6 10.79 7.15 34.18 24.48 44.36 35.06z" class="cls-7" transform="translate(-34.16 -187.7)"/><path d="M164 1136c3.34-15.12 3.82-30.38 4-45.67l-.23.24a35.2 35.2 0 0 0 .68-7.07c0-5.22-.87-10-.87-16.52v-5.39c0-14.16-2.9-11.32-2.9-14.49s15-20.17 17.41-20.17c1.15 0 2.19 1 3.12 2.6 0 0 3.71 55.89 6.08 59.89 1.48 2.49 43.78 29.94 43.78 29.94a120.12 120.12 0 0 0-2.36 16.64c-.09 1.22-.16 2.47-.22 3.74l-.87-.07c-7.72 29.92-16 92.17-25.73 126.2-3.84-10.07-14.24-37.38-19.68-37.38-2.84 0-5.08 5.12-7.55 5.12-9.26 0 0-46-36-83.1v-32.84c8.43 1.67 15.08 9.33 21.34 18.33z" class="cls-30" transform="translate(-34.16 -187.7)"/><path d="M223 322q5.61 7.35 11.13 14.9c-25 3.28-33.8 28.3-41.77 91.25q-6.93-3.58-13.86-7.15c1.16-22.15 4-44.19 10.5-66 2.48-13.68 6.52-21.85 15-29.67q17.25-16.04 19-3.33z" class="cls-4" transform="translate(-34.16 -187.7)"/><path d="M196 317.33l8 8c-8.48 7.82-12.52 16-15 29.67 0-1.33-4.24-6.71-7.33-9.33h-.31a44.32 44.32 0 0 1 14.56-28.81 4.71 4.71 0 0 1 .08.47z" class="cls-1" transform="translate(-34.16 -187.7)"/><path d="M205.94 1265.87c-1.07 3.72-2.15 7.1-3.25 10.07-14.48-16.5-11.85-34.62-17.14-34.62-2.19 0-6.94 3-8.47 3.62-12.2-7.62-12.5-50.79-34.41-81.22v-13.21c36 37.09 26.78 83.1 36 83.1 2.47 0 4.71-5.12 7.55-5.12 5.48 0 15.88 27.31 19.72 37.38z" class="cls-31" transform="translate(-34.16 -187.7)"/><path fill="#dc9346" d="M142.67 1240.33v-76.61c21.91 30.43 22.21 73.6 34.41 81.22 1.53-.67 6.28-3.62 8.47-3.62 5.29 0 2.66 18.12 17.14 34.62-3.08 8.29-6.3 13.33-9.69 13.39-12.56.25-25.39 2.11-39.33 3.34a105.19 105.19 0 0 0-11-13.34z" transform="translate(-34.16 -187.7)"/><path d="M195.92 316.83a44.32 44.32 0 0 0-14.56 28.81c-5.1-.48-10-5-15-7.45 1.94-11.5 7.62-22.72 16.62-30.07 3.35-1.68 11.94 4.46 12.94 8.71z" class="cls-34" transform="translate(-34.16 -187.7)"/><path d="M99 322.39a14.53 14.53 0 0 0-5.78-9.59c4.17-2.25 8.56-4.32 12.79-5.13 10.34-2 12.67 2.47 22.83 2.25 23-.49 44.38-8.25 53.5-1.25a2.22 2.22 0 0 1 .67-.55c-9 7.35-14.68 18.57-16.62 30.07L166 338c-11.78 5.66-24 5-36.77-3.84a17.19 17.19 0 0 0 .57-4.42 24.5 24.5 0 0 0-2.46-10.12c-5.66-.52-11.4 0-17.11-.78a26 26 0 0 0-3.55-.62c-2.43 0-5.43 2.78-7.6 4.73-.03-.19-.08-.38-.08-.56z" class="cls-34" transform="translate(-34.16 -187.7)"/><path d="M129.8 329.74a17.19 17.19 0 0 1-.57 4.42L129 334a66.88 66.88 0 0 0-20 0c-7 6.28-13.92 7.13-20.75-1.08a1.69 1.69 0 0 1-.25.08c1-5.64 6.42-7.67 11-10.64 0 .18.06.37.09.56 2.17-1.95 5.17-4.73 7.6-4.73a26 26 0 0 1 3.55.62c5.71.79 11.45.26 17.11.78a24.5 24.5 0 0 1 2.45 10.15z" class="cls-1" transform="translate(-34.16 -187.7)"/><path d="M93.21 312.8a14.53 14.53 0 0 1 5.79 9.59c-4.59 3-10.06 5-11 10.64-8 3.26-52 8.23-53.31-1.7-.66-5.12 36-10 42.33-10.66 3.83-.41 9.73-4.37 16.19-7.87z" class="cls-1" transform="translate(-34.16 -187.7)"/><path d="M311.31 931.65l5.52 5.52 12.5 12.5v1.08c-2.24 63.4-18.72 188.55-7 187.58 3.66-.3 13.34-29.66 13.34-29.66 18.09 3.15 33 4.95 47.63 6.62h.37C348.25 1154.25 256.76 1201 272.33 1264c7.17 29-24 203-24 203a10.54 10.54 0 0 0-5.66 1.67s-18.39 32.24-18 36.33c.33 3.57 5.16 8.27 6.38 9.41l.28.26-14.66 82.33a12.83 12.83 0 0 1-1.39 0c-23.53-1.51-10.46-69.57-51.57-77.65-3.91-.76-11 4.67-11 4.67-.19-5.88-5.54-4.64-8.67 1.33-4.5 8.58-4.83 139.17 23.67 159.67 14.26-3 16.76 10 16.66 26.33-.07 12 45.14 47 55.34 46.34 9.45-.6 4.66-20.34 10.66-21.34.23-.53.45-1 .67-1.59 22.63-54.44 18.94-139.43 47-192.74h.3c6 .32 14.4-1.48 14.7-8.35.24-5.72 1.33-35.34 1.33-35.34 5.39-6.38 3.5-11.08-6.33-14.33 3.75-45.25 59.25-162.75 62.5-226.5 38.35-31 82.84-61.87 129.48-92.38q6.64-4.33 13.33-8.67l.69-.45s17.73 13 22.5 12.5c3.19-.31 8.66-4.36 15.22-10.41 3.49-3.22 7.31-7 11.26-11.1 1.09-1.12 2.18-2.27 3.27-3.42 2.49-2.63 5-5.35 7.52-8.1s4.86-5.33 7.23-8c0 0 3 3.76 5.16 4.12 2.27.39 17.5-7.13 25.51-8.62 31.1-5.81 61.08 1.15 95.33 9 19.5 4.47 36.16 4.87 49 0 33.49 21 69.51 31 109 26.33-7.43-26.69-14.33-53.68-19.67-82.33-9-48.33-17.55-240-27.66-367-1.71-21.44-1.63-50.22.66-81.67 23.7-2.64 44.28.67 64.53 5 12.93 2.77 25.73 6 39.14 8.32 8.79-5.19 8.33-31.25 9.31-55.18v-.49c3.74-.3 7.46-.69 11.22-.71a40.48 40.48 0 0 1 8.43.76c10.93 2.17 20.33 4.67 31.33 2.67a58.88 58.88 0 0 1 6.68 1.15c5.41 1.23 10.49 3 15.66 4.18 9.14 2.12 13.78-3.71 8.33-6-4.46-1.88-12.61-4.42-19-6.8-7.14-2.67-12-5.15-6.94-6.28a56.67 56.67 0 0 1 9.93-1.25c12.26-.52 24.34 2.12 37 .33 10.25-1.45 8.69-10.47 4.33-10.67-12.23-.55-29.9-.73-40-1.85-7.23-.8-10.6-2.08-5.32-4.32a59.89 59.89 0 0 1 6.21-2.24c13.57-4.16 28-4.2 42.62-9.42 11.41-4.07 5.56-12.82-1.33-11.17-16.29 3.9-29.4 8.35-43 8.54a60.26 60.26 0 0 1-7.79-.37c-5.88-.67-1.89-2.86 6-6.23 10.86-4.63 29.1-11.47 39.31-19.6 6.44-5.13 1.9-8.46-5-7-13.89 2.92-26.41 8.76-39.06 14.3-2.09.91-4.17 1.82-6.27 2.7h-15c.67-.85 1.36-1.71 2.06-2.58 8-9.83 18.27-20.55 18.27-32.76 0-6-2.87-7.65-9-.33a83 83 0 0 1-22.39 18.85l-.28.15c-5.83 3.17-13.32 18-21 25a10.46 10.46 0 0 1-3.19 1.87c-3.47 1.38-8.52 2-14.81 3.13l1.17-2.5s-.54.23-1.46.54a32.33 32.33 0 0 1-5.23 1.32c-11.83 1.94-25.94 3.48-39.83 4.94-23.06 2.4-45.77 4.57-57.58 8-12-11.64-63.45 1.68-68.88 6.75a50.71 50.71 0 0 0-4.25 4.5l-1.53-.1a66.8 66.8 0 0 0-10.42.22 43.74 43.74 0 0 0-20 6.88c-10.89-.4-22 .36-34.62 6.82-.43.21-.86.44-1.3.68a42 42 0 0 0-23.83 5.5c-16.83 8.83-35.17-13.83-47.5 6l-.52-14.58-.57-13.64c.18-.2.36-.4.52-.61 7.6-9 9.82-25.61 10.71-44.12 0-.75.07-1.51.1-2.27A40 40 0 0 0 621 506s16.71 18.29 17.5 17.5c2.06-2.06-7.17-21.83-7.17-21.83 35.26-2 104.48-14.13 114.76-18.85 1-.46 1.44-.85 1.24-1.15-.69-1.06-1.47-2.14-2.34-3.23" class="cls-35" transform="translate(-34.16 -187.7)"/><path d="M167.77 1090.57l.23-.24c-.18 15.29-.66 30.55-4 45.67-6.26-9-12.91-16.66-21.33-18.33v161.66a105.19 105.19 0 0 1 11 13.34c13.94-1.23 26.77-3.09 39.33-3.34 3.39-.06 6.61-5.1 9.69-13.39 1.1-3 2.18-6.35 3.25-10.07 9.74-34 18-96.28 25.73-126.2l.87.07a32.06 32.06 0 0 0 24.13-9.74c6.61-6.66 2.86-38.16 2-54.33l-7-9.17.3-.57q1.78-3.32 3.53-6.68 6.92-13.21 13.46-26.94 2.73-5.7 5.39-11.49 14.14-30.72 26.65-63.68 5-12.92 9.67-26.14l.64.64" class="cls-35" transform="translate(-34.16 -187.7)"/><path d="M337.52 791.22a72 72 0 0 0-9.56-10.3c-23.11-20.6-59.37-27.7-74 .14-.11.2-.22.4-.32.61-4.86 9.64-9.27 26-12.16 38.35-2.19 9.32-3.51 16.31-3.51 16.31q-2 3.6-3.85 7.24-6.32 12.23-11.6 24.86-5.15 12.26-9.41 24.84c-4.43 13-8.22 26.26-11.48 39.73q-3.69 15.21-6.53 30.75c-3 16.26-5.43 32.76-7.44 49.42v.16c-8-2.13-37.23 25.47-38.34 42-.92 13.82 9.88 29.89 15 36.67.83 1.09 2.78-.74 3.44-1.42M237.43 451q4.32 2.11 8.64 4.18l.93.45c3.29 18.41 4.5 39 14.33 50 3.15 3.51 8.42 3.75 13.58 2.77a42.58 42.58 0 0 0 5.17-1.36l.25-.08C292 536.8 318.58 563.92 333 579.5c-6.5 15 11.5 101.5 8 216.83a63.179 63.179 0 0 0-3.46-5.08M183 308.12a2.22 2.22 0 0 0-.67.55c-9.12-7-30.49.76-53.5 1.25-10.16.22-12.49-4.22-22.83-2.25-4.23.81-8.62 2.88-12.79 5.13-6.46 3.5-12.36 7.46-16.21 7.87-6.33.66-43 5.54-42.33 10.66 1.27 9.93 45.28 5 53.31 1.7a1.69 1.69 0 0 0 .27-.11c6.83 8.21 13.75 7.36 20.75 1.08a66.88 66.88 0 0 1 20 0l.23.16c12.77 8.83 25 9.5 36.77 3.84l.38.19c5 2.47 9.88 7 15 7.45h.31c3.09 2.62 7.33 8 7.33 9.33-6.49 21.81-9.34 43.85-10.5 66q6.93 3.56 13.86 7.15c15 7.76 30 15.53 45.07 22.88M745 478.44c-21.93-27.29-100.81-62.35-94.65-72.69 2.9-3 1.61-4.61-2.33-5.42v-6c-2.92-6.3-3.75-14.69-4.33-23.33 2.56-1.67 2.27-3.72.33-6-6.38-20.9-8.75-41.44-2-59.33a15.71 15.71 0 0 0 10.67.66c20.06-5.93 38.08-7.45 64.66 9a5.31 5.31 0 0 1 .3.85c1.73 5.86-1.49 18.77-3.85 34.25-3.09 20.17-4.73 44.68 7.89 63.57 2.28 3.42-.17-23.38 5-27.67 3.39 19.73 21 52.29 21.91 48.59 10-40.07 6.23-73.58-4.05-96.34-5.55-12.28-13-21.43-21.23-26.8q-.9-.58-1.8-1.11c-28.19-53.13-85.44-102.34-126.83-122-13.07-6.21-96.47 51.08-136.53 84.27-.84.7-1.67 1.38-2.47 2.06-19.42 11.61-28.92 26.72-31.34 44.33l-.52 1.27-16.16 39.4c-.18.1-7.43.48-1.5 4.83l-1 2.9-7.53 22.6c-4.79.65-4.38 3-1 5.34-1.5.52-3 2.93-6.34 4.16-30.76 6.61-74.16 32.77-82.18 37.75l-.15.09v-.06c-.34-.51-.68-1-1-1.51-5.2-7.54-10.87-13.82-17.26-18.1l-.82-1.24q-4.58-6.94-9.16-13.86c-15-22.56-30-44.83-45.56-66q-5.56-7.54-11.17-14.9-1.75-12.71-19 3.33l-8-8a4.71 4.71 0 0 0-.08-.5c-1-4.25-9.59-10.39-12.9-8.72m22.92 957.77c-3.84-10.07-14.24-37.38-19.68-37.38-2.84 0-5.08 5.12-7.55 5.12-9.26 0 0-46-36-83.1" class="cls-35" transform="translate(-34.16 -187.7)"/><path d="M167.77 1090.58a35.2 35.2 0 0 0 .68-7.07c0-5.22-.87-10-.87-16.52v-5.39c0-14.16-2.9-11.32-2.9-14.49s15-20.17 17.41-20.17c1.15 0 2.19 1 3.12 2.6 4.9 8.57 7.09 35.9 8 44.6 10.76 7.15 34.15 24.48 44.33 35.06-1 3.54-1.81 6.88-2.5 10.17a120.12 120.12 0 0 0-2.36 16.64c-.09 1.22-.16 2.47-.22 3.74m19.54-73.82c-1.83-2.15-3.85-4.39-6-6.68-15.8-16.7-39.54-36.14-58.27-46.08m160.53-206.93a71.83 71.83 0 0 1-10.72-15m30.24 34.13c-3.4-3.39-6.87-6.6-10.28-9.82-2.64-2.51-5.24-5-7.72-7.66-.52-.54-1-1.09-1.52-1.64m43.56 59.91c-4.59-19-13.95-30.71-24-40.79m44.09 114.23c-2-6.85-4.13-14.33-6.39-22.52-4.56-16.52-9.61-32.71-13.35-49.43-.11-.5-.23-1-.35-1.48m71.73 169.34c-6.49-10.61-11.12-13.71-15.47-16.74-8.83-6.14-16.53-12-36.17-79.16" class="cls-35" transform="translate(-34.16 -187.7)"/><path d="M448.08 1018.77c-16.55-.22-32.16-5.71-46.59-13.61-1.48-.81-3-1.65-4.42-2.51-5.94-3.5-11.66-7.38-17.16-11.41-3.87-2.83-7.62-5.75-11.26-8.67-10.17-8.17-19.4-16.38-27.57-23a145.19 145.19 0 0 0-11.78-8.81" class="cls-35" transform="translate(-34.16 -187.7)"/><path d="M341.08 959.56c-2.25 14.61-2.71 29.45-2.71 44.31 0 10.09.21 20.18.21 30.21 0 24-1.56 25.6-1.56 40.55a71.32 71.32 0 0 0 1.3 14.79c3.78-3.79 6.26-8.63 8.14-13.61 17.57 9.53 42.12 10.15 62.38 11.68m20.68-23.72c-13.2-18-22.86-37.06-28-58.61" class="cls-35" transform="translate(-34.16 -187.7)"/><path d="M513.25 1156.35c7.28-6.43 17.3-8.19 23.27-18.58.29-.49.56-1 .82-1.52-4.14-20-19.68-31.41-73.79-100.73-.19-.23-.37-.47-.56-.71a200 200 0 0 0-33.47 29c-1.75 1.85-3.45 3.71-5.13 5.57-5.55 6.17-10.68 12.31-15.55 18.15-9.09 10.9-17.26 20.75-25.54 27.8" class="cls-35" transform="translate(-34.16 -187.7)"/><path fill="#5e4d5d" stroke="#000" stroke-miterlimit="10" d="M500 1165.12c-1.14-49.44-37.27-82.11-75.59-95.78" transform="translate(-34.16 -187.7)"/><path d="M551.72 1158.09s-2.33-25.3-6.72-40.86c-6.56-23.23-51.15-63-82.81-104-29.83-38.62-41-131.6-58.75-171.16" class="cls-35" transform="translate(-34.16 -187.7)"/><path d="M424.62 860.7c-4.05-4.17-8.07-7.93-12-11.3-3.13-2.68-6.2-5.11-9.17-7.31-15.91-11.79-29.09-16.88-33.77-16.88a11.16 11.16 0 0 0-1.88.16m132.89 59.36A294.09 294.09 0 0 0 448 890c-.53-.82-1.07-1.62-1.61-2.42q-2.47-3.68-5-7.1a192.67 192.67 0 0 0-16.75-19.77" class="cls-35" transform="translate(-34.16 -187.7)"/><path d="M424.62 860.7c2.33 9.15 4.84 20.19 7.88 24a14.46 14.46 0 0 0 8.87-4.19m5.02 7.07s-12.15-.22-12.72 1.42c-.94 2.69 31.16 31.17 31.16 31.17L448 937a98.9 98.9 0 0 0 17.32 15.56 39.59 39.59 0 0 0 12.26 5.94l-7.2 11-9.38 14.33S495.83 998 502.5 998l3.67 38.83s31.17 8 44.16 9.34c0 7.66-3 43.83-3 43.83l38 15.83a173 173 0 0 1-11.56 29.64" class="cls-35" transform="translate(-34.16 -187.7)"/><path d="M566.25 1143.57l12.08-33.57-26.61-12.33c9.66 7 12.28 29.5 11.26 49.32m-20.31-64.82c-12-16.83-20.49-27.73-34-40.34l36.33 7.34zm-43-50.34c-13.74-15.56-33.39-35.37-35.17-41 12.5 4.87 25.13 9.45 32.5 10.5z" class="cls-35" transform="translate(-34.16 -187.7)"/><path d="M424.84 790.3l-10.92-33.33 21.09 16.66-10.17 16.67zm-14.67-45l-8.83-34.5 22 21.17-13.17 13.33z" class="cls-35"/><path d="M370.39 640.17c17.54 30.34 33.61 59.5 33.61 59.5v16l23 70.18.37 1.15-1.61 12.35-6 46.13M333 579.5c3.57 4.85 8.3 12.13 13.64 20.73 7.27 11.74 15.66 26 23.74 39.93" class="cls-35" transform="translate(-34.16 -187.7)"/><path d="M412.61 849.4a50.79 50.79 0 0 1 7.07-3.92c16-7.38 41.8-11.29 69.48-12" class="cls-35" transform="translate(-34.16 -187.7)"/><path d="M489.16 833.46c-1.43-3.7-2.19-5.9-1.66-6.63 3.31-4.52 86.09-12.92 93.17-8 .62.43 2.18 3.45 4.14 8 5.49 12.63 14.05 37 13.4 49a13.92 13.92 0 0 1-.71 3.88c-4.67 12.72-87.92 16.91-96.17 8.66-.35-.35-.52-1.63-.64-3.6-.35-5.42-.43-16.08-3.36-27.12a211 211 0 0 0-8.17-24.19z" class="cls-35" transform="translate(-34.16 -187.7)"/><path d="M522.39 851.83c2.44-.2 4.88-.18 6.56-.18 8.06 0 17 1 17.79 3.26-.61 4.75-16 4.67-19.75 4.76-.82 0-1.82.08-2.83.16-1.68.13-3.35.28-4.18.28-2.87 0-6.21-1.81-6.21-4 .01-2.93 4.31-3.93 8.62-4.28z" class="cls-35" transform="translate(-34.16 -187.7)"/><path d="M522.39 851.83C517.62 833 515 835.54 515 832c0-2.63 7.39-2.49 10.07-2.49h1.64c.41 0 31.64-1.19 40-1.58 3.53.41 13.67 28.51 13.67 47 0 7.26-10.55 7.32-18.31 7.32-3.35 0-6.69-.28-10-.28-7.15 0-17 1.42-25.75 1.61-2-4.19-1-16.07-2.07-23.73m60.56-33.06a184.57 184.57 0 0 1 22.43-1.16h2.48c1.11 0 3.13-.24 5-.24 8 0 17.29 42.05 17.29 44.81 0 3.1-.85 4.77-3.63 5.63-2.19.68-5.58.87-10.7.87-7 0-14.87-.65-19.48-.92M298.3 1542a35.19 35.19 0 0 1 3-11.31c-35.73-24.41-53.33-3.65-53.33-38.63 0-6.51.53-6 .53-10 0-1.64-.23-4.74-1.88-4.74-7.48 0-11.28 23.45-15.61 37.09M251 1734.74a37.33 37.33 0 0 1-26-10.91c-11.83-11.66-11.83-19.33-19.33-27.5s-20.84-17.91-29-27.83c-9.59-11.65-24-96.5-24-144.5" class="cls-35" transform="translate(-34.16 -187.7)"/><path d="M273.84 1296.3l-47.25-21.5-12.42 4.5" class="cls-35"/><path d="M346.63 600.23c-4.3 38.77 0 138.1 3.15 207.66M609 1087.7c16.62-22.08 64-52.76 64-101.37 0-41.68-22.3-85.33-44.61-110.49M581 1127.5c8.52-7.5 14.38-14.16 18.86-22.25a76.42 76.42 0 0 0 4.47-9.67 33.44 33.44 0 0 1 4.62-7.87m.72-262.07C604.33 817.34 595 781 595 781c0-5.13 1.66-11.62 4-19.19 6.11-20 16.75-47.5 13.36-77.48 5.7 2.78 23.27-13.41 36.48-30.18m26.92-9.3c3.58-.54 8.17-1.24 13.21-2 18.65-2.92 43.61-7.1 47.7-9.15 6.66-3.34 22.33-11.34 22.33-11.34 8.34-1.14 15.6 3.22 26.43 5.72a63 63 0 0 0 15.24 1.64 80.07 80.07 0 0 0 17.66-2.36" class="cls-35" transform="translate(-34.16 -187.7)"/><path d="M762.78 585.54c-28.87 21.25-63.21 46.77-87 59.31a82.86 82.86 0 0 1-16.08 6.82 110 110 0 0 1-10.86 2.48c-28.26 4.94-51.36-2.84-61.42-10.44a24.93 24.93 0 0 1-2.06-1.71m231.02-90.75c-4.24-1.82-26.47 14.32-53.52 34.23" class="cls-35" transform="translate(-34.16 -187.7)"/><path d="M741.72 562.41c-37.22 29.35-65.23 51.94-89 62-20.3 8.6-37.5 8-54.7-5.27m284.84 13.21c-10.72-14.84-14.27-36-14.27-54.59 0-16 1.8-21.32 5.37-34.46m57.35 42.19a54.61 54.61 0 0 0-6.75-.42 57.89 57.89 0 0 0-6.57.38c-2 .21-3.94.53-5.91.92-.05-3.69-.13-7.45-.13-11.23v-3.78c.2-12 1.5-23.92 7.06-34.32M918 585.45a63.21 63.21 0 0 1-6-14.09m46.61-62.51c1.91 6.58 6.34 12.94 13.12 14.24m23.96 12.17a25.52 25.52 0 0 1-4.75-12.26m6.06 49.67a27.43 27.43 0 0 1-.47-4.78 14.93 14.93 0 0 1 1.78-7.4m.9-6.58a23.33 23.33 0 0 1-2.06-8.93 15.6 15.6 0 0 1 .31-3.1M989 588.82a16.11 16.11 0 0 1 5-8.62m-251.3 528.01c-.94-3.32-1.79-6.64-2.55-10 27.63 12.88 54.45 33.89 86.52 34.66.15 1.54 6.94 9.1 10.6 9.1 1.42 0 2.14-1.27 2.14-2.6 0-5.1-7.68-24.43-8.45-27.77-34-161.26-30.29-481.46-30.29-481.46m-57.97 478.07zm-142.84-2.96a121.32 121.32 0 0 1 31.23-3.76c29.9 0 60.09 8.34 90.24 8.34a133.64 133.64 0 0 0 21.37-1.62M181.36 345.64a44.32 44.32 0 0 1 14.56-28.81M93.21 312.8a14.53 14.53 0 0 1 5.79 9.59c0 .18.06.37.09.56 2.17-1.95 5.17-4.73 7.6-4.73a26 26 0 0 1 3.55.62c5.71.79 11.45.26 17.11.78a24.5 24.5 0 0 1 2.46 10.12 17.19 17.19 0 0 1-.57 4.42M189 355c2.48-13.68 6.52-21.85 15-29.67m30.14 11.57c-25 3.28-33.8 28.3-41.77 91.25m438.96 73.52c-.29-1-.58-2-.85-3-5.28-18.78-8.23-35.12-6.8-51" class="cls-35" transform="translate(-34.16 -187.7)"/><path d="M746.09 482c-48.09-13.7-85.19-24.64-122.41-34.89-35.73-9.84-71.57-19-117.35-29.38-29.48 1.19-61.64 3.89-92.2 7.35-44.69 5.05-86 11.71-110.52 17.63-2.57.63-5.14 1.14-7.72 1.62" class="cls-35" transform="translate(-34.16 -187.7)"/><path d="M307.92 437.18h.19c77.14-14.25 158.48-26 199.85-25.36 91.64 20.55 206 56.67 237 65.88" class="cls-35" transform="translate(-34.16 -187.7)"/><path d="M306.93 436.1a66.93 66.93 0 0 1-9.39 7.58l-.89.62-.76.53c-1.67 1.15-3.34 2.3-5 3.49 5 1.44 14.21 3.68 24.71 6.09l7.24 1.65c19 4.29 39.74 8.74 46.62 10.2s11.85 2.51 15.67 3.22c1.75.33 3.48.52 5.23.71M442 497.25c2.62 2.86 4.39 6.42 6.45 9.69.09-.28.17-.55.25-.82a10.5 10.5 0 0 1 2.45-4.73c2 0 4-.08 6.1-.08 1.45 0 2.8 0 4 .12 14 .91 15.72 6.68 21.37 12.83a32.52 32.52 0 0 0 2.57 2.53v-.94c-.14-3.88-.31-7.75-.38-11.63-8.65-8.25-15.57-12.93-24-12.93-5.37 0-11.36 1.89-18.8 6" class="cls-35" transform="translate(-34.16 -187.7)"/><path d="M461.46 504.57a7.73 7.73 0 0 1 2.33-.38 4 4 0 0 1 4.34 4.25 4.09 4.09 0 0 1-1.21 3.14 2.66 2.66 0 0 1-1.68.48 10.76 10.76 0 0 1-2.88-.54c-2.17-.68-4.52-1.95-4.52-3.57 0-1.42 1.64-2.76 3.62-3.38zm0 0c-.06-1.05-.11-2.08-.14-3.11" class="cls-35" transform="translate(-34.16 -187.7)"/><path d="M462.36 511.52c.4 9.36 4.75 26.31 11.2 26.31s8.27-14.8 9.13-23.54" class="cls-35" transform="translate(-34.16 -187.7)"/><path d="M448.73 506.15C451.11 518.84 460.61 543 472 543c7 0 14.21-7.74 14.21-19.32a34.64 34.64 0 0 0-1-7.81" class="cls-35" transform="translate(-34.16 -187.7)"/><path d="M469.78 513.71c.75-1.29 1.53-1.81 2.27-1.81 1.81 0 3.33 3.15 3.33 5.82 0 2-1.41 4.61-3.18 4.61-2.23 0-3-4-3-6.1a5 5 0 0 1 .58-2.52zM466.54 525c.66 5.53 3.15 11.7 6.95 11.7 3 0 5.47-4.62 5.89-9.45a12 12 0 0 1-4.33.78 13.25 13.25 0 0 1-8.51-3.03zm86.72-28.89c9.91-1.92 19.5-.39 22.57 6.56V536c-5.77 9-14.83 18.17-22.91 22.92-8.65-2.84-14.32-8.71-21.75-17.42l-.95-26.84-.22-6.16c4.28-5.31 12.08-9.55 20.11-11.67" class="cls-35" transform="translate(-34.16 -187.7)"/><path d="M551.9 502.17c8.23-1.49 16.28-.46 18.1 3.16a32.85 32.85 0 0 1 3.28 14.88 52.27 52.27 0 0 1-1.95 13.62c-5.2 7.41-10.93 13.26-19.66 19.67-6-3.33-16.67-13.83-16.67-13.83V510.5c3.53-4.16 9.77-6.89 16-8.16" class="cls-35" transform="translate(-34.16 -187.7)"/><path d="M551.71 527.16a27.08 27.08 0 0 1-10 2.62c-1.66 0-2.85-.44-2.85-1.66 0-3.51 9.7-4.69 13.48-5.29 0-1.64-.49-6-.49-9.64 0-2.43.13-6.44 2.59-6.44 3.26 0 4.05 5.37 4.05 8.63 0 2.16-.2 4.27-.24 5.79a58.89 58.89 0 0 1 6.74-.71c1.89 0 3.44.33 3.55 1.44-1.23 4.22-6.71 5.22-10.44 5.94v.68c0 3.73-.31 17.15-4 17.15-2.83 0-3.46-4.67-3.46-7.52-.03-3.68.79-7.67 1.07-10.99zm-56.85 52.42a23.7 23.7 0 0 0 5.51 7.69c3.51 3.27 7.91 5.35 12.3 5.35 6.35 0 13.2-4.71 15.13-14.75" class="cls-35" transform="translate(-34.16 -187.7)"/><path d="M527.81 577.87a31.1 31.1 0 0 0 .54-5.93v-2.08c-2.64-.23-5.2-.35-7.7-.35a74.2 74.2 0 0 0-27.26 5.17 20.71 20.71 0 0 0 1.5 4.9" class="cls-35" transform="translate(-34.16 -187.7)"/><path d="M527.81 577.87c-3.9-.16-7.8-.36-11.71-.36a96.27 96.27 0 0 0-10.22.55c-3.58.37-7.1.91-11 1.52m5.49 7.69a23.23 23.23 0 0 1 5.5-9.21m-60.35 88.62c8 5.45 16.76 11.33 33.93 14.18 4.05 5.93 7.46 11.93 11 15.51 2 2.06 4.1 3.32 6.35 3.32 2.91 0 5.83-2.27 8.63-5.61a80.64 80.64 0 0 0 7.75-11.76c12.15-.72 24-2.79 33.94-6.16" class="cls-35" transform="translate(-34.16 -187.7)"/><path d="M444 639.3c7.55 5.66 19.08 14.13 40.92 18.11 5.55 9.24 6.7 17.47 10 17.47s7.54-7.85 13.3-15.29h3.18c15.25 0 26-2.3 38-8.24M451 618.39a43.49 43.49 0 0 1-7.57 4.59m-3.01-19.45c4-2.81 8-5.53 12.19-8 .8-.48 1.6-.94 2.4-1.39a50.24 50.24 0 0 1 10.68 5.51c-.32.71-.65 1.41-1 2.1A47 47 0 0 1 451 618.39m1.61-22.86c-5.76-5.51-11-10.92-17.34-15.41m-3.38-63.34s10 45.79 13.63 51.22c3.83 5.68 15.89 19.6 32.58 32.17A147.26 147.26 0 0 0 494.44 611q2.52 1.46 5.11 2.77 3.1 1.59 6.32 3c2.17-1 4.74-2.11 7.58-3.31l5.2-2.19c8.17-3.43 17.81-7.53 27-12.33 13.77-7.22 26.47-16 31.48-26.58" class="cls-35" transform="translate(-34.16 -187.7)"/><path d="M499.55 613.75c-.11 2.11-.25 4.21-.25 6.31a33.15 33.15 0 0 0 .23 4.1c4.16.42 8.1 1.26 12.24 1.26.67 0 1.34 0 2-.07-.06-4-.15-7.93-.34-11.91" class="cls-35" transform="translate(-34.16 -187.7)"/><path d="M518.65 611.25a70.72 70.72 0 0 1 1 9.65v1.13a37 37 0 0 1-.67 7.14 29.38 29.38 0 0 1-9.75 1.75 26.45 26.45 0 0 1-15.41-5.09c.11-.93.18-1.86.23-2.79.22-4 0-8 .32-12" class="cls-35" transform="translate(-34.16 -187.7)"/><path d="M478.09 600.18l-.48 3.5c-.45 3.43-.85 6.87-1.07 10.32 5.86 3.2 11.12 7.27 17.57 9m25.59-2.1c.87.06 1.75.1 2.63.1 7.64 0 24.44-4.26 24.44-12.43a35.86 35.86 0 0 0-.29-4.25c-.21-1.84-.52-3.71-.85-5.4m24.37-3.23c-7.52 1.08-15.49 3-18.1 9a11.14 11.14 0 0 0-.89 4.52c0 5.38 3.3 11.27 7.08 15.2m-6.19-19.73c-1.81-.16-3.61-.31-5.41-.36m-68.87-.64c-4.31-.88-8.57-1.44-12.92-1.92m-141.82-145.7a229.38 229.38 0 0 0 16 23.57c1.36 1.83 2.75 3.67 4.16 5.54 0 1.07-.05 2.14-.05 3.21 0 15.31 6.93 45.23 18.4 74.38 12.58 32 30.62 63 51 72.86 2.09 6.51 4.27 11.91 10.69 13.75" class="cls-35" transform="translate(-34.16 -187.7)"/><path d="M338.83 479.64a7.47 7.47 0 0 1 4.47-1.56c6.49 0 28.77 28.93 34.17 37.25 1.66 2.55 2.43 7.54 3.26 14.08 2.36 18.73 5.12 50.1 30.08 72.75m-30.08-72.77c9.08 8.25 16.66 18.52 26.45 25.73m83.25 141.25c.14 3.66.38 8.16.72 13.15m.59 7.79c.08 1 .17 2 .26 3m.76 8.06c.66 6.55 1.45 13.12 2.35 19.09m1.64 9.54c.14.7.28 1.39.43 2a43.94 43.94 0 0 0 3.18 10.26c2.68-1.69 3.6-4.88 3.79-8.42" class="cls-35" transform="translate(-34.16 -187.7)"/><path d="M499.28 714.17c1.72-1.33 3.45-2.59 5.17-3.74 5.31-3.53 10.44-6 14.27-6.12 1 .28 1.47.8 1.47 1.47 0 1.73-6.21 7.36-13.82 13.14-2.1 1.6-4.31 3.21-6.52 4.76-2.4 1.67-4.81 3.26-7.09 4.68-5.37 3.34-10.06 5.64-12.36 5.64a5.17 5.17 0 0 1-.57 0c2-3.41 6.6-8.6 12.17-13.69.52-.47 1.05-.95 1.59-1.42 1.83-1.62 3.74-3.21 5.68-4.71m-.74 35.31c1.61-1.38 3.24-2.72 4.85-4 5.9-4.62 11.4-8.15 13.54-8.15.83 0 1.1.64 1.1 1.46 0 4.85-5.7 8.91-9.61 11.71-1.28.91-2.54 1.83-3.8 2.76" class="cls-35" transform="translate(-34.16 -187.7)"/><path d="M503.38 745.51v-2.67c0-5.55.13-11.09.33-16.63" class="cls-35" transform="translate(-34.16 -187.7)"/><path d="M506.37 718.93c4.68 3.46 8.5 7.06 9.85 10.14a4 4 0 0 1-2.81 1c-2.44 0-5.94-1.54-9.72-3.83-1.26-.76-2.55-1.6-3.84-2.51m-6.26-4.85c-.63-.52-1.25-1-1.85-1.57-5.16-4.5-9.05-8.85-9.05-10.47a1.2 1.2 0 0 1 .48-1 76.78 76.78 0 0 1 8 3.69c2.56 1.34 5.35 2.92 8.12 4.64m5.16-3.73c.3-5.45.64-10.89 1-16.35M498.52 758l-1.34 1-.18.14c-2.95 2.37-7.44 7.67-11.42 7.67-.91 0-1.29-.37-1.29-1 0-2.09 3.64-6.46 8.52-11.16" class="cls-35" transform="translate(-34.16 -187.7)"/><path d="M504.61 753.29c6.51 4.26 12.22 8.66 12.22 11 0 .57-.4.93-1.37.93a13.14 13.14 0 0 1-4-.91s-3.16-1.39-7.35-3.47c-1.75-.86-3.67-1.85-5.63-2.9l-1.77-1c-1.33-.74-2.66-1.51-3.94-2.29-5.52-3.38-10.12-7-10.12-9.62 0-1.66 1.32-2.71 3.24-2.71.08 0 4.08 2.12 9.18 5.1 1.1.64 2.24 1.32 3.42 2 2.05 1.28 4.12 2.58 6.12 3.87z" class="cls-35" transform="translate(-34.16 -187.7)"/><path d="M371.04 180.03l12.24 18.81 3.06 4.71h6.5l15-34.25 24.14 25.36 1.33 1.39 8.78-.25 1.34-1.87 23.16-32.38h4.25l27 34.5 5.25-.25 32.75-27.25 26.25 35h6l25.08-18.25 15.67 28.75 5-1.42" class="cls-35"/><path d="M616.17 218.05h-6.33l-2.75 4.5-4.46-.75-16.29-2.75-2.75-6.25-26.5-4.25-2.25 5.5-35.5-3.75-3-7-24.05-1.5-3.35 3.35-32.85-1.35-6.12-6.13-7.56.87-21.82 2.51-1.75 5.5-29.96 2.75-2.54-5.75-23.83 4.42m1-5.34l19.77-3.79" class="cls-35"/><path d="M392.84 203.55l22.75-.92 1.75-6.58 14.64-1.39m11.45-.73l13.16.73 3 4.18 27.24 1.9 3.51-6.08 7.5 1.39m5.25-.25l18 3.3 3 5.7 27.5 3.75 2.5-6.37 8 1.37m6 0l18.25 5 2.82 7.75 13.93 2.75 5.75-5m1-36.75h-5.25l-1.75-4-5.67.25m0 0l-19.08-6.25-2.5 4.75-27.91-4.75m-13.31-6l-24.03-3.75-3.03 5-20.48-2.5-3.24-6h-9.75m-9.5 0h-11.75l-6 7.5-25.75 1-5.75-4.25-3.25 1.5" class="cls-35"/><path d="M403.84 161.3l-14.75 1.25-3.5 6.5-12.08 3.25 2.99 5.16 10.34 17.84 14.7-29.4 2.3-4.6 8-1.5 7.04 7.96 17.96 20.29 24.06-29.75 3.44-4.25h9.5l3.32 3.94 22.68 26.93 30.84-21.1 3.69-2.52h8.72l4.59 6 3.85 5.04 14.31 18.71 26.58-14.85 4.75-2.65 2.16 5.82 9.51 25.68 5 3.5" class="cls-35"/><path d="M376.5 177.46l10.09-1.91 4.75-7.25 10.2-2.4m17.34 1.86l30.96-1.86 5.75-7.6h5.31m16.26-.31l4.43.31 3 4.73 25.25 4.27 4-5.75 16.84 2.27m20.85 8.52l25.81 4.96 3.75-3.75 11.33 2.65m6.91 3.17l4.18 1.93v2.25l6-.25" class="cls-35"/><path d="M717.64 316.18a17.89 17.89 0 0 0 5.66-4.4m-9.52 38.65c6.72 6 13.51 12.23 21.61 15.87 5.14-10.83 7.53-17.67 9.14-27.72M628 293.43c4.12 5.13 6.72 10.5 6.72 15.47a14.18 14.18 0 0 1-.39 3.3c-2 8.39-8.79 15.7-16.37 19.05a55.31 55.31 0 0 1-22.11 5.09c-22.32 0-38.71-18.49-38.71-38.78 0-17.27 12.44-27.53 29.5-27.53 10.92 0 26.87 8.47 37.36 19" class="cls-35" transform="translate(-34.16 -187.7)"/><path d="M618.35 317.51a7.09 7.09 0 0 1-1.1.49c-4.21-2.58-8.79-9.09-13.92-9.09-7.61 0-14.92 4.78-22.49 6.83a24 24 0 0 1-6.28.92c-3.69 0-5.27-1.22-5.27-2.84 0-1.94 1-3.19 4.17-5.11 3.61-2.21 10-5.3 20.78-11.32-9.13-9.76-13.25-14.74-13.69-18.37a4.82 4.82 0 0 1 0-.65c0-1.87 1.3-3.61 3-3.61a8.54 8.54 0 0 1 4.4 1.76c5.85 3.94 13.1 13.33 15.73 16.12a118.89 118.89 0 0 1 15.68-3.4 34 34 0 0 1 3.86-.26h.87c2.63.12 4.43.84 4.43 2.57a4.43 4.43 0 0 1-.44 1.86 11.63 11.63 0 0 1-2.63 3.5c-3.77 3.66-10 7.06-13.13 8.7 2.46 1.67 8 5.86 8 9.14a3.09 3.09 0 0 1-1.97 2.76z" class="cls-35" transform="translate(-34.16 -187.7)"/><path d="M573.46 308.71a21.84 21.84 0 0 1-4.66-12.85c0-7.32 5.15-13.45 11.75-16.84m7.35-2.5a23.17 23.17 0 0 1 4-.37c8 0 19.55 5.54 27.37 13.09m6.13 7.69a17.56 17.56 0 0 1 2.43 8.44c0 5.72-3.74 10.18-8.88 13.2a35.19 35.19 0 0 1-17.08 4.56 23 23 0 0 1-5.62-.63 46.87 46.87 0 0 1-15.41-6.76m-122.7-42.8c6.66-2.09 14.2-3.92 19.42-3.92 14.47 0 22.78 10.43 22.78 24.5 0 32.48-36.76 44.62-52.84 44.62-14.39 0-20.21-7.14-23.69-17.54" class="cls-35" transform="translate(-34.16 -187.7)"/><path d="M431.43 323.73c-.2-.1-.46-.13-.67-.24a2.34 2.34 0 0 1-.44-1.41c0-2.62 3.51-6.5 8-10.42 6.52-5.72 15.08-11.53 17.69-13.66-2.42-2.16-5-4.27-7.31-6.59a34.65 34.65 0 0 1-3.82-4.48c2.49-2.18 4.48-3.13 6.28-3.13 3.76 0 6.65 4.17 11.38 9.82C467.9 289.41 480.18 278 487 278c1.64 0 4.36 1 4.36 2.5 0 2.08-22.54 15.14-24.13 16 6.36 5.75 13.21 11.88 15.55 20.33-2.71 1.76-5.18 3.81-7.77 5.73a100 100 0 0 0-15.77-20c-4.83 4-22 20.27-27.81 21.23m-.01-.06" class="cls-35" transform="translate(-34.16 -187.7)"/><path d="M440.75 324.25a64 64 0 0 0 11.34 1.11 37.55 37.55 0 0 0 17.61-4.05m14.05-9.06a44.71 44.71 0 0 0 5.58-19.75M479 279.25h-1.82a42 42 0 0 0-19.38 4.48m-11.05 9.02c-4.47 5.05-8.3 10.43-10.15 17M604 588.5c-1.48 12.15-3.24 22.12-6 30.63a61.81 61.81 0 0 1-11.58 21.58l-1.09 1.29c-.41 2.21-.84 4.36-1.3 6.43-4.58 20.7-12.36 35.22-36 54.57-.73-9.8-1.06-18.65-.89-26.84a147.28 147.28 0 0 1 2.41-24.79 116.66 116.66 0 0 1 6.39-21.84q1-2.56 2.18-5.13a174.75 174.75 0 0 1 13.21-23.66l.7-1.07-4.33 2.66c.81-2.25 1.59-4.47 2.33-6.64 2.81-8.21 5.16-15.92 7.1-23.35 7.43-28.44 9-52.88 8.22-86.34l-.2-.18-.19-.17c-11-9.94-20.6-17.24-28.27-31-.15 7.12-.37 13.74-.79 20-.11 1.67-.23 3.31-.38 4.93a154.22 154.22 0 0 1-2.24 16.52c-.4 2.05-.85 4.07-1.37 6.06-.17.72-.36 1.44-.56 2.16-.1-.67-.21-1.33-.31-2q-.45-2.82-.91-5.51c-1.15-6.75-2.39-12.88-3.82-18.7-.08-.31-.15-.61-.23-.9a177.24 177.24 0 0 0-10.39-29.9 106.24 106.24 0 0 0-12 28.29c-.66 2.46-1.27 5-1.87 7.79l-.12.59 8.3 30.69-26-13.34a194.52 194.52 0 0 1-6.82-26.59 249.41 249.41 0 0 1-2.85-25.41l-.21.34-14.94 24.25-1 1.61-4.19 6.8c-.17-2.19-.36-4.32-.56-6.41-.12-1.28-.24-2.54-.37-3.77C472 460.69 471 451 474 443.67l-19.57 28.86a99.74 99.74 0 0 1 11.89-.91 39.35 39.35 0 0 1 6.75.53" class="cls-35" transform="translate(-34.16 -187.7)"/><path d="M479.18 473.92a21.83 21.83 0 0 1 2.68 1.37 24.23 24.23 0 0 1 6.69 6m45.78 2.38a61.2 61.2 0 0 1 10.17-5.8c.52-.22 1-.44 1.56-.64m9.82-2.57a52.29 52.29 0 0 1 7.24-.48c.94 0 1.9 0 2.89.06M483 491.33c2.92 4.6 5.77 9.43 7.39 14.67M503 548.67a22.68 22.68 0 0 0 6.87 4.79m16.6 82.54c7-3.32 15.62-2.48 22.5-7.76.3-.22.58-.45.87-.7m-30.59 14.96a16.58 16.58 0 0 1 7.21-6.47M470 628.51a34.53 34.53 0 0 1-10.95-6.45c-.61-.55-1.23-1.15-1.85-1.81m27.55 18.25c-4.38-6.23-9.39-7.84-14.73-10m-28.36 194.83c.46 1.21.92 2.41 1.39 3.61M427 785.85c5.44 12.19 9.91 25 14.69 37.47M404 702.39a119.11 119.11 0 0 0 1.83-23.2c0-2.66 0-5.33-.07-8v-2.34M280.08 507.09c-3.83-8-7.94-16.61-8.1-25.58m25.56-37.83c-1.49-9.24-5-18.26-8.69-26.92m14.48 47.57c-1.31-4.63-2.77-9.2-4.12-13.82m-53.14 4.71c-.46-6.47-2.45-12.9-2.45-19.31v-1c0-.37 0-.77.05-1.15m-77.29-95.57c1.94-11.5 7.62-22.72 16.62-30.07m-55.44 11.97c2.7-1.16 5.7-1 8.32-2.81M99 322.38c-4.59 3-10.06 5-11 10.64m318.59 204.16c.17.65.35 1.32.54 2q-.09 8.19.07 16a375.16 375.16 0 0 0 3.62 47c2.67 18.25 6.77 34 12.22 47.22 5.63 13.69 12.7 24.8 21.13 33.46 1.46-4.15 1.8-9.39 1.35-16.15-.41-6.22-1.5-13.73-3-22.85a21.58 21.58 0 0 0 1.48-4.56c1-4.41.82-9.65-.59-16.32-.5-2.38-1.15-4.94-2-7.71-.15-.53-.31-1.06-.48-1.6l3 3.33s-1.54-5.22-3.58-13.47c-1.58-6.34-3.45-14.49-5.15-23.41-3.93-20.56-6.94-45.27-3.27-61.79l-.11-1.55c-.38-4.93-1.73-20.46-4.45-29.43a90.27 90.27 0 0 0-6.83 12c.63-5 1.37-10 2.27-14.95 2.85-15.82 7.26-31.35 14.41-45.84m-23.09-13.14a220.08 220.08 0 0 1-23.72 44.77 221.69 221.69 0 0 1-20.9 25.64c13.16.46 21-.49 33.69-6.1l.14-.06c-.44 19.18-.94 31.72 3.25 47.5m-3.4-47.44c1.53-14.82 3.93-32.93 8.91-45.88m-1.44 98.43a38.89 38.89 0 0 1-4.06-5.09" class="cls-35" transform="translate(-34.16 -187.7)"/><path d="M410.67 509.67c-.12 6.53-.34 13.19-.34 19.85 0 4.67.11 8.89.32 12.75 1.75 30.76 10.68 38.81 30.83 73m-3.15 14.56a65.29 65.29 0 0 1 4.15 14m161-69.91c-9.34 10.42-20.05 19.88-32.18 26.82m30.7-71.91a196.1 196.1 0 0 1 1.59 25.43c0 1.82 0 3.65-.07 5.46m10.15-92.05c.5 6.6.63 13.2.63 19.79v6.29c0 4.75-.11 9.5-.11 14.26q0 3.8.07 7.59m-29.32-29.95a66.3 66.3 0 0 0-.65-8.2m-27.67-20.85c-.07-1.44-.15-2.89-.15-4.33V452m-34.68 31.41c-.75-2.64-1.46-5.34-2.08-8.07a84.77 84.77 0 0 1-2.35-18.55v-1.13m-23.24-5.97c-.17-2-.3-3.93-.3-5.88v-1.46" class="cls-35" transform="translate(-34.16 -187.7)"/><path fill="#583f43" stroke="#000" stroke-miterlimit="10" d="M520 399.88c-7-1.92-28.75-2.95-36.92-2.95a247.15 247.15 0 0 0-47.31 4.72" transform="translate(-34.16 -187.7)"/><path d="M377.33 655.67q-.12 3.68-.12 7.34c0 16.65 1 15.76 1 58.32v15c0 21.77.16 43.55 1.77 65.32m-76.65 12.02q2.07 6.78 3.76 13.59a257.42 257.42 0 0 1 7.7 60.07v2.22a253.3 253.3 0 0 1-1.64 28.8q-.74 6.64-1.85 13.29m-40.42-112.89a92.15 92.15 0 0 0-14-1.28 43.75 43.75 0 0 0-15.37 2.53m56.11-22.12C291.21 787.9 269.17 781 257 781c-1 0-2 0-3 .09m35.38 36.79a46.73 46.73 0 0 1 10-12.12m7.71 21.5c-4.25-1.57-8.53-2.87-12.86-4.21M328 780.91c.36 4.5.55 9 .55 13.42 0 20.65-4 40.84-13 59.83" class="cls-35" transform="translate(-34.16 -187.7)"/><path d="M314.79 887.33A143.79 143.79 0 0 0 284.67 863c-17.15-10.35-34.46-15.77-50.52-19.43M284.67 863c-26.47-1.56-40.12-.25-62.12 5.43m90.61 49.92c-37.89-22.29-74.63-37.35-100-25.08M301 957.14s-78.45-38.79-99.34-24.14m86.67 43.67c1.3-2.95-28.66-32.47-45.31-42.26m31.33 86.42c-11.22-17.16-67.65-60.8-79.22-57.07m73.87 68.55c-15.35-8.35-46.41-22.64-77.63-24m64.13 50.94a16.55 16.55 0 0 0-9.54 0m102.3-253.01c0 29-1 101.75-31.43 130.92M346.76 848c-9.24 12.71-15.77 19.18-28 23.69m73.06-5.53q-.68 3.36-1.41 6.6a218.27 218.27 0 0 1-11.3 36.24c-9.83 23.48-22.82 40-38 50.56M376.75 908c.46-18-3.82-63.5-19.25-92.45m54.41 124.05c-5 15.44-19.19 27.63-30 35a113.52 113.52 0 0 1-13.3 8" class="cls-35" transform="translate(-34.16 -187.7)"/><path d="M362.91 814.95l-24.14 50.68" class="cls-35"/><path d="M468.33 907c-9.65-6-16.32-9.52-20.33-17m163.33 150.33c.45 1.08 5.65 29.77-2.38 47.37" class="cls-35" transform="translate(-34.16 -187.7)"/><path d="M705.99 910.5l-14.15-10.49" class="cls-35"/><path d="M756 1132a45.19 45.19 0 0 1-9.33-10.67m12.33-499c11.15-8.06 17.58-15.77 25.78-24.43l1.55-1.63M676.65 576.3c-13 10.85-20.15 17.41-33.3 28.36m67.9-35.16s-7.92 2.21-10.4 4.42m-114.4 66.79c1.09-8.31 2.86-14.73 3.22-21.28M322 1282.5c7.51-15.22 11.3-21.46 18.26-25.24" class="cls-35" transform="translate(-34.16 -187.7)"/><path d="M267.18 1343.01l4.99 3.29" class="cls-35"/><path d="M229.33 1637.67c.38-15.67-12.66-27.39-12.66-40.67m-1.39 0c-4.28 11.35 1.39 36.68 1.39 36.68m-1.39-36.68c-6.59.23-9.53 6.32-13.4 13.69m-59.21-370.36c7.77-.78 13.21-3.7 22.05-2M164 1136c4.33 14.51 15.33 37.67 15.33 37.67m58.29-64.48c17.88 11.14 16.85 18.81-4.86 26.81m303.76 1.77c2.49 12.44 3.24 21.9 0 30.73" class="cls-35" transform="translate(-34.16 -187.7)"/><path d="M577.17 478.97l.06 1.05.94 16.61m-28.33 55.34l.45 1.69 10.55 39.64" class="cls-35"/><path d="M637 679.67c18.33 54.33 49 162.42 49 162.42m10.33 16.58c15.56 36.51 25.62 56.12 45.67 87m-66.33-85C691.67 917 705 996 717.33 1028.33m194.75-441.96c.87 23.45 3.83 36.17 9.92 54.3m47.93-115c-3.21 1.67-5 3.11-5 7.83 0 2.62.51 5.55.51 7.88 0 8.14-5 19.14-14.24 26.06m-17.06-31.57c-.5 5.64-1 11.8-1 18 0 18.13 4.55 25.8 9.44 30.46" class="cls-35" transform="translate(-34.16 -187.7)"/><path d="M203.27 263.33v.01m132.96 189.13l-.01-.01m99.64-11.65h-.01m56.46 7.52h-.01m-75.43-17.64h-.01" class="cls-35"/><path d="M762.86 585.48s-.05 0-.08.06" class="cls-35" transform="translate(-34.16 -187.7)"/><path d="M420.27 284.83l-4.43-22.84-19.75 32.98-2.81 4.68" class="cls-35"/></g></svg>